<svg width="380" height="280" viewBox="0 0 380 280" fill="none" xmlns="http://www.w3.org/2000/svg">
<g clip-path="url(#clip0)">
<path d="M88.5813 144.855L79.798 144.855L79.798 233.043L88.5813 233.043L88.5813 144.855Z" fill="white"/>
<path d="M84.1896 136.557L84.1896 241.333" stroke="white" stroke-miterlimit="10"/>
<path d="M20.4198 144.734L11.6365 144.734L11.6365 163.626L20.4198 163.626L20.4198 144.734Z" fill="white"/>
<path d="M16.0281 136.444L16.0281 171.915" stroke="white" stroke-miterlimit="10"/>
<path d="M111.302 166.198L102.518 166.198L102.518 211.076L111.302 211.076L111.302 166.198Z" fill="white"/>
<path d="M106.91 157.909L106.91 219.366" stroke="white" stroke-miterlimit="10"/>
<path d="M134.022 110.207L125.239 110.207L125.239 198.395L134.022 198.395L134.022 110.207Z" fill="white"/>
<path d="M129.622 101.909L129.622 206.685" stroke="white" stroke-miterlimit="10"/>
<path d="M293.048 144.855L284.265 144.855L284.265 233.043L293.048 233.043L293.048 144.855Z" fill="white"/>
<path d="M288.657 136.557L288.657 241.333" stroke="white" stroke-miterlimit="10"/>
<path d="M156.734 101.424L147.951 101.424L147.951 137.64L156.734 137.64L156.734 101.424Z" fill="white"/>
<path d="M152.342 93.1342L152.342 145.929" stroke="white" stroke-miterlimit="10"/>
<path d="M224.896 118.748L216.112 118.748L216.112 154.964L224.896 154.964L224.896 118.748Z" fill="white"/>
<path d="M220.504 110.458L220.504 163.253" stroke="white" stroke-miterlimit="10"/>
<path d="M247.616 107.487L238.833 107.487L238.833 161.027L247.616 161.027L247.616 107.487Z" fill="white"/>
<path d="M243.224 99.1975L243.224 169.317" stroke="white" stroke-miterlimit="10"/>
<path d="M270.337 124.811L261.553 124.811L261.553 178.351L270.337 178.351L270.337 124.811Z" fill="white"/>
<path d="M265.936 116.522L265.936 186.641" stroke="white" stroke-miterlimit="10"/>
<path d="M315.769 124.811L306.986 124.811L306.986 178.351L315.769 178.351L315.769 124.811Z" fill="white"/>
<path d="M311.377 116.522L311.377 186.641" stroke="white" stroke-miterlimit="10"/>
<path d="M338.489 141.208L329.706 141.208L329.706 167.974L338.489 167.974L338.489 141.208Z" fill="white"/>
<path d="M334.098 132.91L334.098 176.264" stroke="white" stroke-miterlimit="10"/>
<path d="M361.21 61.2318L352.427 61.2318L352.427 167.974L361.21 167.974L361.21 61.2318Z" fill="white"/>
<path d="M356.818 52.9423L356.818 176.264" stroke="white" stroke-miterlimit="10"/>
<path d="M383.93 51.106L375.147 51.106L375.147 79.6387L383.93 79.6387L383.93 51.106Z" fill="white"/>
<path d="M379.539 42.8164L379.539 87.9369" stroke="white" stroke-miterlimit="10"/>
<path d="M179.455 84.0996L170.671 84.0996L170.671 102.991L179.455 102.991L179.455 84.0996Z" fill="white"/>
<path d="M175.063 75.8101L175.063 111.281" stroke="white" stroke-miterlimit="10"/>
<path d="M43.1403 139.857L34.357 139.857L34.357 150.087L43.1403 150.087L43.1403 139.857Z" fill="white"/>
<path d="M38.7486 131.568L38.7486 158.376" stroke="white" stroke-miterlimit="10"/>
<path d="M202.175 96.547L193.392 96.547L193.392 106.777L202.175 106.777L202.175 96.547Z" fill="white"/>
<path d="M197.783 88.2574L197.783 115.066" stroke="white" stroke-miterlimit="10"/>
<path d="M65.8608 139.857L57.0775 139.857L57.0775 159.026L65.8608 159.026L65.8608 139.857Z" fill="white"/>
<path d="M61.4691 131.568L61.4691 167.324" stroke="white" stroke-miterlimit="10"/>
<path d="M20.1166 34.4229L20.8529 34.4229L20.8529 43.3101L19.8134 43.3101L19.8134 35.8261C19.684 35.9752 19.5163 36.086 19.3284 36.1466C19.1297 36.2251 18.9183 36.2662 18.7047 36.2679L18.7047 35.5143C19.0046 35.4727 19.2883 35.3532 19.5276 35.1678C19.785 34.9745 19.9879 34.7179 20.1166 34.4229Z" fill="white"/>
<path d="M22.0742 37.0042C22.0538 36.4979 22.1004 35.9911 22.2128 35.497C22.2782 35.2474 22.3899 35.0124 22.542 34.804C22.703 34.6365 22.8992 34.5069 23.1164 34.4245C23.3336 34.3421 23.5664 34.309 23.798 34.3276C24.0202 34.3075 24.2441 34.3366 24.4537 34.413C24.6633 34.4893 24.8535 34.611 25.0107 34.7694C25.2925 35.1641 25.4467 35.6357 25.4524 36.1206C25.4524 36.3718 25.4524 36.675 25.4524 37.0388L25.4524 40.6162C25.5466 41.4447 25.3671 42.2813 24.9414 42.9983C24.784 43.1509 24.5962 43.2683 24.3901 43.343C24.1841 43.4176 23.9645 43.4478 23.746 43.4314C23.5208 43.4494 23.2949 43.4077 23.0911 43.3103C22.8873 43.213 22.7128 43.0635 22.5853 42.877C22.3008 42.3149 22.1722 41.6867 22.2128 41.058L22.2128 40.7115L23.2003 40.7115L23.2003 40.8588C23.1499 41.3478 23.209 41.842 23.3735 42.3053C23.4345 42.3783 23.5117 42.4359 23.5989 42.4735C23.6862 42.5111 23.7811 42.5277 23.8759 42.5219C23.9685 42.5294 24.061 42.5064 24.1392 42.4563C24.2175 42.4063 24.2771 42.3319 24.309 42.2447C24.3986 41.8764 24.4336 41.497 24.413 41.1186L24.413 39.7587C24.1889 39.918 23.9164 39.9946 23.6421 39.9752C23.3853 40.005 23.1257 39.9553 22.898 39.833C22.6703 39.7106 22.4856 39.5214 22.3687 39.2909C22.1106 38.6388 21.9982 37.9382 22.0396 37.238L22.0742 37.0042ZM24.4476 36.8569C24.4669 36.4757 24.4319 36.0936 24.3437 35.7222C24.3087 35.5704 24.2305 35.432 24.1185 35.3237C24.0157 35.2567 23.8946 35.2233 23.772 35.2285C23.6485 35.2189 23.5256 35.2538 23.4255 35.3269C23.3255 35.4 23.2548 35.5063 23.2263 35.6269C23.1316 36.0327 23.0908 36.4491 23.105 36.8656L23.105 37.3766C23.0818 37.8453 23.1256 38.3149 23.2349 38.7712C23.279 38.8927 23.363 38.9957 23.4731 39.0633C23.5832 39.1309 23.713 39.1593 23.8413 39.1437C24.1618 39.1437 24.361 39.0484 24.4476 38.8578L24.4476 36.8569Z" fill="white"/>
<path d="M26.8297 36.5278C26.7724 35.9235 26.9089 35.3168 27.2195 34.7953C27.3837 34.6131 27.5883 34.4719 27.817 34.3832C28.0457 34.2944 28.292 34.2605 28.5361 34.2843C28.7778 34.2591 29.022 34.2924 29.2481 34.3813C29.4742 34.4703 29.6757 34.6123 29.8354 34.7953C30.1429 35.3178 30.2764 35.9245 30.2165 36.5278C30.2691 36.8972 30.2311 37.274 30.1059 37.6255C29.9807 37.9771 29.7719 38.293 29.4976 38.546C29.7594 38.7744 29.9465 39.0762 30.0346 39.4122C30.1687 39.8619 30.2358 40.3289 30.2339 40.7981L30.2339 41.1533C30.2746 41.7596 30.1296 42.3639 29.8181 42.8857C29.6618 43.0722 29.463 43.2184 29.2384 43.3119C29.0137 43.4053 28.7699 43.4434 28.5274 43.4227C28.2832 43.4444 28.0373 43.4077 27.8099 43.3159C27.5825 43.224 27.3802 43.0796 27.2195 42.8943C26.8934 42.3968 26.7356 41.8078 26.769 41.2139L26.769 40.6249C26.7764 40.2209 26.8466 39.8206 26.9769 39.4382C27.0591 39.0953 27.2544 38.7902 27.5313 38.572C27.2615 38.3107 27.0572 37.9893 26.9353 37.634C26.8134 37.2788 26.7772 36.8997 26.8297 36.5278ZM29.1944 40.7635C29.2128 40.3065 29.1542 39.8497 29.0212 39.4122C28.8999 39.1177 28.744 38.9618 28.5361 38.9618C28.3282 38.9618 28.155 39.1177 28.0164 39.4295C27.8559 39.8611 27.7852 40.3209 27.8085 40.7808L27.8085 41.1273C27.7889 41.5056 27.8388 41.8843 27.9557 42.2447C28.0007 42.3444 28.076 42.4274 28.1709 42.4818C28.2657 42.5362 28.3754 42.5594 28.4841 42.5479C28.5781 42.558 28.6732 42.5478 28.7629 42.5179C28.8526 42.488 28.9347 42.4391 29.0038 42.3746C29.1107 42.2126 29.1679 42.023 29.1684 41.8289C29.1684 41.5777 29.1684 41.3438 29.1684 41.1013L29.1944 40.7635ZM28.8739 38.1129C28.9973 37.9673 29.0782 37.7904 29.1078 37.6018C29.1724 37.2914 29.2015 36.9747 29.1944 36.6577C29.2126 36.3692 29.2126 36.0799 29.1944 35.7915C29.1827 35.6422 29.1384 35.4973 29.0645 35.367C29.0191 35.2867 28.9493 35.223 28.8653 35.1851C28.7625 35.1631 28.6562 35.1631 28.5534 35.1851C28.4317 35.1775 28.3107 35.2077 28.2069 35.2718C28.0164 35.4104 27.9211 35.8781 27.9211 36.6663C27.8525 37.1746 27.9595 37.691 28.2243 38.1302C28.3216 38.2108 28.4445 38.2538 28.5708 38.2515C28.685 38.2426 28.7924 38.1935 28.8739 38.1129Z" fill="white"/>
<path d="M32.3387 38.1909C32.4748 38.0368 32.6454 37.9173 32.8367 37.842C33.0279 37.7667 33.2343 37.7378 33.4388 37.7578C33.6647 37.7418 33.8904 37.7904 34.0897 37.8977C34.2891 38.005 34.4539 38.1668 34.5649 38.3641C34.8392 39.0241 34.9578 39.7385 34.9114 40.4517L34.9114 40.9887C34.9485 41.6228 34.8201 42.2556 34.5389 42.8251C34.3355 43.0509 34.0793 43.2227 33.7931 43.3251C33.507 43.4275 33.1999 43.4573 32.8994 43.4118C32.599 43.3663 32.3145 43.2469 32.0715 43.0644C31.8285 42.8819 31.6346 42.6419 31.5072 42.366C31.3517 41.8318 31.2815 41.2763 31.2993 40.7202L31.2993 36.9695C31.2401 36.2634 31.3812 35.5549 31.7064 34.9253C31.8614 34.7181 32.0671 34.5542 32.3038 34.4495C32.5404 34.3448 32.8001 34.3029 33.0577 34.3276C33.3007 34.2955 33.5478 34.3291 33.7733 34.4251C33.9988 34.5211 34.1944 34.6759 34.3397 34.8733C34.6068 35.4469 34.7259 36.0782 34.6861 36.7097L34.6861 37.0129L33.6813 37.0129L33.6813 36.8483C33.7292 36.3719 33.6761 35.8908 33.5254 35.4364C33.4629 35.3584 33.3817 35.2977 33.2892 35.2598C33.1968 35.2219 33.0963 35.2081 32.997 35.2198C32.8835 35.214 32.7712 35.2456 32.6773 35.3098C32.5834 35.3739 32.5132 35.4671 32.4773 35.575C32.3569 36.0206 32.3101 36.4829 32.3387 36.9436L32.3387 38.1909ZM33.8806 40.4344C33.9038 39.9618 33.8541 39.4885 33.7333 39.0311C33.6961 38.9117 33.6191 38.8087 33.515 38.7393C33.4109 38.6699 33.2862 38.6384 33.1616 38.65C32.9781 38.6449 32.7962 38.6867 32.6332 38.7712C32.5179 38.8122 32.416 38.8841 32.3387 38.9791L32.3387 40.8588C32.3132 41.287 32.3691 41.7161 32.5033 42.1235C32.5558 42.2444 32.6453 42.3456 32.7589 42.4125C32.8725 42.4795 33.0044 42.5086 33.1356 42.4959C33.2951 42.5067 33.4536 42.464 33.5861 42.3746C33.7853 42.2187 33.8806 41.7856 33.8806 41.0667L33.8806 40.4344Z" fill="white"/>
<path d="M36.8517 38.1909C36.9877 38.0368 37.1583 37.9173 37.3496 37.842C37.5408 37.7667 37.7472 37.7378 37.9517 37.7578C38.1766 37.7403 38.4018 37.7883 38.6 37.8958C38.7983 38.0034 38.9612 38.1661 39.0691 38.3641C39.3478 39.0229 39.4665 39.7382 39.4156 40.4517L39.4156 40.9887C39.455 41.622 39.3297 42.2547 39.0518 42.8251C38.8484 43.0509 38.5922 43.2227 38.306 43.3251C38.0199 43.4275 37.7128 43.4573 37.4123 43.4118C37.1119 43.3663 36.8274 43.2469 36.5844 43.0644C36.3414 42.8819 36.1475 42.6419 36.0201 42.366C35.8607 41.8295 35.7877 41.271 35.8035 40.7115L35.8035 36.9695C35.7443 36.2634 35.8854 35.5549 36.2107 34.9253C36.3656 34.7181 36.5714 34.5542 36.808 34.4495C37.0447 34.3448 37.3043 34.3029 37.5619 34.3276C37.8049 34.2955 38.0521 34.3291 38.2776 34.4251C38.5031 34.5211 38.6987 34.6759 38.8439 34.8733C39.1111 35.4469 39.2302 36.0782 39.1904 36.7097L39.1904 37.0129L38.1856 37.0129L38.1856 36.8483C38.2335 36.3719 38.1804 35.8908 38.0297 35.4364C37.9667 35.3591 37.8853 35.2987 37.793 35.2609C37.7007 35.2231 37.6005 35.209 37.5013 35.2198C37.3878 35.214 37.2754 35.2456 37.1816 35.3098C37.0877 35.3739 37.0174 35.4671 36.9816 35.575C36.8611 36.0206 36.8143 36.4829 36.843 36.9436L36.8517 38.1909ZM38.4022 40.4344C38.4254 39.9618 38.3757 39.4885 38.2549 39.0311C38.2177 38.9117 38.1406 38.8087 38.0366 38.7393C37.9325 38.6699 37.8077 38.6384 37.6832 38.65C37.4995 38.6438 37.3174 38.6856 37.1548 38.7712C37.0337 38.8193 36.9307 38.9042 36.8603 39.0138L36.8603 40.8934C36.8348 41.3216 36.8907 41.7507 37.0249 42.1581C37.0769 42.2775 37.165 42.3777 37.2769 42.4445C37.3887 42.5113 37.5187 42.5414 37.6486 42.5306C37.8107 42.5413 37.9719 42.4987 38.1076 42.4093C38.3069 42.2534 38.4022 41.8203 38.4022 41.1013L38.4022 40.4344Z" fill="white"/>
<path d="M10.0773 35.7828L12.0263 39.161L13.9752 42.5392L10.0773 42.5392L6.17076 42.5392L8.12838 39.161L10.0773 35.7828Z" fill="white"/>
<path d="M197.783 256.673C198.398 256.95 198.71 257.695 198.71 258.908C198.755 259.577 198.605 260.245 198.277 260.831C198.123 261.045 197.916 261.216 197.676 261.327C197.436 261.438 197.172 261.485 196.909 261.463C196.655 261.489 196.399 261.446 196.168 261.339C195.936 261.233 195.737 261.066 195.592 260.857C195.293 260.272 195.161 259.615 195.211 258.96L195.211 258.57L196.216 258.57L196.216 258.995C196.191 259.423 196.235 259.853 196.346 260.268C196.392 260.378 196.473 260.469 196.576 260.529C196.679 260.588 196.799 260.612 196.917 260.597C197.043 260.606 197.169 260.575 197.277 260.508C197.384 260.441 197.468 260.342 197.515 260.225C197.644 259.786 197.697 259.329 197.671 258.873C197.701 258.41 197.63 257.946 197.463 257.513C197.39 257.383 197.281 257.277 197.148 257.208C197.016 257.139 196.867 257.109 196.718 257.124L196.424 257.124L196.424 256.257L196.701 256.257C196.899 256.268 197.096 256.226 197.272 256.136C197.532 255.969 197.662 255.492 197.662 254.707C197.7 254.309 197.631 253.909 197.463 253.546C197.404 253.456 197.323 253.383 197.227 253.335C197.131 253.286 197.024 253.264 196.917 253.269C196.812 253.265 196.708 253.292 196.618 253.348C196.529 253.404 196.458 253.485 196.415 253.581C196.282 253.947 196.226 254.336 196.25 254.724L196.25 254.932L195.228 254.932L195.228 254.664C195.191 254.061 195.326 253.46 195.618 252.931C195.771 252.735 195.971 252.581 196.2 252.482C196.428 252.384 196.678 252.345 196.926 252.368C197.179 252.346 197.434 252.388 197.667 252.489C197.9 252.59 198.103 252.748 198.26 252.948C198.578 253.468 198.726 254.073 198.684 254.681C198.702 255.79 198.407 256.448 197.783 256.673Z" fill="white"/>
<path d="M200.824 256.223C200.959 256.068 201.129 255.947 201.321 255.872C201.512 255.796 201.719 255.768 201.924 255.79C202.15 255.774 202.375 255.822 202.575 255.93C202.774 256.037 202.939 256.199 203.05 256.396C203.324 257.056 203.443 257.77 203.396 258.484L203.396 258.995C203.434 259.629 203.305 260.261 203.024 260.831C202.821 261.057 202.564 261.229 202.278 261.331C201.992 261.433 201.685 261.463 201.384 261.418C201.084 261.372 200.8 261.253 200.557 261.07C200.314 260.888 200.12 260.648 199.992 260.372C199.837 259.838 199.767 259.282 199.784 258.726L199.784 254.975C199.725 254.269 199.866 253.561 200.191 252.931C200.346 252.724 200.552 252.56 200.789 252.455C201.026 252.351 201.285 252.309 201.543 252.333C201.786 252.301 202.033 252.335 202.258 252.431C202.484 252.527 202.679 252.682 202.825 252.879C203.092 253.453 203.211 254.084 203.171 254.716L203.171 255.019L202.166 255.019L202.166 254.854C202.214 254.378 202.161 253.897 202.011 253.442C201.948 253.364 201.867 253.304 201.774 253.266C201.682 253.228 201.581 253.214 201.482 253.226C201.37 253.221 201.259 253.252 201.166 253.314C201.072 253.376 201.001 253.467 200.962 253.572C200.843 254.021 200.796 254.486 200.824 254.949L200.824 256.223ZM202.366 258.466C202.389 257.994 202.339 257.52 202.218 257.063C202.181 256.943 202.105 256.839 202.001 256.768C201.897 256.697 201.772 256.664 201.647 256.673C201.462 256.671 201.281 256.716 201.118 256.803C200.999 256.854 200.896 256.938 200.824 257.046L200.824 258.925C200.798 259.353 200.854 259.783 200.988 260.19C201.041 260.311 201.13 260.412 201.244 260.479C201.358 260.546 201.489 260.575 201.621 260.562C201.78 260.572 201.938 260.529 202.071 260.441C202.27 260.285 202.366 259.852 202.366 259.133L202.366 258.466Z" fill="white"/>
<path d="M205.337 256.223C205.472 256.068 205.642 255.947 205.834 255.872C206.025 255.796 206.232 255.768 206.437 255.79C206.662 255.772 206.887 255.82 207.085 255.928C207.283 256.035 207.446 256.198 207.554 256.396C207.833 257.055 207.952 257.77 207.901 258.484L207.901 258.995C207.94 259.628 207.815 260.26 207.537 260.831C207.334 261.057 207.077 261.229 206.791 261.331C206.505 261.433 206.198 261.463 205.897 261.418C205.597 261.372 205.312 261.253 205.069 261.07C204.826 260.888 204.633 260.648 204.505 260.372C204.35 259.838 204.28 259.282 204.297 258.726L204.297 254.975C204.241 254.268 204.385 253.56 204.713 252.931C204.868 252.724 205.074 252.56 205.31 252.455C205.547 252.351 205.807 252.309 206.064 252.333C206.307 252.313 206.55 252.358 206.769 252.463C206.988 252.568 207.176 252.73 207.312 252.931C207.579 253.505 207.698 254.136 207.658 254.767L207.658 255.071L206.653 255.071L206.653 254.906C206.701 254.43 206.648 253.949 206.497 253.494C206.434 253.417 206.353 253.357 206.261 253.319C206.168 253.281 206.068 253.267 205.969 253.278C205.857 253.273 205.746 253.304 205.653 253.366C205.559 253.428 205.488 253.519 205.449 253.624C205.33 254.073 205.283 254.538 205.311 255.001L205.337 256.223ZM206.879 258.466C206.902 257.994 206.852 257.52 206.731 257.063C206.694 256.943 206.618 256.839 206.514 256.768C206.41 256.697 206.285 256.664 206.16 256.673C205.975 256.67 205.793 256.715 205.631 256.803C205.51 256.851 205.407 256.936 205.337 257.046L205.337 258.925C205.311 259.353 205.367 259.783 205.501 260.19C205.553 260.309 205.641 260.41 205.753 260.476C205.865 260.543 205.995 260.573 206.125 260.562C206.287 260.573 206.448 260.531 206.584 260.441C206.783 260.285 206.879 259.852 206.879 259.133L206.879 258.466Z" fill="white"/>
<path d="M185.743 261.281L183.794 257.903L181.845 254.525L185.743 254.525L189.65 254.525L187.701 257.903L185.743 261.281Z" fill="white"/>
<path d="M356.065 12.378C356.065 10.9921 356.212 10.1345 356.498 9.77939C356.599 9.66918 356.713 9.57042 356.836 9.48488C357.119 9.33058 357.44 9.25858 357.762 9.27699C358.733 9.27699 359.218 10.0999 359.218 11.737C359.212 12.5828 358.995 13.4137 358.585 14.1537C358.403 14.5002 358.213 14.838 358.031 15.1672C357.605 15.886 357.312 16.6751 357.165 17.4973L359.114 17.4973L359.114 18.2768L356.125 18.2768L356.125 17.7831C356.259 16.7415 356.614 15.7405 357.165 14.8467L357.494 14.2143C357.71 13.7986 357.84 13.556 357.884 13.4954C358.014 13.2363 358.105 12.9588 358.152 12.6725C358.222 12.3275 358.257 11.9764 358.256 11.6244C358.262 11.3337 358.236 11.0432 358.178 10.7582C358.153 10.5961 358.091 10.4421 357.996 10.3078C357.923 10.2401 357.827 10.2029 357.728 10.2038C357.64 10.1991 357.553 10.2201 357.477 10.2645C357.234 10.4146 357.113 10.917 357.113 11.7717L357.113 12.9237L356.091 12.9237L356.065 12.378Z" fill="white"/>
<path d="M360.266 11.6591C360.234 11.0588 360.363 10.461 360.638 9.92667C361.015 9.55006 361.526 9.3385 362.059 9.3385C362.592 9.3385 363.103 9.55006 363.479 9.92667C363.764 10.4579 363.896 11.0575 363.86 11.6591L363.86 15.9121C363.897 16.5564 363.772 17.1995 363.497 17.7831C363.338 18.0107 363.12 18.1906 362.867 18.3036C362.613 18.4165 362.334 18.4582 362.059 18.4241C361.785 18.4585 361.506 18.4169 361.254 18.3039C361.002 18.1908 360.786 18.0107 360.63 17.7831C360.353 17.1999 360.228 16.5564 360.266 15.9121L360.266 11.6591ZM362.821 11.5984C362.821 10.7322 362.631 10.2732 362.267 10.2125L362.015 10.2125C361.909 10.2116 361.802 10.2322 361.704 10.2732C361.573 10.3578 361.477 10.4871 361.435 10.637C361.334 10.9529 361.293 11.2848 361.314 11.6158L361.314 15.9901C361.314 16.7957 361.409 17.2721 361.608 17.428C361.711 17.5111 361.84 17.5542 361.972 17.5493C362.076 17.5608 362.18 17.5608 362.284 17.5493C362.361 17.5327 362.432 17.4969 362.492 17.4453C362.708 17.2807 362.821 16.7957 362.821 16.0074L362.821 11.5984Z" fill="white"/>
<path d="M364.961 11.5206C364.904 10.9164 365.04 10.3098 365.35 9.78815C365.515 9.6059 365.719 9.46473 365.948 9.37597C366.177 9.28721 366.423 9.25334 366.667 9.27709C366.909 9.2519 367.153 9.28518 367.379 9.37412C367.605 9.46306 367.806 9.60506 367.966 9.78815C368.276 10.3098 368.413 10.9164 368.356 11.5206C368.407 11.8894 368.367 12.2651 368.24 12.6152C368.114 12.9653 367.904 13.2793 367.628 13.5301C367.89 13.7585 368.077 14.0603 368.166 14.3963C368.304 14.8451 368.371 15.3127 368.365 15.7823L368.365 16.1374C368.41 16.7441 368.265 17.3498 367.949 17.8698C367.793 18.0563 367.594 18.2025 367.369 18.296C367.145 18.3895 366.901 18.4275 366.658 18.4069C366.414 18.4285 366.168 18.3919 365.941 18.3C365.713 18.2082 365.511 18.0637 365.35 17.8785C365.024 17.3809 364.866 16.792 364.9 16.198L364.9 15.5917C364.907 15.1878 364.977 14.7874 365.108 14.405C365.192 14.061 365.391 13.7556 365.671 13.5388C365.402 13.2823 365.197 12.9657 365.073 12.615C364.95 12.2642 364.911 11.8891 364.961 11.5206ZM367.325 15.7476C367.344 15.2907 367.285 14.8339 367.152 14.3963C367.031 14.1018 366.875 13.9459 366.667 13.9459C366.459 13.9459 366.286 14.1018 366.147 14.4137C365.99 14.8461 365.923 15.3057 365.948 15.7649L365.948 16.1114C365.924 16.4899 365.974 16.8695 366.095 17.2288C366.138 17.3287 366.211 17.4122 366.305 17.4668C366.398 17.5215 366.507 17.5443 366.615 17.532C366.709 17.5421 366.804 17.5319 366.894 17.502C366.983 17.4721 367.066 17.4233 367.135 17.3588C367.242 17.1968 367.299 17.0071 367.299 16.813C367.299 16.5619 367.299 16.328 367.299 16.0854L367.325 15.7476ZM366.987 13.097C367.111 12.9514 367.192 12.7746 367.221 12.586C367.286 12.2756 367.315 11.9588 367.308 11.6418C367.326 11.3534 367.326 11.0641 367.308 10.7756C367.296 10.6263 367.252 10.4814 367.178 10.3512C367.133 10.2709 367.063 10.2072 366.979 10.1693C366.876 10.1473 366.77 10.1473 366.667 10.1693C366.545 10.1627 366.425 10.1929 366.32 10.2559C366.139 10.3945 366.043 10.8622 366.043 11.6505C366.043 12.4387 366.139 12.9238 366.346 13.1144C366.441 13.1933 366.561 13.2365 366.684 13.2365C366.808 13.2365 366.927 13.1933 367.022 13.1144L366.987 13.097Z" fill="white"/>
<path d="M369.404 11.6591C369.373 11.0588 369.501 10.461 369.777 9.92667C370.153 9.55006 370.664 9.3385 371.197 9.3385C371.73 9.3385 372.241 9.55006 372.618 9.92667C372.902 10.4579 373.034 11.0575 372.999 11.6591L372.999 15.9121C373.035 16.5564 372.91 17.1995 372.635 17.7831C372.477 18.0114 372.259 18.1919 372.006 18.3049C371.752 18.418 371.473 18.4592 371.197 18.4241C370.923 18.4585 370.645 18.4169 370.393 18.3039C370.141 18.1908 369.925 18.0107 369.768 17.7831C369.492 17.1999 369.366 16.5564 369.404 15.9121L369.404 11.6591ZM372.003 11.5984C372.003 10.7322 371.821 10.2732 371.448 10.2125L371.206 10.2125C371.099 10.2101 370.992 10.2308 370.894 10.2732C370.76 10.3562 370.661 10.4857 370.617 10.637C370.516 10.9529 370.475 11.2848 370.496 11.6158L370.496 15.9901C370.496 16.7957 370.591 17.2721 370.79 17.428C370.895 17.5124 371.028 17.5555 371.163 17.5493C371.263 17.5605 371.365 17.5605 371.466 17.5493C371.543 17.5327 371.614 17.4969 371.674 17.4453C371.89 17.2807 372.003 16.7957 372.003 16.0074L372.003 11.5984Z" fill="white"/>
<path d="M373.865 11.9883C373.845 11.482 373.892 10.9753 374.004 10.4811C374.073 10.2329 374.184 9.99852 374.333 9.78814C374.494 9.62064 374.69 9.491 374.907 9.40861C375.124 9.32622 375.357 9.29313 375.589 9.31173C375.811 9.29159 376.035 9.32074 376.245 9.3971C376.454 9.47347 376.644 9.59516 376.802 9.7535C377.083 10.1482 377.238 10.6198 377.243 11.1048C377.243 11.356 377.243 11.6591 377.243 12.0229L377.243 15.5917C377.338 16.4202 377.158 17.2568 376.732 17.9738C376.575 18.1268 376.387 18.2446 376.181 18.3193C375.975 18.3939 375.755 18.4238 375.537 18.4069C375.312 18.4249 375.086 18.3831 374.882 18.2858C374.678 18.1884 374.504 18.039 374.376 17.8525C374.092 17.2903 373.963 16.6622 374.004 16.0335L374.004 15.713L374.991 15.713L374.991 15.8602C374.941 16.3493 375 16.8435 375.164 17.3068C375.225 17.3797 375.303 17.4373 375.39 17.4749C375.477 17.5126 375.572 17.5291 375.667 17.5233C375.759 17.5309 375.852 17.5079 375.93 17.4578C376.008 17.4077 376.068 17.3334 376.1 17.2461C376.189 16.8779 376.224 16.4985 376.204 16.1201L376.204 14.7255C375.98 14.8848 375.707 14.9614 375.433 14.942C375.176 14.9718 374.917 14.9221 374.689 14.7998C374.461 14.6774 374.277 14.4883 374.16 14.2577C373.901 13.6057 373.789 12.905 373.83 12.2048L373.865 11.9883ZM376.239 11.841C376.255 11.4603 376.223 11.079 376.143 10.7063C376.103 10.5548 376.022 10.4171 375.909 10.3079C375.809 10.242 375.691 10.2087 375.572 10.2126C375.448 10.2012 375.324 10.2354 375.223 10.3088C375.123 10.3821 375.053 10.4896 375.026 10.611C374.923 11.0155 374.879 11.4327 374.896 11.8497L374.896 12.3608C374.873 12.8294 374.916 13.299 375.026 13.7554C375.07 13.8768 375.154 13.9798 375.264 14.0474C375.374 14.1151 375.504 14.1434 375.632 14.1278C375.953 14.1278 376.152 14.0325 376.239 13.842L376.239 11.841Z" fill="white"/>
<path d="M349.854 10.7063L351.803 14.0845L353.752 17.4627L349.854 17.4627L345.956 17.4627L347.905 14.0845L349.854 10.7063Z" fill="white"/>
<path opacity="0.25" fill-rule="evenodd" clip-rule="evenodd" d="M300.685 94.8442C300.463 95.2077 300.242 95.5679 300.023 95.9248C290.309 111.768 281.942 128.342 273.775 145.045C272.279 148.107 270.789 151.173 269.298 154.239C262.66 167.899 256.015 181.572 248.748 194.91L248.309 194.67L248.748 194.91C238.334 214.011 226.985 224.018 215.341 227.443C203.69 230.871 191.87 227.671 180.602 220.644C158.092 206.607 137.533 177.142 124.318 153.615L124.318 153.615C123.567 152.276 122.815 150.933 122.062 149.587C104.009 117.324 85.0137 83.3775 48.6818 69.7644L48.8572 69.2962L48.6817 69.7644C18.4064 58.4128 -8.78238 70.7685 -31.0807 91.8946C-53.3821 113.024 -70.6996 142.851 -81.1452 166.177L-82.0579 165.769C-71.5848 142.381 -54.2021 112.423 -31.7685 91.1687C-9.33179 69.9115 18.2494 57.286 49.0328 68.8281C85.717 82.5732 104.879 116.825 122.88 149.001C123.652 150.38 124.421 151.755 125.19 153.125C138.394 176.633 158.85 205.901 181.131 219.796C192.259 226.735 203.779 229.802 215.059 226.484C226.347 223.163 237.521 213.412 247.87 194.431C255.125 181.116 261.757 167.469 268.395 153.811C269.886 150.742 271.378 147.673 272.877 144.606C281.045 127.899 289.43 111.288 299.171 95.4021C299.395 95.037 299.621 94.6681 299.849 94.2958C307.462 81.8714 317.456 65.5624 329.712 52.5187C342.329 39.091 357.433 29.0263 374.898 30.3296C397.681 32.0251 412.14 48.7588 424.146 68.2807C428.012 74.5665 431.642 81.1723 435.215 87.6766C437.19 91.2707 439.147 94.8338 441.118 98.2948C446.669 108.042 452.34 117.004 458.861 123.736C475.456 140.866 499.346 152.606 522.776 148.598C540.871 145.499 556.483 133.411 567.652 118.722L568.449 119.328C557.183 134.142 541.369 146.428 522.945 149.584C499.081 153.666 474.879 141.707 458.143 124.431L458.502 124.084L458.143 124.431C451.528 117.603 445.806 108.547 440.249 98.7897C438.262 95.3 436.297 91.7238 434.32 88.1244C430.755 81.6363 427.15 75.0727 423.295 68.8046C411.309 49.317 397.084 32.9834 374.824 31.3268L374.861 30.8282L374.824 31.3268C357.814 30.0575 342.987 39.8505 330.441 53.2035C318.257 66.1708 308.309 82.4038 300.685 94.8442Z" fill="white"/>
<path d="M200.382 229.171C200.382 228.306 200.639 227.46 201.119 226.741C201.6 226.022 202.283 225.461 203.082 225.13C203.882 224.799 204.761 224.712 205.61 224.881C206.458 225.05 207.238 225.466 207.85 226.078C208.461 226.69 208.878 227.469 209.047 228.318C209.215 229.166 209.129 230.046 208.798 230.845C208.467 231.644 207.906 232.328 207.187 232.808C206.467 233.289 205.622 233.546 204.756 233.546C203.597 233.543 202.486 233.082 201.666 232.262C200.846 231.442 200.384 230.331 200.382 229.171Z" fill="white"/>
<path opacity="0.2" d="M204.765 236.785C208.97 236.785 212.379 233.376 212.379 229.171C212.379 224.966 208.97 221.557 204.765 221.557C200.56 221.557 197.151 224.966 197.151 229.171C197.151 233.376 200.56 236.785 204.765 236.785Z" fill="white"/>
<path d="M359.703 31.9196C359.694 31.0526 359.943 30.2027 360.419 29.4777C360.894 28.7526 361.574 28.1852 362.373 27.8475C363.171 27.5098 364.052 27.4169 364.904 27.5808C365.755 27.7447 366.538 28.1578 367.155 28.7678C367.771 29.3778 368.192 30.1571 368.364 31.0068C368.536 31.8565 368.452 32.7383 368.122 33.5401C367.793 34.3419 367.232 35.0277 366.512 35.5103C365.791 35.9929 364.944 36.2506 364.077 36.2506C363.505 36.2563 362.937 36.1485 362.406 35.9334C361.876 35.7183 361.393 35.4002 360.987 34.9975C360.58 34.5947 360.257 34.1154 360.036 33.5871C359.816 33.0588 359.703 32.492 359.703 31.9196Z" fill="white"/>
<path opacity="0.2" d="M356.463 31.9196C356.463 30.4144 356.909 28.943 357.745 27.6913C358.581 26.4396 359.769 25.4637 361.159 24.8869C362.55 24.3101 364.08 24.1583 365.556 24.4507C367.033 24.7431 368.389 25.4665 369.455 26.5296C370.52 27.5927 371.247 28.9478 371.542 30.4236C371.838 31.8994 371.69 33.4297 371.116 34.8213C370.543 36.2129 369.569 37.4032 368.32 38.2419C367.07 39.0806 365.599 39.5301 364.094 39.5335C363.093 39.5346 362.102 39.3386 361.177 38.9566C360.251 38.5746 359.41 38.014 358.702 37.307C357.993 36.6 357.431 35.7603 357.047 34.8359C356.663 33.9116 356.464 32.9206 356.463 31.9196Z" fill="white"/>
<path d="M19.8741 65.1557C19.8741 64.2991 20.1281 63.4618 20.604 62.7495C21.0799 62.0373 21.7563 61.4822 22.5477 61.1544C23.3391 60.8266 24.2099 60.7408 25.05 60.9079C25.8902 61.075 26.6619 61.4875 27.2676 62.0932C27.8733 62.6989 28.2858 63.4706 28.4529 64.3108C28.62 65.1509 28.5342 66.0217 28.2064 66.8131C27.8786 67.6045 27.3235 68.2809 26.6113 68.7568C25.899 69.2327 25.0617 69.4867 24.2051 69.4867C23.0606 69.4732 21.9668 69.0126 21.1575 68.2033C20.3482 67.394 19.8876 66.3002 19.8741 65.1557Z" fill="white"/>
<path opacity="0.2" d="M16.6431 65.1558C16.6414 63.6492 17.0867 62.1759 17.9227 60.9225C18.7587 59.669 19.9477 58.6918 21.3393 58.1144C22.7309 57.5371 24.2626 57.3856 25.7403 57.6791C27.2181 57.9726 28.5756 58.6979 29.6409 59.7633C30.7063 60.8286 31.4316 62.1861 31.7251 63.6638C32.0186 65.1416 31.8671 66.6732 31.2897 68.0648C30.7124 69.4565 29.7352 70.6455 28.4817 71.4815C27.2283 72.3174 25.755 72.7628 24.2484 72.761C22.2314 72.761 20.2969 71.9598 18.8707 70.5335C17.4444 69.1073 16.6431 67.1728 16.6431 65.1558Z" fill="white"/>
</g>
<defs>
<clipPath id="clip0">
<rect width="380" height="280" fill="white"/>
</clipPath>
</defs>
</svg>
