<svg width="380" height="280" viewBox="0 0 380 280" fill="none" xmlns="http://www.w3.org/2000/svg">
<rect width="380" height="280" transform="matrix(-1 0 0 1 380 0)" fill="#181818"/>
<circle opacity="0.25" cx="190" cy="140" r="59.75" stroke="white" stroke-width="0.5"/>
<path d="M165.56 131.1C163.96 131.1 163.16 131.88 163.16 133.44V136.5C163.16 138.1 163.96 138.9 165.56 138.9H172.16V141.6H165.56C162.16 141.6 160.46 139.9 160.46 136.5V133.44C160.46 130.08 162.16 128.4 165.56 128.4H171.56C174.96 128.4 176.66 130.1 176.66 133.5V148.5C176.66 151.9 174.96 153.6 171.56 153.6H161.96V150.9H171.56C173.16 150.9 173.96 150.1 173.96 148.5V133.5C173.96 131.9 173.16 131.1 171.56 131.1H165.56ZM179.649 153.6V150.9H189.249C190.849 150.9 191.649 150.1 191.649 148.5V144C191.649 143.24 191.459 142.65 191.079 142.23C190.699 141.81 190.129 141.6 189.369 141.6H179.649V138.9H189.429C190.909 138.8 191.649 138 191.649 136.5V133.5C191.649 131.9 190.849 131.1 189.249 131.1H179.649V128.4H189.249C192.649 128.4 194.349 130.1 194.349 133.5V136.5C194.349 138.1 193.919 139.35 193.059 140.25C193.919 141.15 194.349 142.4 194.349 144V148.5C194.349 151.9 192.649 153.6 189.249 153.6H179.649ZM214.445 150.9C216.045 150.9 216.845 150.12 216.845 148.56C216.845 146.92 216.045 146.1 214.445 146.1C212.845 146.1 212.045 146.9 212.045 148.5C212.045 150.1 212.845 150.9 214.445 150.9ZM202.445 135.9C204.045 135.9 204.845 135.12 204.845 133.56C204.845 131.92 204.045 131.1 202.445 131.1C200.845 131.1 200.045 131.9 200.045 133.5C200.045 135.1 200.845 135.9 202.445 135.9ZM202.955 153.6H199.895L213.905 128.4H216.995L202.955 153.6ZM197.345 133.5C197.345 130.1 199.045 128.4 202.445 128.4C205.845 128.4 207.545 130.1 207.545 133.5C207.545 136.9 205.845 138.6 202.445 138.6C199.045 138.6 197.345 136.9 197.345 133.5ZM209.345 148.5C209.345 145.1 211.045 143.4 214.445 143.4C217.845 143.4 219.545 145.1 219.545 148.5C219.545 151.9 217.845 153.6 214.445 153.6C211.045 153.6 209.345 151.9 209.345 148.5Z" fill="white"/>
<path d="M172.16 138.9H172.66V138.4H172.16V138.9ZM172.16 141.6V142.1H172.66V141.6H172.16ZM161.96 153.6H161.46V154.1H161.96V153.6ZM161.96 150.9V150.4H161.46V150.9H161.96ZM165.56 130.6C164.686 130.6 163.938 130.813 163.411 131.327C162.881 131.843 162.66 132.58 162.66 133.44H163.66C163.66 132.74 163.839 132.307 164.109 132.043C164.382 131.777 164.834 131.6 165.56 131.6V130.6ZM162.66 133.44V136.5H163.66V133.44H162.66ZM162.66 136.5C162.66 137.377 162.88 138.127 163.406 138.654C163.933 139.18 164.683 139.4 165.56 139.4V138.4C164.837 138.4 164.387 138.22 164.114 137.946C163.84 137.673 163.66 137.223 163.66 136.5H162.66ZM165.56 139.4H172.16V138.4H165.56V139.4ZM171.66 138.9V141.6H172.66V138.9H171.66ZM172.16 141.1H165.56V142.1H172.16V141.1ZM165.56 141.1C163.937 141.1 162.812 140.695 162.089 139.971C161.365 139.248 160.96 138.123 160.96 136.5H159.96C159.96 138.277 160.405 139.702 161.381 140.679C162.358 141.655 163.783 142.1 165.56 142.1V141.1ZM160.96 136.5V133.44H159.96V136.5H160.96ZM160.96 133.44C160.96 131.839 161.365 130.729 162.086 130.016C162.809 129.301 163.936 128.9 165.56 128.9V127.9C163.784 127.9 162.361 128.339 161.384 129.304C160.405 130.271 159.96 131.681 159.96 133.44H160.96ZM165.56 128.9H171.56V127.9H165.56V128.9ZM171.56 128.9C173.183 128.9 174.308 129.305 175.031 130.029C175.755 130.752 176.16 131.877 176.16 133.5H177.16C177.16 131.723 176.715 130.298 175.739 129.321C174.762 128.345 173.337 127.9 171.56 127.9V128.9ZM176.16 133.5V148.5H177.16V133.5H176.16ZM176.16 148.5C176.16 150.123 175.755 151.248 175.031 151.971C174.308 152.695 173.183 153.1 171.56 153.1V154.1C173.337 154.1 174.762 153.655 175.739 152.679C176.715 151.702 177.16 150.277 177.16 148.5H176.16ZM171.56 153.1H161.96V154.1H171.56V153.1ZM162.46 153.6V150.9H161.46V153.6H162.46ZM161.96 151.4H171.56V150.4H161.96V151.4ZM171.56 151.4C172.437 151.4 173.187 151.18 173.714 150.654C174.24 150.127 174.46 149.377 174.46 148.5H173.46C173.46 149.223 173.28 149.673 173.006 149.946C172.733 150.22 172.283 150.4 171.56 150.4V151.4ZM174.46 148.5V133.5H173.46V148.5H174.46ZM174.46 133.5C174.46 132.623 174.24 131.873 173.714 131.346C173.187 130.82 172.437 130.6 171.56 130.6V131.6C172.283 131.6 172.733 131.78 173.006 132.054C173.28 132.327 173.46 132.777 173.46 133.5H174.46ZM171.56 130.6H165.56V131.6H171.56V130.6ZM179.649 153.6H179.149V154.1H179.649V153.6ZM179.649 150.9V150.4H179.149V150.9H179.649ZM179.649 141.6H179.149V142.1H179.649V141.6ZM179.649 138.9V138.4H179.149V138.9H179.649ZM189.429 138.9V139.4H189.446L189.463 139.399L189.429 138.9ZM179.649 131.1H179.149V131.6H179.649V131.1ZM179.649 128.4V127.9H179.149V128.4H179.649ZM193.059 140.25L192.698 139.905L192.368 140.25L192.698 140.595L193.059 140.25ZM180.149 153.6V150.9H179.149V153.6H180.149ZM179.649 151.4H189.249V150.4H179.649V151.4ZM189.249 151.4C190.126 151.4 190.876 151.18 191.403 150.654C191.93 150.127 192.149 149.377 192.149 148.5H191.149C191.149 149.223 190.969 149.673 190.696 149.946C190.423 150.22 189.972 150.4 189.249 150.4V151.4ZM192.149 148.5V144H191.149V148.5H192.149ZM192.149 144C192.149 143.159 191.938 142.434 191.45 141.895L190.709 142.565C190.981 142.866 191.149 143.321 191.149 144H192.149ZM191.45 141.895C190.946 141.337 190.22 141.1 189.369 141.1V142.1C190.039 142.1 190.453 142.283 190.709 142.565L191.45 141.895ZM189.369 141.1H179.649V142.1H189.369V141.1ZM180.149 141.6V138.9H179.149V141.6H180.149ZM179.649 139.4H189.429V138.4H179.649V139.4ZM189.463 139.399C190.284 139.343 190.977 139.088 191.461 138.565C191.945 138.042 192.149 137.328 192.149 136.5H191.149C191.149 137.172 190.984 137.608 190.727 137.885C190.471 138.162 190.055 138.357 189.396 138.401L189.463 139.399ZM192.149 136.5V133.5H191.149V136.5H192.149ZM192.149 133.5C192.149 132.623 191.93 131.873 191.403 131.346C190.876 130.82 190.126 130.6 189.249 130.6V131.6C189.972 131.6 190.423 131.78 190.696 132.054C190.969 132.327 191.149 132.777 191.149 133.5H192.149ZM189.249 130.6H179.649V131.6H189.249V130.6ZM180.149 131.1V128.4H179.149V131.1H180.149ZM179.649 128.9H189.249V127.9H179.649V128.9ZM189.249 128.9C190.872 128.9 191.998 129.305 192.721 130.029C193.444 130.752 193.849 131.877 193.849 133.5H194.849C194.849 131.723 194.405 130.298 193.428 129.321C192.451 128.345 191.026 127.9 189.249 127.9V128.9ZM193.849 133.5V136.5H194.849V133.5H193.849ZM193.849 136.5C193.849 138.009 193.446 139.122 192.698 139.905L193.421 140.595C194.393 139.578 194.849 138.191 194.849 136.5H193.849ZM192.698 140.595C193.446 141.378 193.849 142.491 193.849 144H194.849C194.849 142.309 194.393 140.922 193.421 139.905L192.698 140.595ZM193.849 144V148.5H194.849V144H193.849ZM193.849 148.5C193.849 150.123 193.444 151.248 192.721 151.971C191.998 152.695 190.872 153.1 189.249 153.1V154.1C191.026 154.1 192.451 153.655 193.428 152.679C194.405 151.702 194.849 150.277 194.849 148.5H193.849ZM189.249 153.1H179.649V154.1H189.249V153.1ZM202.955 153.6V154.1H203.249L203.392 153.843L202.955 153.6ZM199.895 153.6L199.458 153.357L199.045 154.1H199.895V153.6ZM213.905 128.4V127.9H213.611L213.468 128.157L213.905 128.4ZM216.995 128.4L217.432 128.643L217.846 127.9H216.995V128.4ZM214.445 151.4C215.319 151.4 216.067 151.187 216.594 150.673C217.123 150.157 217.345 149.42 217.345 148.56H216.345C216.345 149.26 216.166 149.693 215.896 149.957C215.623 150.223 215.171 150.4 214.445 150.4V151.4ZM217.345 148.56C217.345 147.666 217.127 146.903 216.603 146.366C216.076 145.826 215.325 145.6 214.445 145.6V146.6C215.164 146.6 215.613 146.784 215.887 147.064C216.163 147.347 216.345 147.814 216.345 148.56H217.345ZM214.445 145.6C213.568 145.6 212.818 145.82 212.291 146.346C211.764 146.873 211.545 147.623 211.545 148.5H212.545C212.545 147.777 212.725 147.327 212.998 147.054C213.271 146.78 213.722 146.6 214.445 146.6V145.6ZM211.545 148.5C211.545 149.377 211.764 150.127 212.291 150.654C212.818 151.18 213.568 151.4 214.445 151.4V150.4C213.722 150.4 213.271 150.22 212.998 149.946C212.725 149.673 212.545 149.223 212.545 148.5H211.545ZM202.445 136.4C203.319 136.4 204.067 136.187 204.594 135.673C205.123 135.157 205.345 134.42 205.345 133.56H204.345C204.345 134.26 204.166 134.693 203.896 134.957C203.623 135.223 203.171 135.4 202.445 135.4V136.4ZM205.345 133.56C205.345 132.666 205.127 131.903 204.603 131.366C204.076 130.826 203.325 130.6 202.445 130.6V131.6C203.164 131.6 203.613 131.784 203.887 132.064C204.163 132.347 204.345 132.814 204.345 133.56H205.345ZM202.445 130.6C201.568 130.6 200.818 130.82 200.291 131.346C199.764 131.873 199.545 132.623 199.545 133.5H200.545C200.545 132.777 200.725 132.327 200.998 132.054C201.271 131.78 201.722 131.6 202.445 131.6V130.6ZM199.545 133.5C199.545 134.377 199.764 135.127 200.291 135.654C200.818 136.18 201.568 136.4 202.445 136.4V135.4C201.722 135.4 201.271 135.22 200.998 134.946C200.725 134.673 200.545 134.223 200.545 133.5H199.545ZM202.955 153.1H199.895V154.1H202.955V153.1ZM200.332 153.843L214.342 128.643L213.468 128.157L199.458 153.357L200.332 153.843ZM213.905 128.9H216.995V127.9H213.905V128.9ZM216.558 128.157L202.518 153.357L203.392 153.843L217.432 128.643L216.558 128.157ZM197.845 133.5C197.845 131.877 198.25 130.752 198.973 130.029C199.696 129.305 200.822 128.9 202.445 128.9V127.9C200.668 127.9 199.243 128.345 198.266 129.321C197.289 130.298 196.845 131.723 196.845 133.5H197.845ZM202.445 128.9C204.068 128.9 205.193 129.305 205.916 130.029C206.639 130.752 207.045 131.877 207.045 133.5H208.045C208.045 131.723 207.6 130.298 206.623 129.321C205.646 128.345 204.222 127.9 202.445 127.9V128.9ZM207.045 133.5C207.045 135.123 206.639 136.248 205.916 136.971C205.193 137.695 204.068 138.1 202.445 138.1V139.1C204.222 139.1 205.646 138.655 206.623 137.679C207.6 136.702 208.045 135.277 208.045 133.5H207.045ZM202.445 138.1C200.822 138.1 199.696 137.695 198.973 136.971C198.25 136.248 197.845 135.123 197.845 133.5H196.845C196.845 135.277 197.289 136.702 198.266 137.679C199.243 138.655 200.668 139.1 202.445 139.1V138.1ZM209.845 148.5C209.845 146.877 210.25 145.752 210.973 145.029C211.696 144.305 212.822 143.9 214.445 143.9V142.9C212.668 142.9 211.243 143.345 210.266 144.321C209.289 145.298 208.845 146.723 208.845 148.5H209.845ZM214.445 143.9C216.068 143.9 217.193 144.305 217.916 145.029C218.639 145.752 219.045 146.877 219.045 148.5H220.045C220.045 146.723 219.6 145.298 218.623 144.321C217.646 143.345 216.222 142.9 214.445 142.9V143.9ZM219.045 148.5C219.045 150.123 218.639 151.248 217.916 151.971C217.193 152.695 216.068 153.1 214.445 153.1V154.1C216.222 154.1 217.646 153.655 218.623 152.679C219.6 151.702 220.045 150.277 220.045 148.5H219.045ZM214.445 153.1C212.822 153.1 211.696 152.695 210.973 151.971C210.25 151.248 209.845 150.123 209.845 148.5H208.845C208.845 150.277 209.289 151.702 210.266 152.679C211.243 153.655 212.668 154.1 214.445 154.1V153.1Z" fill="black"/>
<path d="M170 210L190 180L210 210H170Z" fill="white"/>
</svg>
