<svg width="150" height="50" viewBox="0 0 150 50" fill="none" xmlns="http://www.w3.org/2000/svg">
<path d="M0 9C0 6.20435 0 4.80653 0.456723 3.7039C1.06569 2.23373 2.23373 1.06569 3.7039 0.456723C4.80653 0 6.20435 0 9 0H141C143.796 0 145.193 0 146.296 0.456723C147.766 1.06569 148.934 2.23373 149.543 3.7039C150 4.80653 150 6.20435 150 9V41C150 43.7957 150 45.1935 149.543 46.2961C148.934 47.7663 147.766 48.9343 146.296 49.5433C145.193 50 143.796 50 141 50H9C6.20435 50 4.80653 50 3.7039 49.5433C2.23373 48.9343 1.06569 47.7663 0.456723 46.2961C0 45.1935 0 43.7957 0 41V9Z" fill="#0C0D10"/>
<path d="M101.907 24.001V26.8647H100.112V28.7428H101.907V35.124C101.907 37.303 102.893 38.1745 105.373 38.1745C105.809 38.1745 106.224 38.1227 106.587 38.0604V36.2031C106.276 36.2342 106.078 36.255 105.736 36.255C104.626 36.255 104.138 35.7362 104.138 34.5533V28.7428H106.587V26.8647H104.138V24.001H101.907Z" fill="white"/>
<path d="M112.904 38.3302C116.204 38.3302 118.227 36.1201 118.227 32.4574C118.227 28.8154 116.193 26.5949 112.904 26.5949C109.605 26.5949 107.571 28.8154 107.571 32.4574C107.571 36.1201 109.594 38.3302 112.904 38.3302ZM112.904 36.3484C110.964 36.3484 109.874 34.9269 109.874 32.4574C109.874 30.0086 110.964 28.5768 112.904 28.5768C114.834 28.5768 115.934 30.0086 115.934 32.4574C115.934 34.9165 114.834 36.3484 112.904 36.3484Z" fill="white"/>
<path d="M119.958 38.1123H122.189V31.4405C122.189 29.853 123.382 28.7843 125.074 28.7843C125.468 28.7843 126.132 28.8569 126.319 28.9192V26.7195C126.08 26.6572 125.655 26.6261 125.323 26.6261C123.849 26.6261 122.594 27.4354 122.272 28.5456H122.106V26.8128H119.958V38.1123Z" fill="white"/>
<path d="M131.858 28.4938C133.508 28.4938 134.587 29.6455 134.639 31.4198H128.932C129.056 29.6559 130.208 28.4938 131.858 28.4938ZM134.628 35.0617C134.213 35.9437 133.29 36.4314 131.941 36.4314C130.156 36.4314 129.004 35.1759 128.932 33.1941V33.0696H136.911V32.2914C136.911 28.7428 135.012 26.5949 131.868 26.5949C128.683 26.5949 126.659 28.888 126.659 32.4989C126.659 36.1097 128.641 38.3302 131.879 38.3302C134.462 38.3302 136.268 37.0851 136.776 35.0617H134.628Z" fill="white"/>
<path d="M87.2779 33.9396C87.4499 36.7142 89.7621 38.4887 93.2035 38.4887C96.8815 38.4887 99.183 36.6282 99.183 33.66C99.183 31.3263 97.8709 30.0357 94.6876 29.2937L92.9777 28.8743C90.9559 28.4011 90.1385 27.7666 90.1385 26.6589C90.1385 25.2608 91.4076 24.3467 93.3111 24.3467C95.1178 24.3467 96.3653 25.2393 96.5912 26.6696H98.9356C98.7958 24.0563 96.4944 22.2173 93.3433 22.2173C89.9557 22.2173 87.6973 24.0563 87.6973 26.8202C87.6973 29.1001 88.9771 30.4552 91.784 31.1112L93.7843 31.5951C95.8384 32.0791 96.7417 32.7889 96.7417 33.9718C96.7417 35.3484 95.3222 36.3486 93.3864 36.3486C91.3108 36.3486 89.8697 35.4129 89.6653 33.9396H87.2779Z" fill="white"/>
<path d="M64.1687 26.6261C62.6331 26.6261 61.3049 27.3939 60.6201 28.6805H60.4541V26.8128H58.3063V41.8684H60.5371V36.4002H60.7135C61.3049 37.5935 62.5812 38.299 64.1895 38.299C67.0428 38.299 68.8586 36.0475 68.8586 32.4574C68.8586 28.8673 67.0428 26.6261 64.1687 26.6261ZM63.5358 36.2965C61.6681 36.2965 60.4956 34.8231 60.4956 32.4677C60.4956 30.102 61.6681 28.6286 63.5461 28.6286C65.4346 28.6286 66.5655 30.0709 66.5655 32.4574C66.5655 34.8542 65.4346 36.2965 63.5358 36.2965Z" fill="white"/>
<path d="M76.6647 26.6261C75.129 26.6261 73.8009 27.3939 73.1161 28.6805H72.9501V26.8128H70.8023V41.8684H73.0331V36.4002H73.2095C73.8009 37.5935 75.0772 38.299 76.6854 38.299C79.5388 38.299 81.3546 36.0475 81.3546 32.4574C81.3546 28.8673 79.5388 26.6261 76.6647 26.6261ZM76.0318 36.2965C74.1641 36.2965 72.9916 34.8231 72.9916 32.4677C72.9916 30.102 74.1641 28.6286 76.0421 28.6286C77.9306 28.6286 79.0615 30.0709 79.0615 32.4574C79.0615 34.8542 77.9306 36.2965 76.0318 36.2965Z" fill="white"/>
<path d="M54.3038 38.1123H56.8633L51.2603 22.5937H48.6685L43.0654 38.1123H45.5389L46.9693 33.9933H52.8842L54.3038 38.1123ZM49.8407 25.4113H50.0235L52.2712 31.9715H47.5823L49.8407 25.4113Z" fill="white"/>
<path d="M44.564 10.8889V18.3751H47.2669C49.4977 18.3751 50.7896 17.0003 50.7896 14.6086C50.7896 12.2533 49.4874 10.8889 47.2669 10.8889H44.564ZM45.7261 11.9472H47.1372C48.6884 11.9472 49.6067 12.9329 49.6067 14.6242C49.6067 16.3414 48.704 17.3168 47.1372 17.3168H45.7261V11.9472Z" fill="white"/>
<path d="M54.7459 18.4841C56.3957 18.4841 57.4073 17.379 57.4073 15.5477C57.4073 13.7267 56.3905 12.6165 54.7459 12.6165C53.0961 12.6165 52.0793 13.7267 52.0793 15.5477C52.0793 17.379 53.0909 18.4841 54.7459 18.4841ZM54.7459 17.4932C53.7758 17.4932 53.231 16.7824 53.231 15.5477C53.231 14.3233 53.7758 13.6074 54.7459 13.6074C55.7109 13.6074 56.2608 14.3233 56.2608 15.5477C56.2608 16.7772 55.7109 17.4932 54.7459 17.4932Z" fill="white"/>
<path d="M66.0225 12.7254H64.9071L63.9006 17.0366H63.8124L62.6503 12.7254H61.5816L60.4195 17.0366H60.3365L59.3248 12.7254H58.1938L59.7502 18.3751H60.8968L62.0589 14.2144H62.1471L63.3144 18.3751H64.4713L66.0225 12.7254Z" fill="white"/>
<path d="M67.3071 18.3751H68.4225V15.0704C68.4225 14.1884 68.9465 13.6385 69.7714 13.6385C70.5963 13.6385 70.9905 14.0898 70.9905 14.9977V18.3751H72.106V14.7176C72.106 13.3739 71.4108 12.6165 70.1501 12.6165C69.2993 12.6165 68.739 12.9952 68.464 13.6229H68.381V12.7254H67.3071V18.3751Z" fill="white"/>
<path d="M73.8626 18.3751H74.978V10.5205H73.8626V18.3751Z" fill="black"/>
<path d="M79.173 18.4841C80.8228 18.4841 81.8345 17.379 81.8345 15.5477C81.8345 13.7267 80.8176 12.6165 79.173 12.6165C77.5233 12.6165 76.5064 13.7267 76.5064 15.5477C76.5064 17.379 77.5181 18.4841 79.173 18.4841ZM79.173 17.4932C78.2029 17.4932 77.6581 16.7824 77.6581 15.5477C77.6581 14.3233 78.2029 13.6074 79.173 13.6074C80.138 13.6074 80.6879 14.3233 80.6879 15.5477C80.6879 16.7772 80.138 17.4932 79.173 17.4932Z" fill="white"/>
<path d="M85.1579 17.5295C84.5509 17.5295 84.1099 17.2338 84.1099 16.7253C84.1099 16.2273 84.4627 15.9627 85.2409 15.9108L86.6209 15.8226V16.2947C86.6209 16.9951 85.9984 17.5295 85.1579 17.5295ZM84.8726 18.4685C85.6144 18.4685 86.2318 18.1469 86.569 17.5814H86.6572V18.3751H87.7311V14.5153C87.7311 13.322 86.9322 12.6165 85.5159 12.6165C84.2344 12.6165 83.3214 13.239 83.2072 14.2092H84.2863C84.4108 13.8097 84.8414 13.5814 85.464 13.5814C86.2266 13.5814 86.6209 13.9186 86.6209 14.5153V15.0029L85.0905 15.0911C83.7468 15.1741 82.9893 15.7604 82.9893 16.7772C82.9893 17.8096 83.7831 18.4685 84.8726 18.4685Z" fill="white"/>
<path d="M91.5163 18.4685C92.2945 18.4685 92.9534 18.1002 93.2906 17.4828H93.3788V18.3751H94.4475V10.5205H93.3321V13.6229H93.2491C92.943 13.0004 92.2893 12.632 91.5163 12.632C90.0896 12.632 89.1713 13.763 89.1713 15.5477C89.1713 17.3375 90.0792 18.4685 91.5163 18.4685ZM91.8328 13.6333C92.7666 13.6333 93.3528 14.3752 93.3528 15.5529C93.3528 16.7357 92.7718 17.4672 91.8328 17.4672C90.8885 17.4672 90.3231 16.7461 90.3231 15.5477C90.3231 14.3596 90.8937 13.6333 91.8328 13.6333Z" fill="white"/>
<path d="M101.681 18.4841C103.33 18.4841 104.342 17.379 104.342 15.5477C104.342 13.7267 103.325 12.6165 101.681 12.6165C100.031 12.6165 99.014 13.7267 99.014 15.5477C99.014 17.379 100.026 18.4841 101.681 18.4841ZM101.681 17.4932C100.71 17.4932 100.166 16.7824 100.166 15.5477C100.166 14.3233 100.71 13.6074 101.681 13.6074C102.646 13.6074 103.195 14.3233 103.195 15.5477C103.195 16.7772 102.646 17.4932 101.681 17.4932Z" fill="white"/>
<path d="M105.819 18.3751H106.934V15.0704C106.934 14.1884 107.458 13.6385 108.283 13.6385C109.108 13.6385 109.502 14.0898 109.502 14.9977V18.3751H110.617V14.7176C110.617 13.3739 109.922 12.6165 108.662 12.6165C107.811 12.6165 107.25 12.9952 106.975 13.6229H106.892V12.7254H105.819V18.3751Z" fill="white"/>
<path d="M115.755 11.3195V12.7513H114.857V13.6904H115.755V16.881C115.755 17.9705 116.247 18.4062 117.487 18.4062C117.705 18.4062 117.913 18.3803 118.094 18.3492V17.4205C117.939 17.4361 117.84 17.4465 117.669 17.4465C117.114 17.4465 116.87 17.1871 116.87 16.5956V13.6904H118.094V12.7513H116.87V11.3195H115.755Z" fill="white"/>
<path d="M119.592 18.3751H120.707V15.0756C120.707 14.2195 121.215 13.6437 122.129 13.6437C122.917 13.6437 123.337 14.1002 123.337 15.0029V18.3751H124.453V14.728C124.453 13.3843 123.711 12.6216 122.507 12.6216C121.656 12.6216 121.06 13.0004 120.785 13.6333H120.697V10.5205H119.592V18.3751Z" fill="white"/>
<path d="M128.477 13.5659C129.301 13.5659 129.841 14.1417 129.867 15.0289H127.014C127.076 14.1469 127.652 13.5659 128.477 13.5659ZM129.862 16.8499C129.654 17.2908 129.193 17.5347 128.518 17.5347C127.626 17.5347 127.05 16.9069 127.014 15.916V15.8538H131.003V15.4647C131.003 13.6904 130.054 12.6165 128.482 12.6165C126.889 12.6165 125.877 13.763 125.877 15.5684C125.877 17.3738 126.868 18.4841 128.487 18.4841C129.779 18.4841 130.681 17.8615 130.936 16.8499H129.862Z" fill="white"/>
<path d="M30.9612 25.3758C30.9883 23.2746 32.1168 21.2863 33.9069 20.1858C32.7776 18.5729 30.886 17.5502 28.918 17.4887C26.8189 17.2683 24.784 18.7447 23.7144 18.7447C22.624 18.7447 20.9772 17.5105 19.2037 17.547C16.8922 17.6217 14.7372 18.9359 13.6126 20.9569C11.1951 25.1424 12.9983 31.2937 15.3141 34.677C16.4727 36.3337 17.8268 38.1842 19.5986 38.1186C21.3325 38.0467 21.98 37.013 24.0729 37.013C26.1463 37.013 26.7539 38.1186 28.5616 38.0769C30.4221 38.0467 31.5943 36.4128 32.7123 34.7404C33.5447 33.56 34.1853 32.2553 34.6103 30.8748C32.4239 29.9501 30.9638 27.7498 30.9612 25.3758Z" fill="white"/>
<path d="M27.5467 15.2637C28.5611 14.0459 29.0608 12.4807 28.9398 10.9004C27.39 11.0632 25.9584 11.8039 24.9303 12.9749C23.925 14.1191 23.4018 15.6568 23.5007 17.1766C25.051 17.1926 26.5752 16.472 27.5467 15.2637Z" fill="white"/>
</svg>
