<svg width="120" height="120" viewBox="0 0 120 120" fill="none" xmlns="http://www.w3.org/2000/svg">
<g clip-path="url(#clip0)">
<path d="M69.3688 104.446C69.3693 104.445 69.37 104.444 69.3705 104.443L113.121 34.8155C113.536 34.1576 113.338 33.2883 112.68 32.8739C112.68 32.8734 112.679 32.8727 112.678 32.8722L79.2563 11.8719C78.5984 11.4575 77.729 11.6547 77.3147 12.3126C77.3141 12.3135 77.3135 12.3145 77.3129 12.3154L47.5625 59.6624C47.1484 60.3214 47.347 61.1916 48.006 61.6057C48.665 62.0198 49.5352 61.8212 49.9493 61.1622L78.9499 15.0086L109.984 34.5091L67.7336 101.75L64.7493 99.8751C64.0914 99.4607 63.2221 99.658 62.8077 100.316C62.8072 100.317 62.8065 100.318 62.806 100.319C62.3916 100.977 62.5889 101.846 63.2467 102.26C63.2476 102.261 63.2487 102.261 63.2495 102.262L67.4272 104.887C68.0851 105.301 68.9542 105.104 69.3688 104.446Z" fill="black"/>
<path d="M38.7517 57.1856L55.5749 6.78961C55.7 6.43704 55.9596 6.14831 56.297 5.98663C56.6355 5.82616 57.0237 5.80615 57.3769 5.931L71.66 11.021C72.3936 11.2824 72.7763 12.0891 72.5149 12.8227C72.2535 13.5563 71.4469 13.939 70.7132 13.6776L57.7622 9.06137L41.409 58.1251C41.3748 58.224 41.3293 58.3185 41.2729 58.4066C40.8576 59.0649 39.9872 59.2619 39.3288 58.8468C38.7723 58.4956 38.5329 57.8062 38.7517 57.1856Z" fill="black"/>
<path d="M30.5663 56.1788L37.5255 17.0936C37.6484 16.3606 38.3177 15.8476 39.0576 15.9196L46.3778 16.6346C47.1572 16.6856 47.7479 17.3588 47.6968 18.1383C47.6458 18.9177 46.9726 19.5084 46.1931 19.4573C46.1625 19.4553 46.1318 19.4523 46.1014 19.4482L46.1042 19.45L40.0951 18.8616L33.3539 56.6446C33.2252 57.4145 32.4969 57.9344 31.7271 57.8056C30.9576 57.6771 30.4377 56.9488 30.5663 56.1788Z" fill="black"/>
<path d="M47.9379 71.4293L54.8829 60.3765C55.297 59.7175 56.1672 59.5189 56.8262 59.933C57.4853 60.3471 57.6839 61.2173 57.2698 61.8763L50.3248 72.929C49.9107 73.5881 49.0405 73.7867 48.3815 73.3726C47.7225 72.9585 47.5238 72.0883 47.9379 71.4293Z" fill="black"/>
<path d="M61.962 49.2872C66.2147 42.5192 75.1486 40.4802 81.9166 44.7328C88.6773 48.9906 90.7149 57.9181 86.471 64.6875C82.2184 71.4555 73.2844 73.4946 66.5164 69.2419C59.7484 64.9892 57.7093 56.0552 61.962 49.2872ZM84.2429 63.2875C87.7224 57.7499 86.0541 50.4404 80.5166 46.9609C74.9779 43.4892 67.674 45.1562 64.1901 50.6873C60.7106 56.2248 62.3789 63.5343 67.9164 67.0138C73.4539 70.4933 80.7634 68.825 84.2429 63.2875Z" fill="black"/>
<path d="M91.1614 52.0958L97.7757 41.5694L95.4529 33.1485L86.4013 27.4609L77.5557 29.5907L71.2687 39.5962C70.8546 40.2553 69.9845 40.4539 69.3254 40.0398C68.6664 39.6257 68.4678 38.7555 68.8819 38.0965L75.4734 27.6063C75.6687 27.2939 75.9786 27.0704 76.3368 26.9834L86.3128 24.5753C86.7304 24.5135 87.1563 24.6034 87.5134 24.8285L97.4173 31.0516C97.7151 31.2387 97.9323 31.5303 98.0262 31.8693L100.66 41.4158C100.765 41.7975 100.705 42.2061 100.494 42.5414L93.5483 53.5956C93.1342 54.2546 92.264 54.4532 91.605 54.0391C90.946 53.625 90.7472 52.755 91.1614 52.0958Z" fill="black"/>
<path d="M72.3856 56.8066L73.2606 55.4141C73.5328 54.981 73.4558 54.5655 73.35 54.499C73.2442 54.4325 72.8365 54.5435 72.5644 54.9766L70.3768 58.458C69.8936 59.227 68.8783 59.4587 68.1093 58.9755C67.3402 58.4923 67.1085 57.477 67.5917 56.7079L68.4667 55.3154C67.6977 54.8321 67.466 53.8168 67.9492 53.0478C68.4324 52.2788 69.4477 52.047 70.2167 52.5302L70.2794 52.5696C71.468 51.1622 73.4905 50.8009 75.0931 51.7095C76.8562 52.9565 77.2819 55.3931 76.0458 57.1641L75.1707 58.5566C74.8986 58.9897 74.9755 59.4052 75.0814 59.4717C75.1872 59.5382 75.5949 59.4272 75.867 58.9942L78.0546 55.5128C78.5378 54.7437 79.5531 54.512 80.3221 54.9952C81.0912 55.4784 81.3229 56.4937 80.8397 57.2628L79.9647 58.6553C80.7337 59.1386 80.9654 60.1539 80.4822 60.9229C79.999 61.692 78.9837 61.9237 78.2146 61.4405L78.152 61.4011C76.9634 62.8086 74.9409 63.1698 73.3383 62.2612C71.5752 61.0142 71.1495 58.5776 72.3856 56.8066Z" fill="black"/>
<path d="M22.7015 113H15.0806C13.7332 113 12.4409 112.473 11.4881 111.535C10.5353 110.598 10 109.326 10 108V90.4998C10 89.1738 10.5353 87.902 11.4881 86.9643C12.4409 86.0266 13.7332 85.4999 15.0806 85.4999H22.7015M40.4837 80.4999V70.5C40.4837 68.5108 39.6808 66.6032 38.2516 65.1967C36.8224 63.7902 34.884 63 32.8628 63L22.7015 85.4999V113H51.3562C52.5815 113.013 53.7705 112.591 54.7041 111.81C55.6377 111.029 56.2531 109.942 56.4368 108.75L59.9425 86.2499C60.053 85.5332 60.0039 84.8016 59.7985 84.1055C59.5932 83.4094 59.2365 82.7656 58.7532 82.2187C58.27 81.6717 57.6716 81.2347 56.9997 80.9379C56.3278 80.6411 55.5983 80.4917 54.8619 80.4999H40.4837Z" stroke="black" stroke-width="2.8" stroke-linecap="round" stroke-linejoin="round"/>
</g>
<defs>
<clipPath id="clip0">
<rect width="120" height="120" fill="white"/>
</clipPath>
</defs>
</svg>
