<svg width="175" height="274" viewBox="0 0 175 274" fill="none" xmlns="http://www.w3.org/2000/svg">
<g clip-path="url(#clip0)">
<path d="M240.362 105.724L240.585 106.237L241.139 106.316L264.236 109.572C264.238 109.572 264.24 109.572 264.242 109.572C268.103 110.161 270.974 113.454 271.029 117.36C271.029 117.363 271.029 117.365 271.029 117.367L271.026 155.749L271.026 155.761C271.072 159.688 268.214 163.047 264.331 163.632C264.329 163.632 264.328 163.632 264.327 163.632L241.128 166.936L240.582 167.013L240.357 167.516C238.323 172.041 235.852 176.356 232.979 180.399L232.663 180.844L232.865 181.35L241.52 203.007L241.521 203.009C242.989 206.654 241.532 210.823 238.113 212.76L238.106 212.764L204.909 231.931L204.905 231.933C201.499 233.918 197.148 233.065 194.743 229.94L194.736 229.931L180.349 211.679L180.01 211.249L179.465 211.303C174.523 211.791 169.544 211.778 164.604 211.263L164.054 211.205L163.713 211.641L149.32 230.007C149.318 230.01 149.316 230.012 149.314 230.015C146.809 233.077 142.446 233.859 139.033 231.857L139.026 231.853L105.942 212.777C105.941 212.777 105.94 212.776 105.939 212.776C102.542 210.791 101.09 206.633 102.512 202.965C102.513 202.963 102.514 202.961 102.515 202.96L111.257 181.323L111.467 180.803L111.133 180.353C108.172 176.357 105.677 172.036 103.697 167.473L103.474 166.959L102.919 166.881L79.8169 163.624C79.816 163.624 79.8152 163.624 79.8143 163.624C75.8936 163.049 72.9947 159.674 73.0177 155.712L73.0177 155.706L73.0365 117.456L73.0366 117.456L73.0365 117.443C72.9876 113.515 75.8465 110.154 79.7315 109.573C79.7325 109.572 79.7335 109.572 79.7346 109.572L102.909 106.274L103.455 106.196L103.681 105.694C105.713 101.169 108.185 96.8535 111.058 92.8102L111.374 92.366L111.172 91.8598L102.517 70.2026L102.516 70.1995C101.048 66.563 102.496 62.4014 105.904 60.461L105.909 60.458L139.107 41.2915L139.114 41.2874C142.524 39.2815 146.893 40.1232 149.314 43.252L149.319 43.2588L163.707 61.5293L164.046 61.96L164.591 61.9058C169.53 61.4148 174.505 61.4271 179.44 61.9424L179.99 61.9999L180.331 61.5647L194.724 43.1985C194.726 43.1959 194.728 43.1932 194.731 43.1906C197.238 40.1314 201.598 39.3498 205.013 41.349L205.019 41.3525L238.105 60.4162C238.106 60.4167 238.107 60.4171 238.108 60.4176C241.503 62.4022 242.958 66.5564 241.542 70.2248C241.541 70.2271 241.54 70.2293 241.539 70.2315L232.802 91.8741L232.592 92.393L232.925 92.843C235.882 96.8424 238.377 101.164 240.362 105.724ZM193.341 173.561L193.342 173.56C213.724 161.76 220.71 135.689 208.959 115.278L208.958 115.277C197.176 94.8701 171.082 87.8781 150.674 99.6603C130.267 111.442 123.275 137.537 135.057 157.944C146.839 178.351 172.934 185.343 193.341 173.561Z" fill="#F3F0EC" stroke="#E4DFD8" stroke-width="2"/>
</g>
<g clip-path="url(#clip1)">
<path d="M86.7528 69.609L86.8159 69.053C87.0924 66.6194 87.0924 64.1624 86.8159 61.7288L86.7527 61.1727L87.1937 60.8281L96.3822 53.6455C96.384 53.6441 96.3857 53.6427 96.3874 53.6413C97.7239 52.5608 98.0809 50.6706 97.2299 49.1766C97.2294 49.1758 97.2289 49.175 97.2285 49.1741L87.6689 32.6502L87.6654 32.6442C86.8093 31.1401 84.9877 30.4818 83.3685 31.0897L72.5453 35.444L72.0324 35.6503L71.5848 35.3256C69.604 33.8885 67.4821 32.6564 65.2519 31.6484L64.7524 31.4226L64.674 30.8801L63.0115 19.3718L63.0103 19.3633L63.0103 19.3633C62.7782 17.6527 61.3107 16.3813 59.5844 16.3954L59.5762 16.3954L40.4097 16.3954H40.4037C38.6932 16.3851 37.2387 17.6413 37 19.335L36.9995 19.3383L35.3329 30.8799L35.255 31.4194L34.7594 31.6462C32.5338 32.6649 30.4132 33.8992 28.4283 35.3313L27.9814 35.6537L27.4702 35.4482L16.6138 31.0839C16.6128 31.0835 16.6118 31.0831 16.6108 31.0827C15.0163 30.4558 13.2036 31.1021 12.3652 32.5968L12.3589 32.6081L12.3588 32.6081L2.78798 49.1664L2.78533 49.171C1.91069 50.6658 2.27026 52.5764 3.62817 53.6511C3.62872 53.6515 3.62926 53.6519 3.62981 53.6523L12.8172 60.8366L13.2586 61.1817L13.1947 61.7383C12.9157 64.1709 12.9157 66.6277 13.1947 69.0603L13.2586 69.6172L12.8169 69.9623L3.62246 77.1455C2.2836 78.2243 1.9251 80.1154 2.77676 81.6094C2.7772 81.6102 2.77764 81.611 2.77809 81.6118L12.3338 98.1405L12.3376 98.147C13.1924 99.6517 15.0148 100.31 16.6337 99.7009L27.4572 95.3464L27.9701 95.1401L28.4176 95.4647C30.4004 96.9027 32.5239 98.1363 34.7554 99.1466L35.2541 99.3724L35.3326 99.9141L36.9992 111.414L37.0009 111.426C37.2278 113.131 38.6855 114.402 40.4055 114.395L40.4095 114.395L59.576 114.395H59.5841C61.2983 114.409 62.7578 113.152 62.9984 111.455L62.9988 111.452L64.6654 99.9105L64.7433 99.3712L65.2388 99.1443C67.4642 98.1251 69.5847 96.8908 71.5702 95.459L72.0169 95.1368L72.528 95.3422L86.7528 69.609ZM86.7528 69.609L87.1935 69.9536M86.7528 69.609L87.1935 69.9536M87.1935 69.9536L96.3768 77.1346L87.1935 69.9536ZM49.9929 87.2283H49.9941C62.0456 87.214 71.8117 77.4479 71.8262 65.3962V65.395C71.8262 53.3367 62.0512 43.5617 49.9929 43.5617C37.9346 43.5617 28.1596 53.3367 28.1596 65.395C28.1596 77.4533 37.9348 87.2283 49.9929 87.2283Z" fill="#F3F0EC" stroke="#E4DFD8" stroke-width="2"/>
</g>
<defs>
<clipPath id="clip0">
<rect width="200" height="200" fill="white" transform="translate(35.4167 100) rotate(-30)"/>
</clipPath>
<clipPath id="clip1">
<rect width="100" height="100" fill="white" transform="translate(0 15.3945)"/>
</clipPath>
</defs>
</svg>
