<svg width="62" height="21" viewBox="0 0 62 21" fill="none" xmlns="http://www.w3.org/2000/svg">
<path d="M59.7439 19.4775C59.7447 19.2605 59.8098 19.0485 59.9309 18.8683C60.0521 18.6882 60.2239 18.548 60.4247 18.4655C60.6255 18.3829 60.8462 18.3617 61.059 18.4045C61.2718 18.4474 61.4672 18.5523 61.6204 18.7061C61.7737 18.8598 61.8779 19.0556 61.92 19.2685C61.962 19.4815 61.9401 19.7022 61.8568 19.9026C61.7736 20.1031 61.6328 20.2745 61.4522 20.395C61.2717 20.5155 61.0595 20.5798 60.8424 20.5798C60.6978 20.5798 60.5546 20.5513 60.4211 20.4959C60.2876 20.4404 60.1663 20.3592 60.0643 20.2567C59.9622 20.1543 59.8814 20.0328 59.8264 19.8991C59.7715 19.7654 59.7434 19.6221 59.7439 19.4775Z" fill="white"/>
<path d="M53.134 19.4777C53.1347 19.2606 53.1998 19.0486 53.3209 18.8685C53.4421 18.6883 53.6139 18.5481 53.8147 18.4656C54.0155 18.3831 54.2362 18.3619 54.449 18.4047C54.6619 18.4475 54.8572 18.5524 55.0105 18.7062C55.1637 18.86 55.2679 19.0557 55.31 19.2686C55.3521 19.4816 55.3301 19.7023 55.2468 19.9028C55.1636 20.1033 55.0228 20.2746 54.8422 20.3951C54.6617 20.5156 54.4495 20.58 54.2324 20.58C54.0878 20.58 53.9447 20.5514 53.8111 20.496C53.6776 20.4405 53.5563 20.3593 53.4543 20.2569C53.3522 20.1545 53.2714 20.0329 53.2165 19.8992C53.1615 19.7655 53.1334 19.6222 53.134 19.4777Z" fill="white"/>
<path d="M46.5182 19.4776C46.519 19.2609 46.5839 19.0492 46.7047 18.8692C46.8255 18.6893 46.9969 18.5491 47.1972 18.4663C47.3975 18.3836 47.6179 18.3619 47.8305 18.4041C48.0431 18.4463 48.2385 18.5505 48.392 18.7035C48.5455 18.8565 48.6504 19.0515 48.6933 19.2639C48.7363 19.4764 48.7154 19.6968 48.6333 19.8974C48.5513 20.098 48.4117 20.2699 48.2321 20.3913C48.0526 20.5128 47.8411 20.5784 47.6244 20.5799C47.4792 20.581 47.3352 20.5532 47.2008 20.4982C47.0664 20.4432 46.9442 20.3621 46.8413 20.2596C46.7384 20.1571 46.6569 20.0352 46.6015 19.901C46.546 19.7667 46.5177 19.6229 46.5182 19.4776Z" fill="white"/>
<path d="M39.916 19.4777C39.9168 19.2606 39.9819 19.0486 40.1031 18.8685C40.2242 18.6883 40.396 18.5481 40.5968 18.4656C40.7976 18.3831 41.0183 18.3619 41.2311 18.4047C41.444 18.4475 41.6393 18.5524 41.7925 18.7062C41.9458 18.86 42.05 19.0557 42.0921 19.2686C42.1342 19.4816 42.1122 19.7023 42.0289 19.9028C41.9457 20.1033 41.8049 20.2746 41.6243 20.3951C41.4438 20.5156 41.2316 20.58 41.0145 20.58C40.8699 20.58 40.7268 20.5514 40.5932 20.496C40.4597 20.4405 40.3385 20.3593 40.2364 20.2569C40.1344 20.1545 40.0535 20.0329 39.9986 19.8992C39.9436 19.7655 39.9155 19.6222 39.916 19.4777Z" fill="white"/>
<path d="M33.3061 19.4777C33.3068 19.2606 33.3719 19.0486 33.4931 18.8685C33.6142 18.6883 33.7861 18.5481 33.9868 18.4656C34.1876 18.3831 34.4083 18.3619 34.6212 18.4047C34.834 18.4475 35.0293 18.5524 35.1826 18.7062C35.3358 18.86 35.44 19.0557 35.4821 19.2686C35.5242 19.4816 35.5022 19.7023 35.419 19.9028C35.3357 20.1033 35.1949 20.2746 35.0144 20.3951C34.8338 20.5156 34.6216 20.58 34.4045 20.58C34.2599 20.58 34.1168 20.5514 33.9833 20.496C33.8497 20.4405 33.7285 20.3593 33.6264 20.2569C33.5244 20.1545 33.4436 20.0329 33.3886 19.8992C33.3336 19.7655 33.3056 19.6222 33.3061 19.4777Z" fill="white"/>
<path d="M26.6962 19.4777C26.6966 19.26 26.7615 19.0474 26.8828 18.8667C27.004 18.6859 27.1761 18.5452 27.3773 18.4622C27.5785 18.3793 27.7998 18.3579 28.0132 18.4007C28.2266 18.4436 28.4224 18.5487 28.5761 18.7029C28.7297 18.857 28.8341 19.0533 28.8762 19.2668C28.9183 19.4803 28.8961 19.7015 28.8125 19.9025C28.7288 20.1034 28.5875 20.275 28.4063 20.3956C28.2252 20.5162 28.0123 20.5803 27.7947 20.58C27.6501 20.58 27.5069 20.5514 27.3734 20.496C27.2399 20.4405 27.1186 20.3593 27.0166 20.2569C26.9145 20.1545 26.8337 20.0329 26.7787 19.8992C26.7238 19.7655 26.6957 19.6222 26.6962 19.4777Z" fill="white"/>
<path d="M20.0883 19.4777C20.0891 19.2605 20.1542 19.0484 20.2754 18.8683C20.3967 18.6881 20.5686 18.5479 20.7695 18.4654C20.9704 18.3829 21.1912 18.3618 21.4041 18.4048C21.617 18.4478 21.8123 18.5529 21.9655 18.7069C22.1186 18.8608 22.2227 19.0567 22.2646 19.2698C22.3064 19.4829 22.2842 19.7037 22.2006 19.9041C22.1171 20.1046 21.976 20.2757 21.7952 20.396C21.6144 20.5163 21.402 20.5803 21.1848 20.58C21.0404 20.5797 20.8974 20.551 20.7641 20.4954C20.6309 20.4399 20.5098 20.3586 20.408 20.2562C20.3061 20.1538 20.2255 20.0323 20.1706 19.8987C20.1158 19.7652 20.0878 19.6221 20.0883 19.4777Z" fill="white"/>
<path d="M13.4782 19.4776C13.4782 19.2604 13.5426 19.048 13.6633 18.8674C13.784 18.6867 13.9556 18.5459 14.1563 18.4628C14.357 18.3797 14.5778 18.3579 14.7909 18.4003C15.004 18.4427 15.1997 18.5473 15.3533 18.7009C15.5069 18.8545 15.6116 19.0502 15.6539 19.2633C15.6963 19.4764 15.6746 19.6973 15.5914 19.898C15.5083 20.0987 15.3675 20.2702 15.1869 20.3909C15.0062 20.5116 14.7939 20.576 14.5766 20.576C14.4324 20.576 14.2895 20.5476 14.1563 20.4924C14.023 20.4372 13.9019 20.3563 13.7999 20.2543C13.6979 20.1523 13.617 20.0312 13.5618 19.898C13.5066 19.7647 13.4782 19.6219 13.4782 19.4776Z" fill="white"/>
<path d="M6.87418 19.4776C6.87418 19.2604 6.93861 19.048 7.05931 18.8674C7.18 18.6867 7.35155 18.5459 7.55226 18.4628C7.75297 18.3797 7.97383 18.3579 8.1869 18.4003C8.39998 18.4427 8.59571 18.5473 8.74933 18.7009C8.90295 18.8545 9.00756 19.0502 9.04994 19.2633C9.09232 19.4764 9.07057 19.6973 8.98743 19.898C8.90429 20.0987 8.76352 20.2702 8.58288 20.3909C8.40224 20.5116 8.18987 20.576 7.97262 20.576C7.6813 20.576 7.40189 20.4603 7.19589 20.2543C6.9899 20.0483 6.87418 19.7689 6.87418 19.4776Z" fill="white"/>
<path d="M0.260412 19.4776C0.260412 19.2604 0.324815 19.048 0.445512 18.8674C0.566209 18.6867 0.737778 18.5459 0.938491 18.4628C1.1392 18.3797 1.36006 18.3579 1.57313 18.4003C1.78621 18.4427 1.98192 18.5473 2.13554 18.7009C2.28916 18.8545 2.39379 19.0502 2.43617 19.2633C2.47855 19.4764 2.4568 19.6973 2.37366 19.898C2.29052 20.0987 2.14972 20.2702 1.96909 20.3909C1.78845 20.5116 1.57608 20.576 1.35883 20.576C1.06751 20.576 0.78812 20.4603 0.582124 20.2543C0.376128 20.0483 0.260412 19.7689 0.260412 19.4776Z" fill="white"/>
<path d="M59.7439 13.5445C59.7443 13.3273 59.8091 13.1152 59.93 12.9348C60.0509 12.7544 60.2226 12.6139 60.4234 12.5311C60.6241 12.4482 60.8449 12.4267 61.0578 12.4693C61.2708 12.5119 61.4663 12.6167 61.6198 12.7704C61.7732 12.9241 61.8776 13.1198 61.9198 13.3328C61.9621 13.5459 61.9402 13.7666 61.857 13.9672C61.7738 14.1678 61.633 14.3393 61.4524 14.4599C61.2718 14.5805 61.0595 14.6449 60.8424 14.6449C60.698 14.6449 60.555 14.6164 60.4216 14.5611C60.2882 14.5057 60.167 14.4247 60.065 14.3225C59.963 14.2203 59.8821 14.0989 59.827 13.9654C59.7719 13.832 59.7437 13.6889 59.7439 13.5445Z" fill="url(#paint0_linear)"/>
<path d="M53.134 13.5445C53.1344 13.3273 53.1991 13.1152 53.32 12.9348C53.441 12.7544 53.6127 12.6139 53.8134 12.5311C54.0142 12.4482 54.2349 12.4267 54.4479 12.4693C54.6608 12.5119 54.8564 12.6167 55.0098 12.7704C55.1632 12.9241 55.2677 13.1198 55.3099 13.3328C55.3521 13.5459 55.3302 13.7666 55.2471 13.9672C55.1639 14.1678 55.0231 14.3393 54.8425 14.4599C54.6619 14.5805 54.4496 14.6449 54.2324 14.6449C53.9409 14.6444 53.6615 14.5282 53.4556 14.3219C53.2497 14.1156 53.134 13.836 53.134 13.5445Z" fill="url(#paint1_linear)"/>
<path d="M46.5183 13.5445C46.5187 13.3273 46.5834 13.1152 46.7043 12.9348C46.8253 12.7544 46.9969 12.6139 47.1977 12.5311C47.3984 12.4482 47.6192 12.4267 47.8322 12.4693C48.0451 12.5119 48.2407 12.6167 48.3941 12.7704C48.5475 12.9241 48.6519 13.1198 48.6942 13.3328C48.7364 13.5459 48.7145 13.7666 48.6313 13.9672C48.5481 14.1678 48.4074 14.3393 48.2268 14.4599C48.0462 14.5805 47.8339 14.6449 47.6167 14.6449C47.4723 14.6449 47.3293 14.6164 47.1959 14.5611C47.0625 14.5057 46.9413 14.4247 46.8393 14.3225C46.7373 14.2203 46.6564 14.0989 46.6013 13.9654C46.5462 13.832 46.518 13.6889 46.5183 13.5445Z" fill="url(#paint2_linear)"/>
<path d="M39.9161 13.5445C39.9164 13.3273 39.9812 13.1152 40.1021 12.9348C40.223 12.7544 40.3947 12.6139 40.5955 12.5311C40.7962 12.4482 41.017 12.4267 41.23 12.4693C41.4429 12.5119 41.6385 12.6167 41.7919 12.7704C41.9453 12.9241 42.0497 13.1198 42.092 13.3328C42.1342 13.5459 42.1123 13.7666 42.0291 13.9672C41.9459 14.1678 41.8051 14.3393 41.6245 14.4599C41.4439 14.5805 41.2317 14.6449 41.0145 14.6449C40.8701 14.6449 40.7271 14.6164 40.5937 14.5611C40.4603 14.5057 40.3391 14.4247 40.2371 14.3225C40.1351 14.2203 40.0542 14.0989 39.9991 13.9654C39.944 13.832 39.9158 13.6889 39.9161 13.5445Z" fill="url(#paint3_linear)"/>
<path d="M33.3061 13.5445C33.3065 13.3273 33.3712 13.1152 33.4922 12.9348C33.6131 12.7544 33.7848 12.6139 33.9855 12.5311C34.1863 12.4482 34.4071 12.4267 34.62 12.4693C34.833 12.5119 35.0285 12.6167 35.1819 12.7704C35.3354 12.9241 35.4398 13.1198 35.482 13.3328C35.5242 13.5459 35.5024 13.7666 35.4192 13.9672C35.336 14.1678 35.1952 14.3393 35.0146 14.4599C34.834 14.5805 34.6217 14.6449 34.4045 14.6449C34.2601 14.6449 34.1171 14.6164 33.9837 14.5611C33.8503 14.5057 33.7292 14.4247 33.6272 14.3225C33.5251 14.2203 33.4443 14.0989 33.3892 13.9654C33.3341 13.832 33.3059 13.6889 33.3061 13.5445Z" fill="url(#paint4_linear)"/>
<path d="M26.6963 13.5445C26.6963 13.3268 26.7609 13.114 26.8819 12.933C27.0029 12.752 27.1748 12.6109 27.376 12.5277C27.5772 12.4445 27.7985 12.4228 28.012 12.4654C28.2255 12.508 28.4216 12.613 28.5754 12.7671C28.7292 12.9212 28.8339 13.1174 28.8761 13.331C28.9184 13.5446 28.8963 13.7659 28.8127 13.9669C28.7291 14.168 28.5878 14.3397 28.4066 14.4604C28.2254 14.581 28.0124 14.6452 27.7947 14.6449C27.5032 14.6444 27.2238 14.5282 27.0179 14.3219C26.812 14.1156 26.6963 13.836 26.6963 13.5445Z" fill="url(#paint5_linear)"/>
<path d="M20.0882 13.5445C20.0886 13.3273 20.1534 13.1152 20.2743 12.9348C20.3952 12.7544 20.5669 12.6139 20.7677 12.5311C20.9684 12.4482 21.1892 12.4267 21.4022 12.4693C21.6151 12.5119 21.8107 12.6167 21.9641 12.7704C22.1175 12.9241 22.2219 13.1198 22.2642 13.3328C22.3064 13.5459 22.2845 13.7666 22.2013 13.9672C22.1181 14.1678 21.9773 14.3393 21.7967 14.4599C21.6162 14.5805 21.4039 14.6449 21.1867 14.6449C21.0423 14.6449 20.8993 14.6164 20.7659 14.5611C20.6325 14.5057 20.5113 14.4247 20.4093 14.3225C20.3073 14.2203 20.2264 14.0989 20.1713 13.9654C20.1162 13.832 20.088 13.6889 20.0882 13.5445Z" fill="url(#paint6_linear)"/>
<path d="M13.4782 13.5445C13.4786 13.3273 13.5433 13.1152 13.6643 12.9348C13.7852 12.7544 13.9569 12.6139 14.1577 12.5311C14.3584 12.4482 14.5792 12.4267 14.7921 12.4693C15.0051 12.5119 15.2006 12.6167 15.354 12.7704C15.5075 12.9241 15.6119 13.1198 15.6541 13.3328C15.6964 13.5459 15.6745 13.7666 15.5913 13.9672C15.5081 14.1678 15.3673 14.3393 15.1867 14.4599C15.0061 14.5805 14.7938 14.6449 14.5767 14.6449C14.4322 14.6449 14.2893 14.6164 14.1559 14.5611C14.0225 14.5057 13.9013 14.4247 13.7993 14.3225C13.6972 14.2203 13.6164 14.0989 13.5613 13.9654C13.5062 13.832 13.478 13.6889 13.4782 13.5445Z" fill="url(#paint7_linear)"/>
<path d="M6.87415 13.5445C6.87453 13.3273 6.93929 13.1152 7.06022 12.9348C7.18115 12.7544 7.35283 12.6139 7.55357 12.5311C7.75432 12.4482 7.9751 12.4267 8.18805 12.4693C8.401 12.5119 8.59653 12.6167 8.74996 12.7704C8.90338 12.9241 9.00782 13.1198 9.05005 13.3328C9.09227 13.5459 9.0704 13.7666 8.98721 13.9672C8.90401 14.1678 8.76323 14.3393 8.58263 14.4599C8.40204 14.5805 8.18976 14.6449 7.97259 14.6449C7.68109 14.6444 7.40171 14.5282 7.19577 14.3219C6.98982 14.1156 6.87415 13.836 6.87415 13.5445Z" fill="url(#paint8_linear)"/>
<path d="M0.260378 13.5445C0.26076 13.3273 0.325493 13.1152 0.446422 12.9348C0.567352 12.7544 0.739033 12.6139 0.939778 12.5311C1.14052 12.4482 1.36133 12.4267 1.57428 12.4693C1.78723 12.5119 1.98276 12.6167 2.13619 12.7704C2.28961 12.9241 2.39405 13.1198 2.43628 13.3328C2.4785 13.5459 2.45663 13.7666 2.37344 13.9672C2.29024 14.1678 2.14946 14.3393 1.96886 14.4599C1.78827 14.5805 1.57596 14.6449 1.3588 14.6449C1.21439 14.6449 1.0714 14.6164 0.938008 14.5611C0.804614 14.5057 0.683429 14.4247 0.581405 14.3225C0.479381 14.2203 0.398514 14.0989 0.343426 13.9654C0.288338 13.832 0.260123 13.6889 0.260378 13.5445Z" fill="url(#paint9_linear)"/>
<path d="M59.7439 7.61341C59.7439 7.39616 59.8084 7.18379 59.9291 7.00315C60.0497 6.82252 60.2213 6.68173 60.422 6.59859C60.6227 6.51545 60.8436 6.4937 61.0567 6.53608C61.2697 6.57846 61.4655 6.68308 61.6191 6.8367C61.7727 6.99032 61.8773 7.18604 61.9197 7.39912C61.9621 7.61219 61.9403 7.83305 61.8572 8.03376C61.774 8.23447 61.6333 8.40602 61.4526 8.52672C61.272 8.64742 61.0596 8.71184 60.8424 8.71184C60.551 8.71184 60.2717 8.59611 60.0657 8.39012C59.8597 8.18412 59.7439 7.90473 59.7439 7.61341Z" fill="url(#paint10_linear)"/>
<path d="M53.134 7.61341C53.134 7.39616 53.1984 7.18379 53.3191 7.00315C53.4398 6.82252 53.6114 6.68173 53.8121 6.59859C54.0128 6.51545 54.2336 6.4937 54.4467 6.53608C54.6598 6.57847 54.8555 6.68308 55.0091 6.8367C55.1628 6.99032 55.2674 7.18604 55.3098 7.39912C55.3521 7.61219 55.3304 7.83305 55.2472 8.03376C55.1641 8.23447 55.0233 8.40602 54.8427 8.52672C54.662 8.64742 54.4497 8.71184 54.2324 8.71184C53.9413 8.71133 53.6622 8.59544 53.4563 8.38955C53.2504 8.18367 53.1345 7.90457 53.134 7.61341Z" fill="url(#paint11_linear)"/>
<path d="M46.5183 7.61341C46.5183 7.39616 46.5827 7.18379 46.7034 7.00315C46.8241 6.82252 46.9956 6.68173 47.1964 6.59859C47.3971 6.51545 47.6179 6.4937 47.831 6.53608C48.0441 6.57847 48.2398 6.68308 48.3934 6.8367C48.547 6.99032 48.6516 7.18604 48.694 7.39912C48.7364 7.61219 48.7147 7.83305 48.6315 8.03376C48.5484 8.23447 48.4076 8.40603 48.227 8.52672C48.0463 8.64742 47.834 8.71184 47.6167 8.71184C47.3254 8.71184 47.046 8.59612 46.84 8.39012C46.634 8.18412 46.5183 7.90473 46.5183 7.61341Z" fill="url(#paint12_linear)"/>
<path d="M39.9161 7.61341C39.9161 7.39616 39.9805 7.18379 40.1012 7.00315C40.2219 6.82252 40.3934 6.68173 40.5941 6.59859C40.7948 6.51545 41.0157 6.4937 41.2288 6.53608C41.4419 6.57847 41.6376 6.68308 41.7912 6.8367C41.9448 6.99032 42.0494 7.18604 42.0918 7.39912C42.1342 7.61219 42.1124 7.83305 42.0293 8.03376C41.9462 8.23447 41.8054 8.40602 41.6247 8.52672C41.4441 8.64742 41.2317 8.71184 41.0145 8.71184C40.7232 8.71184 40.4438 8.59611 40.2378 8.39012C40.0318 8.18412 39.9161 7.90473 39.9161 7.61341Z" fill="url(#paint13_linear)"/>
<path d="M33.3061 7.61341C33.3061 7.39616 33.3705 7.18379 33.4912 7.00315C33.6119 6.82252 33.7835 6.68173 33.9842 6.59859C34.1849 6.51545 34.4058 6.4937 34.6188 6.53608C34.8319 6.57847 35.0276 6.68308 35.1812 6.8367C35.3349 6.99032 35.4395 7.18604 35.4819 7.39912C35.5243 7.61219 35.5025 7.83305 35.4194 8.03376C35.3362 8.23447 35.1954 8.40602 35.0148 8.52672C34.8342 8.64742 34.6218 8.71184 34.4045 8.71184C34.1132 8.71184 33.8338 8.59612 33.6278 8.39012C33.4218 8.18412 33.3061 7.90473 33.3061 7.61341Z" fill="url(#paint14_linear)"/>
<path d="M26.6963 7.61341C26.6959 7.39561 26.7602 7.1826 26.8809 7.00135C27.0017 6.8201 27.1735 6.67876 27.3747 6.59524C27.5758 6.51171 27.7972 6.48976 28.0109 6.53216C28.2245 6.57455 28.4207 6.67939 28.5747 6.8334C28.7287 6.9874 28.8336 7.18365 28.876 7.39728C28.9184 7.61091 28.8964 7.83231 28.8129 8.03346C28.7294 8.2346 28.588 8.40644 28.4068 8.5272C28.2255 8.64796 28.0125 8.71222 27.7947 8.71184C27.5036 8.71133 27.2245 8.59544 27.0186 8.38955C26.8127 8.18366 26.6968 7.90457 26.6963 7.61341Z" fill="url(#paint15_linear)"/>
<path d="M20.0882 7.61341C20.0882 7.39616 20.1527 7.18379 20.2734 7.00315C20.3941 6.82252 20.5656 6.68173 20.7663 6.59859C20.967 6.51545 21.1879 6.4937 21.401 6.53608C21.6141 6.57847 21.8098 6.68308 21.9634 6.8367C22.117 6.99032 22.2216 7.18604 22.264 7.39912C22.3064 7.61219 22.2846 7.83305 22.2015 8.03376C22.1184 8.23447 21.9776 8.40602 21.7969 8.52672C21.6163 8.64742 21.4039 8.71184 21.1867 8.71184C20.8954 8.71184 20.616 8.59611 20.41 8.39012C20.204 8.18412 20.0882 7.90473 20.0882 7.61341Z" fill="url(#paint16_linear)"/>
<path d="M13.4782 7.61341C13.4782 7.39616 13.5427 7.18379 13.6634 7.00315C13.7841 6.82252 13.9556 6.68173 14.1563 6.59859C14.357 6.51545 14.5779 6.4937 14.791 6.53608C15.004 6.57847 15.1997 6.68308 15.3534 6.8367C15.507 6.99032 15.6116 7.18604 15.654 7.39912C15.6964 7.61219 15.6746 7.83305 15.5915 8.03376C15.5083 8.23447 15.3675 8.40603 15.1869 8.52672C15.0063 8.64742 14.7939 8.71184 14.5767 8.71184C14.4324 8.71184 14.2896 8.68343 14.1563 8.62823C14.023 8.57303 13.9019 8.49212 13.7999 8.39012C13.6979 8.28812 13.617 8.16703 13.5618 8.03376C13.5066 7.90049 13.4782 7.75766 13.4782 7.61341Z" fill="url(#paint17_linear)"/>
<path d="M6.87415 7.61341C6.87415 7.39616 6.93857 7.18379 7.05927 7.00315C7.17997 6.82252 7.35151 6.68173 7.55223 6.59859C7.75294 6.51545 7.97379 6.4937 8.18687 6.53608C8.39994 6.57847 8.59568 6.68308 8.7493 6.8367C8.90292 6.99032 9.00752 7.18604 9.0499 7.39912C9.09229 7.61219 9.07053 7.83305 8.98739 8.03376C8.90426 8.23447 8.76348 8.40602 8.58285 8.52672C8.40221 8.64742 8.18984 8.71184 7.97259 8.71184C7.68142 8.71133 7.40231 8.59544 7.19643 8.38955C6.99054 8.18367 6.87466 7.90457 6.87415 7.61341Z" fill="url(#paint18_linear)"/>
<path d="M0.260378 7.61341C0.260378 7.39616 0.32478 7.18379 0.445478 7.00315C0.566175 6.82252 0.737744 6.68173 0.938456 6.59859C1.13917 6.51545 1.36002 6.4937 1.5731 6.53608C1.78617 6.57847 1.98189 6.68308 2.1355 6.8367C2.28912 6.99032 2.39375 7.18604 2.43614 7.39912C2.47852 7.61219 2.45676 7.83305 2.37362 8.03376C2.29049 8.23447 2.14969 8.40602 1.96905 8.52672C1.78842 8.64742 1.57605 8.71184 1.3588 8.71184C1.06747 8.71184 0.788086 8.59612 0.58209 8.39012C0.376094 8.18412 0.260378 7.90473 0.260378 7.61341Z" fill="url(#paint19_linear)"/>
<path d="M59.7439 1.68233C59.7439 1.46508 59.8083 1.25271 59.929 1.07207C60.0497 0.891435 60.2213 0.750646 60.422 0.667508C60.6227 0.584371 60.8436 0.562618 61.0567 0.605001C61.2697 0.647384 61.4655 0.751999 61.6191 0.905618C61.7727 1.05924 61.8773 1.25496 61.9197 1.46804C61.9621 1.68111 61.9403 1.90197 61.8572 2.10268C61.774 2.30339 61.6333 2.47494 61.4526 2.59564C61.272 2.71634 61.0596 2.78076 60.8424 2.78076C60.551 2.78076 60.2717 2.66503 60.0657 2.45904C59.8597 2.25304 59.7439 1.97365 59.7439 1.68233Z" fill="white"/>
<path d="M53.1339 1.68233C53.1339 1.46508 53.1984 1.25271 53.3191 1.07207C53.4398 0.891435 53.6113 0.750646 53.812 0.667508C54.0127 0.584371 54.2336 0.562618 54.4467 0.605001C54.6597 0.647384 54.8555 0.751999 55.0091 0.905618C55.1627 1.05924 55.2673 1.25496 55.3097 1.46804C55.3521 1.68111 55.3303 1.90197 55.2472 2.10268C55.1641 2.30339 55.0233 2.47494 54.8426 2.59564C54.662 2.71634 54.4496 2.78076 54.2324 2.78076C53.9412 2.78025 53.6621 2.66436 53.4562 2.45847C53.2503 2.25259 53.1345 1.97349 53.1339 1.68233Z" fill="white"/>
<path d="M46.5182 1.68233C46.5182 1.46508 46.5827 1.25271 46.7033 1.07207C46.824 0.891435 46.9956 0.750646 47.1963 0.667508C47.397 0.584371 47.6179 0.562618 47.8309 0.605001C48.044 0.647384 48.2397 0.751999 48.3934 0.905618C48.547 1.05924 48.6516 1.25496 48.694 1.46804C48.7364 1.68111 48.7146 1.90197 48.6315 2.10268C48.5483 2.30339 48.4075 2.47494 48.2269 2.59564C48.0463 2.71634 47.8339 2.78076 47.6167 2.78076C47.3253 2.78076 47.0459 2.66503 46.8399 2.45904C46.634 2.25304 46.5182 1.97365 46.5182 1.68233Z" fill="white"/>
<path d="M39.916 1.68233C39.916 1.46508 39.9805 1.25271 40.1012 1.07207C40.2219 0.891435 40.3934 0.750646 40.5941 0.667508C40.7948 0.584371 41.0157 0.562618 41.2288 0.605001C41.4419 0.647384 41.6376 0.751999 41.7912 0.905618C41.9448 1.05924 42.0494 1.25496 42.0918 1.46804C42.1342 1.68111 42.1124 1.90197 42.0293 2.10268C41.9462 2.30339 41.8054 2.47494 41.6247 2.59564C41.4441 2.71634 41.2317 2.78076 41.0145 2.78076C40.7232 2.78076 40.4438 2.66503 40.2378 2.45904C40.0318 2.25304 39.916 1.97365 39.916 1.68233Z" fill="white"/>
<path d="M33.3061 1.68233C33.3061 1.46508 33.3705 1.25271 33.4912 1.07207C33.6119 0.891435 33.7834 0.750646 33.9841 0.667508C34.1849 0.584371 34.4057 0.562618 34.6188 0.605001C34.8319 0.647384 35.0276 0.751999 35.1812 0.905618C35.3348 1.05924 35.4394 1.25496 35.4818 1.46804C35.5242 1.68111 35.5025 1.90197 35.4193 2.10268C35.3362 2.30339 35.1954 2.47494 35.0148 2.59564C34.8341 2.71634 34.6217 2.78076 34.4045 2.78076C34.1132 2.78076 33.8338 2.66503 33.6278 2.45904C33.4218 2.25304 33.3061 1.97365 33.3061 1.68233Z" fill="white"/>
<path d="M26.6962 1.68233C26.6959 1.46453 26.7601 1.25152 26.8809 1.07027C27.0016 0.889019 27.1735 0.747681 27.3746 0.664158C27.5758 0.580634 27.7972 0.558682 28.0108 0.601078C28.2244 0.643474 28.4207 0.748311 28.5747 0.902317C28.7287 1.05632 28.8335 1.25257 28.8759 1.4662C28.9183 1.67983 28.8964 1.90123 28.8128 2.10238C28.7293 2.30352 28.588 2.47536 28.4067 2.59612C28.2255 2.71688 28.0125 2.78114 27.7947 2.78076C27.5035 2.78025 27.2244 2.66435 27.0185 2.45847C26.8127 2.25258 26.6968 1.97349 26.6962 1.68233Z" fill="white"/>
<path d="M20.0882 1.68216C20.0897 1.46516 20.1555 1.25348 20.2772 1.07383C20.3989 0.89417 20.5711 0.754586 20.7721 0.672691C20.973 0.590796 21.1937 0.570259 21.4063 0.613668C21.6189 0.657078 21.8139 0.762489 21.9667 0.916604C22.1195 1.07072 22.2232 1.26663 22.2647 1.47962C22.3063 1.69261 22.2838 1.91313 22.2001 2.11336C22.1165 2.31358 21.9754 2.48455 21.7947 2.60467C21.6139 2.7248 21.4017 2.78871 21.1847 2.78833C21.04 2.78808 20.8967 2.75922 20.7631 2.70342C20.6296 2.64763 20.5084 2.56598 20.4065 2.46319C20.3046 2.3604 20.224 2.23848 20.1694 2.10444C20.1148 1.9704 20.0872 1.8269 20.0882 1.68216Z" fill="white"/>
<path d="M13.4782 1.68233C13.4782 1.46508 13.5426 1.25271 13.6633 1.07207C13.784 0.891435 13.9556 0.750646 14.1563 0.667508C14.357 0.584371 14.5778 0.562618 14.7909 0.605001C15.004 0.647384 15.1997 0.751999 15.3533 0.905618C15.5069 1.05924 15.6116 1.25496 15.6539 1.46804C15.6963 1.68111 15.6746 1.90197 15.5914 2.10268C15.5083 2.30339 15.3675 2.47494 15.1869 2.59564C15.0062 2.71634 14.7939 2.78076 14.5766 2.78076C14.4324 2.78076 14.2895 2.75235 14.1563 2.69715C14.023 2.64195 13.9019 2.56104 13.7999 2.45904C13.6979 2.35704 13.617 2.23595 13.5618 2.10268C13.5066 1.96941 13.4782 1.82658 13.4782 1.68233Z" fill="white"/>
<path d="M6.87418 1.68233C6.87418 1.46508 6.93861 1.25271 7.05931 1.07207C7.18 0.891435 7.35155 0.750646 7.55226 0.667508C7.75297 0.584371 7.97383 0.562618 8.1869 0.605001C8.39998 0.647384 8.59571 0.751999 8.74933 0.905618C8.90295 1.05924 9.00756 1.25496 9.04994 1.46804C9.09232 1.68111 9.07057 1.90197 8.98743 2.10268C8.90429 2.30339 8.76352 2.47494 8.58288 2.59564C8.40224 2.71634 8.18987 2.78076 7.97262 2.78076C7.68146 2.78025 7.40235 2.66436 7.19646 2.45847C6.99057 2.25259 6.87469 1.97349 6.87418 1.68233Z" fill="white"/>
<path d="M0.260412 1.68233C0.260412 1.46508 0.324815 1.25271 0.445512 1.07207C0.566209 0.891435 0.737778 0.750646 0.938491 0.667508C1.1392 0.584371 1.36006 0.562618 1.57313 0.605001C1.78621 0.647384 1.98192 0.751999 2.13554 0.905618C2.28916 1.05924 2.39379 1.25496 2.43617 1.46804C2.47855 1.68111 2.4568 1.90197 2.37366 2.10268C2.29052 2.30339 2.14972 2.47494 1.96909 2.59564C1.78845 2.71634 1.57608 2.78076 1.35883 2.78076C1.06751 2.78076 0.78812 2.66503 0.582124 2.45904C0.376128 2.25304 0.260412 1.97365 0.260412 1.68233Z" fill="white"/>
<defs>
<linearGradient id="paint0_linear" x1="60.6403" y1="14.5465" x2="58.5852" y2="-1.10931" gradientUnits="userSpaceOnUse">
<stop stop-color="#ED1675"/>
<stop offset="1" stop-color="#FF512F"/>
</linearGradient>
<linearGradient id="paint1_linear" x1="60.6403" y1="14.5465" x2="58.5852" y2="-1.10931" gradientUnits="userSpaceOnUse">
<stop stop-color="#ED1675"/>
<stop offset="1" stop-color="#FF512F"/>
</linearGradient>
<linearGradient id="paint2_linear" x1="60.6403" y1="14.5465" x2="58.5852" y2="-1.10931" gradientUnits="userSpaceOnUse">
<stop stop-color="#ED1675"/>
<stop offset="1" stop-color="#FF512F"/>
</linearGradient>
<linearGradient id="paint3_linear" x1="60.6403" y1="14.5465" x2="58.5852" y2="-1.10931" gradientUnits="userSpaceOnUse">
<stop stop-color="#ED1675"/>
<stop offset="1" stop-color="#FF512F"/>
</linearGradient>
<linearGradient id="paint4_linear" x1="60.6403" y1="14.5465" x2="58.5852" y2="-1.10931" gradientUnits="userSpaceOnUse">
<stop stop-color="#ED1675"/>
<stop offset="1" stop-color="#FF512F"/>
</linearGradient>
<linearGradient id="paint5_linear" x1="60.6403" y1="14.5465" x2="58.5852" y2="-1.10931" gradientUnits="userSpaceOnUse">
<stop stop-color="#ED1675"/>
<stop offset="1" stop-color="#FF512F"/>
</linearGradient>
<linearGradient id="paint6_linear" x1="60.6403" y1="14.5465" x2="58.5852" y2="-1.10931" gradientUnits="userSpaceOnUse">
<stop stop-color="#ED1675"/>
<stop offset="1" stop-color="#FF512F"/>
</linearGradient>
<linearGradient id="paint7_linear" x1="60.6403" y1="14.5465" x2="58.5852" y2="-1.10931" gradientUnits="userSpaceOnUse">
<stop stop-color="#ED1675"/>
<stop offset="1" stop-color="#FF512F"/>
</linearGradient>
<linearGradient id="paint8_linear" x1="60.6403" y1="14.5465" x2="58.5852" y2="-1.10931" gradientUnits="userSpaceOnUse">
<stop stop-color="#ED1675"/>
<stop offset="1" stop-color="#FF512F"/>
</linearGradient>
<linearGradient id="paint9_linear" x1="60.6403" y1="14.5465" x2="58.5852" y2="-1.10931" gradientUnits="userSpaceOnUse">
<stop stop-color="#ED1675"/>
<stop offset="1" stop-color="#FF512F"/>
</linearGradient>
<linearGradient id="paint10_linear" x1="60.6403" y1="14.5465" x2="58.5852" y2="-1.10931" gradientUnits="userSpaceOnUse">
<stop stop-color="#ED1675"/>
<stop offset="1" stop-color="#FF512F"/>
</linearGradient>
<linearGradient id="paint11_linear" x1="60.6403" y1="14.5465" x2="58.5852" y2="-1.10931" gradientUnits="userSpaceOnUse">
<stop stop-color="#ED1675"/>
<stop offset="1" stop-color="#FF512F"/>
</linearGradient>
<linearGradient id="paint12_linear" x1="60.6403" y1="14.5465" x2="58.5852" y2="-1.10931" gradientUnits="userSpaceOnUse">
<stop stop-color="#ED1675"/>
<stop offset="1" stop-color="#FF512F"/>
</linearGradient>
<linearGradient id="paint13_linear" x1="60.6403" y1="14.5465" x2="58.5852" y2="-1.10931" gradientUnits="userSpaceOnUse">
<stop stop-color="#ED1675"/>
<stop offset="1" stop-color="#FF512F"/>
</linearGradient>
<linearGradient id="paint14_linear" x1="60.6403" y1="14.5465" x2="58.5852" y2="-1.10931" gradientUnits="userSpaceOnUse">
<stop stop-color="#ED1675"/>
<stop offset="1" stop-color="#FF512F"/>
</linearGradient>
<linearGradient id="paint15_linear" x1="60.6403" y1="14.5465" x2="58.5852" y2="-1.10931" gradientUnits="userSpaceOnUse">
<stop stop-color="#ED1675"/>
<stop offset="1" stop-color="#FF512F"/>
</linearGradient>
<linearGradient id="paint16_linear" x1="60.6403" y1="14.5465" x2="58.5852" y2="-1.10931" gradientUnits="userSpaceOnUse">
<stop stop-color="#ED1675"/>
<stop offset="1" stop-color="#FF512F"/>
</linearGradient>
<linearGradient id="paint17_linear" x1="60.6403" y1="14.5465" x2="58.5852" y2="-1.10931" gradientUnits="userSpaceOnUse">
<stop stop-color="#ED1675"/>
<stop offset="1" stop-color="#FF512F"/>
</linearGradient>
<linearGradient id="paint18_linear" x1="60.6403" y1="14.5465" x2="58.5852" y2="-1.10931" gradientUnits="userSpaceOnUse">
<stop stop-color="#ED1675"/>
<stop offset="1" stop-color="#FF512F"/>
</linearGradient>
<linearGradient id="paint19_linear" x1="60.6403" y1="14.5465" x2="58.5852" y2="-1.10931" gradientUnits="userSpaceOnUse">
<stop stop-color="#ED1675"/>
<stop offset="1" stop-color="#FF512F"/>
</linearGradient>
</defs>
</svg>
