<svg width="61" height="60" viewBox="0 0 61 60" fill="none" xmlns="http://www.w3.org/2000/svg">
<path d="M30.6138 60C47.1823 60 60.6138 46.5685 60.6138 30C60.6138 13.4315 47.1823 0 30.6138 0C14.0452 0 0.61377 13.4315 0.61377 30C0.61377 46.5685 14.0452 60 30.6138 60Z" fill="white"/>
<path d="M18.1388 39.3685C18.2138 39.6668 20.0855 46.6668 30.6138 46.6668C41.1438 46.6668 43.0138 39.6668 43.0888 39.3685C43.1805 39.0068 43.0171 38.6318 42.6938 38.4452C42.3688 38.2602 41.9621 38.3152 41.6938 38.5735C41.6621 38.6052 38.4371 41.6668 30.6138 41.6668C22.7905 41.6668 19.5638 38.6052 19.5338 38.5752C19.3738 38.4168 19.1605 38.3335 18.9471 38.3335C18.8071 38.3335 18.6655 38.3685 18.5371 38.4402C18.2105 38.6268 18.0471 39.0052 18.1388 39.3685V39.3685Z" fill="black"/>
<path d="M20.6137 28.3327C22.9149 28.3327 24.7804 25.721 24.7804 22.4993C24.7804 19.2777 22.9149 16.666 20.6137 16.666C18.3125 16.666 16.447 19.2777 16.447 22.4993C16.447 25.721 18.3125 28.3327 20.6137 28.3327Z" fill="black"/>
<path d="M40.6138 28.3327C42.915 28.3327 44.7805 25.721 44.7805 22.4993C44.7805 19.2777 42.915 16.666 40.6138 16.666C38.3126 16.666 36.4471 19.2777 36.4471 22.4993C36.4471 25.721 38.3126 28.3327 40.6138 28.3327Z" fill="black"/>
</svg>
