<svg width="61" height="60" viewBox="0 0 61 60" fill="none" xmlns="http://www.w3.org/2000/svg">
<path d="M60.1161 30C60.1161 46.5683 46.6844 60 30.1161 60C13.5494 60 0.116089 46.5683 0.116089 30C0.116089 13.4333 13.5494 0 30.1161 0C46.6844 0 60.1161 13.4333 60.1161 30Z" fill="white"/>
<path d="M19.2829 33.3332C21.5841 33.3332 23.4495 30.7215 23.4495 27.4998C23.4495 24.2782 21.5841 21.6665 19.2829 21.6665C16.9817 21.6665 15.1162 24.2782 15.1162 27.4998C15.1162 30.7215 16.9817 33.3332 19.2829 33.3332Z" fill="black"/>
<path d="M40.9496 33.3332C43.2508 33.3332 45.1162 30.7215 45.1162 27.4998C45.1162 24.2782 43.2508 21.6665 40.9496 21.6665C38.6484 21.6665 36.7829 24.2782 36.7829 27.4998C36.7829 30.7215 38.6484 33.3332 40.9496 33.3332Z" fill="black"/>
<path d="M41.7828 43.3333H18.4495C17.5295 43.3333 16.7828 42.5883 16.7828 41.6667C16.7828 40.745 17.5295 40 18.4495 40H41.7828C42.7045 40 43.4495 40.745 43.4495 41.6667C43.4495 42.5883 42.7045 43.3333 41.7828 43.3333Z" fill="black"/>
</svg>
