<svg width="24" height="24" viewBox="0 0 24 24" fill="none" xmlns="http://www.w3.org/2000/svg">
<path d="M3.51562 24H11.3438V15.4688H8.53125V12.6562H11.3438V9.14062C11.3438 7.20209 12.9208 5.625 14.8594 5.625H18.375V8.4375H15.5625C14.787 8.4375 14.1562 9.0683 14.1562 9.84375V12.6562H18.2481L17.7794 15.4688H14.1562V24H20.4844C22.4229 24 24 22.4229 24 20.4844V3.51562C24 1.57709 22.4229 0 20.4844 0H3.51562C1.57709 0 0 1.57709 0 3.51562V20.4844C0 22.4229 1.57709 24 3.51562 24ZM1.40625 3.51562C1.40625 2.35254 2.35254 1.40625 3.51562 1.40625H20.4844C21.6475 1.40625 22.5938 2.35254 22.5938 3.51562V20.4844C22.5938 21.6475 21.6475 22.5938 20.4844 22.5938H15.5625V16.875H18.9706L19.9081 11.25H15.5625V9.84375H19.7812V4.21875H14.8594C12.1454 4.21875 9.9375 6.42664 9.9375 9.14062V11.25H7.125V16.875H9.9375V22.5938H3.51562C2.35254 22.5938 1.40625 21.6475 1.40625 20.4844V3.51562Z" fill="white"/>
</svg>
