<svg width="32" height="16" viewBox="0 0 32 16" fill="none" xmlns="http://www.w3.org/2000/svg">
<path d="M29.8394 2.71303C28.3689 1.25572 26.2951 0.453125 24 0.453125C21.1699 0.453125 19.0395 1.87965 17.5467 3.46219C18.1139 4.22443 18.5559 4.95407 18.8781 5.54612C20.0248 4.10084 21.742 2.64062 24 2.64062C27.1869 2.64062 29.5 4.89457 29.5 8C29.5 11.1054 27.1869 13.3594 24 13.3594C19.4441 13.3594 17.2068 7.7083 17.1854 7.65279L17.1792 7.63709C17.0613 7.34375 14.2201 0.453125 8 0.453125C5.70487 0.453125 3.63112 1.25572 2.16056 2.71303C0.767313 4.09378 0 5.97142 0 8C0 10.0286 0.767313 11.9062 2.16056 13.287C3.63112 14.7443 5.70487 15.5469 8 15.5469C10.8534 15.5469 12.9729 14.1562 14.4528 12.5964C13.8869 11.8344 13.4487 11.1038 13.1271 10.5022C11.9956 11.9303 10.2911 13.3594 8 13.3594C4.81306 13.3594 2.5 11.1054 2.5 8C2.5 4.89457 4.81306 2.64062 8 2.64062C12.3971 2.64062 14.7443 8.17856 14.8191 8.3588C14.9852 8.78712 17.7096 15.5469 24 15.5469C26.2951 15.5469 28.3689 14.7443 29.8394 13.287C31.2327 11.9062 32 10.0286 32 8C32 5.97142 31.2327 4.09378 29.8394 2.71303Z" fill="white"/>
</svg>
