<svg width="115" height="200" viewBox="0 0 115 200" fill="none" xmlns="http://www.w3.org/2000/svg">
<path d="M88.0398 107.61C104.23 97.3033 115 79.0591 115 58.2571C115 26.0828 89.2561 0 57.5 0C25.7439 0 0 26.0828 0 58.2571C0 79.0591 10.7696 97.3033 26.9602 107.61L3.7632 200H112.718L88.0398 107.61Z" fill="black"/>
<mask id="mask0" mask-type="alpha" maskUnits="userSpaceOnUse" x="0" y="0" width="115" height="200">
<path d="M88.0398 107.61C104.23 97.3033 115 79.0591 115 58.2571C115 26.0828 89.2561 0 57.5 0C25.7439 0 0 26.0828 0 58.2571C0 79.0591 10.7696 97.3033 26.9602 107.61L3.7632 200H112.718L88.0398 107.61Z" fill="black"/>
</mask>
<g mask="url(#mask0)">
<path d="M71.6095 189V187.74L75.0255 184.254C75.8561 183.423 76.2715 182.705 76.2715 182.098C76.2715 181.622 76.1268 181.253 75.8375 180.992C75.5575 180.721 75.1981 180.586 74.7595 180.586C73.9381 180.586 73.3315 180.992 72.9395 181.804L71.5815 181.006C71.8895 180.353 72.3235 179.858 72.8835 179.522C73.4435 179.186 74.0641 179.018 74.7455 179.018C75.6041 179.018 76.3415 179.289 76.9575 179.83C77.5735 180.371 77.8815 181.109 77.8815 182.042C77.8815 183.041 77.3261 184.105 76.2155 185.234L74.0035 187.446H78.0635V189H71.6095ZM85.6169 187.796C84.9449 188.72 84.0022 189.182 82.7889 189.182C81.5756 189.182 80.6282 188.72 79.9469 187.796C79.2749 186.872 78.9389 185.64 78.9389 184.1C78.9389 182.56 79.2749 181.328 79.9469 180.404C80.6282 179.48 81.5756 179.018 82.7889 179.018C84.0022 179.018 84.9449 179.48 85.6169 180.404C86.2982 181.328 86.6389 182.56 86.6389 184.1C86.6389 185.64 86.2982 186.872 85.6169 187.796ZM82.7889 187.614C83.5169 187.614 84.0722 187.311 84.4549 186.704C84.8376 186.097 85.0289 185.229 85.0289 184.1C85.0289 182.971 84.8376 182.103 84.4549 181.496C84.0722 180.889 83.5169 180.586 82.7889 180.586C82.0702 180.586 81.5149 180.889 81.1229 181.496C80.7402 182.103 80.5489 182.971 80.5489 184.1C80.5489 185.229 80.7402 186.097 81.1229 186.704C81.5149 187.311 82.0702 187.614 82.7889 187.614ZM94.0573 183.386V184.814H91.6913V187.18H90.2633V184.814H87.8973V183.386H90.2633V181.02H91.6913V183.386H94.0573Z" fill="white"/>
<path d="M37.7429 150L37.0569 148.026H32.8849L32.1989 150H30.4489L34.0049 140.2H35.9369L39.4789 150H37.7429ZM33.4169 146.514H36.5249L34.9709 142.09L33.4169 146.514ZM40.0327 140.2H41.6427V150H40.0327V140.2Z" fill="white"/>
<path d="M71.5455 9.2V19H69.9355V12.014L66.9535 16.942H66.7575L63.7755 12V19H62.1655V9.2H63.9015L66.8555 14.1L69.8235 9.2H71.5455ZM74.6095 17.46H78.5995V19H72.9995V9.2H74.6095V17.46Z" fill="white"/>
</g>
</svg>
