<svg width="640" height="840" viewBox="0 0 640 840" fill="none" xmlns="http://www.w3.org/2000/svg">
<path fill-rule="evenodd" clip-rule="evenodd" d="M511.963 337.997C522.785 338.634 523.348 339.558 521.861 350.519L521.893 350.476C523.582 344.614 527.151 341.481 532.344 340.365C532.713 340.292 533.048 340.103 533.304 339.827C533.559 339.551 533.72 339.202 533.765 338.828C533.81 338.455 533.736 338.077 533.553 337.749C533.37 337.42 533.088 337.158 532.748 336.999C532.376 336.839 532.025 336.669 531.685 336.478C531.685 336.478 529.766 335.539 524.973 335.883C522.284 336.077 518.083 335.468 518.083 335.468C519.94 332.258 517.526 329.439 513.696 324.967L513.693 324.963C513.143 324.321 512.563 323.644 511.963 322.926C509.44 319.912 497.565 315.409 493.655 315.003C491.941 314.826 490.363 314.55 488.882 314.291C483.78 313.4 479.848 312.713 475.6 316.953C471.685 320.86 472.078 322.656 472.854 326.202C473.164 327.62 473.536 329.316 473.718 331.54C470.393 331.251 458.418 324.466 445.862 311.148C433.306 297.83 423.971 307.59 423.971 307.59C423.971 307.59 413.913 319.506 419.223 329.214C419.338 329.424 419.406 329.548 419.394 329.556C419.377 329.568 419.199 329.347 418.769 328.811L418.769 328.81L418.768 328.81C418.035 327.897 416.568 326.07 413.913 322.926C403.91 314.525 397.724 315.175 390.834 316.458C379.871 318.5 376.119 315.63 371.773 312.305C369.63 310.666 367.342 308.916 363.974 307.59C355.816 304.378 343.284 312.231 338.039 319.082C334.473 324.34 329.682 324.352 324.428 324.365C321.968 324.371 319.406 324.377 316.821 324.923C313.22 325.683 309.745 323.84 306.335 322.032C302.158 319.816 298.079 317.653 293.986 320.388C289.876 323.135 288.408 324.054 287.264 324.772C286.339 325.352 285.625 325.799 283.897 326.973H279.327L279.251 326.56L279.251 326.558C279.093 325.703 278.96 324.977 278.85 324.243C277.193 313.463 269.928 309.438 259.137 309.799C248.814 310.139 244.215 315.205 240.509 323.394C237.556 329.904 236.229 330.488 228.614 328.162C228.614 328.162 227.468 322.99 225.483 320.388C221.246 314.834 215.256 317.168 208.799 319.683C207.646 320.132 206.479 320.587 205.303 321.004C202.203 322.104 202.056 324.047 201.905 326.033C201.679 329.019 201.446 332.102 191.166 332.568L191.164 332.568C187.611 332.729 184.058 332.89 180.502 332.995C179.949 333.008 179.387 332.703 178.453 332.195L178.453 332.195L178.453 332.195L178.452 332.195C177.951 331.922 177.343 331.592 176.572 331.221C173.936 330.095 167.812 327.707 164.414 327.159C160.166 326.474 157.211 332.568 157.211 333.281C151.07 333.436 144.893 334.139 138.741 334.838L138.741 334.838C132.055 335.598 125.399 336.355 118.854 336.401C114.87 336.43 110.847 336.459 106.964 337.986C106.626 338.125 106.347 338.378 106.177 338.702C106.007 339.026 105.958 339.399 106.036 339.756C106.115 340.113 106.318 340.431 106.608 340.653C106.898 340.875 107.257 340.988 107.623 340.971C113.315 340.429 114.94 341.608 115.567 347.237C121.231 398.528 126.896 449.815 132.56 501.099C137.92 550.294 143.301 599.482 148.704 648.663C153.922 695.911 159.154 743.159 164.401 790.406C165.142 797.119 165.933 803.813 166.724 810.504C167.145 814.072 167.566 817.639 167.98 821.207L169.286 821.058L166.1 791.426C165.476 785.652 164.836 779.881 164.196 774.11L164.196 774.108L164.196 774.106L164.196 774.106L164.196 774.105C163.094 764.168 161.992 754.231 160.97 744.281C160.276 737.517 159.649 730.746 159.022 723.975L159.021 723.973C158.19 714.999 157.358 706.025 156.372 697.072C155.083 685.399 153.694 673.741 152.304 662.082C150.991 651.06 149.677 640.038 148.449 629.004C146.715 613.467 145.081 597.917 143.447 582.365C142.529 573.625 141.61 564.885 140.674 556.146C138.394 535.018 136.097 513.886 133.781 492.751C131.14 468.826 128.51 444.901 125.89 420.977C124.974 412.827 124.081 404.675 123.189 396.521L123.189 396.521L123.189 396.521C121.328 379.533 119.468 362.542 117.394 345.57C116.863 341.183 118.796 339.749 121.982 338.687C123.688 338.226 125.45 338.004 127.218 338.029C139.008 337.507 150.797 336.943 162.586 336.38L162.586 336.38C192.055 334.971 221.523 333.562 251.002 332.804C284.4 331.993 317.836 332.398 351.256 332.803L351.273 332.803C353.333 332.828 355.393 332.853 357.453 332.878C366.453 332.878 385.828 332.735 390.834 331.295C391.889 331.128 392.965 331.128 394.02 331.295C433.345 333.419 472.659 335.653 511.963 337.997ZM454.556 324.923C454.556 324.923 444.647 319.974 441.556 315.003C438.614 310.266 434.26 309.247 429.141 310.68C424.277 312.05 422.131 315.534 421.611 320.388C420.53 330.419 426.29 330.114 435.104 329.647C439.71 329.402 445.149 329.114 450.881 330.233C463.293 330.525 454.556 324.923 454.556 324.923ZM498.964 322.926C490.138 320.09 481.971 318.38 478.253 322.926C478.147 327.174 481.289 331.433 486.408 332.219C495.163 333.591 504.037 334.26 513.416 334.967L513.418 334.967C512.051 327.032 506.592 325.32 500.228 323.325L500.224 323.324C499.808 323.193 499.387 323.061 498.964 322.926ZM348.158 321.004C348.968 327.574 357.207 327.642 363.972 327.111C366.174 326.935 368.352 327.053 370.311 327.159C375.223 327.424 378.766 327.615 377.888 322.926C377.215 319.334 373.394 317.847 370.052 316.546C369.136 316.189 367.691 315.418 366.198 314.62C364.396 313.658 362.523 312.657 361.426 312.305C354.53 310.091 347.272 313.816 348.158 321.004ZM244.553 327.843H270.181C273.42 327.843 273.877 325.921 273.176 323.202C272.318 320.121 270.297 317.493 267.539 315.874C264.78 314.255 261.501 313.772 258.392 314.525C251.329 316.108 247.729 321.237 244.553 327.843ZM338.039 330.229C336.469 330.229 330.628 330.229 329.566 327.843C328.503 325.458 338.795 324.711 342.31 325.98C346.702 327.566 345.515 330.229 338.039 330.229ZM290.798 327.843C288.199 325.894 294.499 323.748 297.702 323.202C301.632 322.532 304.211 323.7 306.729 326.792C308.886 329.441 305.171 329.243 300.731 329.006L300.359 328.986C299.53 328.942 298.681 328.915 297.845 328.888C294.806 328.789 291.935 328.696 290.798 327.843ZM217.284 322.559C216.214 322.798 215.064 323.054 212.207 322.794C207.179 322.337 205.175 328.175 206.365 329.167C207.492 330.105 210.197 329.968 213.205 329.815C214.62 329.744 216.101 329.669 217.517 329.7C218.638 329.725 219.717 329.84 220.69 329.944C223.27 330.219 225.1 330.414 224.952 328.636C224.527 323.538 222.297 322.263 219.641 322.263C218.61 322.263 217.963 322.408 217.284 322.559ZM161.228 333.415C161.405 332.353 162.183 330.229 163.883 330.229C165.582 330.229 171.671 331.645 174.503 332.353C170.432 333.061 162.077 334.265 161.228 333.415ZM401.362 328.431C397.297 327.528 391.973 326.344 386.386 327.043C383.245 327.435 385.324 320.67 390.635 320.139C394.333 319.769 407.44 320.706 408.69 325.981C409.71 330.287 406.569 329.589 401.362 328.431Z" fill="black"/>
<path d="M325.347 287.954C336.814 285.92 345.293 294.528 344.236 305.013C343.26 315.044 331.289 328.018 321.3 329.482C318.326 330.005 315.265 329.669 312.475 328.515C309.684 327.361 307.281 325.436 305.545 322.965C303.49 320.282 302.344 317.013 302.274 313.633C302.204 310.254 303.213 306.94 305.155 304.173C310.653 296.273 316.853 289.236 325.347 287.954ZM327.752 290.398C319.263 292.153 312.791 297.175 307.652 304.012C303.914 309.031 303.618 312.997 306.296 317.032C308.974 321.068 314.49 323.543 319.502 322.076C328.346 319.512 335.372 314.133 339.667 305.844C341.813 301.691 340.889 297.391 338.052 293.693C335.475 290.362 331.761 289.891 327.752 290.398Z" fill="black"/>
<path d="M298.778 311.943C298.778 319.962 291.502 326.812 285.735 323.308C280.186 320.035 274.896 316.342 269.911 312.262C264.367 307.6 268.849 296.735 276.283 294.749C278.926 294.026 281.7 293.923 284.39 294.449C287.079 294.974 289.611 296.113 291.787 297.777C293.964 299.441 295.728 301.585 296.94 304.042C298.153 306.499 298.781 309.203 298.778 311.943V311.943ZM280.988 295.598C276.124 295.598 272.683 297.722 271.95 301.227C271.068 305.412 273.681 308.895 278.195 310.86C280.833 312.057 283.19 313.798 285.109 315.969C287.297 318.433 289.516 320.217 292.756 318.974C296.346 317.626 297.599 314.567 297.354 310.892C296.866 303.404 288.518 295.641 280.988 295.598Z" fill="black"/>
<path d="M521.861 350.508C521.182 360.162 520.799 369.838 519.737 379.46C515.347 423.069 510.844 466.66 506.228 510.233C502.249 548.382 498.234 586.521 494.184 624.649C489.468 669.816 484.756 714.989 480.048 760.169C477.786 781.783 475.545 803.406 473.166 825.009C472.412 831.87 470.171 833.505 463.172 833.983C441.697 835.332 420.232 837.074 398.736 838.104C381.456 838.932 364.144 838.986 346.843 839.283C335.012 839.495 323.18 839.75 311.349 839.612C290.692 839.378 270.045 838.847 249.377 837.562H253.944C280.439 837.562 306.941 837.58 333.45 837.615C346.992 837.615 360.544 837.998 374.064 837.477C391.832 836.776 409.569 835.353 427.327 834.291C434.347 833.856 441.389 833.537 448.409 833.112C454.186 832.772 459.964 832.422 465.731 831.912C468.981 831.636 470.51 829.788 470.85 826.368C472.635 808.313 474.706 790.364 476.532 772.351C478.157 756.261 479.485 740.128 481.152 724.048C482.767 708.5 484.742 692.994 486.41 677.455C488.151 661.185 489.596 644.903 491.38 628.6C492.686 616.376 494.322 604.173 495.628 591.959C496.935 579.745 497.922 567.457 499.229 555.233C500.546 542.849 502.118 530.497 503.477 518.06C504.783 506.377 505.941 494.631 507.247 482.916C508.66 470.171 510.232 457.427 511.623 444.735C512.526 436.525 513.153 428.283 514.034 420.074C515.351 407.679 516.785 395.306 518.155 382.901C519.047 374.872 519.875 366.832 520.768 358.803C521.076 356.02 521.479 353.248 521.83 350.455L521.861 350.508Z" fill="black"/>
<path d="M239.033 837.902C220.623 836.642 202.214 835.378 183.805 834.11C179.939 833.856 176.02 834.036 172.207 833.473C170.816 833.261 169.658 831.455 167.566 829.682C173.492 831.03 177.687 832.486 181.978 832.868C193.863 833.93 205.779 834.525 217.696 835.311L239.086 836.734L239.033 837.902Z" fill="black"/>
<path d="M354.554 834.988H284.139C283.969 835.002 283.798 835.002 283.629 834.988C282.027 834.697 280.407 834.489 278.775 834.366C245.157 833.32 211.543 832.295 177.932 831.291C175.032 831.201 172.175 831.706 171.676 827.748C168.66 803.809 165.378 779.906 162.117 755.994C161.215 749.484 159.781 743.02 158.676 736.528L160.344 735.004C265.817 740.612 371.601 740.612 477.074 735.004C477.514 734.983 477.953 735.044 478.362 735.182C478.771 735.32 479.14 735.532 479.443 735.803C479.746 736.074 479.976 736.398 480.117 736.752C480.258 737.106 480.307 737.482 480.26 737.853C476.246 768.509 472.305 798.579 468.344 828.848C468.265 829.442 467.945 829.994 467.44 830.41C466.934 830.827 466.274 831.081 465.572 831.129C464.51 831.201 463.448 831.264 462.471 831.291C428.307 832.307 394.141 833.332 359.97 834.366C358.335 834.485 356.71 834.693 355.106 834.988C354.922 835.004 354.737 835.004 354.554 834.988V834.988Z" fill="#2C2B30"/>
<path d="M319.614 815C336.182 815 349.614 801.569 349.614 785C349.614 768.431 336.182 755 319.614 755C303.045 755 289.614 768.431 289.614 785C289.614 801.569 303.045 815 319.614 815Z" fill="white"/>
<path d="M307.139 794.368C307.214 794.667 309.085 801.667 319.614 801.667C330.144 801.667 332.014 794.667 332.089 794.368C332.18 794.007 332.017 793.632 331.694 793.445C331.369 793.26 330.962 793.315 330.694 793.573C330.662 793.605 327.437 796.667 319.614 796.667C311.79 796.667 308.564 793.605 308.534 793.575C308.374 793.417 308.16 793.333 307.947 793.333C307.807 793.333 307.665 793.368 307.537 793.44C307.21 793.627 307.047 794.005 307.139 794.368V794.368Z" fill="black"/>
<path d="M309.614 783.333C311.915 783.333 313.78 780.721 313.78 777.499C313.78 774.278 311.915 771.666 309.614 771.666C307.313 771.666 305.447 774.278 305.447 777.499C305.447 780.721 307.313 783.333 309.614 783.333Z" fill="black"/>
<path d="M329.614 783.333C331.915 783.333 333.78 780.721 333.78 777.499C333.78 774.278 331.915 771.666 329.614 771.666C327.313 771.666 325.447 774.278 325.447 777.499C325.447 780.721 327.313 783.333 329.614 783.333Z" fill="black"/>
</svg>
