<svg width="990" height="810" viewBox="0 0 990 810" fill="none" xmlns="http://www.w3.org/2000/svg">
<g filter="url(#filter0_d)">
<rect width="220" height="280" transform="matrix(-1 0 0 1 241 495)" fill="white"/>
</g>
<path d="M136 670C113.909 670 96 652.091 96 630C96 607.909 113.909 590 136 590C158.091 590 176 607.909 176 630C176 652.091 158.091 670 136 670Z" stroke="black" stroke-width="3"/>
<path d="M85.998 680L107.748 658.25" stroke="black" stroke-width="3"/>
<g clip-path="url(#clip0)">
<path d="M116 652.5V647.5C116 644.848 117.054 642.304 118.929 640.429C120.804 638.554 123.348 637.5 126 637.5H146C148.652 637.5 151.196 638.554 153.071 640.429C154.946 642.304 156 644.848 156 647.5V652.5" stroke="black" stroke-width="3"/>
<path d="M136 627.5C130.477 627.5 126 623.023 126 617.5C126 611.977 130.477 607.5 136 607.5C141.523 607.5 146 611.977 146 617.5C146 623.023 141.523 627.5 136 627.5Z" stroke="black" stroke-width="3"/>
</g>
<path d="M217.727 725C215.922 725 214.455 726.468 214.455 728.273C214.455 728.837 214.598 729.369 214.851 729.833L209.489 735.194C208.75 734.619 207.825 734.273 206.818 734.273C205.811 734.273 204.886 734.619 204.147 735.193L199.963 731.01C200.155 730.686 200.273 730.313 200.273 729.909C200.273 728.706 199.294 727.727 198.091 727.727C196.888 727.727 195.909 728.706 195.909 729.909C195.909 731.112 196.888 732.091 198.091 732.091C198.495 732.091 198.868 731.974 199.192 731.782L203.375 735.965C202.8 736.704 202.455 737.629 202.455 738.636C202.455 739.643 202.8 740.568 203.375 741.307L196.468 748.216C195.886 747.688 195.118 747.364 194.273 747.364C192.468 747.364 191 748.831 191 750.636C191 752.441 192.468 753.909 194.273 753.909C196.078 753.909 197.545 752.441 197.545 750.636C197.545 750.072 197.402 749.541 197.149 749.076L204.147 742.079C204.75 742.548 205.478 742.862 206.273 742.962V748.504C204.728 748.764 203.546 750.108 203.546 751.727C203.546 753.532 205.014 755 206.819 755C208.624 755 210.091 753.532 210.091 751.727C210.091 750.109 208.909 748.765 207.364 748.504V742.962C208.159 742.862 208.887 742.548 209.49 742.079L213.673 746.262C213.481 746.587 213.364 746.96 213.364 747.364C213.364 748.567 214.342 749.545 215.545 749.545C216.749 749.545 217.727 748.567 217.727 747.364C217.727 746.16 216.749 745.182 215.545 745.182C215.142 745.182 214.769 745.299 214.444 745.491L210.261 741.308C210.836 740.568 211.182 739.643 211.182 738.636C211.182 737.629 210.836 736.704 210.261 735.965L215.533 730.693C216.114 731.221 216.882 731.545 217.727 731.545C219.532 731.545 221 730.078 221 728.273C221 726.468 219.532 725 217.727 725Z" fill="#DBD3CA"/>
<g filter="url(#filter1_d)">
<rect width="220" height="280" transform="matrix(-1 0 0 1 421 375)" fill="white"/>
</g>
<path d="M341 465H351V475V555V565H341H281H271V555V465H341Z" stroke="black" stroke-width="3"/>
<path d="M291 515H331" stroke="black" stroke-width="3"/>
<path d="M291 535H321" stroke="black" stroke-width="3"/>
<path d="M291 495L311 495L331 495" stroke="black" stroke-width="3"/>
<path d="M394.438 616.25H393.5V612.5C393.5 608.364 390.136 605 386 605C381.864 605 378.5 608.364 378.5 612.5V616.25H377.562C376.013 616.25 374.75 617.511 374.75 619.062V632.188C374.75 633.739 376.013 635 377.562 635H394.438C395.987 635 397.25 633.739 397.25 632.188V619.062C397.25 617.511 395.987 616.25 394.438 616.25ZM381 612.5C381 609.742 383.242 607.5 386 607.5C388.758 607.5 391 609.742 391 612.5V616.25H381V612.5Z" fill="#DBD3CA"/>
<g filter="url(#filter2_d)">
<rect width="220" height="280" transform="matrix(-1 0 0 1 601 255)" fill="white"/>
</g>
<g clip-path="url(#clip1)">
<path d="M580.1 503.288L577.343 501.131C577.428 500.379 577.428 499.619 577.343 498.866L580.103 496.709C580.62 496.292 580.758 495.562 580.429 494.985L577.56 490.026C577.23 489.446 576.526 489.193 575.902 489.429L572.652 490.737C572.041 490.293 571.387 489.914 570.699 489.603L570.2 486.15C570.11 485.487 569.542 484.995 568.873 485H563.123C562.46 484.996 561.896 485.483 561.803 486.14L561.303 489.603C560.617 489.917 559.964 490.297 559.353 490.738L556.094 489.428C555.476 489.184 554.773 489.434 554.448 490.014L551.577 494.981C551.239 495.559 551.378 496.298 551.903 496.713L554.66 498.869C554.574 499.621 554.574 500.381 554.66 501.134L551.9 503.29C551.382 503.706 551.243 504.437 551.573 505.014L554.44 509.974C554.77 510.555 555.475 510.808 556.099 510.571L559.349 509.264C559.96 509.707 560.615 510.088 561.303 510.399L561.803 513.849C561.891 514.51 562.456 515.003 563.123 515H568.873C569.537 515.006 570.103 514.518 570.197 513.86L570.697 510.398C571.382 510.084 572.035 509.704 572.647 509.263L575.909 510.574C576.527 510.817 577.23 510.567 577.555 509.988L580.435 505C580.758 504.424 580.616 503.7 580.1 503.288ZM565.998 506.25C562.546 506.25 559.748 503.452 559.748 500C559.748 496.548 562.546 493.75 565.998 493.75C569.45 493.75 572.248 496.548 572.248 500C572.244 503.45 569.448 506.246 565.998 506.25Z" fill="#DBD3CA"/>
</g>
<path d="M446.196 358.436L452.337 369.185C452.545 369.548 452.891 369.811 453.297 369.912L459.026 371.345L478.677 391L480.849 388.829L460.89 368.867C460.694 368.67 460.447 368.53 460.178 368.463L454.672 367.081L449.444 357.924L453.926 353.441L463.085 358.675L464.467 364.182C464.534 364.452 464.674 364.699 464.871 364.896L484.829 384.858L487 382.686L467.349 363.031L465.917 357.304C465.815 356.898 465.552 356.55 465.189 356.343L454.442 350.201C453.842 349.86 453.088 349.961 452.6 350.448L446.459 356.59C445.965 357.076 445.858 357.831 446.196 358.436Z" fill="black"/>
<path d="M470.286 413.728C470.014 413.276 469.527 413 469 413H460C459.474 413 458.986 413.276 458.715 413.728L454.214 421.227C453.929 421.703 453.929 422.297 454.214 422.773L458.715 430.272C458.986 430.724 459.474 431 460 431H469C469.527 431 470.014 430.724 470.286 430.272L474.786 422.773C475.071 422.297 475.071 421.703 474.786 421.227L470.286 413.728ZM468.152 428H460.849L457.249 422L460.849 416H468.152L471.752 422L468.152 428Z" fill="black"/>
<path d="M517.969 385.986C527.872 386.02 535.927 378.019 535.961 368.117C535.966 366.609 535.781 365.108 535.41 363.647C535.21 362.843 534.396 362.354 533.593 362.554C533.329 362.62 533.088 362.756 532.896 362.948L523.562 372.275L516.157 369.807L513.687 362.404L523.021 353.069C523.606 352.483 523.606 351.534 523.02 350.949C522.827 350.756 522.584 350.619 522.318 350.553C512.714 348.121 502.958 353.934 500.526 363.537C500.157 364.994 499.972 366.491 499.977 367.994C499.981 369.175 500.102 370.352 500.342 371.508L467.505 404.342C466.349 404.104 465.173 403.982 463.993 403.978C454.055 403.978 446 412.033 446 421.97C446 431.906 454.055 439.961 463.993 439.961C473.929 439.961 481.985 431.906 481.985 421.97C481.981 420.789 481.859 419.613 481.62 418.457L489.481 410.596L492.919 414.034C493.505 414.619 494.454 414.619 495.04 414.034L495.789 413.284C496.447 412.631 497.509 412.631 498.167 413.284C498.824 413.939 498.825 415.002 498.17 415.659C498.169 415.66 498.168 415.661 498.167 415.662L497.418 416.412C496.832 416.997 496.832 417.946 497.418 418.531L515.303 436.417C520.008 441.164 527.67 441.199 532.417 436.494C537.164 431.79 537.199 424.128 532.494 419.381C532.469 419.355 532.443 419.329 532.417 419.304L514.531 401.419C513.946 400.834 512.997 400.834 512.411 401.419L511.662 402.168C511.004 402.822 509.942 402.822 509.283 402.168C508.627 401.513 508.625 400.45 509.28 399.794C509.282 399.792 509.283 399.792 509.283 399.791L510.034 399.041C510.619 398.455 510.619 397.506 510.034 396.921L506.595 393.483L514.457 385.622C515.612 385.861 516.789 385.983 517.969 385.986ZM523.86 436.963C522.771 436.961 521.691 436.765 520.671 436.382L532.381 424.671C534.148 429.372 531.771 434.614 527.07 436.382C526.044 436.767 524.957 436.964 523.86 436.963ZM506.874 397.996C505.214 399.976 505.474 402.928 507.455 404.588C509.195 406.047 511.732 406.045 513.471 404.584L530.297 421.424C530.48 421.607 530.651 421.8 530.816 421.996L517.996 434.816C517.8 434.651 517.607 434.48 517.423 434.297L500.584 417.457C502.245 415.476 501.984 412.525 500.004 410.865C498.263 409.406 495.726 409.407 493.987 410.869L491.588 408.47L504.475 395.603L506.874 397.996ZM512.929 382.916L478.915 416.922C478.542 417.294 478.392 417.835 478.519 418.346C480.576 426.424 475.695 434.64 467.616 436.697C459.538 438.754 451.322 433.873 449.265 425.794C447.208 417.716 452.09 409.5 460.168 407.443C462.612 406.821 465.173 406.821 467.616 407.443C468.128 407.568 468.667 407.418 469.041 407.048L503.046 373.042C503.419 372.669 503.569 372.128 503.441 371.617C501.398 363.634 506.214 355.506 514.198 353.463C515.706 353.077 517.267 352.929 518.821 353.026L510.912 360.938C510.51 361.339 510.37 361.933 510.549 362.471L513.547 371.468C513.697 371.915 514.049 372.266 514.497 372.415L523.493 375.414C524.031 375.593 524.625 375.453 525.027 375.052L532.936 367.143C532.954 367.429 532.963 367.713 532.963 367.994C533.005 376.233 526.361 382.945 518.122 382.988C516.849 382.994 515.579 382.837 514.346 382.521C513.834 382.394 513.293 382.543 512.921 382.916H512.929V382.916Z" fill="black"/>
<g filter="url(#filter3_d)">
<rect width="220" height="280" transform="matrix(-1 0 0 1 781 135)" fill="white"/>
</g>
<path d="M759.028 369.199C758.975 368.812 758.696 368.494 758.32 368.389L746.263 365.036C746.091 364.988 745.909 364.988 745.737 365.036L733.68 368.389C733.303 368.494 733.025 368.812 732.971 369.199C732.901 369.702 731.306 381.583 735.398 387.494C739.485 393.398 745.515 394.911 745.77 394.972C745.845 394.991 745.922 395 746 395C746.077 395 746.154 394.991 746.23 394.972C746.485 394.911 752.514 393.398 756.602 387.494C760.694 381.583 759.098 369.702 759.028 369.199ZM753.775 376.135L745.551 384.36C745.36 384.551 745.109 384.647 744.858 384.647C744.607 384.647 744.356 384.551 744.165 384.36L739.079 379.275C738.895 379.091 738.792 378.842 738.792 378.582C738.792 378.322 738.896 378.072 739.079 377.888L740.089 376.879C740.472 376.496 741.093 376.496 741.475 376.879L744.858 380.261L751.379 373.739C751.563 373.555 751.812 373.452 752.072 373.452C752.332 373.452 752.582 373.555 752.766 373.739L753.775 374.749C754.158 375.132 754.158 375.752 753.775 376.135Z" fill="#DBD3CA"/>
<path d="M701.004 253.568C698.605 253.568 696.652 255.521 696.652 257.92C696.652 260.32 698.605 262.272 701.004 262.272C703.404 262.272 705.356 260.32 705.356 257.92C705.356 255.521 703.404 253.568 701.004 253.568ZM701.004 259.371C700.204 259.371 699.554 258.72 699.554 257.92C699.554 257.12 700.204 256.47 701.004 256.47C701.804 256.47 702.455 257.12 702.455 257.92C702.455 258.72 701.804 259.371 701.004 259.371Z" fill="black"/>
<path d="M703.426 244.999H691.231C689.274 244.999 687.682 243.407 687.682 241.45C687.682 237.894 684.788 235 681.232 235H653.805C650.249 235 647.355 237.894 647.355 241.45C647.355 243.407 645.763 244.999 643.807 244.999H631.611C625.815 244.999 621.1 249.714 621.1 255.51V298.684C621.1 299.485 621.749 300.135 622.55 300.135C623.351 300.135 624.001 299.485 624.001 298.684V255.51C624.001 251.314 627.415 247.9 631.611 247.9H643.806C647.363 247.9 650.256 245.007 650.256 241.45C650.256 239.493 651.848 237.901 653.805 237.901H681.231C683.188 237.901 684.78 239.493 684.78 241.45C684.78 245.007 687.674 247.9 691.23 247.9H703.425C707.621 247.9 711.035 251.314 711.035 255.51V304.488C711.035 308.685 707.621 312.099 703.425 312.099H631.611C627.415 312.099 624.001 308.685 624.001 304.488C624.001 303.687 623.351 303.038 622.55 303.038C621.749 303.038 621.1 303.687 621.1 304.488C621.1 310.285 625.815 315 631.611 315H703.426C709.222 315 713.937 310.285 713.937 304.488V255.51C713.937 249.714 709.222 244.999 703.426 244.999Z" fill="black"/>
<path d="M638.439 239.43H632.476C631.675 239.43 631.025 240.08 631.025 240.881C631.025 241.682 631.675 242.331 632.476 242.331H638.439C639.24 242.331 639.89 241.682 639.89 240.881C639.89 240.08 639.24 239.43 638.439 239.43Z" fill="black"/>
<path d="M681.617 277.545L661.309 265.385C660.874 265.134 660.382 265.001 659.88 265C659.379 264.999 658.886 265.129 658.45 265.377C658.014 265.625 657.651 265.983 657.397 266.415C657.142 266.847 657.006 267.338 657 267.84L657 292.16C657.006 292.662 657.142 293.153 657.397 293.585C657.651 294.017 658.014 294.375 658.45 294.623C658.886 294.871 659.379 295.001 659.88 295C660.382 294.999 660.874 294.866 661.309 294.615L681.617 282.455C682.039 282.199 682.388 281.839 682.631 281.409C682.873 280.979 683 280.493 683 280C683 279.507 682.873 279.021 682.631 278.591C682.388 278.161 682.039 277.801 681.617 277.545Z" stroke="black" stroke-width="3" stroke-linecap="round" stroke-linejoin="round"/>
<g filter="url(#filter4_d)">
<rect width="220" height="280" transform="matrix(-1 0 0 1 961 15)" fill="white"/>
</g>
<path d="M934.438 256.25H933.5H931H921V252.5C921 249.742 923.242 247.5 926 247.5C928.758 247.5 931 249.742 931 252.5V254H933.5V252.5C933.5 248.364 930.136 245 926 245C921.864 245 918.5 248.364 918.5 252.5V256.25H917.562C916.013 256.25 914.75 257.511 914.75 259.062V272.188C914.75 273.739 916.013 275 917.562 275H934.438C935.987 275 937.25 273.739 937.25 272.188V259.062C937.25 257.511 935.987 256.25 934.438 256.25Z" fill="#DBD3CA"/>
<g clip-path="url(#clip2)">
<path d="M860.368 199.446C860.369 199.445 860.369 199.444 860.37 199.443L904.121 129.815C904.535 129.158 904.338 128.288 903.68 127.874C903.679 127.873 903.678 127.873 903.677 127.872L870.256 106.872C869.598 106.457 868.728 106.655 868.314 107.313C868.314 107.313 868.313 107.315 868.312 107.315L838.562 154.662C838.148 155.321 838.346 156.192 839.005 156.606C839.664 157.02 840.535 156.821 840.949 156.162L869.949 110.009L900.984 129.509L858.733 196.75L855.749 194.875C855.091 194.461 854.221 194.658 853.807 195.316C853.807 195.317 853.806 195.318 853.805 195.319C853.391 195.977 853.588 196.846 854.246 197.26C854.247 197.261 854.248 197.261 854.249 197.262L858.427 199.887C859.084 200.301 859.954 200.104 860.368 199.446Z" fill="black"/>
<path d="M829.751 152.186L846.574 101.79C846.699 101.437 846.959 101.149 847.296 100.987C847.635 100.826 848.023 100.806 848.376 100.931L862.659 106.021C863.393 106.283 863.776 107.089 863.514 107.823C863.253 108.557 862.446 108.939 861.713 108.678L848.761 104.062L832.408 153.125C832.374 153.224 832.329 153.319 832.272 153.407C831.857 154.065 830.986 154.262 830.328 153.847C829.772 153.496 829.532 152.806 829.751 152.186Z" fill="black"/>
<path d="M821.566 151.179L828.526 112.094C828.648 111.361 829.318 110.848 830.058 110.92L837.378 111.635C838.157 111.686 838.748 112.359 838.697 113.139C838.646 113.918 837.973 114.509 837.193 114.458C837.162 114.456 837.132 114.453 837.101 114.448L837.104 114.45L831.095 113.862L824.354 151.645C824.225 152.415 823.497 152.935 822.727 152.806C821.958 152.677 821.438 151.949 821.566 151.179Z" fill="black"/>
<path d="M838.939 166.429L845.884 155.376C846.298 154.717 847.168 154.519 847.827 154.933C848.486 155.347 848.684 156.217 848.27 156.876L841.325 167.929C840.911 168.588 840.041 168.786 839.382 168.372C838.723 167.958 838.524 167.088 838.939 166.429Z" fill="black"/>
<path d="M852.962 144.287C857.214 137.519 866.148 135.48 872.916 139.733C879.677 143.991 881.715 152.918 877.471 159.687C873.218 166.455 864.284 168.495 857.516 164.242C850.748 159.989 848.709 151.055 852.962 144.287ZM875.243 158.287C878.722 152.75 877.054 145.44 871.516 141.961C865.978 138.489 858.674 140.156 855.19 145.687C851.71 151.225 853.379 158.534 858.916 162.014C864.454 165.493 871.763 163.825 875.243 158.287Z" fill="black"/>
<path d="M882.162 147.096L888.776 136.569L886.454 128.148L877.402 122.461L868.556 124.591L862.269 134.596C861.855 135.255 860.985 135.454 860.326 135.04C859.667 134.626 859.468 133.755 859.882 133.096L866.474 122.606C866.669 122.294 866.979 122.07 867.337 121.983L877.313 119.575C877.731 119.514 878.157 119.603 878.514 119.828L888.418 126.052C888.716 126.239 888.933 126.53 889.027 126.869L891.66 136.416C891.766 136.797 891.706 137.206 891.495 137.541L884.549 148.596C884.135 149.255 883.265 149.453 882.606 149.039C881.947 148.625 881.748 147.755 882.162 147.096Z" fill="black"/>
<path d="M863.386 151.807L864.261 150.414C864.534 149.981 864.457 149.566 864.351 149.499C864.245 149.433 863.837 149.543 863.565 149.977L861.378 153.458C860.894 154.227 859.879 154.459 859.11 153.975C858.341 153.492 858.109 152.477 858.592 151.708L859.467 150.315C858.698 149.832 858.467 148.817 858.95 148.048C859.433 147.279 860.448 147.047 861.217 147.53L861.28 147.57C862.469 146.162 864.491 145.801 866.094 146.71C867.857 147.957 868.283 150.393 867.046 152.164L866.171 153.557C865.899 153.99 865.976 154.405 866.082 154.472C866.188 154.538 866.596 154.427 866.868 153.994L869.055 150.513C869.539 149.744 870.554 149.512 871.323 149.995C872.092 150.478 872.324 151.494 871.84 152.263L870.965 153.655C871.734 154.139 871.966 155.154 871.483 155.923C871 156.692 869.984 156.924 869.215 156.44L869.153 156.401C867.964 157.809 865.942 158.17 864.339 157.261C862.576 156.014 862.15 153.578 863.386 151.807Z" fill="black"/>
<path d="M813.702 208H806.081C804.733 208 803.441 207.473 802.488 206.535C801.535 205.598 801 204.326 801 203V185.5C801 184.174 801.535 182.902 802.488 181.964C803.441 181.027 804.733 180.5 806.081 180.5H813.702M831.484 175.5V165.5C831.484 163.511 830.681 161.603 829.252 160.197C827.822 158.79 825.884 158 823.863 158L813.702 180.5V208H842.356C843.581 208.013 844.77 207.591 845.704 206.81C846.638 206.029 847.253 204.942 847.437 203.75L850.942 181.25C851.053 180.533 851.004 179.802 850.799 179.105C850.593 178.409 850.237 177.766 849.753 177.219C849.27 176.672 848.672 176.235 848 175.938C847.328 175.641 846.598 175.492 845.862 175.5H831.484Z" stroke="black" stroke-width="2.8" stroke-linecap="round" stroke-linejoin="round"/>
</g>
<defs>
<filter id="filter0_d" x="0" y="480" width="270" height="330" filterUnits="userSpaceOnUse" color-interpolation-filters="sRGB">
<feFlood flood-opacity="0" result="BackgroundImageFix"/>
<feColorMatrix in="SourceAlpha" type="matrix" values="0 0 0 0 0 0 0 0 0 0 0 0 0 0 0 0 0 0 127 0"/>
<feOffset dx="4" dy="10"/>
<feGaussianBlur stdDeviation="12.5"/>
<feColorMatrix type="matrix" values="0 0 0 0 0 0 0 0 0 0 0 0 0 0 0 0 0 0 0.03 0"/>
<feBlend mode="normal" in2="BackgroundImageFix" result="effect1_dropShadow"/>
<feBlend mode="normal" in="SourceGraphic" in2="effect1_dropShadow" result="shape"/>
</filter>
<filter id="filter1_d" x="180" y="360" width="270" height="330" filterUnits="userSpaceOnUse" color-interpolation-filters="sRGB">
<feFlood flood-opacity="0" result="BackgroundImageFix"/>
<feColorMatrix in="SourceAlpha" type="matrix" values="0 0 0 0 0 0 0 0 0 0 0 0 0 0 0 0 0 0 127 0"/>
<feOffset dx="4" dy="10"/>
<feGaussianBlur stdDeviation="12.5"/>
<feColorMatrix type="matrix" values="0 0 0 0 0 0 0 0 0 0 0 0 0 0 0 0 0 0 0.03 0"/>
<feBlend mode="normal" in2="BackgroundImageFix" result="effect1_dropShadow"/>
<feBlend mode="normal" in="SourceGraphic" in2="effect1_dropShadow" result="shape"/>
</filter>
<filter id="filter2_d" x="360" y="240" width="270" height="330" filterUnits="userSpaceOnUse" color-interpolation-filters="sRGB">
<feFlood flood-opacity="0" result="BackgroundImageFix"/>
<feColorMatrix in="SourceAlpha" type="matrix" values="0 0 0 0 0 0 0 0 0 0 0 0 0 0 0 0 0 0 127 0"/>
<feOffset dx="4" dy="10"/>
<feGaussianBlur stdDeviation="12.5"/>
<feColorMatrix type="matrix" values="0 0 0 0 0 0 0 0 0 0 0 0 0 0 0 0 0 0 0.03 0"/>
<feBlend mode="normal" in2="BackgroundImageFix" result="effect1_dropShadow"/>
<feBlend mode="normal" in="SourceGraphic" in2="effect1_dropShadow" result="shape"/>
</filter>
<filter id="filter3_d" x="540" y="120" width="270" height="330" filterUnits="userSpaceOnUse" color-interpolation-filters="sRGB">
<feFlood flood-opacity="0" result="BackgroundImageFix"/>
<feColorMatrix in="SourceAlpha" type="matrix" values="0 0 0 0 0 0 0 0 0 0 0 0 0 0 0 0 0 0 127 0"/>
<feOffset dx="4" dy="10"/>
<feGaussianBlur stdDeviation="12.5"/>
<feColorMatrix type="matrix" values="0 0 0 0 0 0 0 0 0 0 0 0 0 0 0 0 0 0 0.03 0"/>
<feBlend mode="normal" in2="BackgroundImageFix" result="effect1_dropShadow"/>
<feBlend mode="normal" in="SourceGraphic" in2="effect1_dropShadow" result="shape"/>
</filter>
<filter id="filter4_d" x="720" y="0" width="270" height="330" filterUnits="userSpaceOnUse" color-interpolation-filters="sRGB">
<feFlood flood-opacity="0" result="BackgroundImageFix"/>
<feColorMatrix in="SourceAlpha" type="matrix" values="0 0 0 0 0 0 0 0 0 0 0 0 0 0 0 0 0 0 127 0"/>
<feOffset dx="4" dy="10"/>
<feGaussianBlur stdDeviation="12.5"/>
<feColorMatrix type="matrix" values="0 0 0 0 0 0 0 0 0 0 0 0 0 0 0 0 0 0 0.03 0"/>
<feBlend mode="normal" in2="BackgroundImageFix" result="effect1_dropShadow"/>
<feBlend mode="normal" in="SourceGraphic" in2="effect1_dropShadow" result="shape"/>
</filter>
<clipPath id="clip0">
<rect width="60" height="60" fill="white" transform="matrix(-1 0 0 1 166 590)"/>
</clipPath>
<clipPath id="clip1">
<rect width="30" height="30" fill="white" transform="translate(551 485)"/>
</clipPath>
<clipPath id="clip2">
<rect width="120" height="120" fill="white" transform="translate(791 95)"/>
</clipPath>
</defs>
</svg>
