<svg width="1920" height="157" viewBox="0 0 1920 157" fill="none" xmlns="http://www.w3.org/2000/svg">
<circle cx="1068.98" cy="149.996" r="6" fill="white"/>
<circle cx="1104.98" cy="149.996" r="6" fill="white"/>
<circle cx="996.986" cy="113.996" r="6" fill="white"/>
<circle cx="996.986" cy="77.9985" r="6" fill="white"/>
<circle cx="1032.99" cy="149.996" r="6" fill="white"/>
<circle cx="996.986" cy="149.996" r="6" fill="white"/>
<circle cx="996.986" cy="41.9985" r="6" fill="white"/>
<circle cx="996.986" cy="6" r="6" fill="white"/>
<circle cx="1068.98" cy="6" r="6" fill="white"/>
<circle cx="1104.98" cy="6" r="6" fill="white"/>
<circle cx="1032.99" cy="6" r="6" fill="white"/>
<circle cx="665" cy="150.001" r="6" fill="white"/>
<circle cx="665" cy="114" r="6" fill="white"/>
<circle cx="665" cy="78.0029" r="6" fill="white"/>
<circle cx="701.003" cy="78.0029" r="6" fill="white"/>
<circle cx="737" cy="78.0029" r="6" fill="white"/>
<circle cx="665" cy="42.0029" r="6" fill="white"/>
<circle cx="665" cy="6.00342" r="6" fill="white"/>
<circle cx="701.003" cy="6.00439" r="6" fill="white"/>
<circle cx="737" cy="6.00439" r="6" fill="white"/>
<circle cx="772.997" cy="6.00439" r="6" fill="white"/>
<circle cx="1160.98" cy="149.996" r="6" fill="white"/>
<circle cx="1160.98" cy="113.999" r="6" fill="white"/>
<circle cx="1160.98" cy="77.9985" r="6" fill="white"/>
<circle cx="1196.98" cy="77.9985" r="6" fill="white"/>
<circle cx="1232.97" cy="113.999" r="6" fill="white"/>
<circle cx="1232.97" cy="42" r="6" fill="white"/>
<circle cx="1268.97" cy="149.996" r="6" fill="white"/>
<circle cx="1160.98" cy="42" r="6" fill="white"/>
<circle cx="1160.98" cy="6" r="6" fill="white"/>
<circle cx="1268.97" cy="6" r="6" fill="white"/>
<circle cx="936.988" cy="113.999" r="6" fill="white"/>
<circle cx="828.991" cy="113.999" r="6" fill="white"/>
<circle cx="828.991" cy="77.9985" r="6" fill="white"/>
<circle cx="864.989" cy="149.996" r="6" fill="white"/>
<circle cx="900.988" cy="149.996" r="6" fill="white"/>
<circle cx="936.988" cy="77.9985" r="6" fill="white"/>
<circle cx="828.991" cy="42" r="6" fill="white"/>
<circle cx="936.988" cy="42" r="6" fill="white"/>
<circle cx="828.996" cy="6" r="6" fill="white"/>
<circle cx="936.988" cy="6" r="6" fill="white"/>
<circle cx="508.197" cy="104.191" r="3.59997" fill="#C4C4C4"/>
<circle cx="508.197" cy="120.391" r="3.59997" fill="#C4C4C4"/>
<circle cx="443.395" cy="104.191" r="3.59997" fill="#C4C4C4"/>
<circle cx="443.395" cy="120.391" r="3.59997" fill="#C4C4C4"/>
<circle cx="443.395" cy="87.9911" r="3.59997" fill="#C4C4C4"/>
<circle cx="468.598" cy="87.9911" r="3.59997" fill="#C4C4C4"/>
<circle cx="508.197" cy="87.9911" r="3.59997" fill="#C4C4C4"/>
<circle cx="482.997" cy="87.9911" r="3.59997" fill="#C4C4C4"/>
<circle cx="459.598" cy="104.191" r="3.59997" fill="#C4C4C4"/>
<circle cx="475.796" cy="71.7919" r="3.59997" fill="#C4C4C4"/>
<circle cx="491.997" cy="104.191" r="3.59997" fill="#C4C4C4"/>
<circle cx="443.395" cy="71.7919" r="3.59997" fill="#C4C4C4"/>
<circle cx="443.395" cy="55.5912" r="3.59997" fill="#C4C4C4"/>
<circle cx="508.197" cy="71.7919" r="3.59997" fill="#C4C4C4"/>
<circle cx="508.197" cy="55.5912" r="3.59997" fill="#C4C4C4"/>
<circle cx="1106.39" cy="104.191" r="3.59997" fill="#C4C4C4"/>
<circle cx="1106.39" cy="120.391" r="3.59997" fill="#C4C4C4"/>
<circle cx="1041.59" cy="104.191" r="3.59997" fill="#C4C4C4"/>
<circle cx="1041.59" cy="120.391" r="3.59997" fill="#C4C4C4"/>
<circle cx="1041.59" cy="87.9911" r="3.59997" fill="#C4C4C4"/>
<circle cx="1066.79" cy="87.9911" r="3.59997" fill="#C4C4C4"/>
<circle cx="1106.39" cy="87.9911" r="3.59997" fill="#C4C4C4"/>
<circle cx="1081.19" cy="87.9911" r="3.59997" fill="#C4C4C4"/>
<circle cx="1057.79" cy="104.191" r="3.59997" fill="#C4C4C4"/>
<circle cx="1073.99" cy="71.7919" r="3.59997" fill="#C4C4C4"/>
<circle cx="1090.19" cy="104.191" r="3.59997" fill="#C4C4C4"/>
<circle cx="1041.59" cy="71.7919" r="3.59997" fill="#C4C4C4"/>
<circle cx="1041.59" cy="55.5912" r="3.59997" fill="#C4C4C4"/>
<circle cx="1106.39" cy="71.7919" r="3.59997" fill="#C4C4C4"/>
<circle cx="1106.39" cy="55.5912" r="3.59997" fill="#C4C4C4"/>
<circle r="3.59997" transform="matrix(1 0 0 -1 1388.79 71.7921)" fill="#C4C4C4"/>
<circle r="3.59997" transform="matrix(1 0 0 -1 1388.79 55.5914)" fill="#C4C4C4"/>
<circle r="3.59997" transform="matrix(1 0 0 -1 1323.99 71.7921)" fill="#C4C4C4"/>
<circle r="3.59997" transform="matrix(1 0 0 -1 1323.99 55.5914)" fill="#C4C4C4"/>
<circle r="3.59997" transform="matrix(1 0 0 -1 1323.99 87.9913)" fill="#C4C4C4"/>
<circle r="3.59997" transform="matrix(1 0 0 -1 1349.19 87.9913)" fill="#C4C4C4"/>
<circle r="3.59997" transform="matrix(1 0 0 -1 1388.79 87.9913)" fill="#C4C4C4"/>
<circle r="3.59997" transform="matrix(1 0 0 -1 1363.59 87.9913)" fill="#C4C4C4"/>
<circle r="3.59997" transform="matrix(1 0 0 -1 1340.19 71.7921)" fill="#C4C4C4"/>
<circle r="3.59997" transform="matrix(1 0 0 -1 1356.39 104.192)" fill="#C4C4C4"/>
<circle r="3.59997" transform="matrix(1 0 0 -1 1372.59 71.7921)" fill="#C4C4C4"/>
<circle r="3.59997" transform="matrix(1 0 0 -1 1323.99 104.192)" fill="#C4C4C4"/>
<circle r="3.59997" transform="matrix(1 0 0 -1 1323.99 120.391)" fill="#C4C4C4"/>
<circle r="3.59997" transform="matrix(1 0 0 -1 1388.79 104.192)" fill="#C4C4C4"/>
<circle r="3.59997" transform="matrix(1 0 0 -1 1388.79 120.391)" fill="#C4C4C4"/>
<circle cx="0.599969" cy="120.391" r="3.59997" fill="#C4C4C4"/>
<circle cx="0.599969" cy="104.19" r="3.59997" fill="#C4C4C4"/>
<circle cx="0.599969" cy="87.9921" r="3.59997" fill="#C4C4C4"/>
<circle cx="16.8004" cy="120.391" r="3.59997" fill="#C4C4C4"/>
<circle cx="33.0009" cy="120.391" r="3.59997" fill="#C4C4C4"/>
<circle cx="49.2013" cy="120.391" r="3.59997" fill="#C4C4C4"/>
<circle cx="0.599969" cy="71.7919" r="3.59997" fill="#C4C4C4"/>
<circle cx="0.599969" cy="55.5922" r="3.59997" fill="#C4C4C4"/>
<circle cx="856.393" cy="120.391" r="3.59997" fill="#C4C4C4"/>
<circle cx="856.395" cy="55.5912" r="3.59997" fill="#C4C4C4"/>
<circle cx="877.992" cy="104.191" r="3.59997" fill="#C4C4C4"/>
<circle cx="877.992" cy="87.9911" r="3.59997" fill="#C4C4C4"/>
<circle cx="870.794" cy="120.391" r="3.59997" fill="#C4C4C4"/>
<circle cx="870.794" cy="55.5912" r="3.59997" fill="#C4C4C4"/>
<circle cx="885.193" cy="120.391" r="3.59997" fill="#C4C4C4"/>
<circle cx="885.193" cy="55.5912" r="3.59997" fill="#C4C4C4"/>
<circle cx="899.593" cy="120.391" r="3.59997" fill="#C4C4C4"/>
<circle cx="899.593" cy="55.5912" r="3.59997" fill="#C4C4C4"/>
<circle cx="877.992" cy="71.7919" r="3.59997" fill="#C4C4C4"/>
<circle cx="1413.98" cy="120.391" r="3.59997" fill="#C4C4C4"/>
<circle cx="1413.99" cy="55.5912" r="3.59997" fill="#C4C4C4"/>
<circle cx="1435.58" cy="104.19" r="3.59997" fill="#C4C4C4"/>
<circle cx="1435.58" cy="87.9911" r="3.59997" fill="#C4C4C4"/>
<circle cx="1428.39" cy="120.391" r="3.59997" fill="#C4C4C4"/>
<circle cx="1428.39" cy="55.5912" r="3.59997" fill="#C4C4C4"/>
<circle cx="1442.78" cy="120.391" r="3.59997" fill="#C4C4C4"/>
<circle cx="1442.78" cy="55.5912" r="3.59997" fill="#C4C4C4"/>
<circle cx="1457.19" cy="120.391" r="3.59997" fill="#C4C4C4"/>
<circle cx="1457.19" cy="55.5912" r="3.59997" fill="#C4C4C4"/>
<circle cx="1435.58" cy="71.7904" r="3.59997" fill="#C4C4C4"/>
<circle cx="1683.98" cy="55.5917" r="3.59997" fill="#C4C4C4"/>
<circle cx="1709.19" cy="104.19" r="3.59997" fill="#C4C4C4"/>
<circle cx="1709.19" cy="120.391" r="3.59997" fill="#C4C4C4"/>
<circle cx="1709.19" cy="87.9911" r="3.59997" fill="#C4C4C4"/>
<circle cx="1700.19" cy="55.5912" r="3.59997" fill="#C4C4C4"/>
<circle cx="1718.19" cy="55.5912" r="3.59997" fill="#C4C4C4"/>
<circle cx="1734.38" cy="55.5912" r="3.59997" fill="#C4C4C4"/>
<circle cx="1709.19" cy="71.7904" r="3.59997" fill="#C4C4C4"/>
<circle cx="1750.58" cy="120.391" r="3.59997" fill="#C4C4C4"/>
<circle cx="1750.58" cy="55.5912" r="3.59997" fill="#C4C4C4"/>
<circle cx="1772.18" cy="104.19" r="3.59997" fill="#C4C4C4"/>
<circle cx="1772.18" cy="87.9911" r="3.59997" fill="#C4C4C4"/>
<circle cx="1764.98" cy="120.391" r="3.59997" fill="#C4C4C4"/>
<circle cx="1764.98" cy="55.5912" r="3.59997" fill="#C4C4C4"/>
<circle cx="1779.38" cy="120.391" r="3.59997" fill="#C4C4C4"/>
<circle cx="1779.38" cy="55.5912" r="3.59997" fill="#C4C4C4"/>
<circle cx="1793.79" cy="120.391" r="3.59997" fill="#C4C4C4"/>
<circle cx="1793.79" cy="55.5912" r="3.59997" fill="#C4C4C4"/>
<circle cx="1772.18" cy="71.7904" r="3.59997" fill="#C4C4C4"/>
<circle r="3.59997" transform="matrix(-1 0 0 1 1000.39 122.192)" fill="#C4C4C4"/>
<circle r="3.59997" transform="matrix(-1 0 0 1 993.193 138.391)" fill="#C4C4C4"/>
<circle r="3.59997" transform="matrix(-1 0 0 1 1282.79 122.192)" fill="#C4C4C4"/>
<circle r="3.59997" transform="matrix(-1 0 0 1 1275.59 138.391)" fill="#C4C4C4"/>
<circle cx="180.598" cy="120.391" r="3.59997" fill="#C4C4C4"/>
<circle cx="196.801" cy="120.391" r="3.59997" fill="#C4C4C4"/>
<circle cx="148.2" cy="104.19" r="3.59997" fill="#C4C4C4"/>
<circle cx="148.2" cy="87.9911" r="3.59997" fill="#C4C4C4"/>
<circle cx="164.4" cy="120.391" r="3.59997" fill="#C4C4C4"/>
<circle cx="148.2" cy="120.391" r="3.59997" fill="#C4C4C4"/>
<circle cx="148.2" cy="71.7904" r="3.59997" fill="#C4C4C4"/>
<circle cx="148.202" cy="55.5917" r="3.59997" fill="#C4C4C4"/>
<circle cx="180.598" cy="55.5912" r="3.59997" fill="#C4C4C4"/>
<circle cx="196.801" cy="55.5912" r="3.59997" fill="#C4C4C4"/>
<circle cx="164.4" cy="55.5912" r="3.59997" fill="#C4C4C4"/>
<circle cx="1514.78" cy="120.391" r="3.59997" fill="#C4C4C4"/>
<circle cx="1530.99" cy="120.391" r="3.59997" fill="#C4C4C4"/>
<circle cx="1530.99" cy="104.19" r="3.59997" fill="#C4C4C4"/>
<circle cx="1530.99" cy="87.9911" r="3.59997" fill="#C4C4C4"/>
<circle cx="1514.78" cy="87.9911" r="3.59997" fill="#C4C4C4"/>
<circle cx="1482.39" cy="104.19" r="3.59997" fill="#C4C4C4"/>
<circle cx="1482.39" cy="87.9911" r="3.59997" fill="#C4C4C4"/>
<circle cx="1498.59" cy="120.391" r="3.59997" fill="#C4C4C4"/>
<circle cx="1482.39" cy="120.391" r="3.59997" fill="#C4C4C4"/>
<circle cx="1482.39" cy="71.7919" r="3.59997" fill="#C4C4C4"/>
<circle cx="1482.39" cy="55.5912" r="3.59997" fill="#C4C4C4"/>
<circle cx="1514.78" cy="55.5912" r="3.59997" fill="#C4C4C4"/>
<circle cx="1530.99" cy="55.5912" r="3.59997" fill="#C4C4C4"/>
<circle cx="1498.59" cy="55.5912" r="3.59997" fill="#C4C4C4"/>
<circle cx="665.592" cy="120.391" r="3.59997" fill="#C4C4C4"/>
<circle cx="681.795" cy="120.391" r="3.59997" fill="#C4C4C4"/>
<circle cx="633.194" cy="104.19" r="3.59997" fill="#C4C4C4"/>
<circle cx="633.194" cy="87.9911" r="3.59997" fill="#C4C4C4"/>
<circle cx="649.394" cy="120.391" r="3.59997" fill="#C4C4C4"/>
<circle cx="633.194" cy="120.391" r="3.59997" fill="#C4C4C4"/>
<circle cx="633.194" cy="71.7919" r="3.59997" fill="#C4C4C4"/>
<circle cx="633.196" cy="55.5912" r="3.59997" fill="#C4C4C4"/>
<circle cx="665.592" cy="55.5912" r="3.59997" fill="#C4C4C4"/>
<circle cx="681.795" cy="55.5912" r="3.59997" fill="#C4C4C4"/>
<circle cx="649.394" cy="55.5912" r="3.59997" fill="#C4C4C4"/>
<circle cx="123.002" cy="104.19" r="3.59997" fill="#C4C4C4"/>
<circle cx="74.4007" cy="104.19" r="3.59997" fill="#C4C4C4"/>
<circle cx="74.4007" cy="87.9911" r="3.59997" fill="#C4C4C4"/>
<circle cx="123.002" cy="87.9911" r="3.59997" fill="#C4C4C4"/>
<circle cx="90.6012" cy="120.391" r="3.59997" fill="#C4C4C4"/>
<circle cx="106.799" cy="120.391" r="3.59997" fill="#C4C4C4"/>
<circle cx="74.4007" cy="71.7904" r="3.59997" fill="#C4C4C4"/>
<circle cx="123.002" cy="71.7904" r="3.59997" fill="#C4C4C4"/>
<circle cx="90.6012" cy="55.5912" r="3.59997" fill="#C4C4C4"/>
<circle cx="106.799" cy="55.5912" r="3.59997" fill="#C4C4C4"/>
<circle cx="755.594" cy="104.19" r="3.59997" fill="#C4C4C4"/>
<circle cx="706.993" cy="104.19" r="3.59997" fill="#C4C4C4"/>
<circle cx="706.993" cy="87.9911" r="3.59997" fill="#C4C4C4"/>
<circle cx="755.594" cy="87.9911" r="3.59997" fill="#C4C4C4"/>
<circle cx="723.193" cy="120.391" r="3.59997" fill="#C4C4C4"/>
<circle cx="739.391" cy="120.391" r="3.59997" fill="#C4C4C4"/>
<circle cx="706.993" cy="71.7904" r="3.59997" fill="#C4C4C4"/>
<circle cx="755.594" cy="71.7904" r="3.59997" fill="#C4C4C4"/>
<circle cx="723.193" cy="55.5912" r="3.59997" fill="#C4C4C4"/>
<circle cx="739.391" cy="55.5912" r="3.59997" fill="#C4C4C4"/>
<circle cx="1858.58" cy="104.19" r="3.59997" fill="#C4C4C4"/>
<circle cx="1809.98" cy="104.19" r="3.59997" fill="#C4C4C4"/>
<circle cx="1809.98" cy="87.9911" r="3.59997" fill="#C4C4C4"/>
<circle cx="1858.58" cy="87.9911" r="3.59997" fill="#C4C4C4"/>
<circle cx="1826.18" cy="120.391" r="3.59997" fill="#C4C4C4"/>
<circle cx="1842.38" cy="120.391" r="3.59997" fill="#C4C4C4"/>
<circle cx="1809.98" cy="71.7904" r="3.59997" fill="#C4C4C4"/>
<circle cx="1858.58" cy="71.7904" r="3.59997" fill="#C4C4C4"/>
<circle cx="1826.18" cy="55.5912" r="3.59997" fill="#C4C4C4"/>
<circle cx="1842.38" cy="55.5912" r="3.59997" fill="#C4C4C4"/>
<circle cx="418.194" cy="104.19" r="3.59997" fill="#C4C4C4"/>
<circle cx="369.592" cy="104.19" r="3.59997" fill="#C4C4C4"/>
<circle cx="369.592" cy="87.9911" r="3.59997" fill="#C4C4C4"/>
<circle cx="418.194" cy="87.9911" r="3.59997" fill="#C4C4C4"/>
<circle cx="385.793" cy="120.391" r="3.59997" fill="#C4C4C4"/>
<circle cx="401.991" cy="120.391" r="3.59997" fill="#C4C4C4"/>
<circle cx="369.592" cy="71.7904" r="3.59997" fill="#C4C4C4"/>
<circle cx="418.194" cy="71.7904" r="3.59997" fill="#C4C4C4"/>
<circle cx="385.793" cy="55.5912" r="3.59997" fill="#C4C4C4"/>
<circle cx="401.991" cy="55.5912" r="3.59997" fill="#C4C4C4"/>
<circle cx="582" cy="104.19" r="3.59997" fill="#C4C4C4"/>
<circle cx="582" cy="120.391" r="3.59997" fill="#C4C4C4"/>
<circle cx="533.399" cy="104.19" r="3.59997" fill="#C4C4C4"/>
<circle cx="533.399" cy="120.391" r="3.59997" fill="#C4C4C4"/>
<circle cx="533.399" cy="87.9911" r="3.59997" fill="#C4C4C4"/>
<circle cx="567.599" cy="104.19" r="3.59997" fill="#C4C4C4"/>
<circle cx="556.797" cy="87.9911" r="3.59997" fill="#C4C4C4"/>
<circle cx="582" cy="87.9911" r="3.59997" fill="#C4C4C4"/>
<circle cx="533.399" cy="71.7904" r="3.59997" fill="#C4C4C4"/>
<circle cx="533.399" cy="55.5917" r="3.59997" fill="#C4C4C4"/>
<circle cx="582" cy="71.7904" r="3.59997" fill="#C4C4C4"/>
<circle cx="582" cy="55.5912" r="3.59997" fill="#C4C4C4"/>
<circle cx="549.599" cy="71.7904" r="3.59997" fill="#C4C4C4"/>
<circle cx="1883.78" cy="104.19" r="3.59997" fill="#C4C4C4"/>
<circle cx="1883.78" cy="120.391" r="3.59997" fill="#C4C4C4"/>
<circle cx="1883.78" cy="87.9911" r="3.59997" fill="#C4C4C4"/>
<circle cx="1917.99" cy="104.19" r="3.59997" fill="#C4C4C4"/>
<circle cx="1907.18" cy="87.9911" r="3.59997" fill="#C4C4C4"/>
<circle cx="1883.78" cy="71.7904" r="3.59997" fill="#C4C4C4"/>
<circle cx="1883.78" cy="55.5917" r="3.59997" fill="#C4C4C4"/>
<circle cx="1899.98" cy="71.7904" r="3.59997" fill="#C4C4C4"/>
<circle cx="344.397" cy="104.19" r="3.59997" fill="#C4C4C4"/>
<circle cx="295.795" cy="104.19" r="3.59997" fill="#C4C4C4"/>
<circle cx="295.795" cy="120.391" r="3.59997" fill="#C4C4C4"/>
<circle cx="295.795" cy="87.9911" r="3.59997" fill="#C4C4C4"/>
<circle cx="344.397" cy="87.9911" r="3.59997" fill="#C4C4C4"/>
<circle cx="311.996" cy="120.391" r="3.59997" fill="#C4C4C4"/>
<circle cx="328.194" cy="120.391" r="3.59997" fill="#C4C4C4"/>
<circle cx="295.795" cy="71.7919" r="3.59997" fill="#C4C4C4"/>
<circle cx="295.797" cy="55.5912" r="3.59997" fill="#C4C4C4"/>
<circle cx="344.397" cy="71.7919" r="3.59997" fill="#C4C4C4"/>
<circle cx="311.996" cy="55.5912" r="3.59997" fill="#C4C4C4"/>
<circle cx="328.194" cy="55.5912" r="3.59997" fill="#C4C4C4"/>
<circle cx="973.391" cy="104.191" r="3.59997" fill="#C4C4C4"/>
<circle cx="924.789" cy="104.191" r="3.59997" fill="#C4C4C4"/>
<circle cx="924.789" cy="120.391" r="3.59997" fill="#C4C4C4"/>
<circle cx="924.789" cy="87.9911" r="3.59997" fill="#C4C4C4"/>
<circle cx="973.391" cy="87.9911" r="3.59997" fill="#C4C4C4"/>
<circle cx="940.99" cy="120.391" r="3.59997" fill="#C4C4C4"/>
<circle cx="957.193" cy="120.391" r="3.59997" fill="#C4C4C4"/>
<circle cx="924.789" cy="71.7919" r="3.59997" fill="#C4C4C4"/>
<circle cx="924.79" cy="55.5912" r="3.59997" fill="#C4C4C4"/>
<circle cx="973.391" cy="71.7919" r="3.59997" fill="#C4C4C4"/>
<circle cx="940.99" cy="55.5912" r="3.59997" fill="#C4C4C4"/>
<circle cx="957.193" cy="55.5912" r="3.59997" fill="#C4C4C4"/>
<circle cx="1239.59" cy="104.19" r="3.59997" fill="#C4C4C4"/>
<circle cx="1207.19" cy="104.19" r="3.59997" fill="#C4C4C4"/>
<circle cx="1207.19" cy="120.391" r="3.59997" fill="#C4C4C4"/>
<circle cx="1207.19" cy="87.9911" r="3.59997" fill="#C4C4C4"/>
<circle cx="1248.59" cy="120.391" r="3.59997" fill="#C4C4C4"/>
<circle cx="1207.19" cy="71.7919" r="3.59997" fill="#C4C4C4"/>
<circle cx="1207.19" cy="55.5912" r="3.59997" fill="#C4C4C4"/>
<circle cx="1255.79" cy="71.7919" r="3.59997" fill="#C4C4C4"/>
<circle cx="1223.39" cy="55.5912" r="3.59997" fill="#C4C4C4"/>
<circle cx="1239.59" cy="55.5912" r="3.59997" fill="#C4C4C4"/>
<circle cx="1239.59" cy="87.9911" r="3.59997" fill="#C4C4C4"/>
<circle cx="1223.39" cy="87.9911" r="3.59997" fill="#C4C4C4"/>
<circle cx="1588.59" cy="104.19" r="3.59997" fill="#C4C4C4"/>
<circle cx="1556.18" cy="104.19" r="3.59997" fill="#C4C4C4"/>
<circle cx="1556.18" cy="120.391" r="3.59997" fill="#C4C4C4"/>
<circle cx="1556.18" cy="87.9911" r="3.59997" fill="#C4C4C4"/>
<circle cx="1604.79" cy="120.391" r="3.59997" fill="#C4C4C4"/>
<circle cx="1556.18" cy="71.7919" r="3.59997" fill="#C4C4C4"/>
<circle cx="1556.18" cy="55.5912" r="3.59997" fill="#C4C4C4"/>
<circle cx="1604.79" cy="71.7919" r="3.59997" fill="#C4C4C4"/>
<circle cx="1572.39" cy="55.5912" r="3.59997" fill="#C4C4C4"/>
<circle cx="1588.59" cy="55.5912" r="3.59997" fill="#C4C4C4"/>
<circle cx="1588.59" cy="87.9911" r="3.59997" fill="#C4C4C4"/>
<circle cx="1572.39" cy="87.9911" r="3.59997" fill="#C4C4C4"/>
<circle cx="221.997" cy="120.391" r="3.59997" fill="#C4C4C4"/>
<circle cx="221.997" cy="104.19" r="3.59997" fill="#C4C4C4"/>
<circle cx="221.997" cy="87.9911" r="3.59997" fill="#C4C4C4"/>
<circle cx="238.197" cy="87.9911" r="3.59997" fill="#C4C4C4"/>
<circle cx="254.397" cy="104.19" r="3.59997" fill="#C4C4C4"/>
<circle cx="254.397" cy="71.7904" r="3.59997" fill="#C4C4C4"/>
<circle cx="270.598" cy="120.391" r="3.59997" fill="#C4C4C4"/>
<circle cx="221.997" cy="71.7904" r="3.59997" fill="#C4C4C4"/>
<circle cx="221.997" cy="55.5917" r="3.59997" fill="#C4C4C4"/>
<circle cx="270.598" cy="55.5912" r="3.59997" fill="#C4C4C4"/>
<circle cx="805.992" cy="120.391" r="3.59997" fill="#C4C4C4"/>
<circle cx="791.591" cy="87.9911" r="3.59997" fill="#C4C4C4"/>
<circle cx="798.79" cy="104.19" r="3.59997" fill="#C4C4C4"/>
<circle cx="813.191" cy="104.19" r="3.59997" fill="#C4C4C4"/>
<circle cx="818.594" cy="87.9911" r="3.59997" fill="#C4C4C4"/>
<circle cx="784.393" cy="71.7904" r="3.59997" fill="#C4C4C4"/>
<circle cx="825.79" cy="71.7904" r="3.59997" fill="#C4C4C4"/>
<circle cx="780.791" cy="55.5917" r="3.59997" fill="#C4C4C4"/>
<circle cx="831.191" cy="55.5912" r="3.59997" fill="#C4C4C4"/>
<circle r="3.59997" transform="matrix(1 0 0 -1 1156.79 55.5914)" fill="#C4C4C4"/>
<circle r="3.59997" transform="matrix(1 0 0 -1 1156.79 104.192)" fill="#C4C4C4"/>
<circle r="3.59997" transform="matrix(1 0 0 -1 1142.39 87.9923)" fill="#C4C4C4"/>
<circle r="3.59997" transform="matrix(1 0 0 -1 1147.79 71.7921)" fill="#C4C4C4"/>
<circle r="3.59997" transform="matrix(1 0 0 -1 1163.99 71.7921)" fill="#C4C4C4"/>
<circle r="3.59997" transform="matrix(1 0 0 -1 1171.19 87.9923)" fill="#C4C4C4"/>
<circle r="3.59997" transform="matrix(1 0 0 -1 1136.99 104.192)" fill="#C4C4C4"/>
<circle r="3.59997" transform="matrix(1 0 0 -1 1176.59 104.192)" fill="#C4C4C4"/>
<circle r="3.59997" transform="matrix(1 0 0 -1 1131.59 120.392)" fill="#C4C4C4"/>
<circle r="3.59997" transform="matrix(1 0 0 -1 1181.99 120.392)" fill="#C4C4C4"/>
<circle r="3.59997" transform="matrix(1 0 0 -1 1647.99 55.5914)" fill="#C4C4C4"/>
<circle r="3.59997" transform="matrix(1 0 0 -1 1647.99 104.192)" fill="#C4C4C4"/>
<circle r="3.59997" transform="matrix(1 0 0 -1 1633.59 87.9913)" fill="#C4C4C4"/>
<circle r="3.59997" transform="matrix(1 0 0 -1 1638.98 71.7921)" fill="#C4C4C4"/>
<circle r="3.59997" transform="matrix(1 0 0 -1 1655.19 71.7921)" fill="#C4C4C4"/>
<circle r="3.59997" transform="matrix(1 0 0 -1 1662.38 87.9913)" fill="#C4C4C4"/>
<circle r="3.59997" transform="matrix(1 0 0 -1 1628.18 104.192)" fill="#C4C4C4"/>
<circle r="3.59997" transform="matrix(1 0 0 -1 1667.78 104.192)" fill="#C4C4C4"/>
<circle r="3.59997" transform="matrix(1 0 0 -1 1622.79 120.391)" fill="#C4C4C4"/>
<circle r="3.59997" transform="matrix(1 0 0 -1 1673.18 120.391)" fill="#C4C4C4"/>
</svg>
