<svg width="184" height="194" viewBox="0 0 184 194" fill="none" xmlns="http://www.w3.org/2000/svg">
<g style="mix-blend-mode:luminosity">
<path d="M180.235 19.0001L149.468 34.1603C149.582 34.2651 149.706 34.3581 149.839 34.438C152.445 35.9359 155.898 38.5959 157.585 42.7115L181.601 21.0134C181.821 20.8147 181.962 20.5431 181.997 20.2489C182.032 19.9547 181.96 19.6576 181.794 19.4125C181.627 19.1673 181.378 18.9905 181.091 18.9147C180.805 18.839 180.501 18.8693 180.235 19.0001Z" fill="#AEAEAE"/>
<path d="M35.1741 101.359C26.5504 100.012 15.5407 101.425 7.74103 113.545C-3.63396 131.222 11.2877 145.206 2.05127 162.052C1.92894 162.27 1.8738 162.52 1.89275 162.769C1.91171 163.019 2.00392 163.258 2.15782 163.455C2.31173 163.652 2.52049 163.8 2.75793 163.879C2.99537 163.959 3.25093 163.966 3.49258 163.901C9.09631 162.339 20.7928 157.21 22.176 141.443C23.5033 126.307 23.1389 113.096 32.2432 110.428C32.8189 107.29 33.8043 104.241 35.1741 101.359Z" fill="#AEAEAE"/>
<path d="M101.752 52.9965C111.076 26.2675 130.938 27.2032 135.997 27.9103C136.749 28.02 137.514 27.8303 138.128 27.382C139.065 26.6974 140.046 26.0755 141.065 25.5204C137.257 20.5536 123.419 5.53757 104.565 20.4223C92.3046 30.1016 98.226 46.4329 98.5588 61.4912C99.6039 58.9527 100.657 56.1342 101.752 52.9965Z" fill="#AEAEAE"/>
<path d="M84.4342 80.0098C90.382 77.1785 94.4086 71.5785 98.5582 61.4939C98.273 48.5259 93.8517 34.6184 100.456 24.8236C93.6721 26.3079 82.5967 31.2378 83.9097 47.6513C85.2439 64.341 87.4858 72.4237 84.4342 80.0098Z" fill="#AEAEAE"/>
<path d="M69.3243 187.808C68.4142 182.882 61.9774 181.251 59.8162 179.089C56.0612 175.334 41.0392 160.312 49.4893 152.801C55.9254 147.08 64.5347 144.078 68.2746 137.165C66.8137 142.728 66.6643 148.384 61.6944 152.801C53.2428 160.312 67.3268 175.334 71.0825 179.089C73.2445 181.251 79.6805 182.882 80.5906 187.808C80.6696 188.233 80.6542 188.67 80.5455 189.088C80.4367 189.507 80.2373 189.896 79.9614 190.228C79.6855 190.561 79.3398 190.829 78.9488 191.013C78.5578 191.197 78.1311 191.293 77.6989 191.294H66.4326C66.8648 191.293 67.2914 191.197 67.6824 191.013C68.0734 190.829 68.4191 190.561 68.6951 190.228C68.971 189.896 69.1704 189.507 69.2791 189.088C69.3879 188.67 69.4033 188.233 69.3243 187.808Z" fill="#AEAEAE"/>
<path d="M144.991 134.978C144.58 134.39 144.376 133.681 144.412 132.964C144.448 132.246 144.722 131.562 145.191 131.017C147.07 128.914 148.047 125.495 147.681 121.862C147.209 117.17 138.043 106.256 124.866 107.14C124.472 107.166 124.081 107.215 123.692 107.277C133.451 110.33 139.113 119.461 139.066 123.457C139.024 127.108 137.671 130.399 135.569 132.277C135.043 132.765 134.694 133.415 134.578 134.124C134.462 134.833 134.586 135.56 134.929 136.191L140.254 146.272C140.451 146.642 140.735 146.958 141.082 147.194C141.429 147.429 141.828 147.576 142.245 147.621C142.662 147.667 143.083 147.61 143.473 147.455C143.862 147.3 144.208 147.053 144.48 146.734C146.263 144.823 147.621 142.556 148.466 140.083L144.991 134.978Z" fill="#AEAEAE"/>
<path d="M69.3226 187.808C69.4017 188.233 69.3863 188.67 69.2775 189.089C69.1688 189.507 68.9694 189.896 68.6935 190.229C68.4175 190.561 68.0718 190.829 67.6808 191.013C67.2898 191.197 66.8631 191.293 66.431 191.294H77.6966C78.1287 191.293 78.5554 191.197 78.9464 191.013C79.3374 190.829 79.6831 190.561 79.959 190.229C80.235 189.896 80.4344 189.507 80.5431 189.089C80.6518 188.67 80.6672 188.233 80.5882 187.808C80.1566 185.469 78.4753 183.878 76.6031 182.616H65.3368C67.2105 183.878 68.8903 185.47 69.3226 187.808Z" fill="#2C2C2C"/>
<path d="M144.992 134.979C144.614 134.42 144.414 133.76 144.418 133.086L138.381 127.686C137.863 129.437 136.893 131.02 135.569 132.277C135.042 132.766 134.694 133.416 134.578 134.125C134.462 134.834 134.585 135.561 134.929 136.192L140.254 146.272C140.451 146.643 140.735 146.959 141.082 147.194C141.429 147.429 141.828 147.576 142.245 147.622C142.662 147.667 143.083 147.61 143.473 147.456C143.862 147.301 144.208 147.053 144.48 146.734C146.263 144.823 147.621 142.557 148.466 140.084L144.992 134.979Z" fill="#2C2C2C"/>
<path d="M165.272 61.4812L159.022 50.0013C158.727 49.4386 158.583 48.8087 158.605 48.1736C158.73 40.8177 153.46 36.5179 149.843 34.4397C149.532 34.2574 149.269 34.0048 149.073 33.7022C148.878 33.3995 148.757 33.0552 148.719 32.6971C148.68 32.3389 148.727 31.9768 148.854 31.6399C148.982 31.303 149.186 31.0007 149.452 30.7572C151.658 28.6243 153.295 25.9737 154.216 23.0466C154.291 22.8223 154.306 22.582 154.258 22.3502C154.211 22.1184 154.103 21.9033 153.945 21.7269C153.787 21.5505 153.585 21.4191 153.36 21.346C153.135 21.273 152.895 21.2609 152.663 21.311C149.358 22.0543 142.908 23.8571 138.121 27.3871C137.507 27.8354 136.742 28.025 135.99 27.9154C130.934 27.2083 111.069 26.2726 101.745 53.0016C92.7082 78.9082 86.4608 83.5354 64.5023 82.3281C57.283 82.0014 50.2101 84.4362 44.7217 89.1377C44.3067 89.4848 43.9042 89.8347 43.5144 90.1873C30.5305 101.854 28.0147 121.202 36.8134 136.279C39.1135 140.22 40.0764 143.099 36.344 152.805C31.6557 164.993 46.6777 170.538 48.4405 189.005C48.5052 189.624 48.7933 190.198 49.2508 190.62C49.7084 191.042 50.3039 191.283 50.9261 191.298H66.4289C66.8612 191.297 67.2883 191.202 67.6796 191.018C68.0709 190.834 68.4169 190.566 68.693 190.234C68.9691 189.901 69.1684 189.511 69.2769 189.093C69.3853 188.674 69.4002 188.237 69.3205 187.812C68.4105 182.886 61.9751 181.254 59.8124 179.092C56.0575 175.338 41.0362 160.316 49.4856 152.805C55.9692 147.042 64.6638 144.042 68.3592 137.021C86.7196 134.967 105.497 122.759 110.745 113.548C111.515 112.302 112.737 111.402 114.155 111.036C115.63 110.604 117.044 109.988 118.366 109.204C120.343 108.022 122.569 107.316 124.866 107.144C138.044 106.261 147.209 117.174 147.682 121.867C148.046 125.499 147.069 128.918 145.191 131.022C144.723 131.566 144.449 132.251 144.413 132.968C144.376 133.685 144.58 134.394 144.991 134.982L151.406 144.407C151.642 144.753 151.96 145.036 152.331 145.231C152.702 145.426 153.115 145.527 153.535 145.526C153.954 145.525 154.367 145.421 154.736 145.224C155.106 145.026 155.422 144.741 155.657 144.394C158.675 139.931 159.135 136.371 157.494 129.539C155.508 121.272 156.211 108.993 152.438 103.985C150.818 101.836 145.632 96.7411 139.296 94.6282C138.266 94.283 137.372 93.6181 136.745 92.7302C136.118 91.8423 135.79 90.7776 135.81 89.6908C135.804 84.2474 134.712 78.8599 132.598 73.844C127.973 62.549 131.56 53.6649 131.56 53.6649C135.599 60.39 142.248 61.9815 146.014 62.3188C146.825 62.3928 147.605 62.6705 148.281 63.1261C148.956 63.5817 149.506 64.2006 149.878 64.9252C151.157 67.3732 153.807 70.7508 158.806 71.1485C159.1 71.1721 159.385 71.1842 159.659 71.1847C164.574 71.2021 167.621 65.7961 165.272 61.4812Z" fill="white"/>
<path d="M147.611 47.3658C154.868 46.328 156.877 42.835 157.304 41.8556C158.057 42.6114 158.812 43.3723 159.561 44.1293C157.532 49.5322 152.481 50.9047 151.723 51.0914C143.631 53.0858 142.364 59.2486 142.165 61.1736C140.396 60.3793 138.656 59.6027 137.024 58.8841C137.212 54.0833 139.832 48.4781 147.611 47.3658Z" fill="#2C2C2C"/>
<path d="M158.053 63.0784C161.224 62.887 162.521 60.8308 162.815 60.2746C164.522 62.5397 165.972 64.4854 166.684 65.4485C166.986 65.8575 167.034 66.3957 166.803 66.8449C166.062 68.2881 164.039 71.3856 161.519 71.106C161.283 71.0797 160.921 70.8688 160.496 70.5527L157.88 71.593C157.478 71.7613 157.02 71.7324 156.646 71.5073C155.285 70.6895 152.741 69.0368 149.943 67.2145C150.291 66.3122 151.875 63.4513 158.053 63.0784Z" fill="#2C2C2C"/>
<path d="M135.413 90.1506C124.855 85.3172 104.033 75.8501 101.606 49.9047C101.606 51.5145 101.863 49.643 101.991 49.5128C102.513 48.9814 103.69 46.1751 104.208 45.6697C104.415 45.4684 104.62 45.2723 104.826 45.0751C105.325 44.5965 105.166 42.941 105.66 42.486C105.894 42.27 106.128 42.0597 106.361 41.849C106.818 41.4354 107.274 41.0288 107.727 40.6352C107.988 40.4077 108.248 40.1862 108.508 39.9651C108.933 39.6036 109.355 39.248 109.775 38.9037C109.886 38.8128 109.996 38.7256 110.106 38.6358C109.251 66.616 121.143 77.8552 133.805 83.7112C133.045 85.1959 136.227 88.5341 135.413 90.1506Z" fill="#2C2C2C"/>
<path d="M137.944 108.68C137.114 110.623 126.597 105.859 125.757 107.859C119.191 104.559 118.85 105.37 111.103 97.7954C102.766 89.6466 95.2893 91.7643 90.2375 74.2146C90.2721 74.1599 90.3063 74.1067 90.3409 74.052C91.6191 72.024 93.8948 71.0835 95.1704 69.2225C95.1767 69.2133 95.183 69.2036 95.1893 69.1945C96.457 67.346 97.655 62.8611 98.9152 61.1733C98.9611 61.112 99.0064 61.0532 99.0523 60.9922C105.034 94.4984 123.093 100.778 137.944 108.68Z" fill="#2C2C2C"/>
<path d="M130.588 66.0028C111.447 45.075 123.12 46.9572 117.71 32.1962C115.53 32.3776 113.263 36.3171 111.096 36.4783C112.631 36.9631 109.443 33.8344 113.055 43.4216C114.522 47.3148 115.03 53.0379 117.71 57.9536C121.143 64.2509 127.108 69.8806 132.197 75.6618C138.685 77.7109 127.368 69.2225 130.588 66.0028Z" fill="#2C2C2C"/>
<path d="M112.456 111.079C112.144 111.894 109.658 112.688 109.658 115.908C106.438 117.518 105.907 116.947 103.219 115.908C95.6268 112.976 96.698 112.727 85.5106 101.42C83.5851 99.4734 79.0713 96.1081 79.0713 93.3704L75.8503 80.4918C82.3515 91.8986 90.3401 98.2 99.9991 101.42C107.103 103.788 106.173 108.447 112.456 111.079Z" fill="#2C2C2C"/>
<path d="M128.631 38.7893C129.102 38.3957 129.853 38.8224 129.651 39.3609C127.289 45.6659 128.73 51.0674 130.586 54.7343C130.218 54.6145 129.845 54.4924 129.49 54.3774C129.472 54.3722 129.453 54.367 129.435 54.3618C126.403 53.4866 124.301 51.0237 124.161 48.2699C123.922 43.5714 126.688 40.4096 128.631 38.7893Z" fill="#2C2C2C"/>
<path d="M48.4341 189.001C48.4989 189.62 48.787 190.195 49.2445 190.616C49.702 191.038 50.2976 191.279 50.9198 191.294H66.4248C66.8571 191.294 67.2842 191.198 67.6755 191.014C68.0668 190.831 68.4128 190.563 68.6889 190.23C68.965 189.897 69.1643 189.508 69.2728 189.089C69.3812 188.671 69.3961 188.233 69.3164 187.808C68.8848 185.469 67.2035 183.878 65.3313 182.616H47.2071C47.8195 184.7 48.2304 186.838 48.4341 189.001Z" fill="#2C2C2C"/>
<path d="M145.191 131.018C144.723 131.562 144.449 132.247 144.413 132.964C144.376 133.681 144.58 134.39 144.991 134.979L151.406 144.403C151.642 144.749 151.96 145.032 152.331 145.227C152.702 145.422 153.115 145.523 153.535 145.522C153.954 145.521 154.366 145.417 154.736 145.22C155.106 145.022 155.422 144.738 155.657 144.39C157.776 141.556 158.74 138.023 158.355 134.505L147.55 125.778C147.263 127.709 146.447 129.522 145.191 131.018Z" fill="#2C2C2C"/>
<path d="M129.626 154.015C128.023 153.724 126.543 152.959 125.379 151.818C124.215 150.678 123.42 149.215 123.096 147.618C123.086 147.586 123.067 147.559 123.041 147.539C123.015 147.52 122.983 147.509 122.951 147.509C122.918 147.509 122.886 147.52 122.86 147.539C122.834 147.559 122.815 147.586 122.806 147.618C122.482 149.215 121.687 150.679 120.523 151.819C119.359 152.96 117.879 153.725 116.275 154.015C116.241 154.02 116.21 154.037 116.188 154.063C116.165 154.089 116.153 154.123 116.153 154.157C116.153 154.192 116.165 154.225 116.188 154.251C116.21 154.277 116.241 154.294 116.275 154.299C117.879 154.59 119.358 155.356 120.522 156.496C121.686 157.637 122.482 159.1 122.806 160.697C122.815 160.729 122.834 160.756 122.86 160.776C122.886 160.795 122.918 160.806 122.951 160.806C122.983 160.806 123.015 160.795 123.041 160.776C123.067 160.756 123.086 160.729 123.096 160.697C123.42 159.1 124.215 157.637 125.379 156.496C126.543 155.356 128.022 154.59 129.626 154.299C129.66 154.294 129.691 154.277 129.714 154.251C129.736 154.225 129.749 154.192 129.749 154.157C129.749 154.123 129.736 154.089 129.714 154.063C129.691 154.037 129.66 154.02 129.626 154.015Z" fill="#AEAEAE"/>
<path d="M129.442 4.95779C130.811 4.95779 131.921 3.84795 131.921 2.4789C131.921 1.10984 130.811 0 129.442 0C128.073 0 126.963 1.10984 126.963 2.4789C126.963 3.84795 128.073 4.95779 129.442 4.95779Z" fill="#AEAEAE"/>
<path d="M132.009 128.865C133.378 128.865 134.488 127.755 134.488 126.386C134.488 125.017 133.378 123.907 132.009 123.907C130.64 123.907 129.53 125.017 129.53 126.386C129.53 127.755 130.64 128.865 132.009 128.865Z" fill="#AEAEAE"/>
<path d="M21.0346 91.7381C22.4036 91.7381 23.5135 90.6283 23.5135 89.2592C23.5135 87.8902 22.4036 86.7803 21.0346 86.7803C19.6655 86.7803 18.5557 87.8902 18.5557 89.2592C18.5557 90.6283 19.6655 91.7381 21.0346 91.7381Z" fill="#AEAEAE"/>
<path d="M77.6962 193.18H66.4306C65.9303 193.18 65.4504 192.982 65.0966 192.628C64.7428 192.274 64.5441 191.794 64.5441 191.294C64.5441 190.793 64.7428 190.314 65.0966 189.96C65.4504 189.606 65.9303 189.407 66.4306 189.407C66.5849 189.408 66.7374 189.375 66.8772 189.31C67.017 189.244 67.1405 189.149 67.2388 189.03C67.3392 188.91 67.4116 188.769 67.4507 188.617C67.4899 188.465 67.4948 188.307 67.4652 188.153C67.0011 185.642 64.2853 184.099 61.8894 182.736C60.6592 182.113 59.5131 181.337 58.4785 180.425C55.0979 177.044 44.8095 166.756 45.0623 158.151C45.0824 156.864 45.3753 155.597 45.9217 154.432C46.468 153.267 47.2554 152.232 48.2317 151.394C50.7095 149.293 53.3412 147.381 56.1045 145.674C60.4103 142.866 64.4807 140.213 66.611 136.27C66.8304 135.864 67.1911 135.552 67.6247 135.394C68.0584 135.236 68.5349 135.243 68.9641 135.412C69.3933 135.582 69.7455 135.903 69.9539 136.315C70.1623 136.727 70.2125 137.201 70.095 137.647C69.803 138.759 69.5577 139.911 69.3208 141.023C68.3496 145.585 67.3452 150.305 62.9428 154.214C62.3158 154.749 61.8111 155.412 61.463 156.159C61.1148 156.906 60.9313 157.719 60.925 158.544C60.7205 165.503 69.6671 175.005 72.4132 177.753C73.2187 178.412 74.0934 178.982 75.0219 179.452C77.823 181.045 81.6624 183.225 82.4435 187.463C82.5731 188.161 82.5477 188.878 82.3691 189.564C82.1906 190.25 81.8631 190.889 81.41 191.435C80.957 191.98 80.3894 192.42 79.7476 192.721C79.1057 193.023 78.4054 193.18 77.6962 193.18ZM71.1409 189.407H77.6962C77.8504 189.408 78.0029 189.375 78.1426 189.31C78.2822 189.245 78.4056 189.149 78.5036 189.03C78.604 188.91 78.6764 188.769 78.7155 188.617C78.7547 188.465 78.7596 188.307 78.73 188.153C78.2659 185.642 75.5501 184.099 73.1542 182.736C71.9238 182.113 70.7774 181.337 69.7426 180.425C65.876 176.558 56.9089 166.676 57.1512 158.438C57.1687 157.098 57.4705 155.778 58.0365 154.563C58.6025 153.349 59.4198 152.269 60.4345 151.394C62.5414 149.477 64.0246 146.972 64.692 144.203C62.6087 145.873 60.4289 147.419 58.1639 148.833C55.5593 150.442 53.0769 152.24 50.737 154.214C50.1476 154.712 49.6724 155.332 49.3437 156.03C49.0151 156.729 48.8407 157.49 48.8324 158.261C48.6633 164.029 55.4344 172.047 61.1446 177.758C61.9497 178.417 62.8241 178.986 63.7525 179.456C66.5544 181.049 70.3931 183.229 71.1741 187.468C71.2936 188.11 71.2823 188.77 71.1409 189.407Z" fill="black"/>
<path d="M148.085 48.962C147.723 48.9622 147.368 48.8579 147.063 48.6616C146.758 48.4652 146.516 48.1852 146.366 47.855C145.128 45.1271 143.211 45.3414 142.841 45.4123C142.6 45.468 142.351 45.4755 142.108 45.4345C141.864 45.3935 141.632 45.3048 141.423 45.1734C141.214 45.042 141.033 44.8706 140.89 44.6691C140.748 44.4675 140.647 44.2398 140.593 43.9989C140.483 43.5089 140.571 42.9953 140.838 42.5702C141.106 42.1451 141.53 41.843 142.02 41.7298C143.806 41.314 147.731 41.7343 149.802 46.2952C149.933 46.5825 149.989 46.898 149.966 47.2127C149.943 47.5274 149.842 47.8313 149.671 48.0966C149.5 48.362 149.265 48.5802 148.988 48.7314C148.711 48.8826 148.401 48.9619 148.085 48.962Z" fill="black"/>
<path d="M66.4242 193.18H50.9192C49.827 193.168 48.7779 192.753 47.9727 192.015C47.1675 191.277 46.6628 190.268 46.5553 189.181C45.7637 180.884 42.125 175.308 38.9148 170.391C35.2384 164.756 31.7657 159.434 34.5758 152.13C38.2681 142.529 36.9717 140.308 35.1795 137.233C25.8412 121.235 28.8144 100.861 42.2487 88.7868C42.6572 88.4206 43.0768 88.0566 43.5074 87.6949C49.3604 82.682 56.9054 80.0911 64.6033 80.4506C85.9324 81.6233 91.2244 77.4269 99.9613 52.3829C104.112 40.4963 110.748 32.4438 119.696 28.4504C124.89 26.1562 130.612 25.3233 136.244 26.0417C136.509 26.0849 136.781 26.0214 136.999 25.8651C142.038 22.1487 148.715 20.2622 152.242 19.4676C152.796 19.3432 153.373 19.368 153.915 19.5394C154.456 19.7108 154.943 20.0227 155.324 20.4433C155.709 20.8678 155.975 21.3868 156.094 21.9473C156.213 22.5079 156.182 23.09 156.003 23.6345C154.976 26.8548 153.17 29.7715 150.744 32.1254C150.689 32.1747 150.647 32.2364 150.621 32.3055C150.594 32.3745 150.585 32.4489 150.593 32.5223C150.599 32.5808 150.618 32.6371 150.651 32.6862C150.683 32.7352 150.727 32.7753 150.779 32.803C154.466 34.9227 160.63 39.7454 160.487 48.2061C160.472 48.5149 160.536 48.8224 160.674 49.0988L166.925 60.5795C167.639 61.8794 167.998 63.3443 167.967 64.827C167.935 66.3097 167.514 67.7581 166.746 69.0266C166.024 70.2589 164.993 71.2805 163.753 71.9898C162.514 72.6991 161.111 73.0712 159.683 73.069H159.65C159.328 73.069 158.996 73.055 158.653 73.0268C154.162 72.6691 150.45 70.1012 148.202 65.7954C147.975 65.3515 147.64 64.9721 147.228 64.6925C146.815 64.4128 146.339 64.2419 145.842 64.1956C142.511 63.8937 136.841 62.6599 132.441 57.9595C131.685 63.094 132.341 68.3375 134.34 73.1271C136.547 78.3782 137.687 84.016 137.693 89.712C137.679 90.3987 137.884 91.072 138.279 91.6339C138.674 92.1959 139.238 92.617 139.889 92.8361C147.017 95.2093 152.449 100.867 153.942 102.846C156.627 106.41 157.245 112.535 157.899 119.02C158.161 122.405 158.638 125.77 159.326 129.094C161.079 136.394 160.547 140.52 157.217 145.447C156.81 146.05 156.261 146.545 155.618 146.887C154.975 147.229 154.258 147.408 153.53 147.409H153.522C152.797 147.409 152.083 147.232 151.442 146.894C150.801 146.555 150.252 146.064 149.844 145.465L143.43 136.041C142.778 135.106 142.458 133.979 142.522 132.84C142.586 131.702 143.03 130.617 143.782 129.761C145.332 128.025 146.107 125.072 145.803 122.052C145.456 118.598 137.276 108.196 124.992 109.023C122.987 109.178 121.046 109.795 119.321 110.827C117.863 111.691 116.303 112.369 114.677 112.845C113.732 113.077 112.912 113.661 112.384 114.478C106.865 124.167 88.0498 136.362 69.5302 138.777C66.8777 143.16 62.4557 146.041 58.1702 148.833C55.5634 150.44 53.0789 152.239 50.7373 154.213C50.1481 154.712 49.6731 155.331 49.3446 156.03C49.0161 156.728 48.8418 157.489 48.8334 158.261C48.6637 164.028 55.4355 172.046 61.1457 177.757C61.9508 178.416 62.8253 178.986 63.7536 179.456C66.5555 181.049 70.3942 183.229 71.1752 187.467C71.3043 188.165 71.2784 188.882 71.0993 189.568C70.9202 190.254 70.5923 190.892 70.1389 191.437C69.6855 191.983 69.1176 192.421 68.4757 192.723C67.8337 193.024 67.1333 193.18 66.4242 193.18ZM63.0284 84.1724C56.7516 84.2287 50.6959 86.4983 45.9282 90.5813C45.5298 90.9148 45.1426 91.2506 44.7669 91.5887C32.6576 102.469 29.9946 120.863 38.4349 135.326C41.2594 140.164 41.8359 143.756 38.0969 153.479C35.9787 158.987 38.5353 162.904 42.0744 168.327C45.3517 173.349 49.4303 179.6 50.3102 188.823C50.3308 188.974 50.4021 189.115 50.5125 189.221C50.6229 189.327 50.766 189.393 50.9184 189.407H66.4242C66.5784 189.408 66.731 189.375 66.8708 189.31C67.0106 189.244 67.1341 189.149 67.2324 189.03C67.3327 188.91 67.4051 188.769 67.4443 188.617C67.4834 188.465 67.4884 188.307 67.4587 188.153C66.9947 185.643 64.2788 184.099 61.8829 182.737C60.6527 182.114 59.5066 181.337 58.4721 180.425C55.0907 177.045 44.8031 166.756 45.0559 158.151C45.076 156.864 45.3689 155.597 45.9152 154.432C46.4616 153.267 47.2489 152.232 48.2252 151.394C50.705 149.291 53.339 147.378 56.1049 145.669C60.4575 142.834 64.5686 140.155 66.683 136.139C66.8264 135.866 67.0344 135.632 67.2888 135.459C67.5432 135.285 67.8363 135.176 68.1424 135.142C85.3332 133.22 103.944 121.661 109.099 112.61C110.107 110.932 111.732 109.715 113.627 109.219C114.948 108.831 116.215 108.278 117.4 107.574C119.631 106.246 122.141 105.453 124.731 105.258C138.251 104.352 148.915 115.369 149.549 121.674C149.961 125.775 148.854 129.738 146.587 132.275C146.4 132.506 146.294 132.792 146.285 133.088C146.277 133.385 146.367 133.677 146.54 133.918L152.955 143.341C153.018 143.431 153.102 143.505 153.199 143.556C153.297 143.607 153.405 143.635 153.515 143.636C153.628 143.637 153.739 143.61 153.838 143.557C153.937 143.504 154.022 143.428 154.083 143.334C156.816 139.291 157.167 136.294 155.649 129.977C154.918 126.488 154.412 122.955 154.136 119.401C153.564 113.716 152.97 107.839 150.92 105.119C149.713 103.515 144.871 98.4783 138.689 96.4174C137.278 95.9473 136.053 95.039 135.194 93.8248C134.335 92.6106 133.886 91.1539 133.912 89.6667C133.903 84.4763 132.861 79.3396 130.848 74.5556C125.989 62.6879 129.648 53.3473 129.807 52.9557C129.938 52.6305 130.158 52.3483 130.441 52.1409C130.723 51.9335 131.058 51.8091 131.408 51.7816C131.758 51.7541 132.108 51.8246 132.42 51.9852C132.732 52.1458 132.993 52.3901 133.173 52.6908C136.809 58.7428 142.882 60.1418 146.178 60.4361C147.305 60.5375 148.388 60.9218 149.326 61.5535C150.265 62.1851 151.028 63.0436 151.546 64.0492C152.696 66.2511 154.914 68.9436 158.952 69.2651C159.204 69.2854 159.45 69.2877 159.683 69.2952C160.458 69.2994 161.22 69.0976 161.892 68.7106C162.563 68.3236 163.12 67.7652 163.505 67.0925C163.934 66.3856 164.17 65.5782 164.188 64.7514C164.207 63.9246 164.007 63.1075 163.61 62.3823L157.36 50.9024C156.907 50.0541 156.685 49.1022 156.714 48.1412C156.819 41.9421 152.521 38.1562 148.898 36.0728C148.335 35.7526 147.856 35.3043 147.5 34.7642C147.143 34.2241 146.919 33.6075 146.846 32.9645C146.771 32.3074 146.85 31.6418 147.076 31.0204C147.303 30.3989 147.671 29.8387 148.151 29.3839C149.892 27.6993 151.236 25.6486 152.087 23.3802C148.697 24.2103 143.299 25.9044 139.237 28.9009C138.227 29.6439 136.965 29.9589 135.724 29.7778C130.38 29.0315 112.268 28.5417 103.521 53.6167C94.304 80.0401 87.3541 85.4711 64.3943 84.2086C63.9395 84.1845 63.4845 84.1724 63.0292 84.1724H63.0284Z" fill="black"/>
<path d="M142.527 149.523C141.717 149.524 140.922 149.304 140.228 148.887C139.533 148.469 138.967 147.87 138.588 147.153L133.263 137.072C132.719 136.07 132.527 134.915 132.718 133.79C132.908 132.666 133.47 131.638 134.313 130.871C136.049 129.32 137.147 126.471 137.181 123.436C137.214 120.555 132.331 111.956 123.129 109.077C122.723 108.95 122.371 108.689 122.132 108.336C121.893 107.984 121.78 107.561 121.812 107.136C121.844 106.711 122.018 106.31 122.307 105.997C122.596 105.684 122.982 105.478 123.403 105.413C123.906 105.337 124.331 105.285 124.74 105.258C139.064 104.288 149.007 116.188 149.559 121.674C149.971 125.774 148.864 129.738 146.597 132.275C146.41 132.505 146.304 132.791 146.295 133.088C146.287 133.385 146.376 133.677 146.55 133.917L150.026 139.022C150.185 139.255 150.289 139.521 150.332 139.801C150.374 140.08 150.353 140.366 150.27 140.636C149.343 143.351 147.86 145.844 145.917 147.955C145.499 148.447 144.98 148.841 144.394 149.112C143.809 149.382 143.172 149.523 142.527 149.523ZM132.609 109.959C137.913 114.196 140.996 119.889 140.955 123.479C140.907 127.601 139.365 131.414 136.828 133.683C136.617 133.892 136.481 134.164 136.44 134.458C136.399 134.752 136.456 135.052 136.602 135.31L141.927 145.39C141.98 145.488 142.056 145.572 142.148 145.634C142.241 145.696 142.347 145.735 142.457 145.746C142.568 145.758 142.68 145.743 142.783 145.702C142.886 145.661 142.978 145.595 143.05 145.51C144.446 143.997 145.571 142.256 146.379 140.363L143.436 136.041C142.784 135.106 142.464 133.979 142.528 132.84C142.592 131.702 143.036 130.618 143.788 129.761C145.338 128.025 146.113 125.072 145.809 122.052C145.537 119.373 140.558 112.519 132.609 109.959Z" fill="black"/>
<path d="M98.5506 63.3796C98.4344 63.3798 98.3184 63.3692 98.2042 63.3479C97.7785 63.2687 97.3931 63.0454 97.1125 62.7157C96.8319 62.3859 96.6733 61.9697 96.6633 61.5368C96.5878 58.0339 96.1909 54.3756 95.8076 50.8372C94.5383 39.1022 93.2253 26.9674 103.387 18.9459C110.032 13.6998 116.781 11.4639 123.447 12.2947C133.272 13.5217 140.081 21.1531 142.553 24.3768C142.718 24.5925 142.835 24.8414 142.895 25.1065C142.955 25.3716 142.958 25.6465 142.902 25.9125C142.846 26.1785 142.733 26.4293 142.571 26.6477C142.409 26.8661 142.202 27.047 141.964 27.1779C141.019 27.6926 140.109 28.2691 139.24 28.9037C138.229 29.6462 136.967 29.9611 135.726 29.7805C130.383 29.0342 112.271 28.5445 103.523 53.6194C102.377 56.9065 101.321 59.7174 100.294 62.2129C100.152 62.5582 99.9101 62.8534 99.5997 63.0611C99.2892 63.2687 98.9241 63.3796 98.5506 63.3796ZM120.753 15.898C115.827 15.898 110.783 17.912 105.725 21.9054C97.1975 28.6343 98.3468 39.2207 99.5595 50.4297C99.644 51.2145 99.73 52.0053 99.8123 52.8007C99.8621 52.6596 99.9111 52.5177 99.9632 52.3743C104.114 40.4877 110.75 32.4353 119.698 28.4419C124.893 26.1503 130.615 25.3203 136.247 26.0414C136.378 26.0632 136.512 26.0589 136.642 26.0287C136.771 25.9986 136.894 25.9431 137.002 25.8656C137.386 25.5819 137.788 25.3027 138.209 25.028C135.379 21.796 130.031 16.9167 122.98 16.0361C122.241 15.9441 121.497 15.898 120.753 15.898Z" fill="black"/>
<path d="M84.4314 81.8953C84.1228 81.8952 83.8189 81.8195 83.5464 81.6747C83.2739 81.5299 83.0411 81.3205 82.8684 81.0648C82.6956 80.8091 82.5883 80.5149 82.5557 80.208C82.5231 79.9012 82.5663 79.591 82.6814 79.3047C84.7626 74.1296 84.1552 68.5379 83.1478 59.2721C82.7856 55.9427 82.3758 52.1682 82.0257 47.802C80.5444 29.2831 94.1372 24.274 100.05 22.9806C100.418 22.9001 100.802 22.9316 101.152 23.0712C101.502 23.2109 101.803 23.4521 102.014 23.7639C102.226 24.0757 102.339 24.4437 102.34 24.8206C102.341 25.1974 102.228 25.5658 102.018 25.8783C97.6212 32.3974 98.5675 41.1629 99.5681 50.4431C99.9582 54.0562 100.361 57.7915 100.441 61.4529C100.446 61.7114 100.398 61.9683 100.3 62.2075C95.8177 73.1018 91.4545 78.7523 85.2426 81.7097C84.9894 81.8311 84.7122 81.8946 84.4314 81.8953ZM96.7413 27.9127C90.5309 30.3961 84.8532 35.8263 85.7874 47.5001C86.1323 51.8143 86.542 55.5594 86.8989 58.8646C87.6536 65.8304 88.2248 71.0651 87.52 75.7445C90.8742 72.8302 93.7018 68.2534 96.6591 61.1412C96.5632 57.7621 96.1837 54.2486 95.8169 50.8468C94.9642 42.9461 94.0881 34.8227 96.7413 27.9127Z" fill="black"/>
<path d="M3.14722 165.834C2.67388 165.834 2.20665 165.727 1.7806 165.521C1.35454 165.315 0.980725 165.015 0.687193 164.643C0.298713 164.154 0.0635145 163.561 0.0111526 162.938C-0.0412093 162.316 0.0916007 161.691 0.392894 161.144C4.50401 153.649 3.47171 146.737 2.37827 139.418C1.12487 131.026 -0.171554 122.349 6.15133 112.524C14.6603 99.3014 26.7877 98.1409 35.4619 99.4954C35.7521 99.5407 36.0277 99.6531 36.2668 99.8238C36.5059 99.9944 36.7019 100.218 36.8391 100.478C36.9762 100.738 37.0509 101.026 37.057 101.32C37.0632 101.613 37.0007 101.904 36.8745 102.17C35.5755 104.901 34.6411 107.792 34.0953 110.767C34.0322 111.11 33.875 111.43 33.6411 111.689C33.4073 111.949 33.1061 112.138 32.771 112.236C26.1153 114.188 25.409 123.7 24.514 135.742C24.3722 137.651 24.2265 139.613 24.0514 141.607C22.549 158.743 9.52519 164.177 3.9954 165.718C3.71929 165.795 3.43392 165.834 3.14722 165.834ZM29.9193 102.824C21.2601 102.824 14.3479 106.759 9.32371 114.568C3.77053 123.198 4.90697 130.806 6.10982 138.863C7.18967 146.091 8.30423 153.554 4.37422 161.659C10.3726 159.649 19.1352 154.47 20.2965 141.28C20.4693 139.301 20.6134 137.356 20.7545 135.464C21.6774 123.044 22.4796 112.246 30.603 108.999C31.0454 106.929 31.6584 104.899 32.4359 102.93C31.5802 102.858 30.7426 102.822 29.9231 102.822L29.9193 102.824Z" fill="black"/>
<path d="M157.588 44.5972C157.214 44.5972 156.848 44.4858 156.537 44.2772C156.226 44.0687 155.985 43.7724 155.843 43.426C154.353 39.7911 151.246 37.4208 148.9 36.0724C148.658 35.9293 148.43 35.7622 148.221 35.5736C147.989 35.3685 147.811 35.1095 147.702 34.8192C147.594 34.529 147.559 34.2165 147.6 33.9095C147.641 33.6024 147.757 33.3101 147.937 33.0585C148.118 32.8069 148.358 32.6037 148.636 32.4668L179.405 17.3082C180.079 16.9755 180.851 16.8979 181.578 17.0898C182.304 17.2817 182.937 17.73 183.36 18.3522C183.782 18.9743 183.965 19.7281 183.875 20.4745C183.784 21.2209 183.427 21.9095 182.869 22.4131L158.853 44.1112C158.506 44.4242 158.055 44.5974 157.588 44.5972ZM153.232 34.4099C155.184 35.839 156.851 37.6215 158.145 39.6651L176.834 22.7791L153.232 34.4099Z" fill="black"/>
<path d="M66.4311 193.18H50.9261C49.834 193.168 48.7848 192.753 47.9796 192.015C47.1744 191.277 46.6697 190.268 46.5622 189.181C46.3717 187.138 45.9837 185.118 45.4039 183.149C45.321 182.868 45.305 182.571 45.3569 182.282C45.4089 181.993 45.5276 181.721 45.7034 181.486C45.8792 181.251 46.1074 181.06 46.3698 180.929C46.6322 180.798 46.9216 180.73 47.2149 180.73H65.3377C65.7141 180.729 66.0821 180.842 66.3941 181.052C68.1599 182.241 70.5777 184.201 71.1806 187.466C71.3098 188.164 71.284 188.881 71.1051 189.567C70.9261 190.253 70.5984 190.891 70.1451 191.437C69.6919 191.982 69.1242 192.421 68.4823 192.722C67.8405 193.023 67.1402 193.18 66.4311 193.18ZM49.6425 184.502C49.9551 185.927 50.1819 187.37 50.3217 188.822C50.3424 188.974 50.4136 189.114 50.5239 189.22C50.6341 189.326 50.7769 189.392 50.9291 189.407H66.4311C66.5854 189.408 66.7379 189.374 66.8777 189.309C67.0175 189.244 67.141 189.148 67.2393 189.029C67.3397 188.909 67.412 188.768 67.4512 188.616C67.4904 188.465 67.4953 188.306 67.4657 188.152C67.2212 186.83 66.3753 185.69 64.7415 184.504L49.6425 184.502Z" fill="black"/>
<path d="M153.528 147.409C152.803 147.409 152.089 147.232 151.448 146.894C150.807 146.555 150.258 146.064 149.85 145.465L143.436 136.041C142.784 135.106 142.464 133.979 142.528 132.841C142.592 131.702 143.036 130.618 143.788 129.761C144.805 128.529 145.466 127.041 145.697 125.46C145.754 125.136 145.893 124.833 146.103 124.579C146.312 124.326 146.584 124.132 146.892 124.016C147.2 123.9 147.532 123.867 147.857 123.919C148.181 123.972 148.487 124.108 148.742 124.315L159.54 133.038C159.738 133.198 159.902 133.397 160.021 133.622C160.14 133.847 160.213 134.093 160.234 134.347C160.654 138.294 159.577 142.255 157.216 145.445C156.808 146.049 156.259 146.543 155.616 146.885C154.973 147.227 154.256 147.406 153.528 147.407V147.409ZM148.579 129.039C148.108 130.223 147.437 131.319 146.595 132.277C146.407 132.507 146.301 132.793 146.293 133.09C146.284 133.387 146.374 133.678 146.548 133.919L152.962 143.343C153.026 143.433 153.109 143.507 153.207 143.558C153.304 143.609 153.413 143.636 153.523 143.637C153.635 143.638 153.746 143.611 153.845 143.559C153.945 143.506 154.029 143.429 154.091 143.335C155.945 140.592 156.64 138.385 156.522 135.456L148.579 129.039Z" fill="black"/>
<path d="M77.6905 193.18H66.4249C65.9246 193.18 65.4447 192.982 65.091 192.628C64.7372 192.274 64.5384 191.794 64.5384 191.294C64.5384 190.794 64.7372 190.314 65.091 189.96C65.4447 189.606 65.9246 189.407 66.4249 189.407C66.5792 189.408 66.7317 189.375 66.8715 189.31C67.0113 189.245 67.1348 189.149 67.2331 189.03C67.3335 188.91 67.4059 188.769 67.445 188.617C67.4842 188.466 67.4891 188.307 67.4595 188.153C67.1931 186.712 66.2114 185.487 64.275 184.183C63.9399 183.957 63.6861 183.629 63.5512 183.248C63.4163 182.867 63.4073 182.452 63.5256 182.066C63.644 181.679 63.8833 181.341 64.2085 181.101C64.5336 180.861 64.9273 180.731 65.3315 180.732H76.5978C76.9742 180.731 77.3422 180.844 77.6543 181.054C79.4201 182.243 81.8371 184.203 82.4408 187.468C82.5697 188.165 82.5437 188.882 82.3646 189.568C82.1855 190.254 81.8577 190.892 81.4044 191.438C80.951 191.983 80.3834 192.421 79.7415 192.723C79.0997 193.024 78.3995 193.18 77.6905 193.18ZM71.1352 189.407H77.6905C77.8447 189.409 77.9972 189.375 78.1369 189.31C78.2765 189.245 78.3999 189.149 78.4979 189.03C78.5983 188.91 78.6707 188.769 78.7098 188.617C78.749 188.466 78.7539 188.307 78.7243 188.153C78.4798 186.831 77.6331 185.691 76.0002 184.505H69.9822C70.571 185.404 70.9753 186.411 71.1714 187.467C71.2907 188.11 71.2784 188.77 71.1352 189.407Z" fill="black"/>
<path d="M142.523 149.524C142.358 149.524 142.194 149.515 142.03 149.497C141.308 149.418 140.617 149.163 140.016 148.756C139.415 148.348 138.923 147.799 138.584 147.157L133.258 137.076C132.715 136.074 132.523 134.919 132.713 133.794C132.904 132.67 133.465 131.642 134.309 130.875C135.384 129.842 136.169 128.544 136.583 127.111C136.679 126.812 136.849 126.541 137.076 126.324C137.303 126.106 137.581 125.949 137.885 125.867C138.188 125.784 138.508 125.779 138.814 125.851C139.12 125.924 139.403 126.071 139.637 126.281L145.674 131.681C145.873 131.859 146.032 132.077 146.14 132.32C146.248 132.564 146.304 132.828 146.303 133.094C146.299 133.388 146.386 133.676 146.549 133.919L150.025 139.023C150.184 139.257 150.289 139.523 150.331 139.803C150.373 140.082 150.352 140.367 150.27 140.637C149.342 143.353 147.86 145.846 145.916 147.957C145.498 148.448 144.978 148.843 144.392 149.113C143.806 149.384 143.168 149.524 142.523 149.524ZM139.067 130.832C138.483 131.9 137.725 132.864 136.824 133.683C136.613 133.892 136.476 134.164 136.435 134.459C136.394 134.753 136.451 135.052 136.598 135.311L141.923 145.391C141.976 145.489 142.051 145.572 142.144 145.634C142.236 145.696 142.342 145.735 142.453 145.747C142.564 145.759 142.675 145.743 142.779 145.702C142.882 145.661 142.974 145.595 143.046 145.51C144.442 143.997 145.567 142.256 146.374 140.363L143.431 136.041C143.013 135.427 142.732 134.73 142.607 133.998L139.067 130.832Z" fill="black"/>
</g>
</svg>
