<svg width="170" height="51" viewBox="0 0 170 51" fill="none" xmlns="http://www.w3.org/2000/svg">
<path d="M111.908 24.0012V26.865H110.112V28.743H111.908V35.1242C111.908 37.3032 112.893 38.1748 115.373 38.1748C115.809 38.1748 116.224 38.1229 116.587 38.0606V36.2033C116.276 36.2345 116.079 36.2552 115.736 36.2552C114.626 36.2552 114.138 35.7364 114.138 34.5536V28.743H116.587V26.865H114.138V24.0012H111.908Z" fill="white"/>
<path d="M122.904 38.3304C126.204 38.3304 128.227 36.1203 128.227 32.4576C128.227 28.8156 126.194 26.5952 122.904 26.5952C119.605 26.5952 117.571 28.8156 117.571 32.4576C117.571 36.1203 119.594 38.3304 122.904 38.3304ZM122.904 36.3486C120.964 36.3486 119.875 34.9271 119.875 32.4576C119.875 30.0089 120.964 28.577 122.904 28.577C124.834 28.577 125.934 30.0089 125.934 32.4576C125.934 34.9167 124.834 36.3486 122.904 36.3486Z" fill="white"/>
<path d="M129.958 38.1125H132.189V31.4408C132.189 29.8532 133.382 28.7845 135.074 28.7845C135.468 28.7845 136.132 28.8572 136.319 28.9194V26.7197C136.08 26.6574 135.655 26.6263 135.323 26.6263C133.849 26.6263 132.594 27.4356 132.272 28.5459H132.106V26.8131H129.958V38.1125Z" fill="white"/>
<path d="M141.858 28.494C143.508 28.494 144.587 29.6457 144.639 31.42H138.932C139.056 29.6561 140.208 28.494 141.858 28.494ZM144.628 35.062C144.213 35.9439 143.29 36.4316 141.941 36.4316C140.156 36.4316 139.005 35.1761 138.932 33.1943V33.0698H146.911V32.2916C146.911 28.743 145.012 26.5952 141.868 26.5952C138.683 26.5952 136.66 28.8883 136.66 32.4991C136.66 36.11 138.641 38.3304 141.879 38.3304C144.462 38.3304 146.268 37.0853 146.776 35.062H144.628Z" fill="white"/>
<path d="M97.278 33.9398C97.4501 36.7145 99.7623 38.4889 103.204 38.4889C106.882 38.4889 109.183 36.6284 109.183 33.6602C109.183 31.3265 107.871 30.036 104.688 29.2939L102.978 28.8745C100.956 28.4013 100.139 27.7668 100.139 26.6591C100.139 25.261 101.408 24.3469 103.311 24.3469C105.118 24.3469 106.366 25.2395 106.591 26.6698H108.936C108.796 24.0565 106.495 22.2175 103.344 22.2175C99.9559 22.2175 97.6975 24.0565 97.6975 26.8204C97.6975 29.1003 98.9772 30.4554 101.784 31.1114L103.784 31.5954C105.839 32.0793 106.742 32.7891 106.742 33.9721C106.742 35.3486 105.322 36.3488 103.387 36.3488C101.311 36.3488 99.8699 35.4132 99.6655 33.9398H97.278Z" fill="white"/>
<path d="M74.1689 26.6263C72.6332 26.6263 71.3051 27.3941 70.6203 28.6808H70.4543V26.8131H68.3065V41.8686H70.5373V36.4005H70.7137C71.3051 37.5937 72.5814 38.2993 74.1896 38.2993C77.043 38.2993 78.8588 36.0477 78.8588 32.4576C78.8588 28.8675 77.043 26.6263 74.1689 26.6263ZM73.5359 36.2967C71.6683 36.2967 70.4958 34.8233 70.4958 32.468C70.4958 30.1023 71.6683 28.6289 73.5463 28.6289C75.4348 28.6289 76.5657 30.0711 76.5657 32.4576C76.5657 34.8545 75.4348 36.2967 73.5359 36.2967Z" fill="white"/>
<path d="M86.6649 26.6263C85.1292 26.6263 83.8011 27.3941 83.1163 28.6808H82.9503V26.8131H80.8025V41.8686H83.0333V36.4005H83.2097C83.8011 37.5937 85.0774 38.2993 86.6856 38.2993C89.539 38.2993 91.3548 36.0477 91.3548 32.4576C91.3548 28.8675 89.539 26.6263 86.6649 26.6263ZM86.0319 36.2967C84.1643 36.2967 82.9918 34.8233 82.9918 32.468C82.9918 30.1023 84.1643 28.6289 86.0423 28.6289C87.9307 28.6289 89.0617 30.0711 89.0617 32.4576C89.0617 34.8545 87.9307 36.2967 86.0319 36.2967Z" fill="white"/>
<path d="M64.304 38.1125H66.8635L61.2605 22.5939H58.6687L53.0656 38.1125H55.5391L56.9695 33.9936H62.8844L64.304 38.1125ZM59.8409 25.4116H60.0237L62.2714 31.9718H57.5825L59.8409 25.4116Z" fill="white"/>
<path d="M54.5637 10.8886V18.3749H57.2667C59.4975 18.3749 60.7893 17.0001 60.7893 14.6084C60.7893 12.2531 59.4871 10.8886 57.2667 10.8886H54.5637ZM55.7258 11.947H57.137C58.6882 11.947 59.6064 12.9327 59.6064 14.624C59.6064 16.3412 58.7037 17.3165 57.137 17.3165H55.7258V11.947Z" fill="white"/>
<path d="M64.7457 18.4838C66.3954 18.4838 67.4071 17.3788 67.4071 15.5474C67.4071 13.7264 66.3903 12.6162 64.7457 12.6162C63.0959 12.6162 62.079 13.7264 62.079 15.5474C62.079 17.3788 63.0907 18.4838 64.7457 18.4838ZM64.7457 17.4929C63.7755 17.4929 63.2308 16.7822 63.2308 15.5474C63.2308 14.3231 63.7755 13.6071 64.7457 13.6071C65.7106 13.6071 66.2606 14.3231 66.2606 15.5474C66.2606 16.777 65.7106 17.4929 64.7457 17.4929Z" fill="white"/>
<path d="M76.0223 12.7252H74.9069L73.9004 17.0364H73.8122L72.6501 12.7252H71.5814L70.4193 17.0364H70.3362L69.3246 12.7252H68.1936L69.75 18.3749H70.8965L72.0587 14.2141H72.1469L73.3141 18.3749H74.4711L76.0223 12.7252Z" fill="white"/>
<path d="M77.3068 18.3749H78.4222V15.0701C78.4222 14.1882 78.9462 13.6382 79.7711 13.6382C80.596 13.6382 80.9903 14.0896 80.9903 14.9975V18.3749H82.1057V14.7173C82.1057 13.3737 81.4105 12.6162 80.1498 12.6162C79.299 12.6162 78.7387 12.9949 78.4637 13.6227H78.3807V12.7252H77.3068V18.3749Z" fill="white"/>
<path d="M83.8624 18.3749H84.9778V10.5203H83.8624V18.3749Z" fill="white"/>
<path d="M89.1728 18.4838C90.8226 18.4838 91.8342 17.3788 91.8342 15.5474C91.8342 13.7264 90.8174 12.6162 89.1728 12.6162C87.523 12.6162 86.5062 13.7264 86.5062 15.5474C86.5062 17.3788 87.5178 18.4838 89.1728 18.4838ZM89.1728 17.4929C88.2026 17.4929 87.6579 16.7822 87.6579 15.5474C87.6579 14.3231 88.2026 13.6071 89.1728 13.6071C90.1378 13.6071 90.6877 14.3231 90.6877 15.5474C90.6877 16.777 90.1378 17.4929 89.1728 17.4929Z" fill="white"/>
<path d="M95.1576 17.5292C94.5507 17.5292 94.1097 17.2335 94.1097 16.7251C94.1097 16.2271 94.4625 15.9625 95.2407 15.9106L96.6207 15.8224V16.2945C96.6207 16.9949 95.9981 17.5292 95.1576 17.5292ZM94.8723 18.4683C95.6142 18.4683 96.2316 18.1466 96.5688 17.5811H96.657V18.3749H97.7309V14.515C97.7309 13.3218 96.9319 12.6162 95.5156 12.6162C94.2342 12.6162 93.3211 13.2388 93.207 14.2089H94.2861C94.4106 13.8094 94.8412 13.5812 95.4637 13.5812C96.2264 13.5812 96.6207 13.9184 96.6207 14.515V15.0027L95.0902 15.0909C93.7465 15.1739 92.9891 15.7601 92.9891 16.777C92.9891 17.8094 93.7828 18.4683 94.8723 18.4683Z" fill="white"/>
<path d="M101.516 18.4683C102.294 18.4683 102.953 18.0999 103.29 17.4825H103.379V18.3749H104.447V10.5203H103.332V13.6227H103.249C102.943 13.0001 102.289 12.6318 101.516 12.6318C100.089 12.6318 99.1711 13.7628 99.1711 15.5474C99.1711 17.3373 100.079 18.4683 101.516 18.4683ZM101.833 13.6331C102.766 13.6331 103.353 14.3749 103.353 15.5526C103.353 16.7355 102.772 17.467 101.833 17.467C100.888 17.467 100.323 16.7458 100.323 15.5474C100.323 14.3594 100.893 13.6331 101.833 13.6331Z" fill="white"/>
<path d="M111.68 18.4838C113.33 18.4838 114.342 17.3788 114.342 15.5474C114.342 13.7264 113.325 12.6162 111.68 12.6162C110.031 12.6162 109.014 13.7264 109.014 15.5474C109.014 17.3788 110.025 18.4838 111.68 18.4838ZM111.68 17.4929C110.71 17.4929 110.165 16.7822 110.165 15.5474C110.165 14.3231 110.71 13.6071 111.68 13.6071C112.645 13.6071 113.195 14.3231 113.195 15.5474C113.195 16.777 112.645 17.4929 111.68 17.4929Z" fill="white"/>
<path d="M115.818 18.3749H116.934V15.0701C116.934 14.1882 117.458 13.6382 118.283 13.6382C119.107 13.6382 119.502 14.0896 119.502 14.9975V18.3749H120.617V14.7173C120.617 13.3737 119.922 12.6162 118.661 12.6162C117.81 12.6162 117.25 12.9949 116.975 13.6227H116.892V12.7252H115.818V18.3749Z" fill="white"/>
<path d="M125.754 11.3192V12.7511H124.857V13.6901H125.754V16.8807C125.754 17.9702 126.247 18.406 127.487 18.406C127.705 18.406 127.913 18.3801 128.094 18.3489V17.4203C127.938 17.4359 127.84 17.4462 127.669 17.4462C127.114 17.4462 126.87 17.1868 126.87 16.5954V13.6901H128.094V12.7511H126.87V11.3192H125.754Z" fill="white"/>
<path d="M129.591 18.3749H130.707V15.0753C130.707 14.2193 131.215 13.6434 132.128 13.6434C132.917 13.6434 133.337 14.1 133.337 15.0027V18.3749H134.453V14.7277C134.453 13.384 133.711 12.6214 132.507 12.6214C131.656 12.6214 131.06 13.0001 130.785 13.6331H130.696V10.5203H129.591V18.3749Z" fill="white"/>
<path d="M138.476 13.5656C139.301 13.5656 139.841 14.1415 139.867 15.0286H137.013C137.076 14.1467 137.651 13.5656 138.476 13.5656ZM139.862 16.8496C139.654 17.2906 139.192 17.5344 138.518 17.5344C137.625 17.5344 137.05 16.9067 137.013 15.9158V15.8535H141.003V15.4644C141.003 13.6901 140.053 12.6162 138.481 12.6162C136.889 12.6162 135.877 13.7628 135.877 15.5682C135.877 17.3736 136.868 18.4838 138.487 18.4838C139.778 18.4838 140.681 17.8613 140.935 16.8496H139.862Z" fill="white"/>
<path d="M40.9615 25.3761C40.9886 23.2748 42.117 21.2866 43.9072 20.186C42.7778 18.5731 40.8862 17.5505 38.9182 17.4889C36.8192 17.2686 34.7842 18.7449 33.7146 18.7449C32.6243 18.7449 30.9774 17.5108 29.204 17.5473C26.8924 17.622 24.7375 18.9362 23.6128 20.9571C21.1953 25.1426 22.9986 31.2939 25.3143 34.6772C26.473 36.3339 27.8271 38.1845 29.5989 38.1188C31.3327 38.0469 31.9802 37.0132 34.0731 37.0132C36.1466 37.0132 36.7541 38.1188 38.5619 38.0771C40.4223 38.0469 41.5945 36.4131 42.7125 34.7407C43.545 33.5602 44.1856 32.2556 44.6105 30.875C42.4241 29.9503 40.964 27.75 40.9615 25.3761Z" fill="white"/>
<path d="M37.5469 15.2639C38.5613 14.0461 39.0611 12.4809 38.9401 10.9006C37.3903 11.0634 35.9587 11.8041 34.9306 12.9751C33.9252 14.1193 33.402 15.657 33.5009 17.1769C35.0513 17.1928 36.5754 16.4722 37.5469 15.2639Z" fill="white"/>
<rect x="0.5" y="0.502441" width="169" height="49" rx="6.5" stroke="#1BEC23"/>
</svg>
