<svg width="15" height="63" viewBox="0 0 15 63" fill="none" xmlns="http://www.w3.org/2000/svg">
<path d="M1.36268 60.0635C1.57976 60.0643 1.79175 60.1293 1.97188 60.2505C2.152 60.3717 2.29219 60.5435 2.37473 60.7443C2.45728 60.945 2.47848 61.1658 2.43566 61.3786C2.39284 61.5914 2.28792 61.7868 2.13415 61.94C1.98038 62.0932 1.78465 62.1975 1.57168 62.2396C1.35871 62.2816 1.13805 62.2596 0.937568 62.1764C0.737081 62.0931 0.565757 61.9524 0.44523 61.7718C0.324702 61.5913 0.260377 61.379 0.260376 61.162C0.260375 61.0174 0.288915 60.8742 0.344358 60.7407C0.399801 60.6072 0.481057 60.4859 0.583466 60.3839C0.685875 60.2818 0.807422 60.201 0.941137 60.146C1.07485 60.091 1.2181 60.063 1.36268 60.0635Z" fill="white"/>
<path d="M1.36255 53.4535C1.57964 53.4543 1.79163 53.5194 1.97175 53.6405C2.15188 53.7617 2.29207 53.9335 2.37461 54.1343C2.45716 54.3351 2.47836 54.5558 2.43554 54.7686C2.39272 54.9814 2.2878 55.1768 2.13403 55.33C1.98026 55.4833 1.78453 55.5875 1.57156 55.6296C1.35859 55.6716 1.13793 55.6497 0.937446 55.5664C0.736959 55.4832 0.565635 55.3424 0.445108 55.1618C0.32458 54.9813 0.260255 54.7691 0.260254 54.552C0.260253 54.4074 0.288793 54.2642 0.344236 54.1307C0.399679 53.9972 0.480935 53.8759 0.583344 53.7739C0.685753 53.6718 0.8073 53.591 0.941015 53.536C1.07473 53.4811 1.21798 53.453 1.36255 53.4535Z" fill="white"/>
<path d="M1.36258 46.8378C1.57933 46.8386 1.79101 46.9035 1.97097 47.0243C2.15093 47.1451 2.29111 47.3165 2.37388 47.5168C2.45665 47.7171 2.4783 47.9375 2.4361 48.1501C2.39391 48.3627 2.28975 48.558 2.13675 48.7116C1.98376 48.8651 1.78875 48.97 1.57629 49.0129C1.36383 49.0558 1.14342 49.035 0.942804 48.9529C0.742186 48.8708 0.570333 48.7312 0.448881 48.5517C0.327429 48.3722 0.261809 48.1607 0.260281 47.944C0.259257 47.7987 0.287041 47.6548 0.342027 47.5204C0.397012 47.3859 0.478107 47.2638 0.580618 47.1609C0.683129 47.058 0.805022 46.9765 0.939245 46.921C1.07347 46.8656 1.21735 46.8373 1.36258 46.8378Z" fill="white"/>
<path d="M1.36255 40.2356C1.57964 40.2364 1.79163 40.3015 1.97175 40.4226C2.15188 40.5438 2.29207 40.7156 2.37461 40.9164C2.45716 41.1172 2.47836 41.3379 2.43554 41.5507C2.39272 41.7635 2.2878 41.9589 2.13403 42.1121C1.98026 42.2654 1.78453 42.3696 1.57156 42.4117C1.35859 42.4537 1.13793 42.4318 0.937446 42.3485C0.736959 42.2653 0.565635 42.1245 0.445108 41.9439C0.32458 41.7634 0.260255 41.5511 0.260254 41.3341C0.260253 41.1895 0.288793 41.0463 0.344236 40.9128C0.399679 40.7793 0.480935 40.658 0.583344 40.556C0.685753 40.4539 0.8073 40.3731 0.941015 40.3181C1.07473 40.2632 1.21798 40.2351 1.36255 40.2356Z" fill="white"/>
<path d="M1.36255 33.6257C1.57964 33.6264 1.79163 33.6915 1.97175 33.8127C2.15188 33.9338 2.29207 34.1056 2.37461 34.3064C2.45716 34.5072 2.47836 34.7279 2.43554 34.9407C2.39272 35.1536 2.2878 35.3489 2.13403 35.5021C1.98026 35.6554 1.78453 35.7596 1.57156 35.8017C1.35859 35.8438 1.13793 35.8218 0.937446 35.7385C0.736959 35.6553 0.565635 35.5145 0.445108 35.3339C0.32458 35.1534 0.260255 34.9412 0.260254 34.7241C0.260253 34.5795 0.288793 34.4364 0.344236 34.3028C0.399679 34.1693 0.480935 34.0481 0.583344 33.946C0.685753 33.844 0.8073 33.7631 0.941015 33.7082C1.07473 33.6532 1.21798 33.6251 1.36255 33.6257Z" fill="white"/>
<path d="M1.36256 27.0158C1.58019 27.0162 1.79282 27.0811 1.97356 27.2023C2.1543 27.3236 2.29503 27.4957 2.37796 27.6969C2.46089 27.8981 2.4823 28.1194 2.43946 28.3328C2.39663 28.5461 2.29149 28.742 2.13733 28.8956C1.98317 29.0493 1.78692 29.1537 1.57339 29.1958C1.35987 29.2379 1.13866 29.2157 0.937742 29.1321C0.736824 29.0484 0.565218 28.9071 0.444627 28.7259C0.324035 28.5447 0.259873 28.3319 0.260256 28.1143C0.260255 27.9697 0.288795 27.8265 0.344238 27.693C0.399681 27.5595 0.480937 27.4382 0.583346 27.3362C0.685754 27.2341 0.807302 27.1533 0.941016 27.0983C1.07473 27.0434 1.21798 27.0153 1.36256 27.0158Z" fill="white"/>
<path d="M1.36256 20.4079C1.57972 20.4086 1.79179 20.4738 1.97195 20.595C2.15212 20.7162 2.29231 20.8882 2.3748 21.0891C2.45728 21.29 2.47837 21.5108 2.43539 21.7237C2.39242 21.9366 2.28731 22.1319 2.13334 22.2851C1.97938 22.4382 1.78347 22.5423 1.57038 22.5841C1.35728 22.626 1.13656 22.6037 0.936106 22.5202C0.735653 22.4366 0.564464 22.2956 0.444169 22.1147C0.323875 21.9339 0.259875 21.7215 0.260256 21.5044C0.260509 21.36 0.289236 21.217 0.344793 21.0837C0.400349 20.9504 0.481645 20.8294 0.584029 20.7276C0.686412 20.6257 0.807873 20.545 0.941462 20.4902C1.07505 20.4353 1.21814 20.4074 1.36256 20.4079Z" fill="white"/>
<path d="M1.36259 13.7978C1.57984 13.7978 1.79221 13.8622 1.97285 13.9829C2.15349 14.1036 2.29428 14.2751 2.37741 14.4758C2.46055 14.6766 2.4823 14.8974 2.43992 15.1105C2.39754 15.3236 2.29292 15.5193 2.1393 15.6729C1.98568 15.8265 1.78996 15.9311 1.57689 15.9735C1.36381 16.0159 1.14295 15.9942 0.942242 15.911C0.741529 15.8279 0.569977 15.6871 0.449279 15.5064C0.328582 15.3258 0.26416 15.1134 0.26416 14.8962C0.26416 14.7519 0.292572 14.6091 0.347774 14.4758C0.402975 14.3426 0.483885 14.2215 0.585884 14.1195C0.687883 14.0175 0.808974 13.9366 0.942242 13.8814C1.07551 13.8262 1.21834 13.7978 1.36259 13.7978Z" fill="white"/>
<path d="M1.36259 7.19376C1.57984 7.19376 1.79221 7.25819 1.97285 7.37889C2.15349 7.49958 2.29428 7.67113 2.37741 7.87184C2.46055 8.07255 2.4823 8.29341 2.43992 8.50648C2.39754 8.71956 2.29292 8.91529 2.1393 9.06891C1.98568 9.22253 1.78996 9.32714 1.57689 9.36952C1.36381 9.4119 1.14295 9.39015 0.942242 9.30701C0.741529 9.22387 0.569977 9.0831 0.449279 8.90246C0.328582 8.72182 0.26416 8.50945 0.26416 8.2922C0.26416 8.00088 0.379888 7.72147 0.585884 7.51547C0.79188 7.30948 1.07127 7.19376 1.36259 7.19376Z" fill="white"/>
<path d="M1.36259 0.579992C1.57984 0.579992 1.79221 0.644395 1.97285 0.765092C2.15349 0.885789 2.29428 1.05736 2.37741 1.25807C2.46055 1.45878 2.4823 1.67964 2.43992 1.89271C2.39754 2.10579 2.29292 2.3015 2.1393 2.45512C1.98568 2.60874 1.78996 2.71337 1.57689 2.75575C1.36381 2.79813 1.14295 2.77638 0.942242 2.69324C0.741529 2.6101 0.569977 2.4693 0.449279 2.28867C0.328582 2.10803 0.26416 1.89566 0.26416 1.67841C0.26416 1.38709 0.379888 1.1077 0.585884 0.901704C0.79188 0.695708 1.07127 0.579992 1.36259 0.579992Z" fill="white"/>
<path d="M7.29568 60.0634C7.51284 60.0638 7.72503 60.1285 7.90541 60.2495C8.08579 60.3704 8.22628 60.5421 8.30912 60.7428C8.39196 60.9436 8.41344 61.1644 8.37083 61.3773C8.32823 61.5902 8.22347 61.7858 8.06977 61.9392C7.91608 62.0926 7.72035 62.1971 7.50733 62.2393C7.29431 62.2815 7.07355 62.2597 6.87295 62.1765C6.67235 62.0933 6.50091 61.9525 6.3803 61.7719C6.25969 61.5913 6.19531 61.379 6.19531 61.1618C6.19531 61.0174 6.22379 60.8744 6.27911 60.741C6.33443 60.6076 6.41552 60.4865 6.51772 60.3844C6.61992 60.2824 6.74124 60.2015 6.87473 60.1465C7.00822 60.0914 7.15127 60.0631 7.29568 60.0634Z" fill="url(#paint0_linear)"/>
<path d="M7.29568 53.4535C7.51284 53.4538 7.72503 53.5186 7.90541 53.6395C8.08579 53.7604 8.22628 53.9321 8.30912 54.1329C8.39196 54.3336 8.41344 54.5544 8.37083 54.7674C8.32823 54.9803 8.22347 55.1759 8.06977 55.3293C7.91608 55.4827 7.72035 55.5871 7.50733 55.6294C7.29431 55.6716 7.07355 55.6497 6.87295 55.5665C6.67235 55.4833 6.50091 55.3425 6.3803 55.1619C6.25969 54.9813 6.19531 54.7691 6.19531 54.5519C6.19583 54.2604 6.31198 53.981 6.51828 53.7751C6.72459 53.5691 7.00418 53.4535 7.29568 53.4535Z" fill="url(#paint1_linear)"/>
<path d="M7.29568 46.8376C7.51284 46.838 7.72503 46.9028 7.90541 47.0237C8.08579 47.1446 8.22628 47.3163 8.30912 47.5171C8.39196 47.7178 8.41344 47.9386 8.37083 48.1516C8.32823 48.3645 8.22347 48.56 8.06977 48.7135C7.91608 48.8669 7.72035 48.9713 7.50733 49.0135C7.29431 49.0558 7.07355 49.0339 6.87295 48.9507C6.67235 48.8675 6.50091 48.7267 6.3803 48.5461C6.25969 48.3655 6.19531 48.1532 6.19531 47.9361C6.19531 47.7917 6.22379 47.6487 6.27911 47.5153C6.33443 47.3819 6.41552 47.2607 6.51772 47.1587C6.61992 47.0567 6.74124 46.9758 6.87473 46.9207C7.00822 46.8656 7.15127 46.8374 7.29568 46.8376Z" fill="url(#paint2_linear)"/>
<path d="M7.29568 40.2355C7.51284 40.2359 7.72503 40.3006 7.90541 40.4216C8.08579 40.5425 8.22628 40.7142 8.30912 40.9149C8.39196 41.1157 8.41344 41.3365 8.37083 41.5494C8.32823 41.7624 8.22347 41.9579 8.06977 42.1113C7.91608 42.2648 7.72035 42.3692 7.50733 42.4114C7.29431 42.4536 7.07355 42.4318 6.87295 42.3486C6.67235 42.2654 6.50091 42.1246 6.3803 41.944C6.25969 41.7634 6.19531 41.5511 6.19531 41.3339C6.19531 41.1895 6.22379 41.0465 6.27911 40.9132C6.33443 40.7798 6.41552 40.6586 6.51772 40.5566C6.61992 40.4545 6.74124 40.3737 6.87473 40.3186C7.00822 40.2635 7.15127 40.2353 7.29568 40.2355Z" fill="url(#paint3_linear)"/>
<path d="M7.29568 33.6256C7.51284 33.6259 7.72503 33.6907 7.90541 33.8116C8.08579 33.9326 8.22628 34.1042 8.30912 34.305C8.39196 34.5057 8.41344 34.7265 8.37083 34.9395C8.32823 35.1524 8.22347 35.348 8.06977 35.5014C7.91608 35.6548 7.72035 35.7592 7.50733 35.8015C7.29431 35.8437 7.07355 35.8218 6.87295 35.7386C6.67235 35.6554 6.50091 35.5147 6.3803 35.3341C6.25969 35.1535 6.19531 34.9412 6.19531 34.724C6.19531 34.5796 6.22379 34.4366 6.27911 34.3032C6.33443 34.1698 6.41552 34.0486 6.51772 33.9466C6.61992 33.8446 6.74124 33.7637 6.87473 33.7086C7.00822 33.6535 7.15127 33.6253 7.29568 33.6256Z" fill="url(#paint4_linear)"/>
<path d="M7.29568 27.0157C7.51339 27.0157 7.72621 27.0802 7.90721 27.2012C8.08821 27.3222 8.22924 27.4942 8.31247 27.6954C8.3957 27.8966 8.41737 28.1179 8.37476 28.3314C8.33214 28.5449 8.22715 28.741 8.07307 28.8948C7.91899 29.0486 7.72274 29.1532 7.50916 29.1955C7.29559 29.2377 7.07428 29.2157 6.87325 29.1321C6.67222 29.0485 6.5005 28.9072 6.37982 28.726C6.25914 28.5447 6.19493 28.3318 6.19531 28.1141C6.19583 27.8226 6.31198 27.5432 6.51829 27.3373C6.72459 27.1313 7.00418 27.0157 7.29568 27.0157Z" fill="url(#paint5_linear)"/>
<path d="M7.29568 20.4077C7.51284 20.4081 7.72503 20.4728 7.90541 20.5938C8.08579 20.7147 8.22628 20.8864 8.30912 21.0871C8.39196 21.2879 8.41344 21.5087 8.37083 21.7216C8.32823 21.9346 8.22347 22.1301 8.06977 22.2835C7.91608 22.437 7.72035 22.5414 7.50733 22.5836C7.29431 22.6258 7.07355 22.604 6.87295 22.5208C6.67235 22.4376 6.50091 22.2968 6.3803 22.1162C6.25969 21.9356 6.19531 21.7233 6.19531 21.5061C6.19531 21.3617 6.22379 21.2187 6.27911 21.0853C6.33443 20.952 6.41552 20.8308 6.51772 20.7288C6.61992 20.6267 6.74124 20.5459 6.87473 20.4908C7.00822 20.4357 7.15127 20.4075 7.29568 20.4077Z" fill="url(#paint6_linear)"/>
<path d="M7.29568 13.7977C7.51284 13.7981 7.72503 13.8628 7.90541 13.9837C8.08579 14.1047 8.22628 14.2764 8.30912 14.4771C8.39196 14.6779 8.41344 14.8986 8.37083 15.1116C8.32823 15.3245 8.22347 15.5201 8.06977 15.6735C7.91608 15.8269 7.72035 15.9314 7.50733 15.9736C7.29431 16.0158 7.07355 15.9939 6.87295 15.9108C6.67235 15.8276 6.50091 15.6868 6.3803 15.5062C6.25969 15.3256 6.19531 15.1133 6.19531 14.8961C6.19531 14.7517 6.22379 14.6087 6.27911 14.4753C6.33443 14.3419 6.41552 14.2207 6.51772 14.1187C6.61992 14.0167 6.74124 13.9358 6.87473 13.8807C7.00822 13.8257 7.15127 13.7974 7.29568 13.7977Z" fill="url(#paint7_linear)"/>
<path d="M7.29568 7.19361C7.51284 7.19399 7.72503 7.25874 7.90541 7.37967C8.08579 7.5006 8.22628 7.67228 8.30912 7.87303C8.39196 8.07378 8.41344 8.29456 8.37083 8.50751C8.32823 8.72045 8.22347 8.91599 8.06977 9.06942C7.91608 9.22284 7.72035 9.32728 7.50733 9.3695C7.29431 9.41173 7.07355 9.38986 6.87295 9.30666C6.67235 9.22347 6.50091 9.08269 6.3803 8.90209C6.25969 8.7215 6.19531 8.50922 6.19531 8.29205C6.19583 8.00055 6.31198 7.72116 6.51828 7.51522C6.72459 7.30928 7.00418 7.1936 7.29568 7.19361Z" fill="url(#paint8_linear)"/>
<path d="M7.29568 0.579836C7.51284 0.580218 7.72503 0.64495 7.90541 0.76588C8.08579 0.886809 8.22628 1.05849 8.30912 1.25924C8.39196 1.45998 8.41344 1.68079 8.37083 1.89374C8.32823 2.10668 8.22347 2.30222 8.06977 2.45565C7.91608 2.60907 7.72035 2.71351 7.50733 2.75574C7.29431 2.79796 7.07355 2.77609 6.87295 2.69289C6.67235 2.6097 6.50091 2.46892 6.3803 2.28832C6.25969 2.10773 6.19531 1.89542 6.19531 1.67826C6.19531 1.53384 6.22379 1.39086 6.27911 1.25747C6.33443 1.12407 6.41552 1.00289 6.51772 0.900863C6.61992 0.798839 6.74124 0.717972 6.87473 0.662884C7.00822 0.607796 7.15127 0.579581 7.29568 0.579836Z" fill="url(#paint9_linear)"/>
<path d="M13.2267 60.0635C13.444 60.0635 13.6563 60.1279 13.837 60.2486C14.0176 60.3693 14.1584 60.5409 14.2415 60.7416C14.3247 60.9423 14.3464 61.1632 14.3041 61.3762C14.2617 61.5893 14.1571 61.785 14.0034 61.9387C13.8498 62.0923 13.6541 62.1969 13.441 62.2393C13.2279 62.2817 13.0071 62.2599 12.8064 62.1768C12.6057 62.0936 12.4341 61.9528 12.3134 61.7722C12.1927 61.5916 12.1283 61.3792 12.1283 61.1619C12.1283 60.8706 12.244 60.5912 12.45 60.3852C12.656 60.1792 12.9354 60.0635 13.2267 60.0635Z" fill="white"/>
<path d="M13.2267 53.4535C13.444 53.4535 13.6563 53.5179 13.837 53.6386C14.0176 53.7593 14.1584 53.9309 14.2415 54.1316C14.3247 54.3323 14.3464 54.5532 14.3041 54.7662C14.2617 54.9793 14.1571 55.175 14.0034 55.3287C13.8498 55.4823 13.6541 55.5869 13.441 55.6293C13.2279 55.6717 13.0071 55.6499 12.8064 55.5668C12.6057 55.4836 12.4341 55.3429 12.3134 55.1622C12.1927 54.9816 12.1283 54.7692 12.1283 54.552C12.1288 54.2608 12.2447 53.9817 12.4506 53.7758C12.6565 53.5699 12.9356 53.454 13.2267 53.4535Z" fill="white"/>
<path d="M13.2267 46.8378C13.444 46.8378 13.6563 46.9022 13.837 47.0229C14.0176 47.1436 14.1584 47.3152 14.2415 47.5159C14.3247 47.7166 14.3464 47.9375 14.3041 48.1505C14.2617 48.3636 14.1571 48.5593 14.0034 48.7129C13.8498 48.8666 13.6541 48.9712 13.441 49.0136C13.2279 49.0559 13.0071 49.0342 12.8064 48.9511C12.6057 48.8679 12.4341 48.7271 12.3134 48.5465C12.1927 48.3659 12.1283 48.1535 12.1283 47.9362C12.1283 47.6449 12.244 47.3655 12.45 47.1595C12.656 46.9535 12.9354 46.8378 13.2267 46.8378Z" fill="white"/>
<path d="M13.2267 40.2356C13.444 40.2356 13.6563 40.3001 13.837 40.4208C14.0176 40.5414 14.1584 40.713 14.2415 40.9137C14.3247 41.1144 14.3464 41.3353 14.3041 41.5484C14.2617 41.7614 14.1571 41.9572 14.0034 42.1108C13.8498 42.2644 13.6541 42.369 13.441 42.4114C13.2279 42.4538 13.0071 42.432 12.8064 42.3489C12.6057 42.2657 12.4341 42.125 12.3134 41.9443C12.1927 41.7637 12.1283 41.5513 12.1283 41.3341C12.1283 41.0427 12.244 40.7633 12.45 40.5574C12.656 40.3514 12.9354 40.2356 13.2267 40.2356Z" fill="white"/>
<path d="M13.2267 33.6256C13.444 33.6256 13.6563 33.6901 13.837 33.8108C14.0176 33.9315 14.1584 34.103 14.2415 34.3037C14.3247 34.5044 14.3464 34.7253 14.3041 34.9384C14.2617 35.1515 14.1571 35.3472 14.0034 35.5008C13.8498 35.6544 13.6541 35.759 13.441 35.8014C13.2279 35.8438 13.0071 35.822 12.8064 35.7389C12.6057 35.6558 12.4341 35.515 12.3134 35.3343C12.1927 35.1537 12.1283 34.9413 12.1283 34.7241C12.1283 34.4328 12.244 34.1534 12.45 33.9474C12.656 33.7414 12.9354 33.6256 13.2267 33.6256Z" fill="white"/>
<path d="M13.2267 27.0158C13.4445 27.0154 13.6575 27.0797 13.8388 27.2005C14.02 27.3212 14.1614 27.4931 14.2449 27.6942C14.3284 27.8954 14.3504 28.1168 14.308 28.3304C14.2656 28.544 14.1607 28.7403 14.0067 28.8943C13.8527 29.0483 13.6565 29.1531 13.4429 29.1955C13.2292 29.2379 13.0078 29.2159 12.8067 29.1324C12.6055 29.0489 12.4337 28.9076 12.3129 28.7263C12.1922 28.5451 12.1279 28.3321 12.1283 28.1143C12.1288 27.8231 12.2447 27.544 12.4506 27.3381C12.6565 27.1322 12.9356 27.0163 13.2267 27.0158Z" fill="white"/>
<path d="M13.2267 20.4079C13.444 20.4079 13.6563 20.4723 13.837 20.593C14.0176 20.7137 14.1584 20.8852 14.2415 21.086C14.3247 21.2867 14.3464 21.5075 14.3041 21.7206C14.2617 21.9337 14.1571 22.1294 14.0034 22.283C13.8498 22.4366 13.6541 22.5412 13.441 22.5836C13.2279 22.626 13.0071 22.6043 12.8064 22.5211C12.6057 22.438 12.4341 22.2972 12.3134 22.1166C12.1927 21.9359 12.1283 21.7236 12.1283 21.5063C12.1283 21.215 12.244 20.9356 12.45 20.7296C12.656 20.5236 12.9354 20.4079 13.2267 20.4079Z" fill="white"/>
<path d="M13.2267 13.7978C13.444 13.7978 13.6563 13.8622 13.837 13.9829C14.0176 14.1036 14.1584 14.2751 14.2415 14.4758C14.3247 14.6766 14.3464 14.8974 14.3041 15.1105C14.2617 15.3236 14.1571 15.5193 14.0034 15.6729C13.8498 15.8265 13.6541 15.9311 13.441 15.9735C13.2279 16.0159 13.0071 15.9942 12.8064 15.911C12.6057 15.8279 12.4341 15.6871 12.3134 15.5064C12.1927 15.3258 12.1283 15.1134 12.1283 14.8962C12.1283 14.7519 12.1567 14.6091 12.2119 14.4758C12.2671 14.3426 12.348 14.2215 12.45 14.1195C12.552 14.0175 12.6731 13.9366 12.8064 13.8814C12.9396 13.8262 13.0825 13.7978 13.2267 13.7978Z" fill="white"/>
<path d="M13.2267 7.19376C13.444 7.19376 13.6563 7.25819 13.837 7.37889C14.0176 7.49958 14.1584 7.67113 14.2415 7.87184C14.3247 8.07255 14.3464 8.29341 14.3041 8.50648C14.2617 8.71956 14.1571 8.91529 14.0034 9.06891C13.8498 9.22253 13.6541 9.32714 13.441 9.36952C13.2279 9.4119 13.0071 9.39015 12.8064 9.30701C12.6057 9.22387 12.4341 9.0831 12.3134 8.90246C12.1927 8.72182 12.1283 8.50945 12.1283 8.2922C12.1288 8.00104 12.2447 7.72193 12.4506 7.51604C12.6565 7.31015 12.9356 7.19427 13.2267 7.19376Z" fill="white"/>
<path d="M13.2267 0.579992C13.444 0.579992 13.6563 0.644395 13.837 0.765092C14.0176 0.885789 14.1584 1.05736 14.2415 1.25807C14.3247 1.45878 14.3464 1.67964 14.3041 1.89271C14.2617 2.10579 14.1571 2.3015 14.0034 2.45512C13.8498 2.60874 13.6541 2.71337 13.441 2.75575C13.2279 2.79813 13.0071 2.77638 12.8064 2.69324C12.6057 2.6101 12.4341 2.4693 12.3134 2.28867C12.1927 2.10803 12.1283 1.89566 12.1283 1.67841C12.1283 1.38709 12.244 1.1077 12.45 0.901704C12.656 0.695708 12.9354 0.579992 13.2267 0.579992Z" fill="white"/>
<defs>
<linearGradient id="paint0_linear" x1="8.34964" y1="61.5144" x2="4.02639" y2="61.3594" gradientUnits="userSpaceOnUse">
<stop stop-color="#ED1675"/>
<stop offset="1" stop-color="#FF512F"/>
</linearGradient>
<linearGradient id="paint1_linear" x1="8.34964" y1="61.5144" x2="4.02639" y2="61.3594" gradientUnits="userSpaceOnUse">
<stop stop-color="#ED1675"/>
<stop offset="1" stop-color="#FF512F"/>
</linearGradient>
<linearGradient id="paint2_linear" x1="8.34964" y1="61.5144" x2="4.02639" y2="61.3594" gradientUnits="userSpaceOnUse">
<stop stop-color="#ED1675"/>
<stop offset="1" stop-color="#FF512F"/>
</linearGradient>
<linearGradient id="paint3_linear" x1="8.34964" y1="61.5144" x2="4.02639" y2="61.3594" gradientUnits="userSpaceOnUse">
<stop stop-color="#ED1675"/>
<stop offset="1" stop-color="#FF512F"/>
</linearGradient>
<linearGradient id="paint4_linear" x1="8.34964" y1="61.5144" x2="4.02639" y2="61.3594" gradientUnits="userSpaceOnUse">
<stop stop-color="#ED1675"/>
<stop offset="1" stop-color="#FF512F"/>
</linearGradient>
<linearGradient id="paint5_linear" x1="8.34964" y1="61.5144" x2="4.02639" y2="61.3594" gradientUnits="userSpaceOnUse">
<stop stop-color="#ED1675"/>
<stop offset="1" stop-color="#FF512F"/>
</linearGradient>
<linearGradient id="paint6_linear" x1="8.34964" y1="61.5144" x2="4.02639" y2="61.3594" gradientUnits="userSpaceOnUse">
<stop stop-color="#ED1675"/>
<stop offset="1" stop-color="#FF512F"/>
</linearGradient>
<linearGradient id="paint7_linear" x1="8.34964" y1="61.5144" x2="4.02639" y2="61.3594" gradientUnits="userSpaceOnUse">
<stop stop-color="#ED1675"/>
<stop offset="1" stop-color="#FF512F"/>
</linearGradient>
<linearGradient id="paint8_linear" x1="8.34964" y1="61.5144" x2="4.02639" y2="61.3594" gradientUnits="userSpaceOnUse">
<stop stop-color="#ED1675"/>
<stop offset="1" stop-color="#FF512F"/>
</linearGradient>
<linearGradient id="paint9_linear" x1="8.34964" y1="61.5144" x2="4.02639" y2="61.3594" gradientUnits="userSpaceOnUse">
<stop stop-color="#ED1675"/>
<stop offset="1" stop-color="#FF512F"/>
</linearGradient>
</defs>
</svg>
