<svg xmlns="http://www.w3.org/2000/svg" viewBox="0 0 1111.44 106.8"><defs><style>.cls-1{fill:#fff;}</style></defs><g id="Слой_2" data-name="Слой 2"><g id="Слой_1-2" data-name="Слой 1"><path class="cls-1" d="M2.16,104.8V53.2H61.68V51.68H2.16V2H62.64V0H0V106.8H63.28v-2Z"/><path class="cls-1" d="M125.69,0h-2.82L165.7,106.8h2.61Zm88.22,0L171.46,106.8h2.73L216.15,0Z"/><path class="cls-1" d="M327.4,0H294.28C279.62,0,271.2,8.59,271.2,23.56V83.24c0,15,8.42,23.56,23.08,23.56H327.4c14.67,0,23.08-8.58,23.08-23.56V23.56C350.48,8.59,342.07,0,327.4,0Zm20.76,83.32c0,13.66-7.71,21.48-21.16,21.48H294.52c-13.44,0-21.16-7.82-21.16-21.48V23.48C273.36,9.83,281.08,2,294.52,2H327c13.45,0,21.16,7.83,21.16,21.48Z"/><path class="cls-1" d="M419.92,104.8V0h-2.16V106.8H479.6v-2Z"/><path class="cls-1" d="M617.44,0V83.32c0,13.66-7.77,21.48-21.32,21.48h-31.2c-13.45,0-21.16-7.82-21.16-21.48V0H541.6V83.24c0,15,8.41,23.56,23.08,23.56h31.84c14.67,0,23.08-8.58,23.08-23.56V0Z"/><path class="cls-1" d="M681.44,0V2h35.2V106.8h2.16V2h34.72V0Z"/><path class="cls-1" d="M816.16,0V106.8h2.16V0Z"/><path class="cls-1" d="M941.8,0H908.68C894,0,885.6,8.59,885.6,23.56V83.24c0,15,8.41,23.56,23.08,23.56H941.8c14.67,0,23.08-8.58,23.08-23.56V23.56C964.88,8.59,956.47,0,941.8,0Zm20.76,83.32c0,13.66-7.71,21.48-21.16,21.48H908.92c-13.45,0-21.16-7.82-21.16-21.48V23.48C887.76,9.83,895.47,2,908.92,2H941.4c13.45,0,21.16,7.83,21.16,21.48Z"/><path class="cls-1" d="M1109.6,0V106.57L1037.78,0h-2.08l71.68,106.8h4.06V0Zm-77.44,106.8H1034V0h-1.84Z"/></g></g></svg>