<svg width="170" height="50" viewBox="0 0 170 50" fill="none" xmlns="http://www.w3.org/2000/svg">
<path d="M85.1702 27.1888C82.2302 27.1888 79.834 29.4251 79.834 32.5051C79.834 35.5663 82.2302 37.8213 85.1702 37.8213C88.1115 37.8213 90.5077 35.5663 90.5077 32.5051C90.5065 29.4251 88.1102 27.1888 85.1702 27.1888ZM85.1702 35.7288C83.559 35.7288 82.1702 34.4001 82.1702 32.5063C82.1702 30.5926 83.5602 29.2838 85.1702 29.2838C86.7815 29.2838 88.1702 30.5926 88.1702 32.5063C88.1702 34.3988 86.7815 35.7288 85.1702 35.7288ZM73.5277 27.1888C70.5877 27.1888 68.1915 29.4251 68.1915 32.5051C68.1915 35.5663 70.5877 37.8213 73.5277 37.8213C76.469 37.8213 78.8652 35.5663 78.8652 32.5051C78.8652 29.4251 76.469 27.1888 73.5277 27.1888ZM73.5277 35.7288C71.9165 35.7288 70.5277 34.4001 70.5277 32.5063C70.5277 30.5926 71.9177 29.2838 73.5277 29.2838C75.139 29.2838 76.5277 30.5926 76.5277 32.5063C76.529 34.3988 75.139 35.7288 73.5277 35.7288ZM59.6802 28.8213V31.0763H65.0777C64.9165 32.3451 64.494 33.2713 63.849 33.9151C63.064 34.7001 61.8352 35.5663 59.6802 35.5663C56.3577 35.5663 53.7602 32.8876 53.7602 29.5651C53.7602 26.2426 56.3577 23.5638 59.6802 23.5638C61.4727 23.5638 62.7815 24.2688 63.7477 25.1751L65.339 23.5838C63.989 22.2951 62.1977 21.3088 59.6802 21.3088C55.129 21.3088 51.3027 25.0138 51.3027 29.5651C51.3027 34.1163 55.129 37.8213 59.6802 37.8213C62.1365 37.8213 63.9902 37.0151 65.439 35.5051C66.929 34.0151 67.3927 31.9201 67.3927 30.2288C67.3927 29.7063 67.3527 29.2226 67.2715 28.8201H59.6802V28.8213ZM116.315 30.5726C115.873 29.3851 114.523 27.1888 111.764 27.1888C109.025 27.1888 106.749 29.3438 106.749 32.5051C106.749 35.4851 109.005 37.8213 112.025 37.8213C114.461 37.8213 115.871 36.3313 116.456 35.4651L114.644 34.2563C114.04 35.1426 113.214 35.7263 112.025 35.7263C110.838 35.7263 109.991 35.1826 109.448 34.1151L116.556 31.1751L116.315 30.5726ZM109.065 32.3451C109.005 30.2901 110.656 29.2438 111.845 29.2438C112.771 29.2438 113.556 29.7076 113.819 30.3713L109.065 32.3451ZM103.286 37.5001H105.621V21.8738H103.286V37.5001ZM99.459 28.3776H99.379C98.8552 27.7526 97.8477 27.1888 96.5802 27.1888C93.9215 27.1888 91.4852 29.5251 91.4852 32.5263C91.4852 35.5063 93.9215 37.8226 96.5802 37.8226C97.849 37.8226 98.8552 37.2588 99.379 36.6151H99.459V37.3801C99.459 39.4138 98.3715 40.5013 96.6202 40.5013C95.1902 40.5013 94.304 39.4751 93.9415 38.6088L91.9077 39.4551C92.4915 40.8638 94.0415 42.5963 96.6202 42.5963C99.359 42.5963 101.675 40.9851 101.675 37.0576V27.5126H99.4602V28.3776H99.459ZM96.7815 35.7288C95.1702 35.7288 93.8215 34.3788 93.8215 32.5263C93.8215 30.6526 95.1702 29.2838 96.7815 29.2838C98.3715 29.2838 99.6202 30.6526 99.6202 32.5263C99.6202 34.3788 98.3715 35.7288 96.7815 35.7288ZM127.258 21.8738H121.669V37.5001H124V31.5801H127.256C129.841 31.5801 132.384 29.7088 132.384 26.7276C132.384 23.7463 129.843 21.8738 127.258 21.8738ZM127.318 29.4051H124V24.0488H127.318C129.061 24.0488 130.051 25.4926 130.051 26.7276C130.051 27.9376 129.061 29.4051 127.318 29.4051ZM141.733 27.1613C140.044 27.1613 138.295 27.9051 137.571 29.5538L139.641 30.4176C140.084 29.5538 140.909 29.2713 141.773 29.2713C142.979 29.2713 144.205 29.9951 144.225 31.2813V31.4426C143.803 31.2013 142.898 30.8401 141.793 30.8401C139.561 30.8401 137.289 32.0663 137.289 34.3576C137.289 36.4488 139.119 37.7951 141.169 37.7951C142.736 37.7951 143.601 37.0913 144.144 36.2663H144.224V37.4726H146.476V31.4813C146.478 28.7088 144.405 27.1613 141.733 27.1613ZM141.45 35.7251C140.688 35.7251 139.621 35.3426 139.621 34.3976C139.621 33.1913 140.949 32.7288 142.095 32.7288C143.119 32.7288 143.603 32.9501 144.225 33.2513C144.044 34.7001 142.798 35.7251 141.45 35.7251ZM154.679 27.5026L152.005 34.2776H151.925L149.15 27.5026H146.638L150.799 36.9713L148.426 42.2388H150.859L157.273 27.5026H154.679ZM133.671 37.5001H136.003V21.8738H133.671V37.5001Z" fill="white"/>
<path d="M59.2724 12.8037C59.2724 13.8512 58.9624 14.685 58.3412 15.3075C57.6362 16.0475 56.7162 16.4175 55.5862 16.4175C54.5037 16.4175 53.5824 16.0425 52.8262 15.2925C52.0687 14.5412 51.6899 13.6112 51.6899 12.5012C51.6899 11.39 52.0687 10.46 52.8262 9.70999C53.5824 8.95874 54.5037 8.58374 55.5862 8.58374C56.1237 8.58374 56.6374 8.68874 57.1249 8.89749C57.6137 9.10749 58.0049 9.38624 58.2974 9.73499L57.6387 10.395C57.1424 9.80124 56.4587 9.50499 55.5849 9.50499C54.7949 9.50499 54.1124 9.78249 53.5362 10.3375C52.9599 10.8925 52.6724 11.6137 52.6724 12.5C52.6724 13.3862 52.9599 14.1075 53.5362 14.6625C54.1124 15.2175 54.7949 15.495 55.5849 15.495C56.4224 15.495 57.1212 15.2162 57.6799 14.6575C58.0424 14.2937 58.2524 13.7875 58.3087 13.1387H55.5849V12.2375H59.2187C59.2562 12.4337 59.2724 12.6225 59.2724 12.8037Z" fill="white"/>
<path d="M65.0351 9.67131H61.6201V12.0488H64.7001V12.9501H61.6201V15.3276H65.0351V16.2501H60.6563V8.75006H65.0351V9.67131Z" fill="white"/>
<path d="M69.0987 16.2501H68.1349V9.67131H66.0399V8.75006H71.1937V9.67131H69.0987V16.2501Z" fill="white"/>
<path d="M74.9224 16.2501V8.75006H75.8861V16.2501H74.9224Z" fill="white"/>
<path d="M80.1601 16.2501H79.1963V9.67131H77.1013V8.75006H82.2551V9.67131H80.1601V16.2501Z" fill="white"/>
<path d="M92.011 15.2813C91.2735 16.0388 90.3573 16.4176 89.261 16.4176C88.1648 16.4176 87.2485 16.0388 86.5123 15.2813C85.7748 14.5238 85.4073 13.5963 85.4073 12.5C85.4073 11.4038 85.7748 10.4763 86.5123 9.7188C87.2485 8.9613 88.1648 8.5813 89.261 8.5813C90.351 8.5813 91.266 8.96255 92.006 9.7238C92.746 10.485 93.116 11.41 93.116 12.5C93.116 13.5963 92.7473 14.5238 92.011 15.2813ZM87.2235 14.6525C87.7785 15.215 88.4573 15.495 89.261 15.495C90.0648 15.495 90.7448 15.2138 91.2985 14.6525C91.8535 14.09 92.1323 13.3725 92.1323 12.5C92.1323 11.6275 91.8535 10.91 91.2985 10.3475C90.7448 9.78505 90.0648 9.50505 89.261 9.50505C88.4573 9.50505 87.7785 9.7863 87.2235 10.3475C86.6698 10.91 86.391 11.6275 86.391 12.5C86.391 13.3725 86.6698 14.09 87.2235 14.6525Z" fill="white"/>
<path d="M94.4686 16.2501V8.75006H95.6411L99.2861 14.5838H99.3273L99.2861 13.1388V8.75006H100.25V16.2501H99.2436L95.4298 10.1326H95.3886L95.4298 11.5776V16.2501H94.4686Z" fill="white"/>
<path fill-rule="evenodd" clip-rule="evenodd" d="M12.7525 9.83852C12.5689 10.193 12.4661 10.6437 12.4661 11.1786V38.8236C12.4661 39.3598 12.569 39.8105 12.7529 40.1648L27.9148 25.0008L12.7525 9.83852ZM13.445 40.887C14.0161 41.1919 14.7913 41.14 15.6424 40.6574L33.4514 30.5374L28.6219 25.7079L13.445 40.887ZM34.354 30.0258L40.0186 26.8074C41.7649 25.8136 41.7649 24.1899 40.0186 23.1974L34.3517 19.9773L29.3289 25.0007L34.354 30.0258ZM33.4499 19.4648L15.6424 9.34612C14.7912 8.86245 14.0158 8.81121 13.4447 9.11652L28.6218 24.2936L33.4499 19.4648Z" fill="white"/>
<rect x="0.5" y="0.5" width="169" height="49" rx="4.5" stroke="#1BEC23"/>
</svg>
