<svg width="250" height="30" viewBox="0 0 250 30" fill="none" xmlns="http://www.w3.org/2000/svg">
<path fill-rule="evenodd" clip-rule="evenodd" d="M38.1471 6.5625C39.8392 6.5625 41.2078 6.94065 42.0706 7.2831L41.4757 10.9382L41.08 10.7585C40.2885 10.4162 39.2437 10.0742 37.8215 10.1104C36.0945 10.1104 35.3199 10.8482 35.302 11.5686C35.302 12.3611 36.2389 12.8833 37.7689 13.6577C40.2892 14.8643 41.4582 16.3406 41.4407 18.2675C41.4053 21.779 38.4172 24.0482 33.8273 24.0482C31.8648 24.0299 29.9746 23.6149 28.9487 23.1472L29.5608 19.3476L30.1368 19.618C31.5589 20.2489 32.4946 20.5184 34.2411 20.5184C35.5005 20.5184 36.8509 19.9957 36.868 18.8617C36.868 18.1234 36.2928 17.5828 34.6004 16.7545C32.9446 15.9439 30.7307 14.5935 30.7667 12.1624C30.7853 8.86725 33.8273 6.5625 38.1471 6.5625ZM21.839 23.7956H26.2134L28.9492 6.8691H24.5751L21.839 23.7956ZM47.8845 17.7992C48.2447 16.8268 49.631 13.0633 49.631 13.0633C49.6236 13.0778 49.6808 12.9191 49.7659 12.6832L49.7659 12.6829C49.8916 12.3347 50.0777 11.8183 50.2065 11.4427L50.5122 12.9012C50.5122 12.9012 51.3406 16.9529 51.5204 17.7992H47.8845ZM53.2841 6.8691H49.9005C48.8571 6.8691 48.0644 7.17495 47.6142 8.27347L41.1166 23.7954H45.7065C45.7065 23.7954 46.4622 21.7063 46.6246 21.2564H52.241C52.3665 21.8506 52.7629 23.7954 52.7629 23.7954H56.8131L53.2841 6.8691ZM18.1835 6.8691L13.8996 18.4114L13.4316 16.0711L13.4324 16.0731L11.9024 8.29388C11.6505 7.21283 10.8764 6.90667 9.92243 6.87105H2.8845L2.8125 7.21305C4.52888 7.65217 6.06397 8.28495 7.4091 9.0717L11.3075 23.7777H15.9333L22.8091 6.8691H18.1835Z" fill="white"/>
<path d="M108.582 3.76025H96.415V25.8637H108.582V3.76025Z" fill="#FBFBFB"/>
<path d="M97.1883 14.8156C97.1883 10.3246 99.2741 6.34126 102.48 3.76389C100.124 1.88934 97.1497 0.756836 93.9052 0.756836C86.2187 0.756836 80 7.04424 80 14.8156C80 22.5869 86.2187 28.8743 93.9052 28.8743C97.1497 28.8743 100.124 27.7418 102.48 25.8673C99.2741 23.3289 97.1883 19.3065 97.1883 14.8156Z" fill="#EAEAEA"/>
<path d="M124.998 14.8087C124.998 22.58 118.779 28.8674 111.092 28.8674C107.848 28.8674 104.874 27.7349 102.518 25.8604C105.762 23.283 107.809 19.2997 107.809 14.8087C107.809 10.3177 105.724 6.33442 102.518 3.75698C104.874 1.8825 107.848 0.75 111.092 0.75C118.779 0.75 124.998 7.0764 124.998 14.8087Z" fill="#C5C5C5"/>
<path d="M188.356 7.82726V5.27441H181.413H179.733H178.639V22.1867H181.413V15.1724H187.701V12.6196H181.413V7.82726H188.356Z" fill="white"/>
<path d="M214.972 14.8328V22.1868H217.592V14.1557C217.592 12.2909 216.649 8.85718 212.654 8.85718C209.532 8.85718 208.331 10.7899 208.331 10.7899L208.134 9.10041H205.81V22.1868H208.464V15.5208C208.464 12.6064 209.971 11.2325 211.999 11.2325C214.409 11.2325 214.972 13.1959 214.972 14.8328Z" fill="white"/>
<path d="M243.571 21.0603L248.922 9.07617H246.191L242.298 18.2445L238.151 9.07617H235.274L240.906 21.2028C240.783 21.4964 240.033 23.2538 239.48 23.8191C238.998 24.299 238.332 24.4902 237.534 24.4902L237.921 26.7576C238.505 26.7762 239.085 26.6745 239.628 26.4589C240.171 26.2433 240.663 25.9184 241.076 25.5042C242.305 24.2552 243.318 21.6256 243.318 21.6256L243.537 21.1413H243.609L243.571 21.0603Z" fill="white"/>
<path d="M197.013 8.88354H196.308C194.581 8.88354 192.925 9.57198 191.705 10.7974C190.484 12.0228 189.798 13.6849 189.798 15.4179V15.9153C189.799 17.648 190.485 19.3095 191.705 20.5345C192.926 21.7594 194.582 22.4476 196.308 22.4476H197.013C198.739 22.4476 200.395 21.7594 201.615 20.5345C202.836 19.3095 203.522 17.648 203.523 15.9153V15.4179C203.523 13.6849 202.837 12.0228 201.616 10.7974C200.395 9.57198 198.74 8.88354 197.013 8.88354ZM200.884 15.8299C200.884 16.9341 200.447 17.9931 199.669 18.7739C198.891 19.5547 197.836 19.9933 196.736 19.9933H196.6C195.5 19.9933 194.445 19.5547 193.667 18.7739C192.89 17.9931 192.453 16.9341 192.453 15.8299V15.5012C192.453 14.397 192.89 13.338 193.667 12.5572C194.445 11.7765 195.5 11.3378 196.6 11.3378H196.723C197.823 11.3378 198.878 11.7765 199.656 12.5572C200.433 13.338 200.87 14.397 200.87 15.5012L200.884 15.8299Z" fill="white"/>
<path d="M230.827 4.4353V10.3101C229.676 9.38556 228.245 8.88239 226.771 8.88361H226.38C224.654 8.88418 222.998 9.57281 221.777 10.7981C220.557 12.0235 219.871 13.6852 219.87 15.418V15.9154C219.871 17.6481 220.557 19.3096 221.777 20.5345C222.998 21.7595 224.654 22.4476 226.38 22.4476H226.771C228.409 22.4501 229.988 21.83 231.189 20.7121L231.404 22.1605H233.499V4.4353H230.827ZM230.957 15.8299C230.957 16.9342 230.521 17.9932 229.743 18.7739C228.965 19.5547 227.91 19.9934 226.81 19.9934H226.675C225.575 19.9934 224.519 19.5547 223.742 18.7739C222.964 17.9932 222.527 16.9342 222.527 15.8299V15.5013C222.527 14.3971 222.964 13.3381 223.742 12.5572C224.519 11.7765 225.575 11.3378 226.675 11.3378H226.81C227.91 11.3378 228.965 11.7765 229.743 12.5572C230.521 13.3381 230.957 14.3971 230.957 15.5013V15.8299Z" fill="white"/>
<path d="M160.891 22.0221V19.2392C160.891 19.0855 160.851 18.9345 160.774 18.8015C160.697 18.6684 160.587 18.5579 160.455 18.481L158.053 17.0895C157.921 17.0127 157.77 16.9722 157.617 16.9722C157.463 16.9722 157.313 17.0127 157.18 17.0895L154.779 18.481C154.646 18.5579 154.536 18.6684 154.459 18.8015C154.383 18.9345 154.342 19.0855 154.342 19.2392V22.0221C154.342 22.1762 154.382 22.3276 154.459 22.4611C154.535 22.5946 154.646 22.7055 154.779 22.7825L157.18 24.174C157.313 24.2509 157.463 24.2914 157.617 24.2914C157.77 24.2914 157.921 24.2509 158.053 24.174L160.455 22.7825C160.588 22.7055 160.698 22.5946 160.775 22.4611C160.851 22.3276 160.891 22.1762 160.891 22.0221Z" fill="#08A835"/>
<path d="M168.735 22.0221V19.2392C168.734 19.0855 168.694 18.9345 168.617 18.8015C168.541 18.6684 168.431 18.5579 168.298 18.481L165.897 17.0895C165.764 17.0127 165.613 16.9722 165.46 16.9722C165.307 16.9722 165.156 17.0127 165.023 17.0895L162.622 18.481C162.489 18.5579 162.379 18.6684 162.303 18.8015C162.226 18.9345 162.186 19.0855 162.185 19.2392V22.0221C162.185 22.1762 162.225 22.3276 162.302 22.4611C162.379 22.5946 162.489 22.7055 162.622 22.7825L165.023 24.174C165.156 24.2509 165.307 24.2914 165.46 24.2914C165.613 24.2914 165.764 24.2509 165.897 24.174L168.298 22.7825C168.431 22.7055 168.541 22.5946 168.618 22.4611C168.695 22.3276 168.735 22.1762 168.735 22.0221Z" fill="#08A835"/>
<path d="M156.979 15.2007V12.4177C156.979 12.2633 156.939 12.1114 156.863 11.9775C156.786 11.8436 156.675 11.7324 156.542 11.6552L154.141 10.2681C154.008 10.1911 153.858 10.1506 153.704 10.1506C153.551 10.1506 153.4 10.1911 153.268 10.2681L150.866 11.6552C150.734 11.732 150.624 11.8425 150.547 11.9756C150.47 12.1086 150.43 12.2596 150.43 12.4134V15.1962C150.429 15.3504 150.47 15.5018 150.546 15.6352C150.623 15.7687 150.733 15.8796 150.866 15.9567L153.268 17.3525C153.4 17.4294 153.551 17.4699 153.704 17.4699C153.858 17.4699 154.008 17.4294 154.141 17.3525L156.542 15.961C156.675 15.884 156.786 15.7731 156.862 15.6396C156.939 15.5061 156.979 15.3547 156.979 15.2007Z" fill="#08A835"/>
<path d="M164.814 15.2007V12.4177C164.814 12.264 164.773 12.1131 164.697 11.9799C164.62 11.8469 164.51 11.7364 164.377 11.6595L161.976 10.2681C161.843 10.1911 161.693 10.1506 161.539 10.1506C161.386 10.1506 161.236 10.1911 161.103 10.2681L158.701 11.6552C158.569 11.732 158.459 11.8425 158.382 11.9756C158.305 12.1086 158.265 12.2596 158.265 12.4134V15.1962C158.265 15.3504 158.305 15.5018 158.381 15.6353C158.458 15.7687 158.568 15.8796 158.701 15.9567L161.103 17.3481C161.236 17.425 161.386 17.4655 161.539 17.4655C161.693 17.4655 161.843 17.425 161.976 17.3481L164.377 15.9567C164.51 15.8799 164.62 15.7698 164.696 15.6372C164.773 15.5045 164.813 15.354 164.814 15.2007Z" fill="#08A835"/>
<path d="M153.049 22.0221V19.2392C153.049 19.0855 153.009 18.9345 152.932 18.8015C152.855 18.6684 152.745 18.5579 152.613 18.481L150.211 17.0895C150.078 17.0127 149.928 16.9722 149.775 16.9722C149.621 16.9722 149.471 17.0127 149.338 17.0895L146.937 18.481C146.804 18.5579 146.694 18.6684 146.617 18.8015C146.541 18.9345 146.5 19.0855 146.5 19.2392V22.0221C146.5 22.1762 146.54 22.3276 146.617 22.4611C146.693 22.5946 146.804 22.7055 146.937 22.7825L149.338 24.174C149.471 24.2509 149.621 24.2914 149.775 24.2914C149.928 24.2914 150.078 24.2509 150.211 24.174L152.613 22.7825C152.746 22.7055 152.856 22.5946 152.933 22.4611C153.009 22.3276 153.049 22.1762 153.049 22.0221Z" fill="#08A835"/>
<path d="M160.891 8.3791V5.59618C160.891 5.44247 160.851 5.2915 160.774 5.15843C160.697 5.02536 160.587 4.91485 160.455 4.83799L158.053 3.44653C157.921 3.3696 157.77 3.3291 157.617 3.3291C157.463 3.3291 157.313 3.3696 157.18 3.44653L154.779 4.83799C154.646 4.91485 154.536 5.02536 154.459 5.15843C154.383 5.2915 154.342 5.44247 154.342 5.59618V8.3791C154.342 8.53318 154.382 8.6846 154.459 8.81809C154.535 8.95159 154.646 9.06244 154.779 9.13948L157.18 10.5309C157.313 10.6079 157.463 10.6484 157.617 10.6484C157.77 10.6484 157.921 10.6079 158.053 10.5309L160.455 9.13948C160.588 9.06244 160.698 8.95159 160.775 8.81809C160.851 8.6846 160.891 8.53318 160.891 8.3791Z" fill="white"/>
</svg>
