<svg width="24" height="24" viewBox="0 0 24 24" fill="none" xmlns="http://www.w3.org/2000/svg">
<path d="M22.7311 4.18116C22.6101 3.51809 22.3638 2.91055 22.017 2.41992C21.6702 1.92929 21.2352 1.57293 20.7559 1.38685C19.0047 0.800049 12 0.800049 12 0.800049C12 0.800049 4.99527 0.800049 3.24409 1.44274C2.7648 1.62882 2.32979 1.98517 1.98298 2.4758C1.63618 2.96644 1.38986 3.57397 1.26892 4.23705C0.948428 6.67586 0.791658 9.14987 0.800581 11.628C0.789157 14.1248 0.945937 16.6177 1.26892 19.0748C1.40225 19.7173 1.65409 20.3017 2.00008 20.7716C2.34608 21.2415 2.77455 21.5811 3.24409 21.7574C4.99527 22.4 12 22.4 12 22.4C12 22.4 19.0047 22.4 20.7559 21.7574C21.2352 21.5713 21.6702 21.2149 22.017 20.7243C22.3638 20.2337 22.6101 19.6261 22.7311 18.9631C23.0491 16.5426 23.2059 14.0875 23.1994 11.628C23.2108 9.13122 23.0541 6.63833 22.7311 4.18116V4.18116Z" stroke="white" stroke-width="1.4" stroke-linecap="round" stroke-linejoin="round"/>
<path d="M9.75 15.02L15.5 11.75L9.75 8.47998V15.02Z" stroke="white" stroke-width="1.5" stroke-linecap="round" stroke-linejoin="round"/>
</svg>
