<?xml version="1.0"?>
<svg xmlns="http://www.w3.org/2000/svg" xmlns:xlink="http://www.w3.org/1999/xlink" xmlns:svgjs="http://svgjs.com/svgjs" version="1.1" width="512" height="512" x="0" y="0" viewBox="0 0 24 24" style="enable-background:new 0 0 512 512" xml:space="preserve"><g><g xmlns="http://www.w3.org/2000/svg"><path d="m12 21c-5.196 0-9.815-3.067-11.767-7.814-.31-.753-.31-1.618 0-2.371 1.952-4.748 6.571-7.815 11.767-7.815s9.815 3.067 11.767 7.814c.31.753.31 1.618 0 2.371-1.952 4.748-6.571 7.815-11.767 7.815zm0-17c-4.789 0-9.045 2.824-10.842 7.194-.21.512-.21 1.099 0 1.611 1.797 4.371 6.053 7.195 10.842 7.195s9.045-2.824 10.842-7.194c.21-.512.21-1.099 0-1.611-1.797-4.371-6.053-7.195-10.842-7.195z" fill="#565656" data-original="#000000" style=""/></g><g xmlns="http://www.w3.org/2000/svg"><path d="m12 16c-2.206 0-4-1.794-4-4s1.794-4 4-4 4 1.794 4 4-1.794 4-4 4zm0-7c-1.654 0-3 1.346-3 3s1.346 3 3 3 3-1.346 3-3-1.346-3-3-3z" fill="#565656" data-original="#000000" style=""/></g></g></svg>
