<svg width="128" height="60" viewBox="0 0 128 60" fill="none" xmlns="http://www.w3.org/2000/svg">
<path d="M13.6221 57.9663H14.894L14.2683 55.9939L13.6221 57.9663ZM13.6867 54.8478H14.8702L16.6455 59.8606H15.5096L15.1865 58.8302H13.3398L12.9929 59.8606H11.8979L13.6867 54.8478Z" fill="#2C2B30"/>
<path d="M19.3743 54.8478H20.4218V58.9594H22.9044V59.8606H19.3743V54.8478Z" fill="#2C2B30"/>
<path d="M25.7216 54.8478H26.7691V58.9594H29.2517V59.8606H25.7216V54.8478Z" fill="#2C2B30"/>
<path d="M36.6581 54.8478L37.3213 57.7181L37.4641 58.5173L37.6103 57.7351L38.1749 54.8478H39.2801L39.8753 57.7181L40.0283 58.5173L40.1814 57.7487L40.8513 54.8478H41.9158L40.5044 59.8606H39.5046L38.8992 56.9291L38.7224 55.9598L38.5456 56.9291L37.9402 59.8606H36.9676L35.546 54.8478H36.6581Z" fill="#2C2B30"/>
<path d="M46.8586 59.1124C47.2735 59.1124 47.6022 58.9594 47.8448 58.6533C48.0897 58.3472 48.2121 57.9119 48.2121 57.3474C48.2121 56.7851 48.0897 56.3509 47.8448 56.0449C47.6022 55.7365 47.2735 55.5824 46.8586 55.5824C46.4437 55.5824 46.1127 55.7354 45.8655 56.0415C45.6184 56.3475 45.4949 56.7829 45.4949 57.3474C45.4949 57.9119 45.6184 58.3472 45.8655 58.6533C46.1127 58.9594 46.4437 59.1124 46.8586 59.1124ZM49.2596 57.3474C49.2596 58.2475 49.0068 58.9367 48.5012 59.4151C48.1226 59.8051 47.575 60.0001 46.8586 60.0001C46.1421 60.0001 45.5946 59.8051 45.216 59.4151C44.7081 58.9367 44.4542 58.2475 44.4542 57.3474C44.4542 56.4292 44.7081 55.7399 45.216 55.2797C45.5946 54.8897 46.1421 54.6947 46.8586 54.6947C47.575 54.6947 48.1226 54.8897 48.5012 55.2797C49.0068 55.7399 49.2596 56.4292 49.2596 57.3474Z" fill="#2C2B30"/>
<path d="M53.1991 55.7184V57.0651H54.386C54.6218 57.0651 54.7987 57.0379 54.9166 56.9835C55.1251 56.8883 55.2294 56.7001 55.2294 56.419C55.2294 56.1152 55.1286 55.9111 54.9268 55.8068C54.8134 55.7479 54.6434 55.7184 54.4166 55.7184H53.1991ZM54.6343 54.8478C54.9857 54.8546 55.2555 54.8976 55.4437 54.977C55.6341 55.0564 55.7951 55.1731 55.9266 55.3273C56.0354 55.4543 56.1216 55.5948 56.1851 55.749C56.2486 55.9032 56.2803 56.0789 56.2803 56.2761C56.2803 56.5142 56.2202 56.7488 56.1001 56.9801C55.9799 57.2091 55.7815 57.3712 55.5049 57.4664C55.7362 57.5594 55.8994 57.692 55.9946 57.8643C56.0921 58.0344 56.1409 58.2951 56.1409 58.6465V58.9832C56.1409 59.2122 56.1499 59.3675 56.1681 59.4491C56.1953 59.5784 56.2588 59.6736 56.3585 59.7348V59.8606H55.2056C55.1739 59.7495 55.1512 59.66 55.1376 59.592C55.1104 59.4514 55.0957 59.3074 55.0934 59.16L55.0866 58.6941C55.0821 58.3745 55.0231 58.1613 54.9098 58.0548C54.7987 57.9482 54.5889 57.8949 54.2806 57.8949H53.1991V59.8606H52.1755V54.8478H54.6343Z" fill="#2C2B30"/>
<path d="M59.2914 54.8478H60.3219V56.9121L62.257 54.8478H63.6105L61.5564 56.9121L63.7159 59.8606H62.3692L60.8218 57.6705L60.3219 58.184V59.8606H59.2914V54.8478Z" fill="#2C2B30"/>
<path d="M74.132 55.7354H71.4794V56.7999H73.9144V57.6705H71.4794V58.9594H74.2545V59.8606H70.4557V54.8478H74.132V55.7354Z" fill="#2C2B30"/>
<path d="M77.9594 59.8606H76.7419L78.3539 57.3066L76.8201 54.8478H78.0716L78.966 56.4768L79.8842 54.8478H81.0949L79.5611 57.2658L81.1902 59.8606H79.9182L78.966 58.1534L77.9594 59.8606Z" fill="#2C2B30"/>
<path d="M86.7179 56.4428C86.7179 56.182 86.6488 55.9961 86.5104 55.885C86.3744 55.7739 86.1828 55.7184 85.9357 55.7184H84.9597V57.1944H85.9357C86.1828 57.1944 86.3744 57.1343 86.5104 57.0141C86.6488 56.8939 86.7179 56.7035 86.7179 56.4428ZM87.7552 56.436C87.7552 57.0277 87.6055 57.446 87.3062 57.6909C87.007 57.9357 86.5796 58.0582 86.0241 58.0582H84.9597V59.8606H83.919V54.8478H86.1023C86.6057 54.8478 87.007 54.977 87.3062 55.2355C87.6055 55.4939 87.7552 55.8941 87.7552 56.436Z" fill="#2C2B30"/>
<path d="M91.6777 55.7184V57.0651H92.8646C93.1004 57.0651 93.2772 57.0379 93.3951 56.9835C93.6037 56.8883 93.708 56.7001 93.708 56.419C93.708 56.1152 93.6071 55.9111 93.4053 55.8068C93.292 55.7479 93.1219 55.7184 92.8952 55.7184H91.6777ZM93.1129 54.8478C93.4643 54.8546 93.7341 54.8976 93.9223 54.977C94.1127 55.0564 94.2737 55.1731 94.4052 55.3273C94.514 55.4543 94.6002 55.5948 94.6636 55.749C94.7271 55.9032 94.7589 56.0789 94.7589 56.2761C94.7589 56.5142 94.6988 56.7488 94.5786 56.9801C94.4585 57.2091 94.2601 57.3712 93.9835 57.4664C94.2147 57.5594 94.378 57.692 94.4732 57.8643C94.5707 58.0344 94.6194 58.2951 94.6194 58.6465V58.9832C94.6194 59.2122 94.6285 59.3675 94.6466 59.4491C94.6738 59.5784 94.7373 59.6736 94.8371 59.7348V59.8606H93.6842C93.6525 59.7495 93.6298 59.66 93.6162 59.592C93.589 59.4514 93.5742 59.3074 93.572 59.16L93.5652 58.6941C93.5606 58.3745 93.5017 58.1613 93.3883 58.0548C93.2772 57.9482 93.0675 57.8949 92.7592 57.8949H91.6777V59.8606H90.654V54.8478H93.1129Z" fill="#2C2B30"/>
<path d="M101.46 55.7354H98.8072V56.7999H101.242V57.6705H98.8072V58.9594H101.582V59.8606H97.7836V54.8478H101.46V55.7354Z" fill="#2C2B30"/>
<path d="M105.246 58.3132C105.278 58.5422 105.34 58.7134 105.433 58.8268C105.603 59.0331 105.895 59.1362 106.307 59.1362C106.555 59.1362 106.755 59.109 106.909 59.0546C107.202 58.9503 107.348 58.7565 107.348 58.4731C107.348 58.3076 107.276 58.1795 107.13 58.0888C106.985 58.0004 106.758 57.9221 106.447 57.8541L105.916 57.7351C105.395 57.6172 105.034 57.4891 104.835 57.3508C104.497 57.1195 104.328 56.7579 104.328 56.2659C104.328 55.817 104.491 55.4441 104.818 55.147C105.144 54.85 105.624 54.7015 106.256 54.7015C106.785 54.7015 107.235 54.8421 107.607 55.1232C107.981 55.4021 108.177 55.8079 108.195 56.3407H107.188C107.17 56.0392 107.039 55.8249 106.794 55.698C106.631 55.6141 106.428 55.5722 106.185 55.5722C105.915 55.5722 105.7 55.6266 105.539 55.7354C105.378 55.8442 105.297 55.9961 105.297 56.1911C105.297 56.3702 105.377 56.504 105.535 56.5924C105.637 56.6514 105.855 56.7205 106.188 56.7999L107.052 57.0073C107.431 57.098 107.717 57.2193 107.909 57.3712C108.209 57.607 108.358 57.9482 108.358 58.3949C108.358 58.8528 108.182 59.2337 107.831 59.5375C107.482 59.8391 106.988 59.9899 106.348 59.9899C105.695 59.9899 105.182 59.8414 104.808 59.5443C104.434 59.2451 104.247 58.8347 104.247 58.3132H105.246Z" fill="#2C2B30"/>
<path d="M111.981 58.3132C112.013 58.5422 112.076 58.7134 112.168 58.8268C112.339 59.0331 112.63 59.1362 113.043 59.1362C113.29 59.1362 113.49 59.109 113.644 59.0546C113.937 58.9503 114.083 58.7565 114.083 58.4731C114.083 58.3076 114.011 58.1795 113.866 58.0888C113.72 58.0004 113.493 57.9221 113.182 57.8541L112.651 57.7351C112.13 57.6172 111.769 57.4891 111.57 57.3508C111.232 57.1195 111.063 56.7579 111.063 56.2659C111.063 55.817 111.226 55.4441 111.553 55.147C111.879 54.85 112.359 54.7015 112.991 54.7015C113.52 54.7015 113.97 54.8421 114.342 55.1232C114.716 55.4021 114.912 55.8079 114.93 56.3407H113.923C113.905 56.0392 113.774 55.8249 113.529 55.698C113.366 55.6141 113.163 55.5722 112.92 55.5722C112.65 55.5722 112.435 55.6266 112.274 55.7354C112.113 55.8442 112.032 55.9961 112.032 56.1911C112.032 56.3702 112.112 56.504 112.271 56.5924C112.373 56.6514 112.59 56.7205 112.923 56.7999L113.787 57.0073C114.166 57.098 114.452 57.2193 114.644 57.3712C114.944 57.607 115.093 57.9482 115.093 58.3949C115.093 58.8528 114.918 59.2337 114.566 59.5375C114.217 59.8391 113.723 59.9899 113.083 59.9899C112.43 59.9899 111.917 59.8414 111.543 59.5443C111.169 59.2451 110.982 58.8347 110.982 58.3132H111.981Z" fill="#2C2B30"/>
<path d="M92.8239 34.8381L92.8252 34.8394C96.7824 38.8332 101.558 40.8275 107.163 40.8275L121.644 40.8275C122.467 40.8275 123.235 40.6665 123.947 40.3458L123.947 40.3457L123.952 40.3438C124.63 40.0583 125.237 39.6478 125.774 39.1107C126.31 38.5746 126.74 37.9489 127.063 37.2321C127.348 36.5177 127.491 35.7675 127.491 34.9802C127.491 33.4075 126.921 32.0524 125.774 30.9051C124.628 29.7588 123.255 29.1883 121.644 29.1883L107.163 29.1883C104.816 29.1883 102.786 28.334 101.086 26.6332C99.3842 24.9317 98.5305 22.8837 98.5305 20.4999C98.5305 18.1161 99.3842 16.0681 101.086 14.3667C102.751 12.7012 104.781 11.867 107.163 11.867L121.644 11.867C122.467 11.867 123.235 11.706 123.947 11.3853L123.947 11.3851L123.955 11.382C124.67 11.096 125.294 10.6855 125.83 10.1502C126.328 9.65217 126.739 9.04541 127.063 8.32709C127.348 7.61366 127.491 6.84514 127.491 6.01966C127.491 4.44697 126.921 3.09187 125.774 1.94461C124.628 0.798309 123.255 0.227834 121.644 0.227834L107.163 0.227833C101.557 0.227833 96.7816 2.20411 92.8246 6.16108C88.83 10.1557 86.8359 14.9318 86.8359 20.4999C86.8359 26.1053 88.8302 30.881 92.8239 34.8381Z" fill="white" stroke="#E0E0E0" stroke-width="0.4"/>
<path d="M127.687 20.5279C127.687 19.7142 127.521 18.9375 127.188 18.1978C126.892 17.458 126.467 16.8108 125.912 16.256C125.357 15.7012 124.71 15.2758 123.97 14.9799C123.231 14.647 122.454 14.4806 121.64 14.4806H107.16C106.309 14.4806 105.514 14.647 104.774 14.9799C104.072 15.2758 103.443 15.7012 102.888 16.256C102.37 16.8108 101.945 17.458 101.612 18.1978C101.316 18.9375 101.168 19.7142 101.168 20.5279C101.168 22.1923 101.76 23.6163 102.943 24.7999C104.127 25.9834 105.532 26.5752 107.16 26.5752H121.64C122.454 26.5752 123.231 26.4273 123.97 26.1314C124.71 25.7985 125.357 25.3547 125.912 24.7999C126.467 24.2451 126.892 23.6163 127.188 22.9136C127.521 22.1738 127.687 21.3786 127.687 20.5279Z" fill="url(#paint0_linear)"/>
<path d="M78.1813 34.8671L78.1827 34.8658C82.1764 30.9087 84.1707 26.133 84.1707 20.5276V6.04733C84.1707 5.22353 84.0097 4.45644 83.689 3.74377L83.689 3.74379L83.6871 3.7393C83.4015 3.0611 82.991 2.45385 82.454 1.9168C81.9178 1.38067 81.2921 0.951061 80.5754 0.627975C79.8609 0.342789 79.1108 0.20002 78.3234 0.20002C76.7507 0.20002 75.3956 0.769535 74.2484 1.9168C73.1021 3.0631 72.5316 4.43631 72.5316 6.04733V20.5276C72.5316 22.8754 71.6772 24.9046 69.9764 26.6054C68.2749 28.3068 66.227 29.1605 63.8432 29.1605C61.4594 29.1605 59.4114 28.3068 57.7099 26.6054C56.0445 24.9399 55.2102 22.91 55.2102 20.5276V6.04733C55.2102 5.22353 55.0492 4.45644 54.7285 3.74377L54.7284 3.74384L54.7252 3.73597C54.4392 3.02099 54.0288 2.39666 53.4934 1.86132C52.9954 1.36329 52.3887 0.951725 51.6703 0.627983C50.9569 0.343212 50.1884 0.20002 49.3629 0.20002C47.7902 0.20002 46.4351 0.769535 45.2879 1.9168C44.1416 3.0631 43.5711 4.43631 43.5711 6.04733V20.5276C43.5711 26.1336 45.5474 30.9095 49.5043 34.8664C53.499 38.8611 58.2751 40.8552 63.8432 40.8552C69.4486 40.8552 74.2242 38.8608 78.1813 34.8671Z" fill="white" stroke="#E0E0E0" stroke-width="0.4"/>
<path d="M57.8236 20.5276C57.8236 22.192 58.4154 23.6159 59.599 24.7995C60.7826 25.9831 62.188 26.5749 63.8155 26.5749C64.6292 26.5749 65.4059 26.4269 66.1456 26.131C66.8853 25.7981 67.5326 25.3543 68.0874 24.7995C68.6422 24.2447 69.0676 23.6159 69.3634 22.9132C69.6963 22.1735 69.8628 21.3782 69.8628 20.5276V6.04729C69.8628 5.23359 69.6963 4.45687 69.3634 3.71714C69.0676 2.97741 68.6422 2.33014 68.0874 1.77534C67.5326 1.22054 66.8853 0.795196 66.1456 0.499304C65.4059 0.166425 64.6292 -1.52588e-05 63.8155 -1.52588e-05C62.9648 -1.52588e-05 62.1696 0.166425 61.4298 0.499304C60.7271 0.795196 60.0983 1.22054 59.5435 1.77534C59.0257 2.33014 58.6003 2.97741 58.2675 3.71714C57.9716 4.45687 57.8236 5.23359 57.8236 6.04729V20.5276Z" fill="url(#paint1_linear)"/>
<path d="M34.8103 6.18815L34.8116 6.18945C38.8053 10.1466 40.7997 14.9222 40.7997 20.5276V35.0079C40.7997 35.8317 40.6387 36.5988 40.318 37.3115L40.3179 37.3114L40.316 37.3159C40.0305 37.9941 39.6199 38.6014 39.0829 39.1384C38.5468 39.6746 37.9211 40.1042 37.2043 40.4272C36.4899 40.7124 35.7397 40.8552 34.9523 40.8552C33.3797 40.8552 32.0246 40.2857 30.8773 39.1384C29.731 37.9921 29.1605 36.6189 29.1605 35.0079V20.5276C29.1605 18.1799 28.3061 16.1507 26.6053 14.4499C24.9039 12.7484 22.8559 11.8947 20.4721 11.8947C18.0883 11.8947 16.0403 12.7484 14.3388 14.4499C12.6734 16.1153 11.8391 18.1452 11.8391 20.5276V35.0079C11.8391 35.8317 11.6781 36.5988 11.3574 37.3115L11.3573 37.3114L11.3541 37.3193C11.0681 38.0342 10.6577 38.6586 10.1224 39.1939C9.62434 39.6919 9.01758 40.1035 8.29926 40.4272C7.58583 40.712 6.81731 40.8552 5.99183 40.8552C4.41914 40.8552 3.06404 40.2857 1.91678 39.1384C0.770479 37.9921 0.200004 36.6189 0.200004 35.0079V20.5276C0.200004 14.9216 2.17628 10.1458 6.13326 6.1888C10.1279 2.19417 14.904 0.200065 20.4721 0.200065C26.0775 0.200065 30.8532 2.19439 34.8103 6.18815Z" fill="white" stroke="#E0E0E0" stroke-width="0.4"/>
<path d="M26.5202 20.5278C26.5202 19.7141 26.3537 18.9373 26.0208 18.1976C25.725 17.4579 25.2996 16.8106 24.7448 16.2558C24.19 15.701 23.5427 15.2757 22.803 14.9798C22.0633 14.6469 21.2866 14.4805 20.4729 14.4805C19.6222 14.4805 18.827 14.6469 18.0872 14.9798C17.3845 15.2757 16.7557 15.701 16.2009 16.2558C15.6831 16.8106 15.2577 17.4579 14.9249 18.1976C14.629 18.9373 14.481 19.7141 14.481 20.5278C14.481 22.1922 15.0728 23.6162 16.2564 24.7997C17.44 25.9833 18.8454 26.5751 20.4729 26.5751C21.2866 26.5751 22.0633 26.4271 22.803 26.1312C23.5427 25.7984 24.19 25.3545 24.7448 24.7997C25.2996 24.2449 25.725 23.6161 26.0208 22.9134C26.3537 22.1737 26.5202 21.3785 26.5202 20.5278Z" fill="url(#paint2_linear)"/>
<defs>
<linearGradient id="paint0_linear" x1="111.934" y1="9.71312" x2="114.72" y2="29.5632" gradientUnits="userSpaceOnUse">
<stop stop-color="#47E6DC"/>
<stop offset="1" stop-color="#8E54E9"/>
</linearGradient>
<linearGradient id="paint1_linear" x1="70.1442" y1="26.4288" x2="60.7416" y2="-0.0379342" gradientUnits="userSpaceOnUse">
<stop stop-color="#16A085"/>
<stop offset="1" stop-color="#F4D03F"/>
</linearGradient>
<linearGradient id="paint2_linear" x1="26.2663" y1="26.4288" x2="14.4259" y2="14.5884" gradientUnits="userSpaceOnUse">
<stop stop-color="#ED1675"/>
<stop offset="1" stop-color="#FF512F"/>
</linearGradient>
</defs>
</svg>
