<svg width="640" height="640" viewBox="0 0 640 640" fill="none" xmlns="http://www.w3.org/2000/svg">
<path d="M500.181 583.884L501.02 583.289C488.983 591.566 476.425 599.042 463.428 605.671L463.343 605.693C460.379 607.427 457.232 608.82 453.962 609.849L455.857 609.335L456.19 609.154C471.58 602.119 486.358 593.79 500.369 584.254L500.181 583.884ZM587.585 203.413C559.925 98.2738 487.476 26.0666 400.525 3.15745C424.303 10.2851 439.941 15.0334 468.989 29.9387C495.143 45.0781 497.289 46.3306 513.506 58.5324C537.685 78.5349 539.077 79.7529 552.4 93.6926C573.74 118.242 574.576 119.207 585.166 134.878C602.514 163.186 603.168 164.219 611.075 181.534C623.811 213.035 624.303 214.277 629.324 233.089C636.721 266.551 637.158 268.541 639.064 290.379L639.969 307.482C639.721 304.358 639.614 301.215 639.294 298.092C640.149 319.866 640.687 333.052 629.443 374.114C626.717 358.349 634.693 343.351 633.567 327.738C632.44 312.126 626.282 296.96 625.325 281.1C625.027 279.017 624.83 278.887 624.7 278.739L623.566 278.019L622.42 277.321L621.841 276.983L621.245 276.649C621.045 276.523 620.839 276.407 620.627 276.303C620.523 271.6 620.28 271.024 617.478 264.008C616.852 262.674 616.909 263.3 616.967 263.926C617.024 264.553 617.071 265.072 617.132 265.715C617.194 266.359 617.214 266.775 617.265 267.311L617.388 268.8L617.483 270.186C617.503 270.603 617.544 271.032 617.568 271.465C617.592 271.899 617.62 272.277 617.656 272.689C617.693 273.1 617.694 273.448 617.722 273.826C616.024 279.054 613.497 283.957 612.077 289.274C610.533 295.084 616.365 303.131 608.896 306.971C606.948 304.821 606.948 304.821 605.815 300.342L603.751 301.176C601.125 313.166 601.449 325.75 596.64 337.304C601.986 292.495 598.913 247.068 587.585 203.413Z" fill="#F3F0EC"/>
<path d="M1.74014 284.763C1.62443 286.152 1.52001 287.537 1.42686 288.919C1.94164 281.86 2.8218 274.833 4.06373 267.868C2.96567 273.449 2.18983 279.091 1.74014 284.763ZM45.8805 483.308L37.0854 467.499C24.2555 440.296 20.811 432.977 10.869 399.563C3.32843 365.424 3.19452 364.782 1.38455 345.632C-0.366263 311.649 -0.394116 310.997 0.948835 292.111C4.61021 259.596 4.78021 258.321 9.15555 239.861C17.894 208.849 18.2266 207.64 25.6491 189.73C38.4651 162.197 39.5197 159.949 50.2725 142.494C56.3776 133.504 64.6908 121.624 71.2137 112.98C81.8794 101.012 81.8794 101.012 83.3779 100.166C82.9454 101.75 83.0919 101.619 83.2599 101.5L83.721 101.119L84.1944 100.715L84.6893 100.324L85.1796 99.9165L85.7038 99.4994L86.2618 99.0731L86.8323 98.6251C85.064 101.396 84.6338 102.1 83.0711 104.962L83.717 104.457L84.4013 103.96L85.0811 103.446L85.7824 102.944L87.2435 101.888L87.9909 101.355L88.7553 100.818C87.6368 105.357 81.3611 111.239 73.3993 118.696C75.5904 118.616 75.5904 118.616 81.1474 113.717C82.2972 113.817 83.45 113.562 84.4538 112.987C84.426 113.361 80.0025 123.563 73.0593 128.911L71.5808 127.643L69.826 128.411C69.726 130.423 69.2877 132.402 68.5297 134.264C69.6625 133.472 70.7175 132.572 71.6803 131.577L71.1353 133.558C72.2965 133.115 73.4032 132.538 74.4337 131.839C74.9869 133.927 76.2312 135.68 76.8475 137.732C75.7726 139.802 74.3534 141.669 72.652 143.252L74.323 144.082C73.8493 145.238 73.2159 146.748 72.5503 147.864C71.8848 148.979 71.6446 149.099 71.4597 149.223L70.8881 149.598L69.2611 150.644L68.7402 151.005L67.7232 151.684L67.9249 149.502C66.2108 153.231 66.1175 157.327 65.1461 161.258C62.5574 161.959 60.6553 164.089 58.0846 164.858C56.5211 166.144 56.4414 166.459 56.3447 166.779C56.2481 167.098 56.1593 167.379 56.0795 167.694C55.9998 168.009 55.8941 168.294 55.8143 168.609L55.3087 170.397L54.8121 172.218L54.5684 173.146C60.3644 175.72 66.8785 173.955 72.7832 175.913C72.951 176.546 73.3254 177.343 73.5485 177.98C70.5459 183.69 58.282 190.515 49.1977 177.242L47.0828 177.815C46.9654 175.867 46.9654 175.867 48.0356 169.708L46.5617 168.457C46.6072 167.877 46.6072 167.877 47.3974 161.483C45.2806 162.46 45.2806 162.459 43.6953 166.263L45.5822 166.541C45.5379 171.027 41.2166 177.92 41.1749 177.967C38.8474 174.454 40.1282 170.732 41.4607 166.795C37.0173 173.501 37.0173 173.501 35.0685 178.192C34.9314 178.561 34.7425 178.909 34.5078 179.224L34.2531 179.495L32.7522 181.222L32.2023 181.884L31.9398 182.194L31.6942 182.499L31.461 182.782L31.2525 183.022L31.0779 183.252L30.9156 183.461C19.1052 207.329 19.1052 207.329 9.52787 240.787C9.20303 241.678 8.93575 242.59 8.72772 243.516L8.37103 245.318L8.01767 247.064L7.67669 248.789L7.36049 250.47C7.25055 251.013 7.16207 251.569 7.05214 252.112L6.77309 253.728L6.50643 255.323C-11.1855 336.862 25.9278 439.421 33.5641 459.137C28.4145 450.722 22.6762 433.993 18.5681 421.775C16.5008 415 15.4805 408.069 12.3914 401.681C19.4722 430.437 30.7917 457.952 45.9696 483.302L45.8805 483.308ZM351.806 638.298C350.357 638.581 350.357 638.581 338.457 639.458C324.428 640.032 323.583 640.059 315.393 639.949C309.768 639.731 302.264 639.472 296.637 639.108L297.041 639.127C298.483 639.231 301.129 639.431 303.595 639.497L301.26 639.377C342.092 641.059 376.79 628.081 398.683 616.941L398.422 617.122C389.045 622.798 378.52 626.329 368.876 631.546C370.247 631.174 371.607 630.696 372.972 630.234C369.543 631.954 365.937 633.287 362.22 634.211C362.628 634.223 363.03 634.306 363.41 634.457C361.303 636.018 361.303 636.018 348.868 638.232C350.378 638.194 351.883 638.038 353.369 637.765C352.838 638.018 352.279 638.206 351.704 638.326" fill="#F3F0EC"/>
<path d="M560.505 529.834C548.843 543.244 548.843 543.244 519.624 568.895C520.876 568.555 530.471 560.142 530.576 560.059C537.956 553.145 547.61 543.725 554.619 536.435L562.843 527.091L560.505 529.834Z" fill="#F3F0EC"/>
<path d="M564.893 524.703L563.848 525.958L566.664 522.554C566.089 523.26 565.502 523.988 564.893 524.703Z" fill="#F3F0EC"/>
<path d="M587.165 386.542C589.696 383.097 592.775 380.1 596.276 377.673C597.304 377.012 598.294 376.291 599.24 375.513C599.774 374.292 600.042 372.968 600.025 371.633C599.495 370.297 598.646 369.116 597.554 368.194C596.902 368.059 596.421 368.501 595.569 369.667C595.352 369.968 595.12 370.258 594.874 370.534C594.813 370.593 594.757 370.657 594.707 370.726C593.057 372.439 592.198 374.945 589.757 375.863C588.927 379.438 588.061 383.01 587.157 386.581" fill="#F3F0EC"/>
<path d="M623.466 374.064C622.342 378.99 622.302 379.184 622.308 380.778C622.33 381.89 622.906 383.036 623.565 382.784C624.916 382.271 628.155 368.557 628.595 360.02C626.494 362.424 625.159 366.765 623.466 374.064Z" fill="#F3F0EC"/>
<path d="M43.6429 181.057C42.7226 185.249 43.3608 186.837 44.1507 187.833C47.7132 182.32 47.712 182.247 47.0614 177.876L46.8055 178.073L46.5553 178.361L46.3333 178.55L46.0898 178.726L45.8846 178.91L45.4653 179.243L45.2725 179.406L45.0525 179.465L44.4743 179.952L44.277 180.097L43.6987 180.584L43.6033 180.976" fill="#F3F0EC"/>
<path d="M599.862 182.132C599.377 183.657 599.377 183.657 599.319 183.709C598.482 183.221 598.076 182.029 596.863 182.174C596.053 182.265 595.825 183.666 595.748 184.127L594.955 182.71C594.71 182.263 594.452 181.837 594.207 181.39L593.498 180.152C593.283 179.752 593.051 179.356 592.819 178.96C592.588 178.565 592.382 178.199 592.176 177.833C591.97 177.467 591.743 177.088 591.52 176.727C591.298 176.365 591.096 176.016 590.891 175.65C590.685 175.284 590.471 174.957 590.265 174.591C590.263 171.639 589.343 169.193 586.827 165.584L586.974 165.25L587.126 164.934L587.266 164.639L587.536 164.016L587.675 163.721L587.793 163.414L587.928 163.103C592.423 169.66 595.9 175.118 599.94 181.946L599.862 182.132ZM597.935 211.61C598.236 212.335 598.557 213.275 598.833 214.044C597.26 213.443 596.152 213.028 594.114 212.315C598.183 219.392 603.64 225.615 606.57 233.385C607.539 235.947 607.479 236.476 606.575 245.45C598.531 242.128 598.531 242.128 597.719 240.771C595.858 236.836 594.704 232.597 594.311 228.253C594.376 226.449 593.953 224.661 593.086 223.083C592.071 221.305 591.317 221.197 590.337 221.059C582.817 216.533 576.765 209.888 572.921 201.938C572.779 201.333 572.73 200.709 572.776 200.089C572.563 197.506 572.137 193.092 571.252 186.675C571.528 186.417 571.783 186.146 572.038 185.875L572.797 185.046L574.292 183.431L575.005 182.632L575.701 181.838L577.026 180.269C578.661 183.494 579.651 185.591 581.121 188.879L580.917 189.136L580.709 189.375L580.267 189.899L580.042 190.143L579.833 190.383L579.637 190.601C579.585 190.675 579.523 190.741 579.453 190.798C579.61 193.304 583.693 195.847 581.015 198.058C581.699 200.642 584.373 208.61 588.26 203.705C593.303 210.83 593.303 210.83 593.793 210.899C593.029 208.905 592.231 206.921 591.438 204.953C593.093 205.11 595.361 205.321 597.966 211.73L597.935 211.61ZM572.065 231.218C572.706 232.677 573.262 234.158 573.885 235.621C562.523 244.55 562.523 244.55 554.216 239.685C553.186 239.084 553.186 239.084 552.523 239.319C549.861 245.083 549.861 245.083 548.834 246.407C547.353 248.348 544.924 249.172 543.427 251.118C542.053 253.218 540.099 254.863 537.807 255.85C535.492 257.174 535.492 257.174 532.947 261.733C529.238 253.956 526.825 245.613 525.805 237.041C525.674 236.068 526.181 235.857 526.535 235.688C527.565 235.262 528.686 235.728 529.717 235.376C529.204 233.442 529.438 231.38 528.988 229.411C528.662 228.179 527.914 227.135 527.554 225.912C527.472 225.604 526.171 219.942 526.167 219.925C526.076 218.556 526.371 218.439 528.606 217.632C533.208 222.271 533.208 222.271 536.934 222.986C538.297 226.559 535.545 229.652 535.806 233.102C542.24 234.458 543.838 231.934 547.351 221.374C546.38 220.942 545.288 220.88 544.276 221.198C541.794 221.687 541.285 221.477 539.388 219.038C540.291 216.63 540.365 213.969 541.401 211.579C541.903 210.589 542.695 209.779 543.669 209.259C544.22 208.67 544.22 208.67 545.889 201.689C546.509 203.208 547.248 204.695 547.741 206.285C547.579 206.494 543.722 211.647 549.674 221.587C552.841 220.399 552.841 220.399 553.745 220.796C556.775 222.103 559.336 224.379 562.597 225.256C564.257 225.705 565.448 223.42 567.202 224.43C569.171 226.416 570.813 228.707 572.065 231.218ZM400.524 3.15682L399.978 3.01143C406.117 4.75888 414.192 7.44876 415.78 7.89868C387.816 -0.111654 387.816 -0.111655 381.398 0.0318949C383.385 0.685576 386.193 1.4284 388.25 1.93481C381.693 1.41902 381.693 1.41902 379.433 1.71957C393.913 5.99341 406.392 15.6507 421.738 17.654C427.33 29.3792 439.684 25.1516 448.526 29.2292C445.174 28.3559 441.732 27.8852 438.271 27.8267C440.1 29.5974 442.25 30.9948 444.602 31.9427C442.395 32.1006 442.395 32.1006 430.596 29.0444C436.961 33.6281 459.575 41.3642 459.784 41.3993L462.003 39.166C465.163 39.8684 468.121 41.1759 471.275 41.9902L464.785 41.658C470.41 46.1856 476.711 49.7779 482.004 54.7623L478.574 55.5081C467.34 40.9658 421.782 29.4521 421.343 29.3693C433.768 41.7001 451.526 42.8117 465.902 51.0746C452.614 49.4488 452.614 49.4488 449.305 52.0874C452.312 55.2889 456.585 56.4966 460.026 59.0118L459.785 59.3339L459.681 59.4903L459.141 60.187C457.387 59.2501 455.034 58.0355 453.268 57.1202C455.017 59.8189 454.869 63.16 456.237 65.9983L452.698 65.5085C451.704 71.6096 456.34 76.5149 456.205 82.4381L455.297 81.7489L454.415 81.0893C454.127 80.8923 453.835 80.6781 453.559 80.4594L452.707 79.8466L451.899 79.2588L451.112 78.6835L450.368 78.1333L449.64 77.5785L442.761 75.7749C441.815 75.6277 441.727 75.7065 441.622 75.79L441.325 76.0356L440.469 76.7076L440.201 76.927L439.63 77.375C445.657 81.5735 452.35 84.6564 458.499 88.7669C456.501 88.8429 454.587 89.5941 453.061 90.9003C453.226 92.8912 453.513 95.546 453.75 97.5356C456.267 99.4392 459.489 100.033 461.89 102.115C462.791 103.118 462.682 103.184 462.577 103.268L462.27 103.479L461.97 103.579L461.101 104.199L460.777 104.415L460.441 104.653L459.751 104.033L459.078 103.409L458.409 102.802C458.176 102.608 457.956 102.392 457.74 102.194C457.525 101.996 457.292 101.802 457.076 101.604L455.748 100.423L455.088 99.8503L452.423 101.838C452.533 102.798 452.661 104.102 452.77 105.063C454.858 106.36 457.088 107.405 459.416 108.177L456.196 109.71C450.176 107.129 444.481 103.833 439.232 99.8923C447.877 95.4958 447.877 95.4958 448.771 94.8317C446.94 91.0001 444.813 86.7353 442.083 85.8794C428.094 81.9496 413.331 84.6842 399.324 80.9609L398.43 84.4307C396.242 84.1171 394.098 83.5405 392.045 82.7132L394.042 85.253L390.658 86.1699C391.722 88.0762 393.251 89.6757 395.099 90.8164C393.09 90.9265 391.076 90.8587 389.079 90.6138C389.658 91.4289 390.398 92.512 390.96 93.3317C389.426 92.3352 387.339 91.0301 385.747 90.0861C388.853 111.251 388.853 111.251 385.211 112.769C384.818 123.127 384.652 127.426 389.211 142.989L387.028 145.634C386.28 147.67 386.35 147.798 386.438 147.921L386.686 148.312L386.952 148.699L387.227 149.119L387.51 149.574L387.816 150.042C387.865 150.23 388.034 150.386 388.156 150.573L388.518 151.117C382.285 154.97 377.455 168.088 377.431 168.205C377.686 168.686 377.953 169.145 378.207 169.627C378.462 170.108 378.724 170.55 378.974 171.014L379.714 172.372C379.943 172.824 380.188 173.271 380.434 173.718C380.679 174.165 380.898 174.582 381.139 175.012C381.38 175.442 381.583 175.864 381.819 176.277C382.055 176.689 382.262 177.128 382.499 177.541L383.152 178.776L386.163 178.162C398.818 193.071 398.818 193.071 407.647 182.317C412.704 176.215 429.055 188.234 431.119 195.615L437.414 198.018C440.723 183.129 440.608 180.849 435.922 173.702C439.102 165.175 440.399 161.651 427.034 155.149C424.06 153.645 423.773 153.246 423.508 152.859L422.677 151.709C422.416 151.34 422.133 150.958 421.868 150.571C421.602 150.185 421.319 149.803 421.041 149.438C420.763 149.073 420.498 148.687 420.232 148.3C419.967 147.914 419.689 147.549 419.411 147.184C419.133 146.819 418.867 146.433 418.589 146.068C418.311 145.703 418.05 145.334 417.772 144.969C418.493 130.103 418.493 130.103 415.627 119.492C422.676 115.363 423.888 116.447 428.429 120.516L425.381 120.645C434.161 169.044 452.094 148.433 452.213 148.199C452.97 146.352 454.105 144.688 455.544 143.317C457.398 144.192 459.187 145.203 460.897 146.341C459.22 148.015 457.181 149.27 454.941 150.009C452.663 156.127 452.887 157.039 453.698 160.578L460.415 163.343C460.678 164.335 461.027 165.652 461.285 166.628L458.506 168.114L451.329 164.301C452.402 172.592 459.985 178.35 459.955 187.068C459.926 195.787 454.239 194.376 451.194 193.697C448.062 195.976 448.062 195.976 443.045 204.964C437.478 205.171 433.261 211.98 426.903 208.311C418.237 203.324 421.319 189.358 410.358 186.112L408.93 188.938C411.002 189.527 412.859 190.712 414.277 192.348C413.023 194.298 411.271 195.869 409.207 196.895C408.318 197.851 408.498 198.187 408.673 198.506C408.848 198.826 409.011 199.167 409.169 199.491C409.328 199.814 409.503 200.134 409.678 200.453C409.854 200.772 410.007 201.079 410.166 201.403C410.324 201.727 410.495 202.029 410.653 202.353C410.812 202.677 410.982 202.979 411.136 203.286C411.29 203.592 411.448 203.916 411.619 204.218L412.09 205.173L418.948 207.991C419.038 208.333 419.281 208.634 419.444 208.975C419.607 209.316 419.773 209.601 419.932 209.925L420.402 210.879C420.488 211.204 420.727 211.488 420.88 211.795C421.034 212.102 421.162 212.379 421.316 212.685C421.47 212.992 421.61 213.248 421.742 213.542C421.875 213.836 422.015 214.091 422.16 214.364C422.304 214.637 422.423 214.879 422.547 215.139C415.748 221.786 414.23 223.243 407.681 229.327L410.613 236.968C411.165 239.734 410.717 239.892 410.291 240.063L409.058 240.543L407.842 241.02L406.656 241.469L405.507 241.927L403.202 242.809L402.033 243.254C401.799 248.397 401.799 248.397 394.925 260.162L387.978 258.377C386.862 258.477 387.013 258.913 387.182 259.344C387.351 259.775 387.4 260.165 387.627 260.544C387.854 260.923 387.826 261.297 388.045 261.641L388.418 262.64C388.504 262.965 388.59 263.29 388.761 263.593C388.932 263.895 388.92 264.191 389.001 264.499L389.317 265.349L389.539 266.187C382.33 270.598 381.599 271.126 379.382 275.762L381.446 278.485C388.712 279.01 394.186 283.927 400.602 286.516C399.685 289.9 399.685 289.9 402.308 304.796C401.827 304.688 364.84 314.71 368.258 321.999C374.458 334.513 374.458 334.513 371.427 347.235C371.593 347.52 395.353 369.708 419.52 348.875C420.459 330.796 429.775 314.279 429.184 295.9C433.766 291.907 439.942 292.288 445.143 290.017C445.688 287.833 446.936 285.896 448.689 284.508L449.254 284.245L449.948 284.057C451.38 282.557 452.506 280.787 453.265 278.849L456.603 277.761C468.161 286.2 482.88 288.3 494.257 297.083C494.325 297.339 494.397 297.613 494.47 297.887C494.542 298.161 494.624 298.469 494.701 298.759C494.778 299.05 494.869 299.393 495.035 299.678C495.201 299.963 495.212 300.345 495.298 300.67C495.384 300.995 495.479 301.354 495.655 301.674C495.83 301.993 495.84 302.375 495.936 302.734C496.031 303.094 496.126 303.453 496.306 303.789C496.486 304.126 496.501 304.525 496.596 304.884C499.456 302.881 499.456 302.881 501.865 296.231C500.142 294.856 498.678 293.178 497.542 291.278C499.637 290.508 501.794 289.924 503.989 289.531L504.992 286.472C468.04 273.562 460.342 270.861 465.208 258.906C466.766 259.309 503.497 268.924 521.131 296.531C522.464 298.004 522.762 297.758 523.099 297.593L524.051 297.079L524.99 296.586L525.879 296.107L526.75 295.632L527.61 295.179L528.431 294.718L529.256 294.275L527.196 292.045C527.691 290.043 528.541 288.147 529.704 286.451C527.953 285.203 525.919 284.423 523.79 284.184C522.451 283.923 522.384 283.74 522.313 283.539L522.159 282.957C522.104 282.752 522.055 282.564 522.005 282.376L521.85 281.794C521.801 281.606 521.751 281.418 521.696 281.212L521.397 280.083C521.347 279.895 521.297 279.707 521.243 279.501L523.703 277.423C525.123 275.938 525.064 275.715 525.005 275.493C524.946 275.27 524.887 275.048 524.832 274.843C524.778 274.637 524.719 274.415 524.665 274.21C524.61 274.004 524.551 273.782 524.497 273.577C524.443 273.371 524.383 273.149 524.245 272.966C524.106 272.784 524.131 272.539 524.072 272.316C524.013 272.094 523.959 271.888 523.9 271.666C523.841 271.444 523.782 271.221 523.634 271.005C534.117 264.166 534.117 264.166 535.715 261.845C537.804 282.184 538.366 287.662 553.4 290.263L556.248 283.422L559.264 282.348L562.29 284.187C564.714 282.796 564.714 282.796 569.031 277.391C573.433 280.727 577.586 283.875 576.356 311.88C563.329 321.847 563.329 321.847 563.732 324.874C561.737 324.531 559.799 323.915 557.969 323.043C555.846 322.352 555.518 322.551 555.19 322.75L554.184 323.335L553.195 323.914L551.184 325.083L550.161 325.672L549.155 326.256L548.132 326.845C547.487 325.846 546.623 324.503 545.961 323.509C538.791 323.416 530.169 323.387 530.169 323.387C528.455 326.62 527.046 330.011 525.961 333.512C525.942 333.944 525.995 334.376 526.119 334.79L526.495 336.21C526.608 336.638 526.717 337.049 526.83 337.476C526.944 337.904 527.062 338.349 527.175 338.777C527.288 339.205 527.415 339.684 527.538 340.146C527.66 340.608 527.787 341.087 527.909 341.549C528.032 342.011 528.168 342.524 528.299 343.02C528.431 343.516 528.567 344.029 528.703 344.543C522.95 346.102 522.95 346.102 518.213 344.854C516.507 343.685 516.249 343.809 515.992 343.934L515.204 344.313L514.386 344.718L513.535 345.132L512.667 345.55L511.781 345.974L510.862 346.406L509.948 346.855C509.528 345.887 508.971 344.608 508.55 343.566C500.822 341.021 492.689 345.645 485.018 342.222C478.922 321.337 478.922 321.337 475.187 321.615C474.866 321.702 430.102 345.421 429.641 346.353C426.831 352.102 421.607 355.865 417.896 360.886C406.584 362.338 406.584 362.338 401.437 361.458L386.588 395.006C392.164 416.051 372.181 423.447 371.978 423.502C372.621 424.643 373.094 425.875 373.381 427.156C373.665 438.082 366.675 447.018 365.316 457.49C363.725 469.896 374.489 479.175 373.748 491.368C373.617 493.403 372.412 496.315 367.376 498.596C375.298 503.785 375.298 503.785 375.804 504.327C375.294 506.572 375.292 508.904 375.798 511.15C377.911 511.484 380.049 511.629 382.188 511.583C394.57 527.446 405.202 527.261 406.276 527.208C408.935 529.956 412.113 532.135 415.62 533.616C419.128 535.098 422.895 535.851 426.696 535.833C437.405 519.856 476.204 505.309 476.601 505.164C478.542 506.594 480.037 508.556 480.91 510.819C487.521 511.815 493.856 507.732 500.578 509.762C493.341 532.482 493.341 532.482 503.925 539.095C489.994 560.364 488.142 589.034 465.075 604.636C477.536 598.284 489.567 591.103 501.089 583.142L501.396 582.93C509.137 577.311 509.137 577.311 535.268 554.24C535.525 554.011 535.769 553.768 535.999 553.51L536.851 552.619L537.635 551.747L538.032 551.327L538.395 550.917L538.774 550.503C581.461 510.732 624.391 404.805 623.507 392.574C612.824 408.856 612.824 408.856 609.661 408.759L607.548 406.398C607.993 401.986 607.993 401.986 606.462 393.195L603.853 391.628C601.492 365.201 579.036 347.592 574.027 322.322C576.818 326.353 577.86 327.959 580.091 331.517L583.184 329.506L586.074 330.556C586.392 331.754 586.987 333.316 587.406 334.487C591.775 347.075 599.921 357.558 606.155 369.109C611.881 379.77 604.817 392.394 611.239 402.941C618.467 384.367 628.379 366.883 633.032 347.284L633.498 344.865C638.584 328.817 636.594 322.332 629.681 300.623C629.07 314.468 629.07 314.468 627.281 317.777C626.405 317.483 625.276 317.055 624.374 316.731C624.015 316.437 623.785 316.012 623.734 315.547C623.653 315.239 623.673 314.904 623.625 314.587C623.577 314.27 623.546 313.948 623.52 313.643C623.494 313.339 623.366 313.062 623.407 312.739L623.291 311.89L623.202 311.144C623.143 310.921 623.089 310.716 623.034 310.511C622.98 310.305 622.944 310.168 622.898 309.997C614.045 299.376 612.91 298.033 612.186 291.334L615.181 290.798L615.678 287.674C619.766 298.449 619.986 298.665 623.59 302.273C627.013 300.612 627.013 300.612 629.028 291.52C629.782 297.991 629.782 297.991 631.551 301.931L632.138 300.929L632.691 299.935L633.485 299.17L633.958 298.217L634.402 297.29L634.828 296.367L635.208 295.476C635.331 295.186 635.454 294.896 635.555 294.593L635.429 291.381C635.83 292.208 636.358 293.312 636.742 294.143L637.402 290.682C639.302 295.32 639.506 295.815 640 306.372C639.725 301.569 639.389 295.168 639.113 290.365C635.131 257.335 634.814 254.633 629.373 233.075C619.142 199.665 618.958 199.037 611.124 181.519C595.93 151.142 595.665 150.554 585.215 134.864C566.017 108.469 565.256 107.446 552.45 93.6782C529.538 71.132 528.652 70.2534 513.505 58.5318C488.197 40.6324 486.713 39.5491 468.971 29.9427C447.569 19.4575 430.683 11.306 400.524 3.15682Z" fill="#F3F0EC"/>
<path d="M137.344 289.391C137.344 289.391 137.344 289.391 137.243 289.419L137.344 289.391ZM251.508 592.874L251.535 592.976C251.572 593.108 251.572 593.247 251.537 593.38C251.502 593.512 251.432 593.632 251.335 593.727L250.716 593.308C250.716 593.308 250.558 593.259 250.553 593.169C250.547 593.079 250.553 593.169 251.332 592.756L251.508 592.874ZM330.578 601.304C328.803 600.301 326.947 599.455 325.029 598.773C324.794 597.883 324.485 596.719 324.148 595.857C276.949 587.869 276.949 587.869 265.4 589.183C264.16 590.801 262.512 592.052 260.629 592.804L261.192 589.864C258.699 588.394 258.699 588.394 251.532 591.253C251.286 574.449 214.44 567.616 214.139 567.643L213.095 570.548C182.329 555.045 182.329 555.045 181.351 550.67C176.185 551.226 176.185 551.226 134.748 542.741L135.11 546.163L132.051 547.414C132.568 551.547 133.785 555.56 135.647 559.276C127.676 553.624 126.465 552.888 121.175 550.581C100.426 560.971 105.527 514.66 82.9875 519.594C76.2563 509.589 74.3239 496.616 64.3037 488.64L61.7519 490.028C62.2343 492.59 62.994 495.09 64.0174 497.483C63.4247 498.121 62.6065 499.002 62.086 499.639C61.85 499.501 39.67 482.386 33.5618 439.076C35.1989 440.377 36.6168 441.937 37.7602 443.697L37.727 440.423C38.3227 438.428 38.403 438.663 38.497 438.949L38.9685 440.728C39.0411 441.002 39.1181 441.293 39.1907 441.567L39.7891 443.825C39.8435 444.031 39.8979 444.236 39.9523 444.441C41.2974 446.001 42.7713 447.442 44.358 448.749C44.626 446.753 44.4292 444.722 43.7834 442.816L46.0164 440.909C66.8896 447.412 67.854 470.898 81.9592 483.068C79.1128 463.428 58.2014 447.474 70.4138 424.781L74.1645 423.948C81.3961 409.629 70.8442 390.885 85.2948 378.351C87.3728 378.493 89.4599 378.407 91.5196 378.095L93.1597 374.771C91.0241 371.297 90.7025 370.357 91.0224 365.063C100.189 357.976 105.675 346.789 116.494 341.491C116.896 349.305 103.914 354.583 110.338 362.745L129.957 345.417C128.197 341.787 128.162 341.723 122.2 339.689L119.768 339.339C112.03 335.732 118.656 325.08 111.175 321.349C106.959 322.821 105.683 323.277 100.174 328.492C101.174 321.656 107.508 318.803 110.878 313.727C111.05 313.827 128.304 323.236 139.541 307.263C140.741 306.112 141.047 306.103 141.543 306.06L142.753 305.971L144.001 305.889L145.244 305.791L147.807 305.61L149.123 305.51L150.434 305.393C149.725 287.797 149.725 287.797 144.861 285.319C142.631 287.161 140.061 288.536 137.301 289.366C139.941 286.792 142.215 283.862 144.061 280.658C142.363 279.385 140.942 277.773 139.886 275.921L137.039 276.949C135.262 274.826 133.719 272.971 134.075 258.919L131.507 257.029L131.569 256.37C131.51 256.148 131.591 255.906 131.621 255.678L131.681 254.946C131.622 254.724 131.728 254.438 131.736 254.198L131.768 253.565L131.836 252.795C131.874 252.528 131.895 252.266 131.917 252.003L131.984 251.233L129.064 249.383C128.423 246.073 128.481 242.665 127.886 239.323C110.165 257.585 110.165 257.585 109.691 248.269C108.473 224.851 108.473 224.851 98.9857 221.554L97.8992 218.823C91.0179 220.229 91.0179 220.229 68.8441 303.606C66.8975 303.313 64.91 303.678 63.1889 304.643C61.3178 302.509 61.3178 302.509 63.6709 277.17C62.2835 275.7 60.5291 274.635 58.593 274.09C54.774 267.397 50.5252 260.964 45.874 254.833C44.8288 249.725 47.8543 244.376 44.9158 239.377C50.4154 220.301 72.4131 214.964 79.425 197.146C78.5592 195.329 78.2289 193.299 78.4736 191.297C79.9823 192.584 81.8765 193.318 83.8493 193.38C85.0602 191.585 86.5353 189.076 87.5486 187.151C89.2749 188.23 90.6986 189.738 91.6835 191.532C104.85 186.883 107.223 164.766 107.19 164.573L104.204 163.842C103.185 164.65 92.5878 176.672 89.8714 182.983C89.604 181.973 89.0935 180.663 88.7448 179.62C93.4895 171.109 93.4895 171.109 93.5892 166.626C91.7988 168.106 90.1384 169.74 88.6268 171.51C91.0088 162.979 103.094 156.917 96.6826 146.203C86.8314 153.236 85.7545 167.172 75.4743 173.955L75.9568 170.78C75.3513 170.137 74.5729 169.321 73.9706 168.623C72.4152 170.148 70.742 171.546 68.9668 172.803C67.3412 172.143 65.2222 171.195 63.654 170.409C63.554 168.315 63.7947 166.217 64.3665 164.201C60.1103 166.07 59.6578 166.963 58.3767 170.409C57.7734 168.271 57.7373 166.01 58.2719 163.854L55.3127 164.252C60.0724 154.087 57.5591 142.206 63.4184 132.495C61.9531 133.809 60.1724 135.575 58.8358 136.964C59.9092 135.335 61.3566 133.2 62.456 131.6C59.2669 133.253 59.267 133.253 55.4866 137.67C58.8445 129.058 69.3704 115.331 69.4831 115.209C63.5282 123.259 55.7679 134.146 50.2205 142.434C35.0356 168.555 33.8139 170.719 25.5971 189.67C14.5178 219.171 13.8418 220.931 9.15555 239.861C2.70652 271.848 2.45524 273.09 0.948835 292.111C-0.22823 325.311 -0.26619 326.605 1.38455 345.632C5.81266 379.385 5.97895 380.697 10.869 399.563C20.0351 429.501 22.2099 436.614 37.0854 467.499L45.9506 483.435L46.4401 484.256C62.1035 509.628 112.458 551.219 112.84 551.427C114.59 552.42 114.715 552.551 114.833 552.721L115.166 553.089L115.495 553.44L115.807 553.796L116.114 554.134L116.4 554.46L116.703 554.782L116.988 555.108C120.274 556.968 123.757 558.409 127.133 560.061C127.007 559.178 126.856 557.991 126.731 557.108C148.78 567.638 158.842 592.198 179.983 603.818L180.197 603.87L180.389 603.91L180.585 603.967L181.143 603.816C237.151 632.248 284.976 639.04 315.245 639.732C330.337 639.677 330.337 639.677 338.309 639.241L347.46 638.596L347.138 638.683C343.035 638.529 343.035 638.529 333.313 636.744C334.711 635.173 334.711 635.173 341.27 632.552C328.178 613.874 328.178 613.874 330.449 601.228" fill="#F3F0EC"/>
<path d="M266.891 58.5844C266.083 62.3792 266.083 62.3792 257.116 70.2186C258.33 70.6234 259.534 70.9939 260.756 71.3598C260.339 76.2222 256.881 80.35 257.472 85.4531C263.072 83.9356 263.072 83.9356 264.751 85.0027C264.751 85.0027 266.841 89.8095 265.98 91.1433C263.913 94.3623 263.913 94.3623 265.014 98.245C267.203 99.0457 268.332 99.4733 271.567 100.596C269.089 109.996 269.089 109.996 267.098 111.104C267.515 112.678 267.515 112.678 264.042 116.682L264.236 118.646C257.484 120.127 257.484 120.127 256.793 122.038C259.304 126.86 266.045 125.198 268.513 129.994C268.991 130.91 269.809 137.418 263.822 135.63C251.4 131.935 251.4 131.935 253.81 138.911C264.221 138.162 264.221 138.162 265.559 138.9C265.969 145.647 258.611 155.453 256.32 158.238C254.976 160.089 253.009 161.378 250.789 161.864C247.889 162.485 245.149 160.77 242.251 161.261C233.578 162.749 238.93 173.641 234.034 178.158C231.239 180.75 231.239 180.75 214.981 186.328L214.321 186.507C213.686 186.731 213.12 187.12 212.681 187.635C212.241 188.15 211.943 188.773 211.817 189.441C210.49 193.469 212.075 198.082 210 202.092C206.246 209.344 206.246 209.344 204.854 216.891C201.466 234.424 196.682 233.135 196.447 233.07C196.212 233.005 181.395 223.009 180.269 219.922C180.183 219.597 169.35 187.818 175.138 174.073C176.168 171.967 177.82 170.238 179.866 169.124C183.907 166.581 183.907 166.581 185.279 156.838C179.045 157.06 179.045 157.06 178.806 152.944L183.476 151.678L183.723 150.145C183.778 149.873 183.816 149.606 183.858 149.356C183.901 149.106 183.964 148.796 183.997 148.511L184.148 147.645L184.32 146.718L184.495 145.736C184.549 145.391 184.615 145.025 184.685 144.676L179.113 149.652C181.66 116.558 181.66 116.558 180.904 114.323C180.691 113.519 180.691 113.519 166.992 114.242L165.621 114.613C164.747 113.915 164.45 113.684 163.641 108.988C165.999 105.91 172.398 106.927 172.236 101.525C169.82 100.346 168.077 103.349 165.748 102.568C165.381 101.182 165.381 101.182 176.053 92.1832C178.869 89.8065 182.332 88.5015 185.212 86.1624C185.673 85.7807 185.798 84.8849 185.899 84.3074L201.705 68.6734L207.031 65.9833C207.534 66.5806 207.533 66.5806 208.561 69.3646C209.255 68.2977 209.848 67.1669 210.332 65.9873C210.659 65.4404 210.743 65.4174 210.833 65.4116L212.677 64.9119C212.591 65.1368 212.489 65.3663 212.408 65.6083C212.327 65.8503 212.242 66.0751 212.139 66.3046L211.875 67.0181L211.615 67.7486L211.343 68.5009L211.054 69.2577C210.96 69.5214 210.867 69.7851 210.791 70.0442L210.494 70.8399L212.981 70.1659L213.934 67.1936L214.194 66.463C214.27 66.2039 214.368 65.9573 214.449 65.7153L214.7 64.9505L214.972 64.1983L219.202 63.0521C219.238 64.2159 219.309 65.3706 219.379 66.5252C220.855 64.0896 219.674 60.7969 221.846 58.5214C222.218 58.1455 222.218 58.1455 226.361 59.407C233.916 50.4831 233.916 50.4831 237.974 48.9618L238.911 48.8728C239.617 49.892 240.246 50.9684 240.901 52.0013C239.95 54.0928 237.666 54.7118 236.27 56.3554L237.6 57.6819C240.094 56.3462 241.283 53.5116 243.828 52.2351C244.577 51.8914 245.388 51.7065 246.211 51.6918C247.033 51.677 247.85 51.8328 248.611 52.1495C248.882 52.3511 248.909 52.4538 248.92 52.561L249.509 54.7853C237.3 62.6411 237.3 62.6411 236.384 64.2465C239.409 62.7299 242.155 60.7024 245.206 59.2154C245.26 59.4207 245.319 59.6431 245.374 59.8484L245.443 60.4531L246.282 63.6184C249.362 64.0859 248.864 59.673 251.369 59.3425C251.934 60.3083 251.933 60.3083 250.811 67.4342C251.145 67.4799 251.485 67.4581 251.81 67.3699C252.135 67.2818 252.44 67.1291 252.706 66.9207C254.706 65.0219 254.802 62.0985 256.295 59.9333C257.789 57.7681 260.92 58.7719 262.238 56.4894C263.181 56.3102 264.154 56.3739 265.067 56.6744C265.98 56.975 266.804 57.5028 267.463 58.2094L267.395 58.5028" fill="#F3F0EC"/>
<path d="M149.334 187.153C147.786 191.643 144.198 195.146 143.053 199.857L142.017 199.918L141.495 199.931L140.977 199.962L140.438 199.979L139.903 200.014L139.333 199.985L138.76 200.012C137.198 192.953 136.464 190.732 133.924 187.441C126.649 195.848 130.618 198.166 132.651 198.788C139.97 200.95 129.855 219.718 129.73 219.862C125.196 211.719 125.196 211.719 125.132 211.682C124.46 211.863 123.842 212.207 123.33 212.684C123.245 213.458 123.121 214.427 124.636 217.611C126.15 220.795 125.844 222.785 122.88 226.247C118.016 222.192 114.519 217.895 111.09 208.17C110.322 205.957 109.868 205.952 108.098 206.871C102.213 209.915 100.819 210.678 99.4253 208.36C98.0313 206.042 100.986 196.934 104.054 196.469C106.745 196.015 109.367 195.029 112.143 195.103C128.035 179.794 123.565 172.166 121.962 172.068C120.358 171.971 119.123 172.031 117.694 171.978C119.265 167.023 122.158 157.821 117.657 159.793C115.839 160.597 114.867 162.951 112.614 162.865C109.715 162.807 112.389 157.021 109.537 157.482C106.685 157.943 104.661 160.637 101.534 159.65C101.351 159.563 101.173 159.464 101.002 159.354C101.295 158.065 101.295 158.065 105.529 151.801C101.238 150.048 107.33 139.98 119.131 129.355C119.619 129.076 119.751 129.096 119.909 129.145L120.339 129.193L120.774 129.259L121.225 129.32L121.694 129.376L122.2 129.441L122.724 129.501L123.269 129.573C115.037 138.68 115.037 138.68 114.52 142.066C120.167 139.766 121.532 133.693 125.217 129.669L125.902 129.722L127.281 129.861L128.012 129.883L128.714 129.932L129.437 129.992L130.177 130.048L130.934 130.1C129.239 135.474 124.573 139.012 122.427 144.123C125.482 142.58 126.358 138.767 129.439 137.254C129.642 137.199 135.193 136.043 136.779 137.099C137.49 140.812 134.046 143.964 135.38 147.766C137.03 152.49 143.961 152.776 144.309 158.605C144.175 160.728 143.618 162.802 142.673 164.703C141.728 166.604 140.413 168.293 138.808 169.668C138.882 175.149 138.959 178.521 141.529 178.98C145.049 179.603 151.59 180.746 149.405 187.078" fill="#F3F0EC"/>
<path d="M199.658 67.5959C197.483 71.1563 191.009 71.7734 190.257 71.537C183.085 87.1057 175.181 89.3757 174.692 87.6008C174.008 85.0172 171.522 87.543 169.897 89.212C160.618 98.7496 158.374 100.476 154.132 101.442C153.024 103.283 153.164 105.592 151.932 107.375C149.889 109.975 147.603 112.37 145.104 114.525C143.38 115.89 141.817 114.095 140.163 114.287C138.897 114.548 137.668 114.962 136.499 115.518C135.301 114.008 132.399 113.731 132.748 110.941C132.886 109.37 133.437 107.865 134.343 106.581C135.25 105.297 136.479 104.282 137.903 103.639C137.638 104.554 137.39 105.465 137.146 106.393C142.245 102.298 147.82 98.7697 152.459 94.1019C155.15 91.3921 156.293 87.5615 158.693 84.7106C159.2 87.8558 159.403 87.8007 161.326 87.3899C161.036 82.7372 166.741 83.6671 169.268 81.5703C170.924 80.2692 172.393 78.7417 173.633 77.0317C169.765 78.7217 166.53 81.7071 162.283 82.5828C160.839 82.8824 162.074 80.4939 161.908 79.4569L161.44 79.1984C161.612 76.7678 163.728 71.8851 175.938 66.4311L176.296 66.7559C175.833 68.0917 175.23 69.3738 174.499 70.5805C177.966 69.0907 179.772 65.2273 183.54 64.1878L183.894 64.4955C183.882 64.7921 183.876 65.1789 183.859 65.4585C185.714 65.616 186.34 63.6675 187.762 63.0805L188.049 63.4795C187.506 64.5547 187.031 65.6635 186.626 66.7993C187.316 66.8692 187.316 66.8692 193.115 61.7219C196.488 62.9535 196.488 62.9535 201.388 62.4878C201.169 64.2936 200.58 66.0334 199.658 67.5959Z" fill="#F3F0EC"/>
<path d="M80.7166 150.272C79.9334 150.191 79.1457 150.093 78.3535 149.977C76.7689 152.552 76.2299 155.651 74.6577 158.204C74.3453 158.789 73.9203 159.305 73.4076 159.721C72.8949 160.137 72.305 160.445 71.6727 160.627C68.6948 161.434 61.1828 154.3 61.132 154.314C62.653 150.472 62.9515 146.192 65.0662 142.538C65.0662 142.538 66.8166 139.973 67.6549 141.837C67.7683 142.264 68.0792 142.822 69.1041 142.104C71.0353 140.701 70.9355 140.324 70.7496 139.623C70.5638 138.921 69.4803 138.665 69.2919 137.817C69.2381 136.997 69.4176 136.178 69.8093 135.458C70.4519 133.982 73.5045 130.514 74.1333 131.792C74.622 132.815 74.622 132.815 77.1788 129.94C78.8725 128.051 79.1227 127.763 84.743 124.883L86.7694 123.839C85.3319 125.806 83.9159 127.785 82.5214 129.776C84.1118 129.345 84.8106 127.671 86.3016 127.138C86.2941 127.452 86.2986 127.469 85.4691 129.198C84.4329 131.212 83.5307 133.295 82.7684 135.431C85.7301 132.373 87.5994 128.272 91.4072 126.012C90.2691 131.161 90.2691 131.161 88.5909 132.698C85.6602 135.326 80.875 143.958 82.0127 145.172C82.0444 145.291 82.0444 145.291 81.1804 150.312L80.6782 150.264" fill="#F3F0EC"/>
<path d="M567.155 521.944L566.664 522.554L563.848 525.958L562.852 527.126L554.629 536.47C547.573 543.718 537.996 553.226 530.586 560.094C538.854 552.853 546.619 545.044 553.826 536.724L555.394 534.978C558.314 531.693 561.354 528.522 564.179 525.153C567.966 520.624 571.146 515.581 575.096 511.192L575.393 510.873C575.115 511.535 570.861 517.382 567.16 521.961" fill="#F3F0EC"/>
<path d="M395.347 234.649L395.758 235.583C395.849 235.925 396.024 236.244 396.161 236.556C396.298 236.867 396.448 237.23 396.573 237.563L397.006 238.582L397.449 239.636L397.9 240.724C398.004 241.118 398.21 241.484 398.382 241.859L396.173 243.649C396.484 245.234 398.839 246.87 397.14 248.394C395.44 249.918 392.943 250.76 391.204 252.478C390.1 253.516 389.333 254.869 389.004 256.357L388.124 256.595C384.205 255.493 382.488 256.747 380.098 259.98C377.709 263.213 377.576 263.396 370.575 267.292C372.759 254.523 372.759 254.523 377.604 250.496L370.44 252.071C369.14 249.012 371.45 244.59 367.228 242.617C368.944 239.236 372.442 237.041 373.427 233.161C371.202 231.197 367.062 227.551 361.098 231.184C358.859 227.389 358.773 227.339 352.66 225.072C355.431 216.985 354.101 215.182 345.591 215.709C344.183 211.836 344.183 211.836 345.369 208.03C346.689 210.203 348.037 212.35 349.374 214.519C350.136 212.933 350.82 211.31 351.422 209.655C351.816 208.337 351.375 206.88 351.996 205.593C352.275 205.026 352.67 204.525 353.154 204.122C353.637 203.719 354.199 203.424 354.803 203.255C355.427 203.032 356.066 202.859 356.715 202.737C357.524 204.352 358.333 205.966 359.125 207.586L366.671 205.541C368.354 207.377 368.929 207.973 368.776 209.72C368.589 212.026 366.374 213.25 365.853 215.39C371.416 216.193 371.416 216.193 373.131 217.397C375.491 219.05 376.183 222.072 378.178 223.989C380.173 225.905 382.793 226.828 384.671 228.85C386.177 230.495 386.373 233.083 388.446 234.337C389.764 235.135 390.992 234.912 395.107 234.219C395.193 234.544 395.38 234.842 395.5 235.158" fill="#F3F0EC"/>
<path d="M397.441 24.294C400.089 25.3188 400.174 25.8459 400.229 26.1242C400.475 27.5981 401.142 28.8844 404.016 31.7916C404.052 31.9285 418.634 45.1421 419.255 45.4323C423.045 47.2111 426.444 49.7743 430.538 50.9207C432.656 51.5206 434.89 51.4654 436.992 52.1429C438.683 52.7258 440.295 53.5211 441.79 54.5104C441.481 55.1258 441.481 55.1258 438.522 58.3299L436.963 57.8537C434.995 57.2684 433.415 56.0278 431.518 55.4413C429.622 54.8549 428.049 55.0793 426.388 54.5575L425.285 54.1595C421.96 52.4546 418.745 50.5389 415.659 48.4239C415.704 47.5681 415.704 47.5681 409.398 44.2336C409.595 43.8135 409.783 43.3592 409.959 42.9265L409.051 42.5123L408.122 42.0855L407.197 41.6759L406.251 41.2537L404.325 40.4185L403.341 39.9884L402.34 39.5629C402.267 39.2891 402.093 39.0429 402.004 38.7737C403.092 37.8185 402.383 37.3321 400.084 35.7728C398.778 34.8799 398.777 34.8799 399.266 33.574C398.502 32.1303 396.501 32.1042 395.829 30.5259C395.302 29.2931 396.533 28.6663 396.784 27.6996C395.068 26.6975 393.919 26.0554 391.908 24.9682C392.077 24.9223 392.077 24.9223 392.51 23.888C393.646 22.975 397.389 24.2347 397.428 24.2426" fill="#F3F0EC"/>
<path d="M84.1446 123.046C82.8541 124.452 81.3117 125.598 79.5991 126.423C78.176 127.212 76.4632 127.181 75.0232 127.975C72.8086 129.198 71.2811 131.373 68.967 132.495C67.9724 132.984 67.9883 132.155 67.9995 132.06C69.1903 128.581 71.0619 125.379 73.5026 122.647C74.7039 121.295 89.2134 107.956 90.088 107.15C89.5046 108.097 88.9382 109.039 88.3932 109.993L91.7686 107.538C91.0554 109.364 89.6296 110.759 88.8735 112.559C88.746 112.77 88.6636 113.006 88.6319 113.252C88.6001 113.497 88.6196 113.747 88.689 113.984C88.8296 114.515 88.6193 115.158 87.933 116.811C87.5898 117.638 87.2467 118.465 86.776 119.289C86.082 120.663 85.1957 121.928 84.1446 123.046Z" fill="#F3F0EC"/>
<path d="M342.038 53.645C343.56 55.2132 344.823 56.5581 345.326 57.1554C341.774 57.4392 340.625 58.099 340.253 59.9787C333.929 55.8239 333.929 55.8239 331.607 55.683C332.263 57.3389 332.709 58.6118 333.305 60.4492C333.563 60.6725 333.818 60.8788 334.089 61.0804L334.872 61.7116L335.678 62.3553L336.466 63.0036L337.271 63.6473L338.848 64.9438L339.619 65.5967C338.793 69.3231 325.549 61.9088 325.411 61.7995C324.113 60.6657 323.908 58.7958 322.656 57.6312C321.91 56.935 320.901 57.0982 320.03 56.8209C320.713 59.0564 322.15 63.7283 316.525 60.7046C305.314 54.6651 309.961 52.5622 310.029 52.5439C310.452 52.4293 310.452 52.4293 314.319 55.0489C314.038 53.9881 313.866 53.338 313.562 52.1916L319.841 53.6445C318.26 52.6058 316.29 52.1495 315.111 50.5067C315.066 50.0875 315.127 49.6638 315.287 49.2744C315.446 48.885 315.701 48.5425 316.025 48.2784C316.374 48.1628 316.749 48.1505 317.104 48.2428C321.709 49.1957 325.652 52.2352 330.45 52.5488C332.202 52.6608 333.974 52.1623 335.689 52.3394C341.273 52.8803 341.416 53.0068 342.047 53.6792" fill="#F3F0EC"/>
<path d="M302.455 172.272C299.654 177.579 298.606 179.44 298.606 179.44C297.527 179.776 296.427 180.037 295.313 180.222C294.825 180.283 294.353 180.44 293.926 180.686C293.498 180.932 293.123 181.261 292.823 181.655C292.522 182.049 292.302 182.499 292.175 182.979C292.048 183.46 292.016 183.961 292.082 184.454C292.191 185.891 292.191 185.891 291.783 186.13C289.446 187.442 288.916 187.219 286.643 186.239C280.189 183.44 279.929 183.621 273.381 187.999C273.507 184.297 273.507 184.297 273.676 183.976C274.239 183.192 274.615 182.286 274.774 181.33C274.933 180.373 274.87 179.393 274.591 178.465C274.138 176.754 272.287 176.614 270.626 178.146C268.73 179.888 268.73 179.888 268.152 180.173L264.928 177.929C266.417 169.31 266.417 169.31 266.744 168.562C267.072 167.813 267.022 167.899 270.336 165.351C271.822 166.782 273.324 168.209 274.844 169.631C275.344 169.33 275.988 169.229 276.404 168.676C277.067 167.69 276.914 166.356 277.697 165.41C278.219 164.931 278.872 164.622 279.571 164.524C280.27 164.427 280.982 164.544 281.614 164.863C283.093 165.367 284.691 165.396 286.187 164.944C286.778 164.764 287.315 164.435 287.747 163.989C289.44 162.339 291.566 161.215 293.872 160.753C295.423 160.406 296.936 159.904 298.389 159.254C299.288 160.661 299.288 160.661 302.878 171.406L302.442 172.221" fill="#F3F0EC"/>
<path d="M136.217 125.405L134.2 129.087C133.636 128.216 133.119 127.316 132.651 126.389C132.257 125.451 132.62 124.289 131.876 123.463C131.348 122.909 130.075 123.511 129.287 123.89C124.077 126.402 121.026 126.935 121.041 122.2C121.033 114.573 127.16 102.79 134.169 103.715C134.951 103.998 134.903 104.433 132.724 107.774C127.278 116.31 130.474 116.6 133.564 116.899C139.398 117.427 139.398 117.427 139.576 117.893C139.633 118.042 139.674 118.197 139.698 118.355C139.757 119.054 138.627 121.157 136.288 125.33" fill="#F3F0EC"/>
<path d="M154.12 86.8125C151.228 90.6315 147.932 94.1195 144.291 97.2145L143.818 97.1409L143.333 97.089L142.864 97.0325L142.374 96.9635L141.902 96.8899L141.412 96.8209L140.939 96.7473L140.449 96.6783C141.736 93.3221 142.123 92.3187 146.104 88.4527C145.422 88.069 144.272 87.4268 147.334 84.2682C151.654 80.3661 156.171 76.6938 160.867 73.2661L161.019 73.2248L161.148 73.3C161.198 73.4882 158.04 82.101 157.952 82.1798C156.839 83.8477 155.551 85.3895 154.111 86.7782" fill="#F3F0EC"/>
<path d="M103.639 117.159C103.222 117.639 102.637 118.238 102.228 118.678C102.48 115.181 100.199 114.717 95.4363 117.273C92.9138 118.635 91.1135 118.206 93.1566 114.076C93.42 113.565 98.9845 107.326 100.713 106.527L100.798 106.504C100.636 107.263 99.5773 107.715 100.052 108.687C100.401 108.702 100.622 108.716 102.161 107.474C104.534 105.547 105.836 104.644 106.003 105.754L106.608 105.095L107.142 104.51L107.623 103.995L108.056 103.511L108.482 103.065L108.875 102.629L109.288 102.205L109.698 101.837L113.194 100.45C108.52 106.833 108.52 106.833 108.699 107.169C109.051 107.881 108.503 111.697 103.626 117.108" fill="#F3F0EC"/>
<path d="M162.537 333.546C162.279 339.007 157.992 340.553 155.954 338.062C155.011 336.75 154.136 335.389 153.332 333.986C152.999 335.396 152.738 336.806 152.417 338.195C152.353 338.432 152.337 338.785 152.144 338.947C151.505 339.098 150.838 339.08 150.207 338.894C149.577 338.709 149.004 338.362 148.545 337.887C148.032 337.182 148.032 337.182 146.207 331.937C141.704 333.285 139.298 333.992 135.022 335.169C132.603 328.985 135.606 321.771 135.729 321.481C136.722 319.139 139.335 318.322 140.596 316.238C141.857 314.154 142.139 311.657 143.666 309.758C143.99 309.291 144.411 308.901 144.9 308.617C145.388 308.332 145.933 308.16 146.494 308.111C147.251 308.078 148.007 308.177 148.73 308.404C148.821 308.746 148.755 309.112 148.773 309.456C148.791 309.799 148.802 310.182 148.821 310.525C148.839 310.868 148.854 311.268 148.882 311.645C148.909 312.023 148.903 312.41 148.93 312.787C148.958 313.165 148.956 313.569 148.988 313.964C149.02 314.359 149.023 314.78 149.055 315.174L149.11 316.407L149.173 317.673L150.26 317.599L151.286 317.504L152.284 317.435L153.238 317.342L154.163 317.274L155.937 317.124L156.802 317.036C160.473 324.936 160.473 324.936 158.51 328.273C158.748 329.265 159.333 330.136 160.157 330.724C161.612 331.082 162.645 331.352 162.537 333.546Z" fill="#F3F0EC"/>
<path d="M360.078 235.88C360.663 238.088 359.809 240.41 360.403 242.651C361.538 246 362.873 249.276 364.399 252.461C356.202 255.196 356.202 255.196 355.608 255.558C355.377 255.687 355.155 255.833 354.944 255.995C353.603 257.092 353.05 258.837 351.725 259.93C350.14 261.024 348.476 261.996 346.747 262.837C343.228 257.904 342.985 255.073 345.825 251.626C345.521 249.654 344.925 249.321 342.693 249.045C341.735 248.919 339.73 248.674 340.063 245.962C340.606 242.33 340.606 242.33 347.547 239.643C347.093 237.932 346.761 236.335 346.376 234.678L354.044 230.217C356.08 231.059 359.186 232.308 360.02 235.933" fill="#F3F0EC"/>
<path d="M96.3195 140.306C94.352 142.398 92.2373 144.344 89.9918 146.128C89.6096 145.783 89.3185 145.346 89.145 144.859C88.9714 144.371 88.9208 143.847 88.9978 143.335C89.1065 141.692 90.1847 140.354 90.5067 138.763C90.6761 137.965 90.3694 137.15 90.5602 136.365C90.5721 136.246 90.5958 136.129 90.6309 136.015C91.8804 133.588 93.4181 131.324 95.2097 129.273C94.8699 131.071 94.6694 132.299 94.3741 134.469C97.7142 129.897 97.7142 129.897 98.1593 129.318C98.6043 128.739 98.7549 127.322 99.5157 126.566C101.547 124.512 104.224 123.255 105.235 123.513C105.468 123.706 106.063 124.242 104.777 126.644C103.492 129.047 101.065 130.841 99.6555 133.185C98.5631 134.948 98.4642 137.176 97.3536 138.87C97.0329 139.366 96.6877 139.845 96.3195 140.306Z" fill="#F3F0EC"/>
<path d="M109.839 507.257C111.282 510.992 111.282 510.992 98.7043 508.898C98.319 507.444 98.1197 505.939 97.8743 504.465C97.8244 504.277 97.8917 503.984 97.7111 503.849C94.47 500.88 91.0344 498.135 87.4277 495.633C81.6684 491.692 76.982 490.431 73.7068 491.759C71.4197 486.07 72.3814 485.388 75.2866 486.086C81.5626 488.251 87.4573 491.415 92.7488 495.456C96.4917 498.495 101.14 499.748 105.256 502.209C107.228 503.395 108.825 505.125 109.859 507.196" fill="#F3F0EC"/>
<path d="M329.21 42.1214C330.134 42.6681 330.912 43.4369 331.472 44.3596C332.033 45.2824 332.36 46.3307 332.425 47.4119C332.38 47.5816 332.299 47.7394 332.188 47.8742C332.076 48.009 331.937 48.1174 331.779 48.192L327.122 50.4625C326.112 50.5527 325.299 49.9478 324.377 49.6842L322.614 49.19L322 48.788L321.359 48.3563C321.136 48.1969 320.9 48.0591 320.681 47.9167L319.955 47.4349L319.19 46.9452L318.378 46.4134L317.485 45.8485L316.544 45.2415C318.363 44.5288 320.252 44.0169 322.179 43.7148C323.044 43.7536 323.907 43.6071 324.712 43.285C325.799 42.7337 325.244 41.8022 324.987 41.3769C324.95 41.24 324.919 41.1202 325.099 40.9797C325.279 40.8391 325.669 40.7337 325.929 40.5531C327.037 41.0218 328.109 41.5707 329.139 42.1957" fill="#F3F0EC"/>
<path d="M113.187 93.3731L112.179 94.3613L111.167 95.3324L110.177 96.316L109.173 97.3213L108.158 98.3484L107.113 99.4016L106.044 100.498C105.543 100.249 105.032 99.9655 104.539 99.6775C101.522 101.98 99.7522 103.377 97.1267 105.445C94.2665 104.643 101.245 97.3058 104.112 96.0153C104.366 95.872 104.651 95.7949 104.941 95.7907C105.287 95.8621 105.858 95.9641 108.325 94.8737C110.071 94.0706 111.572 92.8205 113.38 92.184C113.701 92.0968 113.904 92.3168 114.148 92.4158L113.124 93.4086" fill="#F3F0EC"/>
<path d="M116.704 112.538C110.848 119.865 109.332 119.414 106.677 118.428C107.734 115.412 109.184 112.552 110.989 109.924C113.04 107.058 115.654 103.782 116.525 104.536C116.51 104.962 116.51 104.962 114.997 108.215C119 105.938 119.724 105.522 120.491 105.681C120.878 105.979 121.52 106.484 116.7 112.521" fill="#F3F0EC"/>
<path d="M114.583 129.378C113.146 131.764 111.21 133.803 108.912 135.353C108.766 135.484 108.535 135.639 108.384 135.753C106.873 136.896 104.949 137.435 103.36 138.489C101.771 139.543 100.898 141.449 99.2283 142.47C98.837 142.704 98.149 142.982 97.9562 142.118C97.8733 141.233 98.0397 140.342 98.4361 139.549C98.5764 139.389 98.7441 139.257 98.931 139.158C100.034 138.108 100.986 136.905 101.757 135.586C102.664 133.97 103.733 132.452 104.945 131.055C107.403 128.426 110.832 125.352 113.306 125.653C114.446 125.986 114.512 126.372 114.974 128.869L114.613 129.352" fill="#F3F0EC"/>
<path d="M135.882 517.054C136.154 517.603 136.405 518.141 136.69 518.668C131.571 518.442 125.9 518.053 125.395 518.061C124.679 517.918 123.953 517.832 123.224 517.806C121.996 517.827 121.488 519.468 120.128 519.195C116.837 518.546 114.171 516.426 111.096 515.224C111.725 512.67 111.725 512.67 111.821 512.552C111.917 512.434 112.633 512.332 114.677 513.612C116.163 514.566 116.668 514.283 116.926 513.406C117.183 512.529 117.294 512.059 115.92 510.91C113.946 509.28 112.291 506.593 118.601 506.864C120.002 507.016 120.261 507.037 124.475 509.527C135.332 515.937 135.684 516.649 135.886 517.071" fill="#F3F0EC"/>
<path d="M128.243 97.8396C124.474 101.685 123.717 99.3775 123.725 99.3387C123.824 97.5883 126.05 97.0949 126.084 95.3069C126.088 94.6371 126.167 93.9698 126.319 93.3178L126.459 93.0233C126.781 92.4294 127.137 91.8552 127.526 91.3036C129.928 88.0488 132.594 86.1344 133.424 86.1847C133.601 86.3579 133.816 86.4879 134.05 86.5651C137.024 88.0699 128.249 97.7278 128.166 97.8238" fill="#F3F0EC"/>
<path d="M355.262 2.40091C362.541 2.90442 364.839 3.91372 365.489 4.6546L365.512 4.74014C365.022 5.42307 357.706 4.70966 357.629 4.69377C357.552 4.67789 347.53 2.71721 347.422 2.58156C347.313 2.44591 349.05 1.88356 355.235 2.29825" fill="#F3F0EC"/>
<path d="M87.3617 208.347C84.3915 207.061 82.7033 208.765 80.4556 212.602C78.4107 216.108 76.9986 214.749 76.6486 213.633C75.1193 208.546 79.509 198.353 83.8773 196.839C84.249 196.738 84.6329 196.689 85.0179 196.695C86.0106 196.981 86.9285 197.485 87.706 198.172C88.4836 198.858 89.1015 199.71 89.5157 200.666C89.6215 202.074 89.3716 203.486 88.7894 204.769C88.3123 205.984 87.9283 207.235 87.6406 208.509L87.4352 208.418" fill="#F3F0EC"/>
<path d="M370.219 2.25501C374.742 3.10188 374.742 3.10188 375.068 3.58185C374.983 3.80673 374.637 3.93723 372.706 4.11186C371.617 4.33753 370.51 4.46563 369.398 4.49469C369.263 4.53136 359.764 2.35553 359.755 2.32131L359.733 2.23576C360.534 1.63347 369.099 2.06353 370.152 2.27334" fill="#F3F0EC"/>
<path d="M372.355 0.722686C375.393 1.23817 378.837 1.84559 378.971 2.7628C378.012 2.99049 377.021 3.04805 376.042 2.93293C371.511 2.32683 367.097 1.34063 362.6 0.725361C363.93 0.915458 365.282 0.889554 366.605 0.648628C366.578 0.545969 366.578 0.545968 366.144 0.278353C368.223 0.275123 370.298 0.423624 372.355 0.722686Z" fill="#F3F0EC"/>
<path d="M136.133 96.2709C134.247 98.6098 131.796 100.417 129.018 101.518C130.458 98.4267 132.418 95.6121 134.811 93.1997C137.489 90.4386 138.044 89.8663 140.018 90.2667L140.663 90.4405C139.149 92.3912 137.798 94.4809 136.151 96.3393" fill="#F3F0EC"/>
<path d="M82.6624 160.711C82.1057 161.707 81.3764 162.595 80.5093 163.33L80.1642 163.534C79.5575 163.845 78.8445 163.891 78.1846 164.07C77.5247 164.249 77.2513 164.928 76.6603 165.161C76.5419 165.194 76.2712 165.267 76.1817 164.998C75.8916 163.903 77.2208 161.049 75.7953 161.691C81.4476 154.347 82.3083 153.215 83.3568 153.408C83.5238 153.491 83.858 153.657 83.7194 154.776C83.1926 159.632 83.1926 159.632 82.5923 160.583" fill="#F3F0EC"/>
<path d="M120.333 93.4532C119.108 94.865 117.738 96.1401 116.245 97.2566C115.677 97.5756 112.06 99.0508 112.026 99.0599C111.413 99.2337 110.781 99.3311 110.144 99.3497C117.425 92.6089 118.868 91.2094 120.403 92.077C120.648 92.249 120.856 92.4861 121.118 92.6535L120.333 93.4532Z" fill="#F3F0EC"/>
<path d="M126.389 88.0365C124.21 89.5989 124.21 89.5989 123.99 89.6585C122.536 89.9194 121.058 90.0123 119.584 89.9354C120.387 89.2042 121.463 88.1977 122.785 87.2342C124.535 85.8982 126.428 84.7618 128.194 83.4212C128.17 83.7396 128.308 83.849 128.685 84.0402C129.062 84.2314 129.158 84.3888 128.934 84.9812C128.268 86.1489 127.41 87.1936 126.398 88.0707" fill="#F3F0EC"/>
<path d="M118.517 118.208C117.623 119.665 116.475 120.945 115.129 121.987C114.322 122.499 112.879 122.597 112.778 121.872C112.778 121.872 112.747 119.497 115.746 116.923C116.564 116.178 117.462 115.528 118.425 114.987C119.273 114.629 120.216 114.905 121.042 114.737C120.186 115.885 119.347 117.03 118.517 118.208Z" fill="#F3F0EC"/>
<path d="M145.383 84.0259C143.936 85.4082 140.974 87.9164 141.012 86.8974C141.05 85.8784 141.817 85.4873 141.53 84.6113C143.256 83.1168 144.883 81.5208 146.738 80.1744C147.065 80.0959 147.402 80.0727 147.736 80.1059C148.928 80.4981 145.429 83.995 145.383 84.0259Z" fill="#F3F0EC"/>
<path d="M180.859 162.62C180.345 164.025 179.322 165.181 177.998 165.853C177.139 166.174 176.228 166.333 175.312 166.324C173.998 166.283 172.689 166.519 171.47 167.017L174.914 159.482C175.977 159.551 177.043 159.43 178.065 159.123C178.463 159.041 178.875 159.069 179.259 159.204C179.642 159.339 179.983 159.576 180.244 159.89C180.603 160.241 180.851 160.692 180.956 161.186C181.061 161.68 181.019 162.194 180.834 162.664" fill="#F3F0EC"/>
<path d="M467.064 305.331C467.514 306.593 467.583 307.961 467.263 309.262C466.943 310.564 466.247 311.74 465.265 312.641C461.314 311.419 461.314 311.419 461.132 311.211C460.079 310.207 459.325 308.925 458.955 307.51C458.689 306.208 458.792 304.856 459.251 303.61C459.709 302.363 460.505 301.273 461.548 300.462L461.887 300.371C462.971 299.967 464.16 299.956 465.251 300.339C465.705 302.05 466.513 303.665 467.034 305.358" fill="#F3F0EC"/>
<path d="M307.044 123.552C307.371 124.784 306.827 126.563 305.578 129.927L301.617 128.048C301.746 126.345 301.42 124.636 301.638 122.926C301.697 121.981 302.031 121.074 302.597 120.319C305.438 121.732 306.765 122.362 307.078 123.543" fill="#F3F0EC"/>
<path d="M113.873 182.403C113.134 184.198 111.138 185.766 107.997 188.011C109.658 181.894 110.283 179.598 113.618 176.787C114.281 178.586 114.37 180.55 113.873 182.403Z" fill="#F3F0EC"/>
<path d="M108.383 515.995C108.323 517.753 107.013 517.668 104.712 516.99C103.272 516.555 103.272 516.555 99.0032 513.035C100.119 512.42 101.396 512.171 102.658 512.32C104.724 512.884 106.652 513.872 108.324 515.223C108.352 515.445 108.362 515.669 108.356 515.892" fill="#F3F0EC"/>
<path d="M449.774 54.3263C449.544 54.4349 449.339 54.5928 449.175 54.7893C449.011 54.9857 448.892 55.216 448.824 55.4639C448.612 55.9617 448.309 56.6672 446.695 56.4626C445.081 56.258 444.763 56.0142 444.495 55.7567C443.488 54.966 442.594 54.1262 442.923 53.4503C442.955 53.3822 442.992 53.3169 443.034 53.2551L444.131 52.2611C444.23 52.1909 444.349 52.1584 444.469 52.1694C446.326 52.7046 448.133 53.4058 449.867 54.2646L449.765 54.2921" fill="#F3F0EC"/>
<path d="M496.812 305.487L497.034 306.325C497.075 306.479 497.111 306.616 497.152 306.77L497.646 308.635C497.687 308.789 497.732 308.96 497.778 309.131L498.054 310.175C498.1 310.346 498.15 310.534 498.199 310.722C498.249 310.91 498.299 311.099 498.349 311.287C498.399 311.475 498.449 311.663 498.503 311.868C498.558 312.074 498.607 312.262 498.662 312.467C498.716 312.673 498.775 312.895 498.83 313.1C497.157 312.824 495.462 312.706 493.767 312.748C493.3 312.828 492.841 312.952 492.397 313.12C491.551 313.349 490.782 313.869 489.959 314.184L489.755 313.414C489.723 313.294 489.691 313.174 489.659 313.054L488.535 308.811L496.927 306.537L497.041 306.965" fill="#F3F0EC"/>
<path d="M443.685 67.7495C444.743 68.3466 445.675 69.1466 446.431 70.1047C446.958 71.1355 445.761 71.7531 445.761 71.7531C445.304 71.8769 445.304 71.8769 439.325 67.9956L439.472 67.8642L439.81 67.7725L439.94 67.6457L441.564 67.2055C442.401 67.694 443.225 68.2042 444.032 68.719" fill="#F3F0EC"/>
<path d="M95.7374 127.094C94.4008 127.456 93.5445 127.578 93.2562 127.106C92.9679 126.634 93.9446 124.297 93.9569 124.275C93.9693 124.254 95.9672 122.007 97.0598 122.298C97.1984 122.404 97.2981 122.555 97.3432 122.725C97.3883 122.895 97.3764 123.076 97.3092 123.239C96.9914 124.572 96.3316 125.777 95.8942 127.07L95.6912 127.125" fill="#F3F0EC"/>
<path d="M115.151 168.211L110.497 174.735C110.865 170.582 111.242 167.693 111.242 167.693C111.385 167.342 111.739 167.173 111.994 166.902L112.833 166.033L115.064 163.705C115.176 165.087 115.411 166.453 115.429 167.824C115.466 167.96 115.247 168.093 115.151 168.211Z" fill="#F3F0EC"/>
<path d="M383.152 104.579C384.577 106.192 385.616 108.129 387.121 109.702C385.99 108.752 384.674 108.053 383.259 107.65C379.611 106.272 377.903 105.231 377.906 101.618C379.967 101.895 381.848 102.951 383.169 104.575" fill="#F3F0EC"/>
<path d="M568.528 283.762C568.929 285.602 568.739 287.523 567.986 289.246C566.864 291.237 564.587 291.817 563.139 293.402C563.668 289.169 564.279 288.123 568.358 282.708C568.439 283.016 568.548 283.427 568.528 283.762Z" fill="#F3F0EC"/>
<path d="M100.666 104.157L100.453 104.38L100.223 104.607L100.015 104.847L99.1627 105.738L98.9666 105.956L98.7582 106.196L97.9062 107.087L97.6977 107.327L97.4847 107.55L97.2763 107.789L97.0464 108.017L96.6294 108.497L96.3995 108.724L96.1741 108.968L95.9657 109.208L95.7403 109.453L95.4687 109.728L95.2433 109.972L95.0055 110.239L94.7802 110.483L94.3046 111.015L94.0499 111.286L93.8167 111.569C94.5976 109.726 95.2628 108.335 95.2628 108.335C95.2628 108.335 99.817 103.69 100.845 103.943L100.632 104.166" fill="#F3F0EC"/>
<path d="M538.174 289.731C539.084 297.682 538.74 297.683 529.884 297.662C531.595 296.644 533.2 295.454 534.673 294.109C535.975 292.457 537.114 290.68 538.073 288.805C538.146 289.078 538.241 289.438 538.174 289.731Z" fill="#F3F0EC"/>
<path d="M460.402 287.845L461.54 292.14C461.585 292.311 461.631 292.482 461.681 292.67L462.388 295.339C460.714 297.168 459.749 296.88 458.016 296.157C456.889 295.57 455.608 295.353 454.352 295.536C455.777 293.316 457.672 290.547 459.52 287.663L459.624 288.056" fill="#F3F0EC"/>
<path d="M143.635 516.255L144.673 520.173C144.475 520.795 144.364 520.788 143.604 520.793C142.689 520.805 141.786 520.59 140.972 520.167C139.57 518.977 138.472 517.463 137.771 515.753L143.101 514.309L143.169 514.566" fill="#F3F0EC"/>
<path d="M363.405 187.941C363.653 188.728 363.707 189.564 363.562 190.377C363.417 191.19 363.078 191.954 362.573 192.604C358.084 189.896 358.084 189.896 361.179 185.151C362.134 185.884 362.898 186.842 363.405 187.941Z" fill="#F3F0EC"/>
<path d="M378.586 108.366C378.586 108.366 379.617 110.544 378.929 111.372C378.242 112.2 377.422 112.184 375.567 112.026C376.004 109.982 376.384 108.266 376.578 106.947C378.538 108.25 378.538 108.25 378.586 108.366Z" fill="#F3F0EC"/>
<path d="M386.175 101.414C386.332 101.701 386.455 102.007 386.542 102.323C386.651 102.734 386.764 103.161 386.873 103.572C386.171 103.249 385.432 102.991 384.814 102.644C384.501 102.512 384.205 102.339 383.934 102.131C383.819 102.026 383.738 101.888 383.703 101.735C383.598 101.342 383.6 100.938 383.53 100.535C386.017 101.163 386.017 101.163 386.175 101.414Z" fill="#F3F0EC"/>
<path d="M417.386 28.1128L420.586 29.9232C417.308 28.7759 415.039 28.0153 413.253 27.4355C414.656 27.5154 416.045 27.7541 417.395 28.147" fill="#F3F0EC"/>
<path d="M361.969 197.444C361.92 197.805 361.931 198.188 361.882 198.549C361.832 198.911 361.802 198.864 361.785 198.869C361.545 198.965 361.296 199.033 361.041 199.071C360.516 199.213 359.949 199.128 359.398 199.167C359.387 198.795 359.403 198.423 359.447 198.054C359.496 197.894 359.542 197.863 359.74 197.791C360.476 197.589 361.224 197.441 361.981 197.349C361.987 197.396 361.999 197.442 362.017 197.486" fill="#F3F0EC"/>
</svg>
