<svg width="24" height="24" viewBox="0 0 24 24" fill="none" xmlns="http://www.w3.org/2000/svg">
<path d="M22.7311 4.18092C22.6102 3.51784 22.3639 2.91031 22.0171 2.41967C21.6703 1.92904 21.2352 1.57269 20.756 1.38661C19.0048 0.799805 12 0.799805 12 0.799805C12 0.799805 4.99532 0.799805 3.24414 1.4425C2.76485 1.62858 2.32984 1.98493 1.98303 2.47556C1.63623 2.96619 1.38991 3.57373 1.26897 4.2368C0.948478 6.67561 0.791708 9.14963 0.800631 11.6277C0.789207 14.1245 0.945987 16.6174 1.26897 19.0746C1.4023 19.7171 1.65414 20.3015 2.00013 20.7714C2.34613 21.2413 2.7746 21.5808 3.24414 21.7571C4.99532 22.3998 12 22.3998 12 22.3998C12 22.3998 19.0048 22.3998 20.756 21.7571C21.2352 21.571 21.6703 21.2147 22.0171 20.724C22.3639 20.2334 22.6102 19.6259 22.7311 18.9628C23.0491 16.5424 23.2059 14.0872 23.1995 11.6277C23.2109 9.13097 23.0541 6.63809 22.7311 4.18092V4.18092Z" stroke="#59595B" stroke-width="1.5" stroke-linecap="round" stroke-linejoin="round"/>
<path d="M9.75 15.02L15.5 11.75L9.75 8.47998V15.02Z" stroke="#59595B" stroke-width="2" stroke-linecap="round" stroke-linejoin="round"/>
</svg>
