<svg width="130" height="40" viewBox="0 0 130 40" fill="none" xmlns="http://www.w3.org/2000/svg">
<path d="M0 9C0 6.20435 0 4.80653 0.456723 3.7039C1.06569 2.23373 2.23373 1.06569 3.7039 0.456723C4.80653 0 6.20435 0 9 0H121C123.796 0 125.193 0 126.296 0.456723C127.766 1.06569 128.934 2.23373 129.543 3.7039C130 4.80653 130 6.20435 130 9V31C130 33.7957 130 35.1935 129.543 36.2961C128.934 37.7663 127.766 38.9343 126.296 39.5433C125.193 40 123.796 40 121 40H9C6.20435 40 4.80653 40 3.7039 39.5433C2.23373 38.9343 1.06569 37.7663 0.456723 36.2961C0 35.1935 0 33.7957 0 31V9Z" fill="#0C0D10"/>
<path d="M86.5548 19.2013V21.4924H85.1188V22.9948H86.5548V28.0998C86.5548 29.843 87.3434 30.5402 89.3273 30.5402C89.6759 30.5402 90.0079 30.4987 90.2984 30.4489V28.9631C90.0494 28.988 89.8917 29.0046 89.6178 29.0046C88.7296 29.0046 88.3395 28.5895 88.3395 27.6432V22.9948H90.2984V21.4924H88.3395V19.2013H86.5548Z" fill="white"/>
<path d="M95.3523 30.6647C97.9919 30.6647 99.6106 28.8967 99.6106 25.9665C99.6106 23.0529 97.9836 21.2765 95.3523 21.2765C92.7126 21.2765 91.0857 23.0529 91.0857 25.9665C91.0857 28.8967 92.7043 30.6647 95.3523 30.6647ZM95.3523 29.0793C93.8 29.0793 92.9285 27.9421 92.9285 25.9665C92.9285 24.0075 93.8 22.862 95.3523 22.862C96.8962 22.862 97.7761 24.0075 97.7761 25.9665C97.7761 27.9338 96.8962 29.0793 95.3523 29.0793Z" fill="white"/>
<path d="M100.995 30.4904H102.78V25.153C102.78 23.883 103.735 23.028 105.088 23.028C105.403 23.028 105.934 23.0861 106.084 23.1359V21.3762C105.893 21.3263 105.553 21.3014 105.287 21.3014C104.108 21.3014 103.104 21.9489 102.847 22.8371H102.714V21.4509H100.995V30.4904Z" fill="white"/>
<path d="M110.515 22.7956C111.835 22.7956 112.698 23.717 112.74 25.1364H108.174C108.274 23.7253 109.195 22.7956 110.515 22.7956ZM112.731 28.05C112.399 28.7555 111.661 29.1457 110.582 29.1457C109.154 29.1457 108.232 28.1413 108.174 26.5558V26.4562H114.558V25.8337C114.558 22.9948 113.039 21.2765 110.523 21.2765C107.975 21.2765 106.356 23.111 106.356 25.9997C106.356 28.8884 107.942 30.6647 110.532 30.6647C112.599 30.6647 114.043 29.6686 114.45 28.05H112.731Z" fill="white"/>
<path d="M74.8512 27.1522C74.9889 29.372 76.8386 30.7915 79.5917 30.7915C82.5341 30.7915 84.3753 29.3031 84.3753 26.9286C84.3753 25.0616 83.3257 24.0292 80.779 23.4355L79.4111 23.1C77.7936 22.7214 77.1397 22.2138 77.1397 21.3277C77.1397 20.2092 78.155 19.4779 79.6778 19.4779C81.1232 19.4779 82.1212 20.192 82.3019 21.3363H84.1774C84.0656 19.2456 82.2244 17.7744 79.7036 17.7744C76.9935 17.7744 75.1867 19.2456 75.1867 21.4567C75.1867 23.2807 76.2106 24.3647 78.4561 24.8895L80.0563 25.2767C81.6996 25.6638 82.4223 26.2317 82.4223 27.1781C82.4223 28.2793 81.2866 29.0794 79.738 29.0794C78.0775 29.0794 76.9247 28.3309 76.7612 27.1522H74.8512Z" fill="white"/>
<path d="M56.3639 21.3014C55.1354 21.3014 54.0729 21.9157 53.525 22.945H53.3922V21.4509H51.6739V33.4953H53.4586V29.1208H53.5997C54.0729 30.0754 55.0939 30.6398 56.3805 30.6398C58.6632 30.6398 60.1158 28.8386 60.1158 25.9665C60.1158 23.0944 58.6632 21.3014 56.3639 21.3014ZM55.8575 29.0378C54.3634 29.0378 53.4254 27.8591 53.4254 25.9748C53.4254 24.0822 54.3634 22.9035 55.8658 22.9035C57.3766 22.9035 58.2814 24.0573 58.2814 25.9665C58.2814 27.884 57.3766 29.0378 55.8575 29.0378Z" fill="white"/>
<path d="M66.3607 21.3014C65.1322 21.3014 64.0697 21.9157 63.5218 22.945H63.389V21.4509H61.6707V33.4953H63.4554V29.1208H63.5965C64.0697 30.0754 65.0907 30.6398 66.3773 30.6398C68.66 30.6398 70.1126 28.8386 70.1126 25.9665C70.1126 23.0944 68.66 21.3014 66.3607 21.3014ZM65.8543 29.0378C64.3602 29.0378 63.4222 27.8591 63.4222 25.9748C63.4222 24.0822 64.3602 22.9035 65.8626 22.9035C67.3734 22.9035 68.2782 24.0573 68.2782 25.9665C68.2782 27.884 67.3734 29.0378 65.8543 29.0378Z" fill="white"/>
<path d="M48.4719 30.4904H50.5196L46.0371 18.0755H43.9637L39.4813 30.4904H41.4601L42.6043 27.1953H47.3363L48.4719 30.4904ZM44.9015 20.3297H45.0477L46.8459 25.5778H43.0947L44.9015 20.3297Z" fill="white"/>
<path d="M40.6797 8.71118V14.7002H42.842C44.6267 14.7002 45.6602 13.6003 45.6602 11.687C45.6602 9.80273 44.6184 8.71118 42.842 8.71118H40.6797ZM41.6094 9.55786H42.7383C43.9792 9.55786 44.7139 10.3464 44.7139 11.6995C44.7139 13.0732 43.9917 13.8535 42.7383 13.8535H41.6094V9.55786Z" fill="white"/>
<path d="M48.8252 14.7874C50.1451 14.7874 50.9544 13.9033 50.9544 12.4382C50.9544 10.9814 50.1409 10.0933 48.8252 10.0933C47.5054 10.0933 46.6919 10.9814 46.6919 12.4382C46.6919 13.9033 47.5013 14.7874 48.8252 14.7874ZM48.8252 13.9946C48.0491 13.9946 47.6133 13.426 47.6133 12.4382C47.6133 11.4587 48.0491 10.886 48.8252 10.886C49.5972 10.886 50.0372 11.4587 50.0372 12.4382C50.0372 13.4219 49.5972 13.9946 48.8252 13.9946Z" fill="white"/>
<path d="M57.8465 10.1804H56.9542L56.149 13.6294H56.0785L55.1488 10.1804H54.2938L53.3641 13.6294H53.2977L52.4884 10.1804H51.5836L52.8287 14.7002H53.7459L54.6756 11.3716H54.7462L55.68 14.7002H56.6056L57.8465 10.1804Z" fill="white"/>
<path d="M58.8742 14.7002H59.7665V12.0564C59.7665 11.3508 60.1857 10.9109 60.8456 10.9109C61.5055 10.9109 61.8209 11.272 61.8209 11.9983V14.7002H62.7133V11.7742C62.7133 10.6992 62.1571 10.0933 61.1486 10.0933C60.4679 10.0933 60.0197 10.3962 59.7997 10.8984H59.7333V10.1804H58.8742V14.7002Z" fill="white"/>
<path d="M64.1186 14.7002H65.0109V8.4165H64.1186V14.7002Z" fill="white"/>
<path d="M68.3669 14.7874C69.6868 14.7874 70.4961 13.9033 70.4961 12.4382C70.4961 10.9814 69.6826 10.0933 68.3669 10.0933C67.0471 10.0933 66.2336 10.9814 66.2336 12.4382C66.2336 13.9033 67.043 14.7874 68.3669 14.7874ZM68.3669 13.9946C67.5908 13.9946 67.155 13.426 67.155 12.4382C67.155 11.4587 67.5908 10.886 68.3669 10.886C69.1389 10.886 69.5789 11.4587 69.5789 12.4382C69.5789 13.4219 69.1389 13.9946 68.3669 13.9946Z" fill="white"/>
<path d="M73.1548 14.0237C72.6692 14.0237 72.3165 13.7871 72.3165 13.3804C72.3165 12.9819 72.5987 12.7703 73.2212 12.7288L74.3252 12.6582V13.0359C74.3252 13.5962 73.8272 14.0237 73.1548 14.0237ZM72.9266 14.7749C73.5201 14.7749 74.014 14.5176 74.2837 14.0652H74.3543V14.7002H75.2134V11.6123C75.2134 10.6577 74.5743 10.0933 73.4412 10.0933C72.4161 10.0933 71.6856 10.5913 71.5943 11.3674H72.4576C72.5572 11.0479 72.9017 10.8652 73.3997 10.8652C74.0098 10.8652 74.3252 11.135 74.3252 11.6123V12.0024L73.1009 12.073C72.0259 12.1394 71.42 12.6084 71.42 13.4219C71.42 14.2478 72.055 14.7749 72.9266 14.7749Z" fill="white"/>
<path d="M78.2416 14.7749C78.8641 14.7749 79.3912 14.4802 79.661 13.9863H79.7315V14.7002H80.5865V8.4165H79.6942V10.8984H79.6278C79.3829 10.4004 78.86 10.1057 78.2416 10.1057C77.1002 10.1057 76.3656 11.0105 76.3656 12.4382C76.3656 13.8701 77.0919 14.7749 78.2416 14.7749ZM78.4947 10.9067C79.2418 10.9067 79.7108 11.5002 79.7108 12.4424C79.7108 13.3887 79.2459 13.9739 78.4947 13.9739C77.7394 13.9739 77.287 13.397 77.287 12.4382C77.287 11.4878 77.7435 10.9067 78.4947 10.9067Z" fill="white"/>
<path d="M86.373 14.7874C87.6928 14.7874 88.5022 13.9033 88.5022 12.4382C88.5022 10.9814 87.6887 10.0933 86.373 10.0933C85.0532 10.0933 84.2397 10.9814 84.2397 12.4382C84.2397 13.9033 85.049 14.7874 86.373 14.7874ZM86.373 13.9946C85.5969 13.9946 85.1611 13.426 85.1611 12.4382C85.1611 11.4587 85.5969 10.886 86.373 10.886C87.145 10.886 87.5849 11.4587 87.5849 12.4382C87.5849 13.4219 87.145 13.9946 86.373 13.9946Z" fill="white"/>
<path d="M89.6834 14.7002H90.5757V12.0564C90.5757 11.3508 90.9949 10.9109 91.6548 10.9109C92.3147 10.9109 92.6301 11.272 92.6301 11.9983V14.7002H93.5225V11.7742C93.5225 10.6992 92.9663 10.0933 91.9578 10.0933C91.2771 10.0933 90.8289 10.3962 90.6089 10.8984H90.5425V10.1804H89.6834V14.7002Z" fill="white"/>
<path d="M97.6322 9.05566V10.2012H96.9142V10.9524H97.6322V13.5049C97.6322 14.3765 98.0265 14.7251 99.0184 14.7251C99.1927 14.7251 99.3587 14.7043 99.504 14.6794V13.9365C99.3795 13.949 99.3006 13.9573 99.1637 13.9573C98.7196 13.9573 98.5245 13.7498 98.5245 13.2766V10.9524H99.504V10.2012H98.5245V9.05566H97.6322Z" fill="white"/>
<path d="M100.702 14.7002H101.594V12.0605C101.594 11.3757 102.001 10.915 102.731 10.915C103.362 10.915 103.698 11.2803 103.698 12.0024V14.7002H104.591V11.7825C104.591 10.7075 103.997 10.0974 103.034 10.0974C102.354 10.0974 101.876 10.4004 101.656 10.9067H101.586V8.4165H100.702V14.7002Z" fill="white"/>
<path d="M107.81 10.8528C108.47 10.8528 108.901 11.3135 108.922 12.0232H106.639C106.689 11.3176 107.15 10.8528 107.81 10.8528ZM108.918 13.48C108.752 13.8328 108.383 14.0278 107.843 14.0278C107.129 14.0278 106.668 13.5256 106.639 12.7329V12.6831H109.831V12.3718C109.831 10.9524 109.071 10.0933 107.814 10.0933C106.54 10.0933 105.73 11.0105 105.73 12.4548C105.73 13.8992 106.523 14.7874 107.818 14.7874C108.852 14.7874 109.574 14.2893 109.777 13.48H108.918Z" fill="white"/>
<path d="M29.7973 20.3006C29.819 18.6196 30.7217 17.029 32.1539 16.1485C31.2504 14.8582 29.7371 14.0401 28.1627 13.9908C26.4835 13.8146 24.8555 14.9957 23.9998 14.9957C23.1275 14.9957 21.81 14.0083 20.3913 14.0375C18.5421 14.0973 16.8181 15.1487 15.9184 16.7654C13.9844 20.1138 15.427 25.0349 17.2796 27.7415C18.2065 29.0668 19.2898 30.5473 20.7072 30.4948C22.0943 30.4372 22.6123 29.6103 24.2866 29.6103C25.9454 29.6103 26.4314 30.4948 27.8776 30.4614C29.366 30.4372 30.3038 29.1302 31.1981 27.7923C31.8641 26.8479 32.3766 25.8042 32.7166 24.6997C30.9674 23.96 29.7994 22.1997 29.7973 20.3006Z" fill="white"/>
<path d="M27.0656 12.2108C27.8772 11.2366 28.277 9.98445 28.1802 8.72021C26.9403 8.85044 25.7951 9.44299 24.9726 10.3798C24.1683 11.2952 23.7497 12.5253 23.8289 13.7412C25.0692 13.754 26.2885 13.1775 27.0656 12.2108Z" fill="white"/>
</svg>
