<svg width="30" height="30" viewBox="0 0 30 30" fill="none" xmlns="http://www.w3.org/2000/svg">
<path d="M26.7273 0C24.9224 0 23.4545 1.46782 23.4545 3.27273C23.4545 3.83727 23.598 4.36855 23.8505 4.83273L18.4893 10.194C17.7502 9.61855 16.8251 9.27273 15.8182 9.27273C14.8113 9.27273 13.8862 9.61855 13.1465 10.1935L8.96346 6.01036C9.15546 5.68582 9.27273 5.31273 9.27273 4.90909C9.27273 3.70582 8.29418 2.72727 7.09091 2.72727C5.88764 2.72727 4.90909 3.70582 4.90909 4.90909C4.90909 6.11236 5.88764 7.09091 7.09091 7.09091C7.49455 7.09091 7.86764 6.97364 8.19218 6.78164L12.3753 10.9647C11.8004 11.7044 11.4545 12.6295 11.4545 13.6364C11.4545 14.6433 11.8004 15.5684 12.3753 16.3075L5.46764 23.2156C4.88618 22.6882 4.11764 22.3636 3.27273 22.3636C1.46782 22.3636 0 23.8315 0 25.6364C0 27.4413 1.46782 28.9091 3.27273 28.9091C5.07764 28.9091 6.54545 27.4413 6.54545 25.6364C6.54545 25.0718 6.402 24.5405 6.14945 24.0764L13.1471 17.0787C13.7504 17.5478 14.478 17.862 15.2733 17.9618V23.5036C13.728 23.7644 12.546 25.1084 12.546 26.7273C12.546 28.5322 14.0138 30 15.8187 30C17.6236 30 19.0915 28.5322 19.0915 26.7273C19.0915 25.1089 17.9095 23.7649 16.3642 23.5036V17.9618C17.1595 17.862 17.8871 17.5478 18.4904 17.0787L22.6735 21.2618C22.4809 21.5869 22.3636 21.96 22.3636 22.3636C22.3636 23.5669 23.3422 24.5455 24.5455 24.5455C25.7487 24.5455 26.7273 23.5669 26.7273 22.3636C26.7273 21.1604 25.7487 20.1818 24.5455 20.1818C24.1418 20.1818 23.7687 20.2991 23.4442 20.4911L19.2611 16.308C19.836 15.5684 20.1818 14.6433 20.1818 13.6364C20.1818 12.6295 19.836 11.7044 19.2611 10.9653L24.5329 5.69345C25.1138 6.22091 25.8824 6.54545 26.7273 6.54545C28.5322 6.54545 30 5.07764 30 3.27273C30 1.46782 28.5322 0 26.7273 0Z" fill="#DBD3CA"/>
</svg>
