<svg width="640" height="841" viewBox="0 0 640 841" fill="none" xmlns="http://www.w3.org/2000/svg">
<path d="M278.696 836.968C252.341 835.917 225.985 834.885 199.629 833.871C197.311 833.779 195.109 834.295 194.727 830.303C192.409 806.232 187.495 782.189 184.899 758.136C184.192 751.591 183.067 745.091 182.198 738.564L183.508 737.006C266.144 742.538 353.394 742.796 436.447 737.006C437.919 736.896 439.113 738.269 438.951 739.864C435.798 770.729 430.421 800.94 427.361 831.391C427.379 831.913 427.173 832.425 426.777 832.842C426.381 833.259 425.818 833.557 425.182 833.686C424.336 833.751 423.548 833.815 422.76 833.843C395.964 834.876 369.171 835.908 342.383 836.941C341.062 837.014 279.983 837.014 278.696 836.968Z" fill="#DED8D0"/>
<path d="M158.184 447.116C153.327 447.116 151.635 448.89 152.261 454.21C156.074 486.661 159.47 519.113 163.063 551.565C166.841 585.744 170.77 619.946 174.468 654.079C177.017 677.56 179.208 701.076 181.688 724.557C183.844 744.944 186.197 765.319 188.422 785.706C188.598 787.168 188.403 788.651 187.854 790.017C185.034 765.153 182.221 740.296 179.416 715.448C175.785 682.54 172.161 649.601 168.545 616.631L151.438 460.793C151.357 460.028 151.299 459.263 151.206 458.475C150.326 451.521 150.117 449.979 146.281 449.122C145.939 449.044 145.632 448.859 145.402 448.595C145.173 448.33 145.034 447.999 145.005 447.65C144.977 447.301 145.061 446.952 145.244 446.654C145.428 446.356 145.701 446.124 146.026 445.992C149.236 444.764 152.62 445.204 158.195 447.151L158.184 447.116Z" fill="black"/>
<path d="M375.415 839.414C376.446 838.823 377.454 837.791 378.532 837.722C390.203 836.969 401.898 836.389 413.58 835.694C417.6 835.637 421.606 835.226 425.553 834.465C426.526 834.098 427.398 833.503 428.095 832.731C428.793 831.959 429.296 831.032 429.563 830.026C432.762 800.634 435.578 771.207 438.696 741.803C442.358 707.254 446.276 672.739 449.984 638.189C452.499 614.742 454.806 591.273 457.298 567.826C459.094 550.882 466.187 487.021 468.146 470.1C468.275 469.472 468.609 468.905 469.096 468.489C466.176 496.084 458.665 570.782 455.721 598.389C450.491 648.025 445.267 697.661 440.052 747.297C437.247 773.954 434.438 800.611 431.626 827.268C430.815 834.964 429.795 835.937 422.029 836.424C406.453 837.397 390.879 838.352 375.31 839.287L375.415 839.414Z" fill="black"/>
<path d="M375.31 839.333C342.232 839.588 309.158 839.843 276.088 840.098C268.972 840.098 261.868 840.098 254.763 840.04C279.635 840.04 304.519 840.167 329.391 840.04C340.911 839.947 352.432 839.171 363.952 838.881C367.754 838.788 371.567 839.252 375.391 839.472L375.31 839.333Z" fill="black"/>
<path d="M193.151 834.222L222.265 837.259C215.797 838.626 194.959 836.239 193.151 834.222Z" fill="black"/>
<path d="M191.679 824.776C190.906 818.054 190.133 811.328 189.361 804.598L190.357 804.482L192.757 824.648L191.679 824.776Z" fill="black"/>
<path fill-rule="evenodd" clip-rule="evenodd" d="M185.499 441.342L185.5 441.342L185.5 441.342C187.712 440.305 189.1 439.654 190.78 439.55C192.255 439.459 193.337 440.014 194.685 440.706C196.901 441.843 199.838 443.35 206.427 442.967L217.826 442.167C221.252 442.32 224.15 441.084 226.952 439.888C229.899 438.631 232.741 437.418 235.981 437.915C236.503 437.995 237.436 438.383 238.428 438.796C239.734 439.338 241.142 439.924 241.852 439.907C243.853 439.909 245.811 439.325 247.484 438.227C248.246 437.625 248.657 436.504 249.079 435.352C249.3 434.75 249.524 434.14 249.802 433.591C253.824 425.478 259.074 422.209 266.573 423.16C273.388 424.052 277.248 428.213 279.206 437.288C279.252 437.519 279.376 437.727 279.558 437.877C279.739 438.027 279.967 438.11 280.203 438.111H302.085C303.029 438.111 303.973 438.117 304.916 438.122C308.604 438.145 312.277 438.167 315.877 437.844C318.131 437.671 320.278 436.813 322.031 435.387C326.412 431.365 330.585 431.748 335.035 434.958C337.98 437.217 341.587 438.441 345.298 438.441C349.009 438.441 352.616 437.217 355.561 434.958C362.979 429.163 370.929 427.228 379.761 431.11C381.638 431.933 383.852 433.15 384.744 434.819C387.584 440.069 391.814 440.093 395.987 439.687C407.378 435.996 415.397 437.787 422.317 439.333C427.329 440.452 431.764 441.442 436.488 440.13C438.556 439.555 440.83 438.593 443.239 437.574C452.979 433.453 464.934 428.395 474.509 444.207C474.542 444.386 474.621 444.553 474.739 444.692C474.857 444.83 475.01 444.935 475.181 444.995C475.65 445.155 476.058 445.458 476.346 445.861C476.634 446.265 476.789 446.748 476.789 447.244C476.789 447.739 476.634 448.223 476.346 448.626C476.058 449.029 475.65 449.332 475.181 449.492C474.013 449.856 472.979 450.557 472.21 451.508C471.441 452.459 470.97 453.617 470.858 454.835C470.694 455.871 470.539 456.909 470.383 457.947L470.383 457.948C469.859 461.448 469.335 464.953 468.459 468.43C468.604 466.962 468.699 465.48 468.794 463.999C469.003 460.735 469.213 457.47 469.954 454.337C471.357 448.449 468.216 447.128 463.661 446.838C455.262 446.281 446.854 445.827 438.445 445.373L438.445 445.373C437.049 445.297 435.653 445.222 434.257 445.146C411.355 443.987 388.453 442.828 365.563 441.53C361.74 441.313 357.555 441.614 353.308 441.919C348.487 442.265 343.587 442.618 339.045 442.225C333.303 441.76 328.937 441.873 324.217 441.996C322.427 442.043 320.587 442.091 318.6 442.109C310.575 442.176 302.549 442.202 294.524 442.229C276.149 442.289 257.778 442.349 239.418 442.897C220.596 443.493 201.786 444.608 182.978 445.723L182.978 445.723C174.697 446.214 166.417 446.705 158.137 447.151C155.109 446.55 158.986 446.244 164.411 445.815H164.411C170.062 445.369 177.393 444.79 180.349 443.607C182.53 442.735 184.165 441.968 185.499 441.342ZM470.337 445.03C470.824 445.068 471.289 444.74 471.414 444.264C472.172 441.38 465.336 436.757 457.929 436.653C447.602 436.508 440.544 441.869 442.66 442.596C447.689 444.326 454.302 444.484 461.016 444.644C464.151 444.719 467.308 444.794 470.337 445.03ZM276.17 438.644C276.315 438.641 276.459 438.609 276.592 438.548C276.724 438.487 276.843 438.399 276.939 438.291C277.036 438.182 277.11 438.054 277.155 437.915C277.2 437.776 277.216 437.63 277.201 437.485C276.587 431.296 273.214 428.781 268.184 428.213C262.783 427.622 257.881 431.423 255.783 437.23C255.725 437.387 255.706 437.556 255.728 437.722C255.749 437.888 255.81 438.047 255.905 438.184C256.001 438.322 256.128 438.434 256.276 438.512C256.424 438.59 256.589 438.631 256.756 438.632L276.17 438.644ZM326.963 436.074C328.142 434.993 329.165 434.567 331.019 435.494C332.873 436.422 333.337 437.812 333.337 438.392C332.517 438.323 331.292 438.669 330.066 439.015C327.827 439.648 325.586 440.28 325.804 438.392C325.92 437.386 326.217 436.758 326.963 436.074ZM372.98 438.675C368.796 439.323 363.864 440.086 361.153 438.392C360.546 438.012 360.11 437.58 360.574 436.653C361.153 435.494 366.637 432.805 370.425 432.596C370.687 432.582 370.954 432.566 371.225 432.549C374.746 432.334 378.806 432.086 379.697 435.494C379.776 435.798 380.026 436.264 380.286 436.749C380.962 438.009 381.706 439.396 379.697 438.392C378.542 437.814 375.949 438.216 372.98 438.675Z" fill="black"/>
<path d="M340.116 787C340.116 803.568 326.684 817 310.116 817C293.549 817 280.116 803.568 280.116 787C280.116 770.433 293.549 757 310.116 757C326.684 757 340.116 770.433 340.116 787Z" fill="white"/>
<path d="M299.283 790.333C301.584 790.333 303.45 787.721 303.45 784.5C303.45 781.278 301.584 778.667 299.283 778.667C296.982 778.667 295.116 781.278 295.116 784.5C295.116 787.721 296.982 790.333 299.283 790.333Z" fill="black"/>
<path d="M320.95 790.333C323.251 790.333 325.116 787.721 325.116 784.5C325.116 781.278 323.251 778.667 320.95 778.667C318.648 778.667 316.783 781.278 316.783 784.5C316.783 787.721 318.648 790.333 320.95 790.333Z" fill="black"/>
<path d="M321.783 800.333H298.45C297.53 800.333 296.783 799.588 296.783 798.667C296.783 797.745 297.53 797 298.45 797H321.783C322.705 797 323.45 797.745 323.45 798.667C323.45 799.588 322.705 800.333 321.783 800.333Z" fill="black"/>
</svg>
