<svg width="287" height="361" viewBox="0 0 287 361" fill="none" xmlns="http://www.w3.org/2000/svg">
<path d="M115.355 356.458C92.615 355.318 69.875 354.198 47.135 353.098C45.135 352.998 43.235 353.558 42.905 349.228C40.905 323.118 36.665 297.038 34.425 270.948C33.815 263.848 32.845 256.798 32.095 249.718L33.225 248.028C104.525 254.028 179.805 254.308 251.465 248.028C252.735 247.908 253.765 249.398 253.625 251.128C250.905 284.608 246.265 317.378 243.625 350.408C243.64 350.974 243.463 351.53 243.121 351.982C242.78 352.434 242.294 352.757 241.745 352.898C241.015 352.968 240.335 353.038 239.655 353.068C216.535 354.188 193.418 355.308 170.305 356.428C169.165 356.508 116.465 356.508 115.355 356.458Z" fill="#DED8D0"/>
<path d="M11.375 21.0277C7.18503 21.0277 5.72503 22.5577 6.26503 27.1477C9.55503 55.1477 12.485 83.1477 15.585 111.148C18.845 140.638 22.235 170.148 25.425 199.598C27.625 219.858 29.515 240.148 31.655 260.408C33.515 277.998 35.545 295.578 37.465 313.168C37.6169 314.429 37.4484 315.709 36.975 316.888C34.5417 295.434 32.115 273.988 29.695 252.548C26.5617 224.154 23.435 195.734 20.315 167.288L5.55503 32.8277C5.48503 32.1677 5.43503 31.5077 5.35503 30.8277C4.59503 24.8277 4.41503 23.4977 1.10503 22.7577C0.810452 22.6907 0.544922 22.5315 0.347037 22.3032C0.149152 22.0749 0.0292263 21.7895 0.00469174 21.4884C-0.0198428 21.1873 0.0522927 20.8862 0.210613 20.6289C0.368933 20.3716 0.605185 20.1715 0.885029 20.0577C3.65503 18.9977 6.57503 19.3777 11.385 21.0577L11.375 21.0277Z" fill="black"/>
<path d="M198.805 359.508C199.695 358.998 200.565 358.108 201.495 358.048C211.565 357.398 221.655 356.898 231.735 356.298C235.203 356.249 238.66 355.894 242.065 355.238C242.905 354.921 243.657 354.408 244.259 353.742C244.861 353.076 245.295 352.275 245.525 351.408C248.285 326.048 250.715 300.658 253.405 275.288C256.565 245.478 259.945 215.698 263.145 185.888C265.315 165.658 267.305 145.408 269.455 125.178C271.005 110.558 277.125 55.4578 278.815 40.8578C278.926 40.3163 279.215 39.8272 279.635 39.4678C277.115 63.2778 270.635 127.728 268.095 151.548C263.582 194.374 259.075 237.201 254.575 280.028C252.155 303.028 249.732 326.028 247.305 349.028C246.605 355.668 245.725 356.508 239.025 356.928C225.585 357.768 212.148 358.591 198.715 359.398L198.805 359.508Z" fill="black"/>
<path d="M198.715 359.438C170.175 359.658 141.638 359.878 113.105 360.098C106.965 360.098 100.835 360.098 94.705 360.048C116.165 360.048 137.635 360.158 159.095 360.048C169.035 359.968 178.975 359.298 188.915 359.048C192.195 358.968 195.485 359.368 198.785 359.558L198.715 359.438Z" fill="black"/>
<path d="M41.545 355.028L66.665 357.648C61.085 358.828 43.105 356.768 41.545 355.028Z" fill="black"/>
<path d="M40.275 346.878C39.6084 341.078 38.9417 335.274 38.275 329.468L39.135 329.368L41.205 346.768L40.275 346.878Z" fill="black"/>
<path fill-rule="evenodd" clip-rule="evenodd" d="M30.5 17.9997C32.3813 17.2472 33.7919 16.5858 34.9436 16.0458C36.8526 15.1506 38.05 14.5892 39.5 14.4997C40.7727 14.4211 41.7058 14.8999 42.8691 15.4967C44.781 16.4777 47.3149 17.7777 53 17.4475L62.835 16.7575C65.7915 16.8894 68.2916 15.8227 70.7093 14.7912C73.2524 13.7063 75.7043 12.6602 78.5 13.0887C78.95 13.1577 79.7549 13.4924 80.611 13.8483C81.7375 14.3168 82.9528 14.8221 83.5651 14.8075C85.2919 14.8092 86.9815 14.3052 88.4251 13.3575C89.0819 12.8386 89.4367 11.8711 89.8012 10.8771C89.9917 10.3577 90.1848 9.83111 90.4251 9.35751C93.8951 2.35751 98.4251 -0.462492 104.895 0.357508C110.775 1.12751 114.105 4.71751 115.795 12.5475C115.834 12.747 115.941 12.9267 116.098 13.0561C116.255 13.1856 116.452 13.2567 116.655 13.2575H135.535C136.349 13.2575 137.164 13.2625 137.977 13.2675C141.16 13.2869 144.329 13.3062 147.435 13.0275C149.38 12.8778 151.232 12.1382 152.745 10.9075C156.525 7.43751 160.125 7.76751 163.965 10.5375C166.506 12.4861 169.618 13.5423 172.82 13.5423C176.022 13.5423 179.134 12.4861 181.675 10.5375C188.075 5.53751 194.935 3.86751 202.555 7.21751C204.175 7.92751 206.085 8.97751 206.855 10.4175C209.305 14.9475 212.955 14.9675 216.555 14.6175C226.383 11.4332 233.302 12.9782 239.274 14.3117C243.597 15.2772 247.425 16.1318 251.5 14.9998C253.285 14.504 255.246 13.674 257.325 12.7945C265.729 9.23885 276.044 4.87445 284.305 18.5175C284.333 18.6719 284.402 18.8162 284.504 18.9356C284.606 19.055 284.737 19.1454 284.885 19.1975C285.29 19.3357 285.641 19.5971 285.89 19.945C286.139 20.2928 286.273 20.7098 286.273 21.1375C286.273 21.5652 286.139 21.9822 285.89 22.3301C285.641 22.6779 285.29 22.9393 284.885 23.0775C283.878 23.3913 282.985 23.9967 282.322 24.8172C281.658 25.6377 281.252 26.6365 281.155 27.6875C281.014 28.5803 280.88 29.4742 280.746 30.3684L280.745 30.3724C280.294 33.3929 279.841 36.4171 279.085 39.4175C279.21 38.1512 279.292 36.8742 279.374 35.5971L279.374 35.5948V35.5944C279.555 32.7778 279.735 29.9609 280.375 27.2575C281.585 22.1775 278.875 21.0375 274.945 20.7875C267.698 20.3072 260.443 19.9152 253.188 19.5231C251.983 19.4581 250.779 19.393 249.575 19.3275C229.815 18.3275 210.055 17.3275 190.305 16.2075C187.007 16.0204 183.396 16.2799 179.731 16.5433C175.572 16.8422 171.344 17.1461 167.425 16.8075C162.47 16.4058 158.704 16.504 154.631 16.6101C153.087 16.6504 151.499 16.6918 149.785 16.7075C142.86 16.7653 135.935 16.7879 129.011 16.8106H129.011C113.157 16.8624 97.3063 16.9142 81.4651 17.3875C65.2255 17.9013 48.9955 18.8634 32.7685 19.8253L32.7682 19.8253C25.6234 20.2488 18.4792 20.6723 11.335 21.0575C8.72183 20.5394 12.0671 20.275 16.7483 19.9051H16.7483C21.6241 19.5199 27.9491 19.0201 30.5 17.9997ZM280.705 19.2275C281.126 19.2602 281.527 18.9772 281.635 18.5664C282.289 16.0783 276.391 12.0894 270 11.9998C261.089 11.8747 255 16.4998 256.825 17.1275C261.165 18.6202 266.87 18.7562 272.663 18.8944C275.368 18.9589 278.092 19.0238 280.705 19.2275ZM113.175 13.7175C113.301 13.7154 113.425 13.6872 113.539 13.6347C113.653 13.5822 113.756 13.5066 113.839 13.4126C113.923 13.3187 113.986 13.2084 114.025 13.0887C114.064 12.9691 114.078 12.8427 114.065 12.7175C113.535 7.37751 110.625 5.20751 106.285 4.71751C101.625 4.20751 97.3951 7.48751 95.5851 12.4975C95.5353 12.6331 95.5189 12.7787 95.5373 12.922C95.5557 13.0653 95.6083 13.2021 95.6907 13.3208C95.773 13.4394 95.8828 13.5365 96.0106 13.6039C96.1384 13.6712 96.2806 13.7067 96.4251 13.7075L113.175 13.7175ZM157 11.4998C158.018 10.5668 158.9 10.1998 160.5 10.9998C162.1 11.7998 162.5 12.9998 162.5 13.4998C161.792 13.4408 160.735 13.7392 159.678 14.0378C157.746 14.5832 155.812 15.1292 156 13.4998C156.1 12.6323 156.356 12.0898 157 11.4998ZM196.704 13.7446C193.094 14.3033 188.839 14.9619 186.5 13.4999C185.976 13.1726 185.6 12.7997 186 11.9997C186.5 10.9997 191.232 8.68 194.5 8.4997C194.726 8.48722 194.957 8.47312 195.19 8.45886C198.228 8.27312 201.731 8.05892 202.5 10.9999C202.569 11.2622 202.784 11.6642 203.008 12.0823C203.592 13.1698 204.234 14.3666 202.5 13.4999C201.504 13.0017 199.266 13.348 196.704 13.7446Z" fill="black"/>
<path d="M173 302C173 318.568 159.568 332 143 332C126.433 332 113 318.568 113 302C113 285.433 126.433 272 143 272C159.568 272 173 285.433 173 302Z" fill="white"/>
<path d="M132.167 305.333C134.468 305.333 136.333 302.721 136.333 299.5C136.333 296.278 134.468 293.667 132.167 293.667C129.865 293.667 128 296.278 128 299.5C128 302.721 129.865 305.333 132.167 305.333Z" fill="black"/>
<path d="M153.833 305.333C156.135 305.333 158 302.721 158 299.5C158 296.278 156.135 293.667 153.833 293.667C151.532 293.667 149.667 296.278 149.667 299.5C149.667 302.721 151.532 305.333 153.833 305.333Z" fill="black"/>
<path d="M154.667 315.333H131.333C130.413 315.333 129.667 314.588 129.667 313.667C129.667 312.745 130.413 312 131.333 312H154.667C155.588 312 156.333 312.745 156.333 313.667C156.333 314.588 155.588 315.333 154.667 315.333Z" fill="black"/>
</svg>
