<svg width="16" height="16" viewBox="0 0 16 16" fill="none" xmlns="http://www.w3.org/2000/svg">
<circle cx="8" cy="8" r="8" fill="#FEDE53"/>
<path fill-rule="evenodd" clip-rule="evenodd" d="M15.197 8.2359C15.1995 8.15751 15.2008 8.07881 15.2008 7.9998C15.2008 7.9208 15.1995 7.8421 15.197 7.76371L14.6972 7.77981C14.6996 7.85284 14.7008 7.92617 14.7008 7.9998C14.7008 8.07344 14.6996 8.14677 14.6972 8.2198L15.197 8.2359ZM15.1056 9.17317L14.6122 9.0923C14.5885 9.23729 14.56 9.3807 14.5271 9.52236L15.0142 9.6355C15.0496 9.48319 15.0801 9.32902 15.1056 9.17317ZM14.7411 10.5368L14.2732 10.3606C14.2215 10.4977 14.1655 10.6327 14.1053 10.7655L14.5606 10.9721C14.6253 10.8294 14.6856 10.6842 14.7411 10.5368ZM14.1159 11.8023L13.6916 11.5379C13.6141 11.6622 13.5327 11.7837 13.4476 11.9023L13.8538 12.1939C13.9453 12.0664 14.0327 11.9359 14.1159 11.8023ZM13.2558 12.9217L12.891 12.5798C12.791 12.6865 12.6875 12.79 12.5808 12.89L12.9226 13.2549C13.0373 13.1474 13.1484 13.0363 13.2558 12.9217ZM12.1949 13.8528L11.9033 13.4466C11.7847 13.5318 11.6631 13.6132 11.5389 13.6906L11.8033 14.1149C11.9368 14.0317 12.0674 13.9443 12.1949 13.8528ZM10.9731 14.5596L10.7664 14.1043C10.6337 14.1645 10.4987 14.2205 10.3615 14.2722L10.5378 14.7401C10.6852 14.6846 10.8304 14.6244 10.9731 14.5596ZM9.63647 15.0132L9.52333 14.5262C9.38167 14.5591 9.23827 14.5875 9.09328 14.6113L9.17415 15.1047C9.33 15.0791 9.48416 15.0486 9.63647 15.0132ZM8.23687 15.196L8.22077 14.6963C8.14775 14.6986 8.07441 14.6998 8.00078 14.6998C7.92715 14.6998 7.85381 14.6986 7.78079 14.6963L7.76469 15.196C7.84308 15.1985 7.92178 15.1998 8.00078 15.1998C8.07978 15.1998 8.15849 15.1985 8.23687 15.196ZM6.82741 15.1047L6.90829 14.6113C6.76329 14.5875 6.61989 14.5591 6.47823 14.5262L6.36509 15.0132C6.5174 15.0486 6.67156 15.0791 6.82741 15.1047ZM5.46381 14.7401L5.64002 14.2722C5.50286 14.2205 5.36784 14.1645 5.23512 14.1043L5.02849 14.5596C5.17117 14.6244 5.31634 14.6846 5.46381 14.7401ZM4.19824 14.1149L4.46267 13.6906C4.33843 13.6132 4.2169 13.5318 4.09825 13.4466L3.80667 13.8528C3.93415 13.9443 4.06473 14.0317 4.19824 14.1149ZM3.07892 13.2549L3.42079 12.89C3.31405 12.79 3.2106 12.6865 3.11059 12.5798L2.74573 12.9217C2.85315 13.0363 2.96427 13.1474 3.07892 13.2549ZM2.1478 12.1939L2.55398 11.9023C2.46881 11.7837 2.38743 11.6622 2.31001 11.5379L1.88566 11.8023C1.96885 11.9359 2.0563 12.0664 2.1478 12.1939ZM1.44098 10.9721L1.89629 10.7655C1.83606 10.6327 1.78004 10.4977 1.72839 10.3606L1.26047 10.5368C1.316 10.6842 1.37623 10.8294 1.44098 10.9721ZM0.987389 9.6355L1.47442 9.52236C1.44151 9.3807 1.4131 9.23729 1.38933 9.0923L0.895915 9.17317C0.921459 9.32902 0.952007 9.48319 0.987389 9.6355ZM0.804579 8.2359C0.802054 8.15751 0.800781 8.07881 0.800781 7.9998C0.800781 7.9208 0.802054 7.8421 0.804579 7.76371L1.30432 7.77981C1.30197 7.85284 1.30078 7.92617 1.30078 7.9998C1.30078 8.07344 1.30197 8.14677 1.30432 8.2198L0.804579 8.2359ZM0.895915 6.82644L1.38933 6.90731C1.4131 6.76232 1.44151 6.61891 1.47442 6.47725L0.98739 6.36411C0.952008 6.51642 0.921459 6.67059 0.895915 6.82644ZM1.26047 5.46283L1.72839 5.63904C1.78004 5.50189 1.83606 5.36686 1.89629 5.23415L1.44099 5.02751C1.37623 5.1702 1.316 5.31536 1.26047 5.46283ZM1.88566 4.19727L2.31001 4.4617C2.38743 4.33746 2.46881 4.21592 2.55398 4.09727L2.1478 3.8057C2.0563 3.93317 1.96885 4.06376 1.88566 4.19727ZM2.74573 3.07794L3.11059 3.41981C3.2106 3.31308 3.31405 3.20962 3.42079 3.10961L3.07892 2.74475C2.96427 2.85217 2.85315 2.9633 2.74573 3.07794ZM3.80667 2.14683L4.09825 2.55301C4.2169 2.46784 4.33843 2.38645 4.46268 2.30903L4.19824 1.88468C4.06473 1.96787 3.93415 2.05532 3.80667 2.14683ZM5.02849 1.44001L5.23512 1.89531C5.36784 1.83508 5.50286 1.77906 5.64002 1.72741L5.46381 1.25949C5.31634 1.31502 5.17117 1.37526 5.02849 1.44001ZM6.36509 0.986413L6.47823 1.47344C6.61989 1.44054 6.76329 1.41212 6.90829 1.38835L6.82741 0.894938C6.67156 0.920482 6.5174 0.951031 6.36509 0.986413ZM7.76469 0.803602L7.78079 1.30334C7.85381 1.30099 7.92715 1.2998 8.00078 1.2998C8.07441 1.2998 8.14775 1.30099 8.22077 1.30334L8.23687 0.803602C8.15849 0.801077 8.07978 0.799805 8.00078 0.799805C7.92178 0.799805 7.84308 0.801077 7.76469 0.803602ZM9.17415 0.894938L9.09328 1.38835C9.23827 1.41212 9.38167 1.44054 9.52334 1.47344L9.63647 0.986413C9.48416 0.951031 9.33 0.920483 9.17415 0.894938ZM10.5378 1.25949L10.3615 1.72741C10.4987 1.77906 10.6337 1.83508 10.7664 1.89531L10.9731 1.44001C10.8304 1.37526 10.6852 1.31502 10.5378 1.25949ZM11.8033 1.88468L11.5389 2.30903C11.6631 2.38645 11.7847 2.46784 11.9033 2.55301L12.1949 2.14683C12.0674 2.05532 11.9368 1.96787 11.8033 1.88468ZM12.9226 2.74475L12.5808 3.10961C12.6875 3.20962 12.791 3.31308 12.891 3.41981L13.2558 3.07794C13.1484 2.9633 13.0373 2.85217 12.9226 2.74475ZM13.8538 3.8057L13.4476 4.09727C13.5328 4.21592 13.6141 4.33746 13.6916 4.4617L14.1159 4.19727C14.0327 4.06376 13.9453 3.93317 13.8538 3.8057ZM14.5606 5.02752L14.1053 5.23415C14.1655 5.36687 14.2215 5.50189 14.2732 5.63904L14.7411 5.46283C14.6856 5.31536 14.6253 5.1702 14.5606 5.02752ZM15.0142 6.36411L14.5271 6.47725C14.56 6.61891 14.5885 6.76232 14.6122 6.90731L15.1056 6.82644C15.0801 6.67059 15.0496 6.51642 15.0142 6.36411Z" fill="#E2A63B"/>
<path d="M7.47437 8.63116V5.33301H8.52243V10.6663H7.7974L5.04805 7.39706V10.6663H4V5.33301H4.67478L7.47437 8.63116Z" fill="#E2A63B"/>
<path d="M9.73879 10.6663H9.20638V6.11364H9.72084V7.84571C9.82054 7.69736 9.96012 7.58109 10.1396 7.49689C10.323 7.40869 10.5224 7.36458 10.7378 7.36458C11.0927 7.36458 11.3918 7.48085 11.6351 7.7134C11.8784 7.94595 12 8.28074 12 8.71776V10.6663H11.4676V8.86811C11.4676 8.54736 11.3918 8.30078 11.2403 8.12838C11.0927 7.95196 10.8913 7.86375 10.6361 7.86375C10.3689 7.86375 10.1515 7.95798 9.98405 8.14642C9.82054 8.33486 9.73879 8.57543 9.73879 8.86811V10.6663Z" fill="#E2A63B"/>
</svg>
