<svg width="85" height="51" viewBox="0 0 85 51" fill="none" xmlns="http://www.w3.org/2000/svg">
<rect x="0.5" y="0.814453" width="39" height="24" fill="#2C2B30" stroke="white"/>
<rect x="45.5" y="0.814453" width="39" height="24" fill="#2C2B30" stroke="white"/>
<rect x="0.5" y="25.8145" width="39" height="24" fill="#2C2B30" stroke="white"/>
<rect x="45.5" y="25.8145" width="39" height="24" fill="#2C2B30" stroke="white"/>
<path d="M26.3699 33.5625C24.8552 35.6745 22.7325 36.7305 20.0019 36.7305C17.2712 36.7305 15.1485 35.6745 13.6339 33.5625C12.1192 31.4505 11.3619 28.6345 11.3619 25.1145C11.3619 21.5945 12.1192 18.7785 13.6339 16.6665C15.1485 14.5545 17.2712 13.4985 20.0019 13.4985C22.7325 13.4985 24.8552 14.5545 26.3699 16.6665C27.8845 18.7785 28.6419 21.5945 28.6419 25.1145C28.6419 28.6345 27.8845 31.4505 26.3699 33.5625ZM15.8099 31.5465C16.7912 33.0611 18.1885 33.8185 20.0019 33.8185C21.8152 33.8185 23.2125 33.0611 24.1939 31.5465C25.1965 30.0318 25.6979 27.8878 25.6979 25.1145C25.6979 22.3411 25.1965 20.1971 24.1939 18.6825C23.2125 17.1465 21.8152 16.3785 20.0019 16.3785C18.1885 16.3785 16.7912 17.1358 15.8099 18.6505C14.8285 20.1651 14.3379 22.3198 14.3379 25.1145C14.3379 27.8878 14.8285 30.0318 15.8099 31.5465Z" fill="white"/>
<path d="M69.181 24.7305C70.269 25.2851 71.1223 26.0318 71.741 26.9705C72.3597 27.9091 72.669 28.9758 72.669 30.1705C72.669 32.2185 71.9543 33.8291 70.525 35.0025C69.0957 36.1545 67.2503 36.7305 64.989 36.7305C62.749 36.7305 60.9143 36.1545 59.485 35.0025C58.0557 33.8291 57.341 32.2185 57.341 30.1705C57.341 28.9758 57.6503 27.9091 58.269 26.9705C58.8877 26.0318 59.741 25.2851 60.829 24.7305C58.9943 23.5785 58.077 21.9465 58.077 19.8345C58.077 17.8078 58.749 16.2505 60.093 15.1625C61.4583 14.0531 63.0903 13.4985 64.989 13.4985C66.909 13.4985 68.541 14.0531 69.885 15.1625C71.2503 16.2505 71.933 17.8078 71.933 19.8345C71.933 21.9465 71.0157 23.5785 69.181 24.7305ZM64.989 16.3465C63.8583 16.3465 62.909 16.6451 62.141 17.2425C61.3943 17.8398 61.021 18.7251 61.021 19.8985C61.021 21.0291 61.405 21.9145 62.173 22.5545C62.941 23.1731 63.8797 23.4825 64.989 23.4825C66.0983 23.4825 67.037 23.1731 67.805 22.5545C68.573 21.9145 68.957 21.0291 68.957 19.8985C68.957 18.7251 68.5837 17.8398 67.837 17.2425C67.0903 16.6451 66.141 16.3465 64.989 16.3465ZM64.989 33.8825C66.4183 33.8825 67.5597 33.5518 68.413 32.8905C69.2877 32.2078 69.725 31.2371 69.725 29.9785C69.725 28.7411 69.2877 27.7918 68.413 27.1305C67.5597 26.4478 66.4183 26.1065 64.989 26.1065C63.581 26.1065 62.4397 26.4478 61.565 27.1305C60.7117 27.7918 60.285 28.7411 60.285 29.9785C60.285 31.2371 60.7117 32.2078 61.565 32.8905C62.4397 33.5518 63.581 33.8825 64.989 33.8825Z" fill="white"/>
</svg>
