<svg width="60" height="60" viewBox="0 0 60 60" fill="none" xmlns="http://www.w3.org/2000/svg">
<path d="M30 60C46.5685 60 60 46.5685 60 30C60 13.4315 46.5685 0 30 0C13.4315 0 0 13.4315 0 30C0 46.5685 13.4315 60 30 60Z" fill="white"/>
<path d="M30 35.0001C23.9616 35.0001 19.955 34.2968 15 33.3334C13.8683 33.1151 11.6666 33.3334 11.6666 36.6668C11.6666 43.3334 19.325 51.6668 30 51.6668C40.6733 51.6668 48.3333 43.3334 48.3333 36.6668C48.3333 33.3334 46.1316 33.1134 45 33.3334C40.045 34.2968 36.0383 35.0001 30 35.0001Z" fill="black"/>
<path d="M20 28.3332C22.3012 28.3332 24.1667 25.7215 24.1667 22.4998C24.1667 19.2782 22.3012 16.6665 20 16.6665C17.6989 16.6665 15.8334 19.2782 15.8334 22.4998C15.8334 25.7215 17.6989 28.3332 20 28.3332Z" fill="black"/>
<path d="M40 28.3332C42.3012 28.3332 44.1667 25.7215 44.1667 22.4998C44.1667 19.2782 42.3012 16.6665 40 16.6665C37.6989 16.6665 35.8334 19.2782 35.8334 22.4998C35.8334 25.7215 37.6989 28.3332 40 28.3332Z" fill="black"/>
</svg>
