<svg width="160" height="50" viewBox="0 0 160 50" fill="none" xmlns="http://www.w3.org/2000/svg">
<path d="M0 6C0 2.68629 2.68629 0 6 0H154C157.314 0 160 2.68629 160 6V44C160 47.3137 157.314 50 154 50H6C2.6863 50 0 47.3137 0 44V6Z" fill="black"/>
<path d="M79.17 27.1886C76.23 27.1886 73.8337 29.4248 73.8337 32.5048C73.8337 35.5661 76.23 37.8211 79.17 37.8211C82.1112 37.8211 84.5075 35.5661 84.5075 32.5048C84.5062 29.4248 82.11 27.1886 79.17 27.1886ZM79.17 35.7286C77.5587 35.7286 76.17 34.3998 76.17 32.5061C76.17 30.5923 77.56 29.2836 79.17 29.2836C80.7812 29.2836 82.17 30.5923 82.17 32.5061C82.17 34.3986 80.7812 35.7286 79.17 35.7286ZM67.5275 27.1886C64.5875 27.1886 62.1912 29.4248 62.1912 32.5048C62.1912 35.5661 64.5875 37.8211 67.5275 37.8211C70.4687 37.8211 72.865 35.5661 72.865 32.5048C72.865 29.4248 70.4687 27.1886 67.5275 27.1886ZM67.5275 35.7286C65.9162 35.7286 64.5275 34.3998 64.5275 32.5061C64.5275 30.5923 65.9175 29.2836 67.5275 29.2836C69.1387 29.2836 70.5275 30.5923 70.5275 32.5061C70.5287 34.3986 69.1387 35.7286 67.5275 35.7286ZM53.68 28.8211V31.0761H59.0775C58.9162 32.3448 58.4937 33.2711 57.8487 33.9148C57.0637 34.6998 55.835 35.5661 53.68 35.5661C50.3575 35.5661 47.76 32.8873 47.76 29.5648C47.76 26.2423 50.3575 23.5636 53.68 23.5636C55.4725 23.5636 56.7812 24.2686 57.7475 25.1748L59.3387 23.5836C57.9887 22.2948 56.1975 21.3086 53.68 21.3086C49.1287 21.3086 45.3025 25.0136 45.3025 29.5648C45.3025 34.1161 49.1287 37.8211 53.68 37.8211C56.1362 37.8211 57.99 37.0148 59.4387 35.5048C60.9287 34.0148 61.3925 31.9198 61.3925 30.2286C61.3925 29.7061 61.3525 29.2223 61.2712 28.8198H53.68V28.8211ZM110.315 30.5723C109.872 29.3848 108.522 27.1886 105.764 27.1886C103.025 27.1886 100.749 29.3436 100.749 32.5048C100.749 35.4848 103.005 37.8211 106.025 37.8211C108.461 37.8211 109.871 36.3311 110.456 35.4648L108.644 34.2561C108.04 35.1423 107.214 35.7261 106.025 35.7261C104.837 35.7261 103.991 35.1823 103.447 34.1148L110.556 31.1748L110.315 30.5723ZM103.065 32.3448C103.005 30.2898 104.656 29.2436 105.845 29.2436C106.771 29.2436 107.556 29.7073 107.819 30.3711L103.065 32.3448ZM97.2862 37.4998H99.6212V21.8736H97.2862V37.4998ZM93.4587 28.3773H93.3787C92.855 27.7523 91.8475 27.1886 90.58 27.1886C87.9212 27.1886 85.485 29.5248 85.485 32.5261C85.485 35.5061 87.9212 37.8223 90.58 37.8223C91.8487 37.8223 92.855 37.2586 93.3787 36.6148H93.4587V37.3798C93.4587 39.4136 92.3712 40.5011 90.62 40.5011C89.19 40.5011 88.3037 39.4748 87.9412 38.6086L85.9075 39.4548C86.4912 40.8636 88.0412 42.5961 90.62 42.5961C93.3587 42.5961 95.675 40.9848 95.675 37.0573V27.5123H93.46V28.3773H93.4587ZM90.7812 35.7286C89.17 35.7286 87.8212 34.3786 87.8212 32.5261C87.8212 30.6523 89.17 29.2836 90.7812 29.2836C92.3712 29.2836 93.62 30.6523 93.62 32.5261C93.62 34.3786 92.3712 35.7286 90.7812 35.7286ZM121.257 21.8736H115.669V37.4998H118V31.5798H121.256C123.841 31.5798 126.384 29.7086 126.384 26.7273C126.384 23.7461 123.842 21.8736 121.257 21.8736ZM121.317 29.4048H118V24.0486H121.317C123.061 24.0486 124.051 25.4923 124.051 26.7273C124.051 27.9373 123.061 29.4048 121.317 29.4048ZM135.732 27.1611C134.044 27.1611 132.295 27.9048 131.571 29.5536L133.641 30.4173C134.084 29.5536 134.909 29.2711 135.772 29.2711C136.979 29.2711 138.205 29.9948 138.225 31.2811V31.4423C137.802 31.2011 136.897 30.8398 135.792 30.8398C133.561 30.8398 131.289 32.0661 131.289 34.3573C131.289 36.4486 133.119 37.7948 135.169 37.7948C136.736 37.7948 137.601 37.0911 138.144 36.2661H138.224V37.4723H140.476V31.4811C140.477 28.7086 138.405 27.1611 135.732 27.1611ZM135.45 35.7248C134.687 35.7248 133.621 35.3423 133.621 34.3973C133.621 33.1911 134.949 32.7286 136.095 32.7286C137.119 32.7286 137.602 32.9498 138.225 33.2511C138.044 34.6998 136.797 35.7248 135.45 35.7248ZM148.679 27.5023L146.005 34.2773H145.925L143.15 27.5023H140.637L144.799 36.9711L142.426 42.2386H144.859L151.272 27.5023H148.679ZM127.671 37.4998H130.002V21.8736H127.671V37.4998Z" fill="white"/>
<path d="M53.2726 12.8035C53.2726 13.851 52.9626 14.6847 52.3413 15.3072C51.6363 16.0472 50.7163 16.4172 49.5863 16.4172C48.5038 16.4172 47.5826 16.0422 46.8263 15.2922C46.0688 14.541 45.6901 13.611 45.6901 12.501C45.6901 11.3897 46.0688 10.4597 46.8263 9.70975C47.5826 8.9585 48.5038 8.5835 49.5863 8.5835C50.1238 8.5835 50.6376 8.6885 51.1251 8.89725C51.6138 9.10725 52.0051 9.386 52.2976 9.73475L51.6388 10.3947C51.1426 9.801 50.4588 9.50475 49.5851 9.50475C48.7951 9.50475 48.1126 9.78225 47.5363 10.3372C46.9601 10.8922 46.6726 11.6135 46.6726 12.4997C46.6726 13.386 46.9601 14.1072 47.5363 14.6622C48.1126 15.2172 48.7951 15.4947 49.5851 15.4947C50.4226 15.4947 51.1213 15.216 51.6801 14.6572C52.0426 14.2935 52.2526 13.7872 52.3088 13.1385H49.5851V12.2372H53.2188C53.2563 12.4335 53.2726 12.6222 53.2726 12.8035Z" fill="white"/>
<path d="M59.0352 9.67107H55.6202V12.0486H58.7002V12.9498H55.6202V15.3273H59.0352V16.2498H54.6564V8.74982H59.0352V9.67107Z" fill="white"/>
<path d="M63.0988 16.2498H62.135V9.67107H60.04V8.74982H65.1938V9.67107H63.0988V16.2498Z" fill="white"/>
<path d="M68.9225 16.2498V8.74982H69.8862V16.2498H68.9225Z" fill="black"/>
<path d="M74.1602 16.2498H73.1964V9.67107H71.1014V8.74982H76.2552V9.67107H74.1602V16.2498Z" fill="white"/>
<path d="M86.0112 15.2811C85.2737 16.0386 84.3574 16.4173 83.2612 16.4173C82.1649 16.4173 81.2487 16.0386 80.5124 15.2811C79.7749 14.5236 79.4074 13.5961 79.4074 12.4998C79.4074 11.4036 79.7749 10.4761 80.5124 9.71855C81.2487 8.96105 82.1649 8.58105 83.2612 8.58105C84.3512 8.58105 85.2662 8.9623 86.0062 9.72355C86.7462 10.4848 87.1162 11.4098 87.1162 12.4998C87.1162 13.5961 86.7474 14.5236 86.0112 15.2811ZM81.2237 14.6523C81.7787 15.2148 82.4574 15.4948 83.2612 15.4948C84.0649 15.4948 84.7449 15.2136 85.2987 14.6523C85.8537 14.0898 86.1324 13.3723 86.1324 12.4998C86.1324 11.6273 85.8537 10.9098 85.2987 10.3473C84.7449 9.7848 84.0649 9.50481 83.2612 9.50481C82.4574 9.50481 81.7787 9.78605 81.2237 10.3473C80.6699 10.9098 80.3912 11.6273 80.3912 12.4998C80.3912 13.3723 80.6699 14.0898 81.2237 14.6523Z" fill="white"/>
<path d="M88.4687 16.2498V8.74982H89.6412L93.2862 14.5836H93.3274L93.2862 13.1386V8.74982H94.2499V16.2498H93.2437L89.4299 10.1323H89.3887L89.4299 11.5773V16.2498H88.4687Z" fill="white"/>
<path d="M53.2726 12.8035C53.2726 13.851 52.9626 14.6847 52.3413 15.3072C51.6363 16.0472 50.7163 16.4172 49.5863 16.4172C48.5038 16.4172 47.5826 16.0422 46.8263 15.2922C46.0688 14.541 45.6901 13.611 45.6901 12.501C45.6901 11.3897 46.0688 10.4597 46.8263 9.70975C47.5826 8.9585 48.5038 8.5835 49.5863 8.5835C50.1238 8.5835 50.6376 8.6885 51.1251 8.89725C51.6138 9.10725 52.0051 9.386 52.2976 9.73475L51.6388 10.3947C51.1426 9.801 50.4588 9.50475 49.5851 9.50475C48.7951 9.50475 48.1126 9.78225 47.5363 10.3372C46.9601 10.8922 46.6726 11.6135 46.6726 12.4997C46.6726 13.386 46.9601 14.1072 47.5363 14.6622C48.1126 15.2172 48.7951 15.4947 49.5851 15.4947C50.4226 15.4947 51.1213 15.216 51.6801 14.6572C52.0426 14.2935 52.2526 13.7872 52.3088 13.1385H49.5851V12.2372H53.2188C53.2563 12.4335 53.2726 12.6222 53.2726 12.8035Z" stroke="white" stroke-width="0.2" stroke-miterlimit="10"/>
<path d="M59.0352 9.67107H55.6202V12.0486H58.7002V12.9498H55.6202V15.3273H59.0352V16.2498H54.6564V8.74982H59.0352V9.67107Z" stroke="white" stroke-width="0.2" stroke-miterlimit="10"/>
<path d="M63.0988 16.2498H62.135V9.67107H60.04V8.74982H65.1938V9.67107H63.0988V16.2498Z" stroke="white" stroke-width="0.2" stroke-miterlimit="10"/>
<path d="M68.9225 16.2498V8.74982H69.8862V16.2498H68.9225Z" stroke="white" stroke-width="0.2" stroke-miterlimit="10"/>
<path d="M74.1602 16.2498H73.1964V9.67107H71.1014V8.74982H76.2552V9.67107H74.1602V16.2498Z" stroke="white" stroke-width="0.2" stroke-miterlimit="10"/>
<path d="M86.0112 15.2811C85.2737 16.0386 84.3574 16.4173 83.2612 16.4173C82.1649 16.4173 81.2487 16.0386 80.5124 15.2811C79.7749 14.5236 79.4074 13.5961 79.4074 12.4998C79.4074 11.4036 79.7749 10.4761 80.5124 9.71855C81.2487 8.96105 82.1649 8.58105 83.2612 8.58105C84.3512 8.58105 85.2662 8.9623 86.0062 9.72355C86.7462 10.4848 87.1162 11.4098 87.1162 12.4998C87.1162 13.5961 86.7474 14.5236 86.0112 15.2811ZM81.2237 14.6523C81.7787 15.2148 82.4574 15.4948 83.2612 15.4948C84.0649 15.4948 84.7449 15.2136 85.2987 14.6523C85.8537 14.0898 86.1324 13.3723 86.1324 12.4998C86.1324 11.6273 85.8537 10.9098 85.2987 10.3473C84.7449 9.7848 84.0649 9.50481 83.2612 9.50481C82.4574 9.50481 81.7787 9.78605 81.2237 10.3473C80.6699 10.9098 80.3912 11.6273 80.3912 12.4998C80.3912 13.3723 80.6699 14.0898 81.2237 14.6523Z" stroke="white" stroke-width="0.2" stroke-miterlimit="10"/>
<path d="M88.4687 16.2498V8.74982H89.6412L93.2862 14.5836H93.3274L93.2862 13.1386V8.74982H94.2499V16.2498H93.2437L89.4299 10.1323H89.3887L89.4299 11.5773V16.2498H88.4687Z" stroke="white" stroke-width="0.2" stroke-miterlimit="10"/>
<g filter="url(#filter0_ii)">
<path d="M7.04506 9.42279C6.68131 9.80779 6.46631 10.4053 6.46631 11.179V38.824C6.46631 39.599 6.68131 40.1953 7.04506 40.5803L7.13756 40.6703L22.6238 25.184V25.0015V24.819L7.13756 9.33154L7.04506 9.42279Z" fill="url(#paint0_linear)"/>
<path d="M27.785 30.3475L22.6238 25.1837V25.0012V24.8187L27.7863 19.6563L27.9025 19.7225L34.0188 23.1975C35.765 24.19 35.765 25.8137 34.0188 26.8075L27.9025 30.2825L27.785 30.3475Z" fill="url(#paint1_linear)"/>
<g filter="url(#filter1_i)">
<path d="M27.9025 30.2815L22.6225 25.0015L7.04504 40.5802C7.62005 41.1902 8.57129 41.2652 9.64254 40.6577L27.9025 30.2815Z" fill="url(#paint2_linear)"/>
</g>
<path d="M27.9025 19.7214L9.64254 9.34636C8.57129 8.73761 7.62005 8.81386 7.04504 9.42386L22.6238 25.0026L27.9025 19.7214Z" fill="url(#paint3_linear)"/>
</g>
<defs>
<filter id="filter0_ii" x="6.46631" y="8.92627" width="28.8622" height="32.151" filterUnits="userSpaceOnUse" color-interpolation-filters="sRGB">
<feFlood flood-opacity="0" result="BackgroundImageFix"/>
<feBlend mode="normal" in="SourceGraphic" in2="BackgroundImageFix" result="shape"/>
<feColorMatrix in="SourceAlpha" type="matrix" values="0 0 0 0 0 0 0 0 0 0 0 0 0 0 0 0 0 0 127 0" result="hardAlpha"/>
<feOffset dy="-0.15"/>
<feComposite in2="hardAlpha" operator="arithmetic" k2="-1" k3="1"/>
<feColorMatrix type="matrix" values="0 0 0 0 0 0 0 0 0 0 0 0 0 0 0 0 0 0 0.12 0"/>
<feBlend mode="normal" in2="shape" result="effect1_innerShadow"/>
<feColorMatrix in="SourceAlpha" type="matrix" values="0 0 0 0 0 0 0 0 0 0 0 0 0 0 0 0 0 0 127 0" result="hardAlpha"/>
<feOffset dy="0.15"/>
<feComposite in2="hardAlpha" operator="arithmetic" k2="-1" k3="1"/>
<feColorMatrix type="matrix" values="0 0 0 0 1 0 0 0 0 1 0 0 0 0 1 0 0 0 0.25 0"/>
<feBlend mode="normal" in2="effect1_innerShadow" result="effect2_innerShadow"/>
</filter>
<filter id="filter1_i" x="7.04504" y="25.0015" width="20.8575" height="16.0758" filterUnits="userSpaceOnUse" color-interpolation-filters="sRGB">
<feFlood flood-opacity="0" result="BackgroundImageFix"/>
<feBlend mode="normal" in="SourceGraphic" in2="BackgroundImageFix" result="shape"/>
<feColorMatrix in="SourceAlpha" type="matrix" values="0 0 0 0 0 0 0 0 0 0 0 0 0 0 0 0 0 0 127 0" result="hardAlpha"/>
<feOffset dy="-0.15"/>
<feComposite in2="hardAlpha" operator="arithmetic" k2="-1" k3="1"/>
<feColorMatrix type="matrix" values="0 0 0 0 0 0 0 0 0 0 0 0 0 0 0 0 0 0 0.08 0"/>
<feBlend mode="normal" in2="shape" result="effect1_innerShadow"/>
</filter>
<linearGradient id="paint0_linear" x1="21.2511" y1="10.8865" x2="0.273562" y2="31.864" gradientUnits="userSpaceOnUse">
<stop stop-color="#00A0FF"/>
<stop offset="0.0066" stop-color="#00A1FF"/>
<stop offset="0.2601" stop-color="#00BEFF"/>
<stop offset="0.5122" stop-color="#00D2FF"/>
<stop offset="0.7604" stop-color="#00DFFF"/>
<stop offset="1" stop-color="#00E3FF"/>
</linearGradient>
<linearGradient id="paint1_linear" x1="36.2919" y1="25.0013" x2="6.04703" y2="25.0013" gradientUnits="userSpaceOnUse">
<stop stop-color="#FFE000"/>
<stop offset="0.4087" stop-color="#FFBD00"/>
<stop offset="0.7754" stop-color="#FFA500"/>
<stop offset="1" stop-color="#FF9C00"/>
</linearGradient>
<linearGradient id="paint2_linear" x1="25.0352" y1="27.8688" x2="-3.41295" y2="56.317" gradientUnits="userSpaceOnUse">
<stop stop-color="#FF3A44"/>
<stop offset="1" stop-color="#C31162"/>
</linearGradient>
<linearGradient id="paint3_linear" x1="3.12179" y1="0.221115" x2="15.8247" y2="12.924" gradientUnits="userSpaceOnUse">
<stop stop-color="#32A071"/>
<stop offset="0.0685" stop-color="#2DA771"/>
<stop offset="0.4762" stop-color="#15CF74"/>
<stop offset="0.8009" stop-color="#06E775"/>
<stop offset="1" stop-color="#00F076"/>
</linearGradient>
</defs>
</svg>
