<svg width="130" height="40" viewBox="0 0 130 40" fill="none" xmlns="http://www.w3.org/2000/svg">
<path d="M0 6C0 2.68629 2.68629 0 6 0H124C127.314 0 130 2.68629 130 6V34C130 37.3137 127.314 40 124 40H6C2.68629 40 0 37.3137 0 34V6Z" fill="black"/>
<path d="M63.336 21.7509C60.984 21.7509 59.067 23.5399 59.067 26.0039C59.067 28.4529 60.984 30.2569 63.336 30.2569C65.689 30.2569 67.606 28.4529 67.606 26.0039C67.605 23.5399 65.688 21.7509 63.336 21.7509ZM63.336 28.5829C62.047 28.5829 60.936 27.5199 60.936 26.0049C60.936 24.4739 62.048 23.4269 63.336 23.4269C64.625 23.4269 65.736 24.4739 65.736 26.0049C65.736 27.5189 64.625 28.5829 63.336 28.5829ZM54.022 21.7509C51.67 21.7509 49.753 23.5399 49.753 26.0039C49.753 28.4529 51.67 30.2569 54.022 30.2569C56.375 30.2569 58.292 28.4529 58.292 26.0039C58.292 23.5399 56.375 21.7509 54.022 21.7509ZM54.022 28.5829C52.733 28.5829 51.622 27.5199 51.622 26.0049C51.622 24.4739 52.734 23.4269 54.022 23.4269C55.311 23.4269 56.422 24.4739 56.422 26.0049C56.423 27.5189 55.311 28.5829 54.022 28.5829ZM42.944 23.0569V24.8609H47.262C47.133 25.8759 46.795 26.6169 46.279 27.1319C45.651 27.7599 44.668 28.4529 42.944 28.4529C40.286 28.4529 38.208 26.3099 38.208 23.6519C38.208 20.9939 40.286 18.8509 42.944 18.8509C44.378 18.8509 45.425 19.4149 46.198 20.1399L47.471 18.8669C46.391 17.8359 44.958 17.0469 42.944 17.0469C39.303 17.0469 36.242 20.0109 36.242 23.6519C36.242 27.2929 39.303 30.2569 42.944 30.2569C44.909 30.2569 46.392 29.6119 47.551 28.4039C48.743 27.2119 49.114 25.5359 49.114 24.1829C49.114 23.7649 49.082 23.3779 49.017 23.0559H42.944V23.0569ZM88.252 24.4579C87.898 23.5079 86.818 21.7509 84.611 21.7509C82.42 21.7509 80.599 23.4749 80.599 26.0039C80.599 28.3879 82.404 30.2569 84.82 30.2569C86.769 30.2569 87.897 29.0649 88.365 28.3719L86.915 27.4049C86.432 28.1139 85.771 28.5809 84.82 28.5809C83.87 28.5809 83.193 28.1459 82.758 27.2919L88.445 24.9399L88.252 24.4579ZM82.452 25.8759C82.404 24.2319 83.725 23.3949 84.676 23.3949C85.417 23.3949 86.045 23.7659 86.255 24.2969L82.452 25.8759ZM77.829 29.9999H79.697V17.4989H77.829V29.9999ZM74.767 22.7019H74.703C74.284 22.2019 73.478 21.7509 72.464 21.7509C70.337 21.7509 68.388 23.6199 68.388 26.0209C68.388 28.4049 70.337 30.2579 72.464 30.2579C73.479 30.2579 74.284 29.8069 74.703 29.2919H74.767V29.9039C74.767 31.5309 73.897 32.4009 72.496 32.4009C71.352 32.4009 70.643 31.5799 70.353 30.8869L68.726 31.5639C69.193 32.6909 70.433 34.0769 72.496 34.0769C74.687 34.0769 76.54 32.7879 76.54 29.6459V22.0099H74.768V22.7019H74.767ZM72.625 28.5829C71.336 28.5829 70.257 27.5029 70.257 26.0209C70.257 24.5219 71.336 23.4269 72.625 23.4269C73.897 23.4269 74.896 24.5219 74.896 26.0209C74.896 27.5029 73.897 28.5829 72.625 28.5829ZM97.006 17.4989H92.535V29.9999H94.4V25.2639H97.005C99.073 25.2639 101.107 23.7669 101.107 21.3819C101.107 18.9969 99.074 17.4989 97.006 17.4989ZM97.054 23.5239H94.4V19.2389H97.054C98.449 19.2389 99.241 20.3939 99.241 21.3819C99.241 22.3499 98.449 23.5239 97.054 23.5239ZM108.586 21.7289C107.235 21.7289 105.836 22.3239 105.257 23.6429L106.913 24.3339C107.267 23.6429 107.927 23.4169 108.618 23.4169C109.583 23.4169 110.564 23.9959 110.58 25.0249V25.1539C110.242 24.9609 109.518 24.6719 108.634 24.6719C106.849 24.6719 105.031 25.6529 105.031 27.4859C105.031 29.1589 106.495 30.2359 108.135 30.2359C109.389 30.2359 110.081 29.6729 110.515 29.0129H110.579V29.9779H112.381V25.1849C112.382 22.9669 110.724 21.7289 108.586 21.7289ZM108.36 28.5799C107.75 28.5799 106.897 28.2739 106.897 27.5179C106.897 26.5529 107.959 26.1829 108.876 26.1829C109.695 26.1829 110.082 26.3599 110.58 26.6009C110.435 27.7599 109.438 28.5799 108.36 28.5799ZM118.943 22.0019L116.804 27.4219H116.74L114.52 22.0019H112.51L115.839 29.5769L113.941 33.7909H115.887L121.018 22.0019H118.943ZM102.137 29.9999H104.002V17.4989H102.137V29.9999Z" fill="white"/>
<path d="M42.6181 10.2427C42.6181 11.0807 42.3701 11.7477 41.8731 12.2457C41.3091 12.8377 40.5731 13.1337 39.6691 13.1337C38.8031 13.1337 38.0661 12.8337 37.4611 12.2337C36.8551 11.6327 36.5521 10.8887 36.5521 10.0007C36.5521 9.1117 36.8551 8.3677 37.4611 7.7677C38.0661 7.1667 38.8031 6.8667 39.6691 6.8667C40.0991 6.8667 40.5101 6.9507 40.9001 7.1177C41.2911 7.2857 41.6041 7.5087 41.8381 7.7877L41.3111 8.3157C40.9141 7.8407 40.3671 7.6037 39.6681 7.6037C39.0361 7.6037 38.4901 7.8257 38.0291 8.2697C37.5681 8.7137 37.3381 9.2907 37.3381 9.9997C37.3381 10.7087 37.5681 11.2857 38.0291 11.7297C38.4901 12.1737 39.0361 12.3957 39.6681 12.3957C40.3381 12.3957 40.8971 12.1727 41.3441 11.7257C41.6341 11.4347 41.8021 11.0297 41.8471 10.5107H39.6681V9.7897H42.5751C42.6051 9.9467 42.6181 10.0977 42.6181 10.2427Z" fill="white"/>
<path d="M47.2282 7.73676H44.4962V9.63876H46.9602V10.3598H44.4962V12.2618H47.2282V12.9998H43.7252V6.99976H47.2282V7.73676Z" fill="white"/>
<path d="M50.479 12.9998H49.708V7.73676H48.032V6.99976H52.155V7.73676H50.479V12.9998Z" fill="white"/>
<path d="M55.138 12.9998V6.99976H55.909V12.9998H55.138Z" fill="white"/>
<path d="M59.3282 12.9998H58.5572V7.73676H56.8812V6.99976H61.0042V7.73676H59.3282V12.9998Z" fill="white"/>
<path d="M68.8089 12.2247C68.2189 12.8307 67.4859 13.1337 66.6089 13.1337C65.7319 13.1337 64.9989 12.8307 64.4099 12.2247C63.8199 11.6187 63.5259 10.8767 63.5259 9.99975C63.5259 9.12275 63.8199 8.38075 64.4099 7.77475C64.9989 7.16875 65.7319 6.86475 66.6089 6.86475C67.4809 6.86475 68.2129 7.16975 68.8049 7.77875C69.3969 8.38775 69.6929 9.12775 69.6929 9.99975C69.6929 10.8767 69.3979 11.6187 68.8089 12.2247ZM64.9789 11.7217C65.4229 12.1717 65.9659 12.3957 66.6089 12.3957C67.2519 12.3957 67.7959 12.1707 68.2389 11.7217C68.6829 11.2717 68.9059 10.6977 68.9059 9.99975C68.9059 9.30175 68.6829 8.72775 68.2389 8.27775C67.7959 7.82775 67.2519 7.60375 66.6089 7.60375C65.9659 7.60375 65.4229 7.82875 64.9789 8.27775C64.5359 8.72775 64.3129 9.30175 64.3129 9.99975C64.3129 10.6977 64.5359 11.2717 64.9789 11.7217Z" fill="white"/>
<path d="M70.775 12.9998V6.99976H71.713L74.629 11.6668H74.662L74.629 10.5108V6.99976H75.4V12.9998H74.595L71.544 8.10576H71.511L71.544 9.26175V12.9998H70.775Z" fill="white"/>
<path d="M42.6181 10.2427C42.6181 11.0807 42.3701 11.7477 41.8731 12.2457C41.3091 12.8377 40.5731 13.1337 39.6691 13.1337C38.8031 13.1337 38.0661 12.8337 37.4611 12.2337C36.8551 11.6327 36.5521 10.8887 36.5521 10.0007C36.5521 9.1117 36.8551 8.3677 37.4611 7.7677C38.0661 7.1667 38.8031 6.8667 39.6691 6.8667C40.0991 6.8667 40.5101 6.9507 40.9001 7.1177C41.2911 7.2857 41.6041 7.5087 41.8381 7.7877L41.3111 8.3157C40.9141 7.8407 40.3671 7.6037 39.6681 7.6037C39.0361 7.6037 38.4901 7.8257 38.0291 8.2697C37.5681 8.7137 37.3381 9.2907 37.3381 9.9997C37.3381 10.7087 37.5681 11.2857 38.0291 11.7297C38.4901 12.1737 39.0361 12.3957 39.6681 12.3957C40.3381 12.3957 40.8971 12.1727 41.3441 11.7257C41.6341 11.4347 41.8021 11.0297 41.8471 10.5107H39.6681V9.7897H42.5751C42.6051 9.9467 42.6181 10.0977 42.6181 10.2427Z" stroke="white" stroke-width="0.2" stroke-miterlimit="10"/>
<path d="M47.2282 7.73676H44.4962V9.63876H46.9602V10.3598H44.4962V12.2618H47.2282V12.9998H43.7252V6.99976H47.2282V7.73676Z" stroke="white" stroke-width="0.2" stroke-miterlimit="10"/>
<path d="M50.479 12.9998H49.708V7.73676H48.032V6.99976H52.155V7.73676H50.479V12.9998Z" stroke="white" stroke-width="0.2" stroke-miterlimit="10"/>
<path d="M55.138 12.9998V6.99976H55.909V12.9998H55.138Z" stroke="white" stroke-width="0.2" stroke-miterlimit="10"/>
<path d="M59.3282 12.9998H58.5572V7.73676H56.8812V6.99976H61.0042V7.73676H59.3282V12.9998Z" stroke="white" stroke-width="0.2" stroke-miterlimit="10"/>
<path d="M68.8089 12.2247C68.2189 12.8307 67.4859 13.1337 66.6089 13.1337C65.7319 13.1337 64.9989 12.8307 64.4099 12.2247C63.8199 11.6187 63.5259 10.8767 63.5259 9.99975C63.5259 9.12275 63.8199 8.38075 64.4099 7.77475C64.9989 7.16875 65.7319 6.86475 66.6089 6.86475C67.4809 6.86475 68.2129 7.16975 68.8049 7.77875C69.3969 8.38775 69.6929 9.12775 69.6929 9.99975C69.6929 10.8767 69.3979 11.6187 68.8089 12.2247ZM64.9789 11.7217C65.4229 12.1717 65.9659 12.3957 66.6089 12.3957C67.2519 12.3957 67.7959 12.1707 68.2389 11.7217C68.6829 11.2717 68.9059 10.6977 68.9059 9.99975C68.9059 9.30175 68.6829 8.72775 68.2389 8.27775C67.7959 7.82775 67.2519 7.60375 66.6089 7.60375C65.9659 7.60375 65.4229 7.82875 64.9789 8.27775C64.5359 8.72775 64.3129 9.30175 64.3129 9.99975C64.3129 10.6977 64.5359 11.2717 64.9789 11.7217Z" stroke="white" stroke-width="0.2" stroke-miterlimit="10"/>
<path d="M70.775 12.9998V6.99976H71.713L74.629 11.6668H74.662L74.629 10.5108V6.99976H75.4V12.9998H74.595L71.544 8.10576H71.511L71.544 9.26175V12.9998H70.775Z" stroke="white" stroke-width="0.2" stroke-miterlimit="10"/>
<g filter="url(#filter0_ii)">
<path d="M6.63604 7.53833C6.34504 7.84633 6.17303 8.32433 6.17303 8.94333V31.0593C6.17303 31.6793 6.34504 32.1563 6.63604 32.4643L6.71003 32.5363L19.099 20.1473V20.0013V19.8553L6.71003 7.46533L6.63604 7.53833Z" fill="url(#paint0_linear)"/>
<path d="M23.2281 24.2781L19.0991 20.1471V20.0011V19.8551L23.2291 15.7251L23.3221 15.7781L28.2151 18.5581C29.6121 19.3521 29.6121 20.6511 28.2151 21.4461L23.3221 24.2261L23.2281 24.2781Z" fill="url(#paint1_linear)"/>
<g filter="url(#filter1_i)">
<path d="M23.3221 24.225L19.098 20.001L6.63605 32.464C7.09605 32.952 7.85705 33.012 8.71405 32.526L23.3221 24.225Z" fill="url(#paint2_linear)"/>
</g>
<path d="M23.3221 15.7772L8.71405 7.47719C7.85705 6.99019 7.09605 7.05119 6.63605 7.53919L19.099 20.0022L23.3221 15.7772Z" fill="url(#paint3_linear)"/>
</g>
<defs>
<filter id="filter0_ii" x="6.17303" y="7.14111" width="23.0898" height="25.7205" filterUnits="userSpaceOnUse" color-interpolation-filters="sRGB">
<feFlood flood-opacity="0" result="BackgroundImageFix"/>
<feBlend mode="normal" in="SourceGraphic" in2="BackgroundImageFix" result="shape"/>
<feColorMatrix in="SourceAlpha" type="matrix" values="0 0 0 0 0 0 0 0 0 0 0 0 0 0 0 0 0 0 127 0" result="hardAlpha"/>
<feOffset dy="-0.15"/>
<feComposite in2="hardAlpha" operator="arithmetic" k2="-1" k3="1"/>
<feColorMatrix type="matrix" values="0 0 0 0 0 0 0 0 0 0 0 0 0 0 0 0 0 0 0.12 0"/>
<feBlend mode="normal" in2="shape" result="effect1_innerShadow"/>
<feColorMatrix in="SourceAlpha" type="matrix" values="0 0 0 0 0 0 0 0 0 0 0 0 0 0 0 0 0 0 127 0" result="hardAlpha"/>
<feOffset dy="0.15"/>
<feComposite in2="hardAlpha" operator="arithmetic" k2="-1" k3="1"/>
<feColorMatrix type="matrix" values="0 0 0 0 1 0 0 0 0 1 0 0 0 0 1 0 0 0 0.25 0"/>
<feBlend mode="normal" in2="effect1_innerShadow" result="effect2_innerShadow"/>
</filter>
<filter id="filter1_i" x="6.63605" y="20.001" width="16.686" height="12.8607" filterUnits="userSpaceOnUse" color-interpolation-filters="sRGB">
<feFlood flood-opacity="0" result="BackgroundImageFix"/>
<feBlend mode="normal" in="SourceGraphic" in2="BackgroundImageFix" result="shape"/>
<feColorMatrix in="SourceAlpha" type="matrix" values="0 0 0 0 0 0 0 0 0 0 0 0 0 0 0 0 0 0 127 0" result="hardAlpha"/>
<feOffset dy="-0.15"/>
<feComposite in2="hardAlpha" operator="arithmetic" k2="-1" k3="1"/>
<feColorMatrix type="matrix" values="0 0 0 0 0 0 0 0 0 0 0 0 0 0 0 0 0 0 0.08 0"/>
<feBlend mode="normal" in2="shape" result="effect1_innerShadow"/>
</filter>
<linearGradient id="paint0_linear" x1="18.0008" y1="8.70933" x2="1.21884" y2="25.4913" gradientUnits="userSpaceOnUse">
<stop stop-color="#00A0FF"/>
<stop offset="0.0066" stop-color="#00A1FF"/>
<stop offset="0.2601" stop-color="#00BEFF"/>
<stop offset="0.5122" stop-color="#00D2FF"/>
<stop offset="0.7604" stop-color="#00DFFF"/>
<stop offset="1" stop-color="#00E3FF"/>
</linearGradient>
<linearGradient id="paint1_linear" x1="30.0336" y1="20.0011" x2="5.83765" y2="20.0011" gradientUnits="userSpaceOnUse">
<stop stop-color="#FFE000"/>
<stop offset="0.4087" stop-color="#FFBD00"/>
<stop offset="0.7754" stop-color="#FFA500"/>
<stop offset="1" stop-color="#FF9C00"/>
</linearGradient>
<linearGradient id="paint2_linear" x1="21.0282" y1="22.2949" x2="-1.73034" y2="45.0534" gradientUnits="userSpaceOnUse">
<stop stop-color="#FF3A44"/>
<stop offset="1" stop-color="#C31162"/>
</linearGradient>
<linearGradient id="paint3_linear" x1="3.49745" y1="0.17699" x2="13.6597" y2="10.3393" gradientUnits="userSpaceOnUse">
<stop stop-color="#32A071"/>
<stop offset="0.0685" stop-color="#2DA771"/>
<stop offset="0.4762" stop-color="#15CF74"/>
<stop offset="0.8009" stop-color="#06E775"/>
<stop offset="1" stop-color="#00F076"/>
</linearGradient>
</defs>
</svg>
