<svg width="30" height="22" viewBox="0 0 30 22" fill="none" xmlns="http://www.w3.org/2000/svg">
<path d="M30 5.55078V3.96875C30 2.15656 28.5309 0.6875 26.7188 0.6875H3.28125C1.46906 0.6875 0 2.15656 0 3.96875V5.55078C0 5.71256 0.131191 5.84375 0.292969 5.84375H29.707C29.8688 5.84375 30 5.71256 30 5.55078Z" fill="#DBD3CA"/>
<path d="M0 8.01172V18.0312C0 19.8434 1.46906 21.3125 3.28125 21.3125H26.7188C28.5309 21.3125 30 19.8434 30 18.0312V8.01172C30 7.84994 29.8688 7.71875 29.707 7.71875H0.292969C0.131191 7.71875 0 7.84994 0 8.01172ZM7.5 15.6875C7.5 16.2052 7.08023 16.625 6.5625 16.625H5.625C5.10727 16.625 4.6875 16.2052 4.6875 15.6875V14.75C4.6875 14.2323 5.10727 13.8125 5.625 13.8125H6.5625C7.08023 13.8125 7.5 14.2323 7.5 14.75V15.6875Z" fill="#DBD3CA"/>
</svg>
