<svg width="800" height="610" viewBox="0 0 800 610" fill="none" xmlns="http://www.w3.org/2000/svg">
<rect width="200" height="250" fill="#DBD3CA"/>
<path fill-rule="evenodd" clip-rule="evenodd" d="M105 81.5C126.263 81.5 143.5 98.737 143.5 120C143.5 141.263 126.263 158.5 105 158.5C83.737 158.5 66.5 141.263 66.5 120C66.5 98.737 83.737 81.5 105 81.5ZM146.5 120C146.5 97.0802 127.92 78.5 105 78.5C82.0802 78.5 63.5 97.0802 63.5 120C63.5 142.92 82.0802 161.5 105 161.5C127.92 161.5 146.5 142.92 146.5 120Z" fill="black"/>
<path fill-rule="evenodd" clip-rule="evenodd" d="M75.6878 147.189L53.9378 168.939L56.0591 171.06L77.8091 149.31L75.6878 147.189Z" fill="black"/>
<path fill-rule="evenodd" clip-rule="evenodd" d="M123.132 129.368C120.975 127.212 118.05 126 115 126H94.9999C91.95 126 89.0249 127.212 86.8682 129.368C84.7116 131.525 83.4999 134.45 83.4999 137.5V142.5H86.4999V137.5C86.4999 135.246 87.3955 133.084 88.9895 131.49C90.5836 129.896 92.7456 129 94.9999 129H115C117.254 129 119.416 129.896 121.01 131.49C122.604 133.084 123.5 135.246 123.5 137.5V142.5H126.5V137.5C126.5 134.45 125.288 131.525 123.132 129.368Z" fill="black"/>
<path fill-rule="evenodd" clip-rule="evenodd" d="M105 99C109.694 99 113.5 102.806 113.5 107.5C113.5 112.194 109.694 116 105 116C100.306 116 96.5001 112.194 96.5001 107.5C96.5001 102.806 100.306 99 105 99ZM116.5 107.5C116.5 101.149 111.351 96 105 96C98.6488 96 93.5001 101.149 93.5001 107.5C93.5001 113.851 98.6488 119 105 119C111.351 119 116.5 113.851 116.5 107.5Z" fill="black"/>
<rect x="150" y="90" width="200" height="250" fill="#DED8D0"/>
<path fill-rule="evenodd" clip-rule="evenodd" d="M291.5 163.5H208.5V266.5H291.5V163.5ZM288.5 166.5V263.5H211.5V166.5H288.5Z" fill="black"/>
<path fill-rule="evenodd" clip-rule="evenodd" d="M270 213.5H230V216.5H270V213.5Z" fill="black"/>
<path fill-rule="evenodd" clip-rule="evenodd" d="M260 233.5H230V236.5H260V233.5Z" fill="black"/>
<path fill-rule="evenodd" clip-rule="evenodd" d="M270 196.5L230 196.5L230 193.5L270 193.5L270 196.5Z" fill="black"/>
<rect x="300" y="180" width="200" height="250" fill="#E4DFD8"/>
<path fill-rule="evenodd" clip-rule="evenodd" d="M400 249.545L455.455 305L400 360.455L344.545 305L400 249.545ZM348.788 305L400 356.212L451.212 305L400 253.788L348.788 305Z" fill="black"/>
<path fill-rule="evenodd" clip-rule="evenodd" d="M401.882 281.672C398.739 281.133 395.508 281.724 392.759 283.339C390.011 284.954 387.922 287.49 386.864 290.498L384.034 289.502C385.327 285.827 387.88 282.727 391.239 280.753C394.599 278.778 398.548 278.057 402.389 278.715C406.229 279.374 409.713 281.371 412.222 284.352C414.732 287.333 416.105 291.105 416.099 295.001C416.099 300.797 411.772 304.938 407.931 307.498C405.966 308.809 404.01 309.785 402.552 310.433C401.821 310.758 401.21 311.003 400.778 311.168C400.562 311.25 400.39 311.312 400.27 311.355C400.211 311.376 400.164 311.393 400.131 311.404L400.091 311.417L400.08 311.421L400.075 311.423C400.074 311.423 400.074 311.423 399.599 310C399.125 308.577 399.125 308.577 399.124 308.577L399.129 308.576L399.154 308.567C399.178 308.559 399.215 308.546 399.265 308.528C399.365 308.493 399.516 308.438 399.71 308.364C400.098 308.216 400.659 307.992 401.334 307.692C402.689 307.09 404.483 306.191 406.267 305.002C409.927 302.562 413.099 299.204 413.099 295L413.099 294.998C413.104 291.81 411.98 288.723 409.927 286.284C407.874 283.845 405.024 282.211 401.882 281.672ZM416.099 295.001C416.099 295.002 416.099 295.002 416.099 295.002L414.599 295H416.099C416.099 295.001 416.099 295.001 416.099 295.001Z" fill="black"/>
<path fill-rule="evenodd" clip-rule="evenodd" d="M398.5 330C398.5 329.172 399.172 328.5 400 328.5H400.049C400.877 328.5 401.549 329.172 401.549 330C401.549 330.828 400.877 331.5 400.049 331.5H400C399.172 331.5 398.5 330.828 398.5 330Z" fill="black"/>
<rect x="450" y="270" width="200" height="250" fill="#EDE9E3"/>
<path fill-rule="evenodd" clip-rule="evenodd" d="M550 339.545L605.455 395L550 450.455L494.545 395L550 339.545ZM498.788 395L550 446.212L601.212 395L550 343.788L498.788 395Z" fill="black"/>
<path fill-rule="evenodd" clip-rule="evenodd" d="M551.882 371.672C548.739 371.133 545.508 371.724 542.759 373.339C540.011 374.954 537.922 377.49 536.864 380.498L534.034 379.502C535.327 375.827 537.88 372.727 541.239 370.753C544.599 368.778 548.548 368.057 552.389 368.715C556.229 369.374 559.713 371.371 562.222 374.352C564.732 377.333 566.105 381.105 566.099 385.001C566.099 390.797 561.772 394.938 557.931 397.498C555.966 398.809 554.01 399.785 552.552 400.433C551.821 400.758 551.21 401.003 550.778 401.168C550.562 401.25 550.39 401.312 550.27 401.355C550.211 401.376 550.164 401.393 550.131 401.404L550.091 401.417L550.08 401.421L550.075 401.423C550.074 401.423 550.074 401.423 549.599 400C549.125 398.577 549.125 398.577 549.124 398.577L549.129 398.576L549.154 398.567C549.178 398.559 549.215 398.546 549.265 398.528C549.365 398.493 549.516 398.438 549.71 398.364C550.098 398.216 550.659 397.992 551.334 397.692C552.689 397.09 554.483 396.191 556.267 395.002C559.927 392.562 563.099 389.204 563.099 385L563.099 384.998C563.104 381.81 561.98 378.723 559.927 376.284C557.874 373.845 555.024 372.211 551.882 371.672ZM566.099 385.001C566.099 385.002 566.099 385.002 566.099 385.002L564.599 385H566.099C566.099 385.001 566.099 385.001 566.099 385.001Z" fill="black"/>
<path fill-rule="evenodd" clip-rule="evenodd" d="M548.5 420C548.5 419.172 549.172 418.5 550 418.5H550.049C550.877 418.5 551.549 419.172 551.549 420C551.549 420.828 550.877 421.5 550.049 421.5H550C549.172 421.5 548.5 420.828 548.5 420Z" fill="black"/>
<rect x="600" y="360" width="200" height="250" fill="#F3F0EC"/>
<path fill-rule="evenodd" clip-rule="evenodd" d="M700 429.545L755.455 485L700 540.454L644.546 485L700 429.545ZM648.788 485L700 536.212L751.212 485L700 433.788L648.788 485Z" fill="black"/>
<path fill-rule="evenodd" clip-rule="evenodd" d="M701.882 461.672C698.739 461.133 695.508 461.724 692.759 463.339C690.01 464.955 687.922 467.491 686.864 470.498L684.034 469.503C685.327 465.827 687.88 462.727 691.239 460.753C694.598 458.779 698.548 458.057 702.389 458.716C706.229 459.374 709.713 461.371 712.222 464.352C714.731 467.333 716.105 471.105 716.099 475.002C716.099 480.797 711.772 484.938 707.931 487.498C705.965 488.809 704.01 489.786 702.552 490.434C701.821 490.759 701.21 491.003 700.778 491.168C700.562 491.25 700.39 491.313 700.27 491.355C700.21 491.376 700.163 491.393 700.13 491.404L700.091 491.417L700.08 491.421L700.075 491.423C700.074 491.423 700.074 491.423 699.599 490C699.125 488.577 699.125 488.578 699.124 488.578L699.129 488.576L699.154 488.567C699.178 488.559 699.215 488.546 699.265 488.528C699.365 488.493 699.516 488.438 699.71 488.364C700.098 488.216 700.659 487.992 701.334 487.692C702.688 487.09 704.483 486.192 706.267 485.002C709.927 482.563 713.099 479.204 713.099 475L713.099 474.998C713.104 471.81 711.98 468.723 709.927 466.284C707.874 463.845 705.024 462.211 701.882 461.672ZM716.099 475.002C716.099 475.002 716.099 475.002 716.099 475.003L714.599 475H716.099C716.099 475.001 716.099 475.001 716.099 475.002Z" fill="black"/>
<path fill-rule="evenodd" clip-rule="evenodd" d="M698.5 500C698.5 499.172 699.172 498.5 700 498.5H700.049C700.877 498.5 701.549 499.172 701.549 500C701.549 500.828 700.877 501.5 700.049 501.5H700C699.172 501.5 698.5 500.828 698.5 500Z" fill="black"/>
<path d="M613.1 283.333H626.9L636.667 293.1V306.9L626.9 316.667H613.1L603.333 306.9V293.1L613.1 283.333Z" fill="white"/>
<path fill-rule="evenodd" clip-rule="evenodd" d="M612.746 282.98C612.84 282.886 612.967 282.833 613.1 282.833H613.56V283.833H613.307L613.128 284.012L612.421 283.305L612.746 282.98ZM615.4 282.833H616.32V283.833H615.4V282.833ZM618.16 282.833H619.08V283.833H618.16V282.833ZM620.92 282.833H621.84V283.833H620.92V282.833ZM623.68 282.833H624.6V283.833H623.68V282.833ZM626.44 282.833H626.9C627.033 282.833 627.16 282.886 627.254 282.98L627.579 283.305L626.872 284.012L626.693 283.833H626.44V282.833ZM628.881 284.607L629.532 285.259L628.825 285.966L628.174 285.315L628.881 284.607ZM610.468 285.259L611.119 284.607L611.826 285.315L611.175 285.966L610.468 285.259ZM630.835 286.561L631.486 287.212L630.779 287.919L630.128 287.268L630.835 286.561ZM608.514 287.212L609.165 286.561L609.872 287.268L609.221 287.919L608.514 287.212ZM606.561 289.165L607.212 288.514L607.919 289.221L607.268 289.872L606.561 289.165ZM632.788 288.514L633.439 289.165L632.732 289.872L632.081 289.221L632.788 288.514ZM634.741 290.467L635.392 291.119L634.685 291.826L634.034 291.175L634.741 290.467ZM604.608 291.119L605.259 290.467L605.966 291.175L605.315 291.826L604.608 291.119ZM602.98 292.746L603.305 292.421L604.012 293.128L603.833 293.307V293.56H602.833V293.1C602.833 292.967 602.886 292.84 602.98 292.746ZM636.695 292.421L637.02 292.746C637.114 292.84 637.167 292.967 637.167 293.1V293.56H636.167V293.307L635.988 293.128L636.695 292.421ZM637.167 295.4V296.32H636.167V295.4H637.167ZM602.833 296.32V295.4H603.833V296.32H602.833ZM602.833 299.08V298.16H603.833V299.08H602.833ZM637.167 298.16V299.08H636.167V298.16H637.167ZM602.833 301.84V300.92H603.833V301.84H602.833ZM637.167 300.92V301.84H636.167V300.92H637.167ZM637.167 303.68V304.6H636.167V303.68H637.167ZM602.833 304.6V303.68H603.833V304.6H602.833ZM637.167 306.44V306.9C637.167 307.033 637.114 307.16 637.02 307.253L636.695 307.579L635.988 306.872L636.167 306.693V306.44H637.167ZM602.833 306.9V306.44H603.833V306.693L604.012 306.872L603.305 307.579L602.98 307.253C602.886 307.16 602.833 307.033 602.833 306.9ZM605.259 309.532L604.608 308.881L605.315 308.174L605.966 308.825L605.259 309.532ZM635.392 308.881L634.741 309.532L634.034 308.825L634.685 308.174L635.392 308.881ZM633.439 310.835L632.788 311.486L632.081 310.779L632.732 310.127L633.439 310.835ZM607.212 311.486L606.561 310.835L607.268 310.127L607.919 310.779L607.212 311.486ZM609.165 313.439L608.514 312.788L609.221 312.081L609.872 312.732L609.165 313.439ZM631.486 312.788L630.835 313.439L630.128 312.732L630.779 312.081L631.486 312.788ZM629.532 314.741L628.881 315.392L628.174 314.685L628.825 314.034L629.532 314.741ZM611.119 315.392L610.468 314.741L611.175 314.034L611.826 314.685L611.119 315.392ZM612.746 317.02L612.421 316.695L613.128 315.987L613.307 316.167H613.56V317.167H613.1C612.967 317.167 612.84 317.114 612.746 317.02ZM627.579 316.695L627.254 317.02C627.16 317.114 627.033 317.167 626.9 317.167H626.44V316.167H626.693L626.872 315.987L627.579 316.695ZM616.32 317.167H615.4V316.167H616.32V317.167ZM619.08 317.167H618.16V316.167H619.08V317.167ZM621.84 317.167H620.92V316.167H621.84V317.167ZM624.6 317.167H623.68V316.167H624.6V317.167Z" fill="black" fill-opacity="0.28"/>
<path fill-rule="evenodd" clip-rule="evenodd" d="M625.707 294.293C626.098 294.683 626.098 295.317 625.707 295.707L615.707 305.707C615.317 306.098 614.683 306.098 614.293 305.707C613.902 305.317 613.902 304.683 614.293 304.293L624.293 294.293C624.683 293.902 625.317 293.902 625.707 294.293Z" fill="#FB3224"/>
<path fill-rule="evenodd" clip-rule="evenodd" d="M614.293 294.293C614.683 293.902 615.317 293.902 615.707 294.293L625.707 304.293C626.098 304.683 626.098 305.317 625.707 305.707C625.317 306.098 624.683 306.098 624.293 305.707L614.293 295.707C613.902 295.317 613.902 294.683 614.293 294.293Z" fill="#FB3224"/>
<path d="M463.1 193.333H476.9L486.667 203.1V216.9L476.9 226.667H463.1L453.333 216.9V203.1L463.1 193.333Z" fill="white"/>
<path fill-rule="evenodd" clip-rule="evenodd" d="M462.746 192.98C462.84 192.886 462.967 192.833 463.1 192.833H463.56V193.833H463.307L463.128 194.012L462.421 193.305L462.746 192.98ZM465.4 192.833H466.32V193.833H465.4V192.833ZM468.16 192.833H469.08V193.833H468.16V192.833ZM470.92 192.833H471.84V193.833H470.92V192.833ZM473.68 192.833H474.6V193.833H473.68V192.833ZM476.44 192.833H476.9C477.033 192.833 477.16 192.886 477.254 192.98L477.579 193.305L476.872 194.012L476.693 193.833H476.44V192.833ZM478.881 194.607L479.532 195.259L478.825 195.966L478.174 195.315L478.881 194.607ZM460.468 195.259L461.119 194.607L461.826 195.315L461.175 195.966L460.468 195.259ZM480.835 196.561L481.486 197.212L480.779 197.919L480.128 197.268L480.835 196.561ZM458.514 197.212L459.165 196.561L459.872 197.268L459.221 197.919L458.514 197.212ZM456.561 199.165L457.212 198.514L457.919 199.221L457.268 199.872L456.561 199.165ZM482.788 198.514L483.439 199.165L482.732 199.872L482.081 199.221L482.788 198.514ZM484.741 200.467L485.392 201.119L484.685 201.826L484.034 201.175L484.741 200.467ZM454.608 201.119L455.259 200.467L455.966 201.175L455.315 201.826L454.608 201.119ZM452.98 202.746L453.305 202.421L454.012 203.128L453.833 203.307V203.56H452.833V203.1C452.833 202.967 452.886 202.84 452.98 202.746ZM486.695 202.421L487.02 202.746C487.114 202.84 487.167 202.967 487.167 203.1V203.56H486.167V203.307L485.988 203.128L486.695 202.421ZM487.167 205.4V206.32H486.167V205.4H487.167ZM452.833 206.32V205.4H453.833V206.32H452.833ZM452.833 209.08V208.16H453.833V209.08H452.833ZM487.167 208.16V209.08H486.167V208.16H487.167ZM452.833 211.84V210.92H453.833V211.84H452.833ZM487.167 210.92V211.84H486.167V210.92H487.167ZM487.167 213.68V214.6H486.167V213.68H487.167ZM452.833 214.6V213.68H453.833V214.6H452.833ZM487.167 216.44V216.9C487.167 217.033 487.114 217.16 487.02 217.253L486.695 217.579L485.988 216.872L486.167 216.693V216.44H487.167ZM452.833 216.9V216.44H453.833V216.693L454.012 216.872L453.305 217.579L452.98 217.253C452.886 217.16 452.833 217.033 452.833 216.9ZM455.259 219.532L454.608 218.881L455.315 218.174L455.966 218.825L455.259 219.532ZM485.392 218.881L484.741 219.532L484.034 218.825L484.685 218.174L485.392 218.881ZM483.439 220.835L482.788 221.486L482.081 220.779L482.732 220.127L483.439 220.835ZM457.212 221.486L456.561 220.835L457.268 220.127L457.919 220.779L457.212 221.486ZM459.165 223.439L458.514 222.788L459.221 222.081L459.872 222.732L459.165 223.439ZM481.486 222.788L480.835 223.439L480.128 222.732L480.779 222.081L481.486 222.788ZM479.532 224.741L478.881 225.392L478.174 224.685L478.825 224.034L479.532 224.741ZM461.119 225.392L460.468 224.741L461.175 224.034L461.826 224.685L461.119 225.392ZM462.746 227.02L462.421 226.695L463.128 225.987L463.307 226.167H463.56V227.167H463.1C462.967 227.167 462.84 227.114 462.746 227.02ZM477.579 226.695L477.254 227.02C477.16 227.114 477.033 227.167 476.9 227.167H476.44V226.167H476.693L476.872 225.987L477.579 226.695ZM466.32 227.167H465.4V226.167H466.32V227.167ZM469.08 227.167H468.16V226.167H469.08V227.167ZM471.84 227.167H470.92V226.167H471.84V227.167ZM474.6 227.167H473.68V226.167H474.6V227.167Z" fill="black" fill-opacity="0.28"/>
<path fill-rule="evenodd" clip-rule="evenodd" d="M475.707 204.293C476.098 204.683 476.098 205.317 475.707 205.707L465.707 215.707C465.317 216.098 464.683 216.098 464.293 215.707C463.902 215.317 463.902 214.683 464.293 214.293L474.293 204.293C474.683 203.902 475.317 203.902 475.707 204.293Z" fill="#FB3224"/>
<path fill-rule="evenodd" clip-rule="evenodd" d="M464.293 204.293C464.683 203.902 465.317 203.902 465.707 204.293L475.707 214.293C476.098 214.683 476.098 215.317 475.707 215.707C475.317 216.098 474.683 216.098 474.293 215.707L464.293 205.707C463.902 205.317 463.902 204.683 464.293 204.293Z" fill="#FB3224"/>
<path d="M763.1 373.333H776.9L786.667 383.1V396.9L776.9 406.667H763.1L753.333 396.9V383.1L763.1 373.333Z" fill="white"/>
<path fill-rule="evenodd" clip-rule="evenodd" d="M762.746 372.98C762.84 372.886 762.967 372.833 763.1 372.833H763.56V373.833H763.307L763.128 374.012L762.421 373.305L762.746 372.98ZM765.4 372.833H766.32V373.833H765.4V372.833ZM768.16 372.833H769.08V373.833H768.16V372.833ZM770.92 372.833H771.84V373.833H770.92V372.833ZM773.68 372.833H774.6V373.833H773.68V372.833ZM776.44 372.833H776.9C777.033 372.833 777.16 372.886 777.254 372.98L777.579 373.305L776.872 374.012L776.693 373.833H776.44V372.833ZM778.881 374.607L779.532 375.259L778.825 375.966L778.174 375.315L778.881 374.607ZM760.468 375.259L761.119 374.607L761.826 375.315L761.175 375.966L760.468 375.259ZM780.835 376.561L781.486 377.212L780.779 377.919L780.128 377.268L780.835 376.561ZM758.514 377.212L759.165 376.561L759.872 377.268L759.221 377.919L758.514 377.212ZM756.561 379.165L757.212 378.514L757.919 379.221L757.268 379.872L756.561 379.165ZM782.788 378.514L783.439 379.165L782.732 379.872L782.081 379.221L782.788 378.514ZM784.741 380.467L785.392 381.119L784.685 381.826L784.034 381.175L784.741 380.467ZM754.608 381.119L755.259 380.467L755.966 381.175L755.315 381.826L754.608 381.119ZM752.98 382.746L753.305 382.421L754.012 383.128L753.833 383.307V383.56H752.833V383.1C752.833 382.967 752.886 382.84 752.98 382.746ZM786.695 382.421L787.02 382.746C787.114 382.84 787.167 382.967 787.167 383.1V383.56H786.167V383.307L785.988 383.128L786.695 382.421ZM787.167 385.4V386.32H786.167V385.4H787.167ZM752.833 386.32V385.4H753.833V386.32H752.833ZM752.833 389.08V388.16H753.833V389.08H752.833ZM787.167 388.16V389.08H786.167V388.16H787.167ZM752.833 391.84V390.92H753.833V391.84H752.833ZM787.167 390.92V391.84H786.167V390.92H787.167ZM787.167 393.68V394.6H786.167V393.68H787.167ZM752.833 394.6V393.68H753.833V394.6H752.833ZM787.167 396.44V396.9C787.167 397.033 787.114 397.16 787.02 397.253L786.695 397.579L785.988 396.872L786.167 396.693V396.44H787.167ZM752.833 396.9V396.44H753.833V396.693L754.012 396.872L753.305 397.579L752.98 397.253C752.886 397.16 752.833 397.033 752.833 396.9ZM755.259 399.532L754.608 398.881L755.315 398.174L755.966 398.825L755.259 399.532ZM785.392 398.881L784.741 399.532L784.034 398.825L784.685 398.174L785.392 398.881ZM783.439 400.835L782.788 401.486L782.081 400.779L782.732 400.127L783.439 400.835ZM757.212 401.486L756.561 400.835L757.268 400.127L757.919 400.779L757.212 401.486ZM759.165 403.439L758.514 402.788L759.221 402.081L759.872 402.732L759.165 403.439ZM781.486 402.788L780.835 403.439L780.128 402.732L780.779 402.081L781.486 402.788ZM779.532 404.741L778.881 405.392L778.174 404.685L778.825 404.034L779.532 404.741ZM761.119 405.392L760.468 404.741L761.175 404.034L761.826 404.685L761.119 405.392ZM762.746 407.02L762.421 406.695L763.128 405.987L763.307 406.167H763.56V407.167H763.1C762.967 407.167 762.84 407.114 762.746 407.02ZM777.579 406.695L777.254 407.02C777.16 407.114 777.033 407.167 776.9 407.167H776.44V406.167H776.693L776.872 405.987L777.579 406.695ZM766.32 407.167H765.4V406.167H766.32V407.167ZM769.08 407.167H768.16V406.167H769.08V407.167ZM771.84 407.167H770.92V406.167H771.84V407.167ZM774.6 407.167H773.68V406.167H774.6V407.167Z" fill="black" fill-opacity="0.28"/>
<path fill-rule="evenodd" clip-rule="evenodd" d="M775.707 384.293C776.098 384.683 776.098 385.317 775.707 385.707L765.707 395.707C765.317 396.098 764.683 396.098 764.293 395.707C763.902 395.317 763.902 394.683 764.293 394.293L774.293 384.293C774.683 383.902 775.317 383.902 775.707 384.293Z" fill="#FB3224"/>
<path fill-rule="evenodd" clip-rule="evenodd" d="M764.293 384.293C764.683 383.902 765.317 383.902 765.707 384.293L775.707 394.293C776.098 394.683 776.098 395.317 775.707 395.707C775.317 396.098 774.683 396.098 774.293 395.707L764.293 385.707C763.902 385.317 763.902 384.683 764.293 384.293Z" fill="#FB3224"/>
</svg>
