<svg width="16" height="16" viewBox="0 0 16 16" fill="none" xmlns="http://www.w3.org/2000/svg">
<path d="M16 8C16 12.4183 12.4183 16 8 16C3.58172 16 0 12.4183 0 8C0 3.58172 3.58172 0 8 0C12.4183 0 16 3.58172 16 8Z" fill="#E4DFD8"/>
<path d="M14 8C14 11.3137 11.3137 14 8 14C4.68629 14 2 11.3137 2 8C2 4.68629 4.68629 2 8 2C11.3137 2 14 4.68629 14 8Z" fill="#D7D1CA"/>
<path fill-rule="evenodd" clip-rule="evenodd" d="M14.2 7.9998C14.2 11.424 11.4242 14.1998 8.00005 14.1998C4.57588 14.1998 1.80005 11.424 1.80005 7.9998C1.80005 4.57564 4.57588 1.7998 8.00005 1.7998C11.4242 1.7998 14.2 4.57564 14.2 7.9998ZM8.00005 13.9998C11.3138 13.9998 14 11.3135 14 7.9998C14 4.6861 11.3138 1.9998 8.00005 1.9998C4.68634 1.9998 2.00005 4.6861 2.00005 7.9998C2.00005 11.3135 4.68634 13.9998 8.00005 13.9998Z" fill="#C1B9B0"/>
<path fill-rule="evenodd" clip-rule="evenodd" d="M15.9958 8.26232L15.496 8.24623C15.4987 8.16449 15.5 8.08241 15.5 8C15.5 7.91759 15.4987 7.83551 15.496 7.75377L15.9958 7.73767C15.9986 7.82477 16 7.91222 16 8C16 8.08778 15.9986 8.17523 15.9958 8.26232ZM15.8943 6.69626L15.4009 6.77713C15.3743 6.61482 15.3425 6.45429 15.3056 6.2957L15.7927 6.18256C15.832 6.3518 15.8659 6.52309 15.8943 6.69626ZM15.4892 5.18114L15.0213 5.35735C14.9635 5.20381 14.9008 5.05266 14.8334 4.90409L15.2887 4.69746C15.3606 4.85599 15.4275 5.01729 15.4892 5.18114ZM14.7946 3.77496L14.3702 4.03939C14.2836 3.90031 14.1925 3.76427 14.0971 3.63146L14.5033 3.33988C14.605 3.48152 14.7021 3.62661 14.7946 3.77496ZM13.8389 2.53126L13.4741 2.87313C13.3621 2.75366 13.2463 2.63785 13.1269 2.52591L13.4687 2.16105C13.5961 2.2804 13.7196 2.40388 13.8389 2.53126ZM12.6601 1.49669L12.3685 1.90287C12.2357 1.80753 12.0997 1.71643 11.9606 1.62977L12.225 1.20542C12.3734 1.29785 12.5185 1.39502 12.6601 1.49669ZM11.3025 0.711337L11.0959 1.16664C10.9473 1.09922 10.7962 1.0365 10.6426 0.978682L10.8189 0.510759C10.9827 0.572463 11.144 0.63939 11.3025 0.711337ZM9.81743 0.207342L9.7043 0.694374C9.54571 0.657534 9.38518 0.625723 9.22287 0.59912L9.30374 0.105704C9.47691 0.134086 9.6482 0.168029 9.81743 0.207342ZM8.26233 0.00421967L8.24623 0.50396C8.16449 0.501327 8.08241 0.5 8 0.5C7.91759 0.5 7.83551 0.501327 7.75377 0.50396L7.73767 0.00421968C7.82477 0.00141374 7.91222 0 8 0C8.08778 0 8.17523 0.00141373 8.26233 0.00421967ZM6.69626 0.105704L6.77713 0.59912C6.61482 0.625723 6.45429 0.657535 6.2957 0.694374L6.18256 0.207342C6.3518 0.168029 6.52309 0.134086 6.69626 0.105704ZM5.18114 0.51076L5.35735 0.978682C5.20381 1.0365 5.05266 1.09922 4.90409 1.16664L4.69746 0.711337C4.85599 0.63939 5.01729 0.572463 5.18114 0.51076ZM3.77496 1.20542L4.03939 1.62977C3.90031 1.71643 3.76427 1.80753 3.63146 1.90287L3.33988 1.49669C3.48152 1.39502 3.62661 1.29786 3.77496 1.20542ZM2.53126 2.16105L2.87313 2.52591C2.75366 2.63786 2.63785 2.75366 2.52591 2.87313L2.16105 2.53126C2.2804 2.40388 2.40388 2.28041 2.53126 2.16105ZM1.49669 3.33988L1.90287 3.63146C1.80753 3.76427 1.71643 3.90032 1.62977 4.03939L1.20542 3.77496C1.29785 3.62662 1.39502 3.48152 1.49669 3.33988ZM0.711337 4.69746L1.16664 4.90409C1.09922 5.05266 1.0365 5.20381 0.978682 5.35735L0.510759 5.18114C0.572463 5.01729 0.63939 4.85599 0.711337 4.69746ZM0.207342 6.18257L0.694374 6.2957C0.657534 6.45429 0.625723 6.61482 0.59912 6.77713L0.105704 6.69626C0.134086 6.52309 0.168029 6.3518 0.207342 6.18257ZM0.00421967 7.73768C0.00141373 7.82477 0 7.91222 0 8C0 8.08778 0.00141374 8.17523 0.00421968 8.26233L0.50396 8.24623C0.501327 8.16449 0.5 8.08241 0.5 8C0.5 7.91759 0.501327 7.83551 0.50396 7.75377L0.00421967 7.73768ZM0.105704 9.30374L0.59912 9.22287C0.625723 9.38518 0.657535 9.54571 0.694374 9.7043L0.207342 9.81744C0.168029 9.6482 0.134086 9.47691 0.105704 9.30374ZM0.51076 10.8189L0.978682 10.6427C1.0365 10.7962 1.09922 10.9473 1.16664 11.0959L0.711337 11.3025C0.63939 11.144 0.572463 10.9827 0.51076 10.8189ZM1.20542 12.225L1.62977 11.9606C1.71643 12.0997 1.80753 12.2357 1.90287 12.3685L1.49669 12.6601C1.39502 12.5185 1.29786 12.3734 1.20542 12.225ZM2.16105 13.4687L2.52591 13.1269C2.63786 13.2463 2.75366 13.3621 2.87313 13.4741L2.53126 13.8389C2.40388 13.7196 2.28041 13.5961 2.16105 13.4687ZM3.33988 14.5033L3.63146 14.0971C3.76427 14.1925 3.90032 14.2836 4.03939 14.3702L3.77496 14.7946C3.62662 14.7021 3.48152 14.605 3.33988 14.5033ZM4.69746 15.2887L4.90409 14.8334C5.05266 14.9008 5.20381 14.9635 5.35735 15.0213L5.18114 15.4892C5.01729 15.4275 4.85599 15.3606 4.69746 15.2887ZM6.18257 15.7927L6.2957 15.3056C6.45429 15.3425 6.61482 15.3743 6.77713 15.4009L6.69626 15.8943C6.52309 15.8659 6.3518 15.832 6.18257 15.7927ZM7.73768 15.9958L7.75377 15.496C7.83551 15.4987 7.91759 15.5 8 15.5C8.08241 15.5 8.16449 15.4987 8.24623 15.496L8.26233 15.9958C8.17523 15.9986 8.08778 16 8 16C7.91222 16 7.82477 15.9986 7.73768 15.9958ZM9.30374 15.8943L9.22287 15.4009C9.38518 15.3743 9.54571 15.3425 9.7043 15.3056L9.81744 15.7927C9.6482 15.832 9.47691 15.8659 9.30374 15.8943ZM10.8189 15.4892L10.6427 15.0213C10.7962 14.9635 10.9473 14.9008 11.0959 14.8334L11.3025 15.2887C11.144 15.3606 10.9827 15.4275 10.8189 15.4892ZM12.225 14.7946L11.9606 14.3702C12.0997 14.2836 12.2357 14.1925 12.3685 14.0971L12.6601 14.5033C12.5185 14.605 12.3734 14.7021 12.225 14.7946ZM13.4687 13.8389L13.1269 13.4741C13.2463 13.3621 13.3621 13.2463 13.4741 13.1269L13.8389 13.4687C13.7196 13.5961 13.5961 13.7196 13.4687 13.8389ZM14.5033 12.6601C14.605 12.5185 14.7021 12.3734 14.7946 12.225L14.3702 11.9606C14.2836 12.0997 14.1925 12.2357 14.0971 12.3685L14.5033 12.6601ZM15.2887 11.3025L14.8334 11.0959C14.9008 10.9473 14.9635 10.7962 15.0213 10.6426L15.4892 10.8189C15.4275 10.9827 15.3606 11.144 15.2887 11.3025ZM15.7927 9.81743L15.3056 9.7043C15.3425 9.54571 15.3743 9.38518 15.4009 9.22287L15.8943 9.30374C15.8659 9.47691 15.832 9.6482 15.7927 9.81743Z" fill="#C1B9B0"/>
<path d="M7.47437 8.09202V5H8.52243V10H7.7974L5.04805 6.93505V10H4V5H4.67478L7.47437 8.09202Z" fill="#47413A"/>
<path d="M9.73879 11H9.20638V6.73184H9.72084V8.35566C9.82054 8.21658 9.96012 8.10758 10.1396 8.02864C10.323 7.94595 10.5224 7.9046 10.7378 7.9046C11.0927 7.9046 11.3918 8.01361 11.6351 8.23162C11.8784 8.44963 12 8.76349 12 9.17321V11H11.4676V9.31416C11.4676 9.01346 11.3918 8.78229 11.2403 8.62066C11.0927 8.45527 10.8913 8.37258 10.6361 8.37258C10.3689 8.37258 10.1515 8.46091 9.98405 8.63757C9.82054 8.81424 9.73879 9.03977 9.73879 9.31416V11Z" fill="#47413A"/>
</svg>
