<svg width="120" height="120" viewBox="0 0 120 120" fill="none" xmlns="http://www.w3.org/2000/svg">
<path d="M90.0043 38.5684C87.6047 38.5684 85.6523 40.5207 85.6523 42.9203C85.6523 45.3199 87.6047 47.2723 90.0043 47.2723C92.4041 47.2723 94.3562 45.3201 94.3562 42.9203C94.3562 40.5207 92.4039 38.5684 90.0043 38.5684ZM90.0043 44.3709C89.2043 44.3709 88.5537 43.7203 88.5537 42.9203C88.5537 42.1203 89.2045 41.4697 90.0043 41.4697C90.8043 41.4697 91.4549 42.1205 91.4549 42.9203C91.4549 43.7203 90.8041 44.3709 90.0043 44.3709Z" fill="black"/>
<path d="M92.4256 29.9987H80.2305C78.2737 29.9987 76.6818 28.4067 76.6818 26.45C76.6818 22.8936 73.7883 20 70.2318 20H42.8053C39.2487 20 36.3553 22.8936 36.3553 26.45C36.3553 28.4069 34.7633 29.9987 32.8066 29.9987H20.6113C14.8151 29.9987 10.0996 34.7142 10.0996 40.5104V83.6843C10.0996 84.4854 10.7491 85.1349 11.5502 85.1349C12.3513 85.1349 13.0008 84.4854 13.0008 83.6843V40.5104C13.0008 36.3141 16.4149 32.9001 20.6111 32.9001H32.8062C36.3627 32.9001 39.2563 30.0065 39.2563 26.45C39.2563 24.4932 40.8483 22.9014 42.805 22.9014H70.2313C72.1881 22.9014 73.7799 24.4934 73.7799 26.45C73.7799 30.0067 76.6735 32.9001 80.23 32.9001H92.4251C96.6215 32.9001 100.035 36.3141 100.035 40.5104V89.4881C100.035 93.6845 96.6213 97.0986 92.4251 97.0986H20.6113C16.4149 97.0986 13.001 93.6845 13.001 89.4881C13.001 88.687 12.3515 88.0375 11.5504 88.0375C10.7493 88.0375 10.0998 88.687 10.0998 89.4881C10.0996 95.2845 14.8151 100 20.6113 100H92.4256C98.2218 100 102.937 95.2845 102.937 89.4881V40.5104C102.937 34.7142 98.2218 29.9987 92.4256 29.9987Z" fill="black"/>
<path d="M27.4394 24.4302H21.476C20.6749 24.4302 20.0254 25.0797 20.0254 25.8808C20.0254 26.6819 20.6749 27.3314 21.476 27.3314H27.4394C28.2404 27.3314 28.8899 26.6819 28.8899 25.8808C28.8899 25.0797 28.2404 24.4302 27.4394 24.4302Z" fill="black"/>
<path d="M70.6173 62.545L50.3087 50.3848C49.8744 50.1341 49.3819 50.0014 48.8804 50C48.3788 49.9986 47.8856 50.1285 47.4499 50.3768C47.0141 50.6251 46.651 50.9831 46.3966 51.4152C46.1423 51.8473 46.0055 52.3385 46 52.8398L46 77.1602C46.0055 77.6615 46.1423 78.1527 46.3966 78.5848C46.651 79.0169 47.0141 79.3749 47.4499 79.6232C47.8856 79.8715 48.3788 80.0014 48.8804 80C49.3819 79.9986 49.8744 79.8659 50.3087 79.6152L70.6173 67.455C71.0394 67.1991 71.3884 66.8387 71.6306 66.4087C71.8728 65.9787 72 65.4935 72 65C72 64.5065 71.8728 64.0213 71.6306 63.5913C71.3884 63.1613 71.0394 62.8009 70.6173 62.545Z" stroke="black" stroke-width="3" stroke-linecap="round" stroke-linejoin="round"/>
</svg>
