<svg width="403" height="523" viewBox="0 0 403 523" fill="none" xmlns="http://www.w3.org/2000/svg">
<path fill-rule="evenodd" clip-rule="evenodd" d="M382.238 50.3144C392.428 50.9144 392.958 51.7843 391.558 62.1043L391.588 62.0644C393.178 56.5444 396.538 53.5944 401.428 52.5444C401.775 52.4749 402.091 52.2975 402.331 52.0375C402.572 51.7776 402.724 51.4485 402.766 51.097C402.808 50.7455 402.738 50.3897 402.566 50.0804C402.394 49.771 402.129 49.5239 401.808 49.3743C401.458 49.2243 401.128 49.0643 400.808 48.8843C400.808 48.8843 399 48 394.488 48.3243C391.956 48.5063 388 47.9329 388 47.9329C389.748 44.9111 387.475 42.2567 383.87 38.0457L383.867 38.0424C383.349 37.4371 382.803 36.7997 382.238 36.1243C379.862 33.2865 368.681 29.046 365 28.6644C363.386 28.4971 361.9 28.2374 360.506 27.9939C355.702 27.1548 352 26.5081 348 30.4999C344.314 34.1793 344.684 35.8702 345.414 39.2089C345.707 40.5434 346.056 42.1411 346.228 44.2343C343.097 43.9621 331.822 37.5744 320 25.0344C308.178 12.4943 299.388 21.6844 299.388 21.6844C299.388 21.6844 289.918 32.9043 294.918 42.0444C295.026 42.2426 295.09 42.3589 295.079 42.3667C295.063 42.3777 294.896 42.1697 294.491 41.666L294.49 41.6651V41.6643C293.799 40.8043 292.418 39.0843 289.918 36.1243C280.5 28.2143 274.676 28.8262 268.188 30.0344C257.866 31.9565 254.333 29.2542 250.241 26.1241C248.223 24.5805 246.069 22.9328 242.898 21.6844C235.216 18.6605 223.417 26.0544 218.478 32.5043C215.121 37.4552 210.609 37.4663 205.663 37.4786C203.346 37.4843 200.934 37.4903 198.5 38.0043C195.11 38.7204 191.838 36.9849 188.627 35.2819C184.694 33.1962 180.854 31.1591 177 33.7343C173.13 36.3204 171.748 37.1866 170.671 37.8618C169.8 38.4079 169.128 38.8291 167.5 39.9344H163.198L163.126 39.5458V39.5441C162.978 38.7391 162.852 38.0554 162.748 37.3643C161.188 27.2143 154.348 23.4243 144.188 23.7643C134.468 24.0843 130.138 28.8544 126.648 36.5644C123.868 42.6944 122.618 43.2444 115.448 41.0544C115.448 41.0544 114.369 36.1845 112.5 33.7343C108.511 28.5051 102.871 30.7022 96.7909 33.0709L96.7907 33.071C95.7056 33.4937 94.6064 33.9219 93.5 34.3144C90.5804 35.35 90.442 37.1795 90.3004 39.0497C90.0877 41.8607 89.868 44.7638 80.1889 45.2027L80.1871 45.2028C76.8415 45.3545 73.4962 45.5062 70.1478 45.6043C69.6272 45.6173 69.0981 45.3296 68.2188 44.8515L68.2186 44.8514C67.7468 44.5949 67.1742 44.2835 66.4479 43.9344C63.9653 42.8744 58.2 40.6254 55 40.1095C51 39.4646 48.2179 45.2027 48.2179 45.8743C42.4364 46.0202 36.62 46.6814 30.8277 47.3398H30.8276C24.5323 48.0555 18.2654 48.7679 12.1024 48.812C8.35149 48.8389 4.56378 48.866 0.90785 50.3044C0.589189 50.4346 0.326728 50.6731 0.166884 50.978C0.00703967 51.2828 -0.0398507 51.6344 0.0343153 51.9705C0.108481 52.3067 0.298992 52.6057 0.572279 52.815C0.845567 53.0243 1.18399 53.1303 1.52785 53.1143C6.88785 52.6043 8.41783 53.7143 9.00783 59.0143C14.3412 107.308 19.6745 155.598 25.0078 203.884C30.0545 250.204 35.1212 296.518 40.2079 342.824C45.1212 387.311 50.0479 431.798 54.9879 476.284C55.6858 482.604 56.4305 488.907 57.1748 495.207C57.5716 498.566 57.9684 501.925 58.3579 505.284L59.5879 505.144L56.5879 477.244C56.0002 471.808 55.3976 466.374 54.795 460.94L54.7948 460.938L54.7947 460.937C53.757 451.58 52.7194 442.223 51.7578 432.854C51.1042 426.486 50.5134 420.11 49.9227 413.734C49.1398 405.283 48.3569 396.834 47.4279 388.404C46.2147 377.414 44.9064 366.437 43.5981 355.459H43.598C42.3613 345.081 41.1245 334.704 39.9679 324.314C38.3353 309.685 36.797 295.044 35.2585 280.401C34.3939 272.172 33.5293 263.942 32.6478 255.714C30.5012 235.821 28.3379 215.924 26.1579 196.024C23.6712 173.498 21.1946 150.971 18.7279 128.444C17.8653 120.771 17.0247 113.095 16.1841 105.418C14.4325 89.423 12.6807 73.4246 10.7279 57.4444C10.2279 53.3144 12.0479 51.9643 15.0479 50.9643C16.6544 50.5297 18.3138 50.321 19.9779 50.3443C31.0787 49.8528 42.1787 49.3222 53.2786 48.7915H53.2788C81.0255 47.4651 108.772 46.1386 136.528 45.4244C167.974 44.6615 199.456 45.0428 230.923 45.4239L230.939 45.4241C232.879 45.4476 234.818 45.4711 236.758 45.4943C245.232 45.4943 263.474 45.3595 268.188 44.0043C269.182 43.8471 270.194 43.8471 271.188 44.0043C308.215 46.0043 345.231 48.1077 382.238 50.3144ZM328.186 38.0042C328.186 38.0042 318.856 33.3442 315.946 28.6642C313.176 24.2042 309.076 23.2442 304.256 24.5942C299.676 25.8842 297.656 29.1642 297.166 33.7342C296.148 43.1791 301.572 42.8917 309.871 42.4519C314.207 42.222 319.328 41.9506 324.726 43.0042C336.412 43.2792 328.186 38.0042 328.186 38.0042ZM369.998 36.1242C361.688 33.4542 353.998 31.8442 350.498 36.1242C350.398 40.1242 353.356 44.1342 358.176 44.8742C366.42 46.166 374.775 46.7956 383.606 47.4611L383.608 47.4612C382.32 39.9903 377.181 38.3785 371.189 36.4995L371.185 36.4984C370.793 36.3754 370.397 36.2512 369.998 36.1242ZM228.006 34.3142C228.769 40.5008 236.526 40.5642 242.896 40.0642C244.969 39.8989 247.019 40.0096 248.864 40.1093C253.489 40.3592 256.825 40.5395 255.998 36.1242C255.365 32.7424 251.767 31.3416 248.62 30.1168C247.758 29.781 246.398 29.0546 244.992 28.304C243.295 27.3974 241.531 26.4556 240.498 26.1239C234.005 24.0393 227.172 27.5461 228.006 34.3142ZM130.456 40.7542H154.586C157.636 40.7542 158.066 38.9442 157.406 36.3842C156.599 33.483 154.695 31.009 152.098 29.4847C149.501 27.9603 146.413 27.5047 143.486 28.2142C136.836 29.7042 133.446 34.5342 130.456 40.7542ZM218.478 43C217 43 211.5 43 210.5 40.7542C209.5 38.5084 219.19 37.805 222.5 39C226.635 40.4929 225.518 43 218.478 43ZM173.998 40.7542C171.551 38.9189 177.483 36.8982 180.498 36.3842C184.199 35.7533 186.628 36.853 188.998 39.7642C191.029 42.2583 187.532 42.0717 183.35 41.8486L183 41.83C182.22 41.7887 181.42 41.7628 180.633 41.7373C177.772 41.6445 175.069 41.5569 173.998 40.7542ZM104.78 35.7785C103.773 36.0031 102.691 36.2446 100 36C95.2658 35.5696 93.3793 41.0661 94.5 42C95.5604 42.8836 98.1075 42.7545 100.94 42.6108C102.272 42.5433 103.667 42.4726 105 42.5024C106.055 42.526 107.071 42.6343 107.987 42.7319C110.417 42.9909 112.14 43.1746 112 41.5C111.6 36.7 109.5 35.5 107 35.5C106.029 35.5 105.42 35.6358 104.78 35.7785ZM52 46C52.1667 45 52.9 43 54.5 43C56.1 43 61.8333 44.3333 64.5 45C60.6667 45.6667 52.8 46.8 52 46ZM278.1 41.3076C274.273 40.4567 269.261 39.3423 264 39.9998C261.043 40.3695 263 34 268 33.4999C271.483 33.1516 283.824 34.0332 285 39C285.96 43.055 283.003 42.3975 278.1 41.3076Z" fill="black"/>
<path d="M206.528 3.19565C217.325 1.28096 225.308 9.38599 224.313 19.2577C223.394 28.7029 212.123 40.9182 202.717 42.2971C199.917 42.7892 197.035 42.4733 194.408 41.3866C191.781 40.2999 189.518 38.4873 187.883 36.161C185.948 33.6342 184.869 30.5562 184.803 27.3743C184.737 24.1924 185.687 21.0723 187.516 18.4672C192.693 11.0282 198.53 4.40288 206.528 3.19565ZM208.792 5.49695C200.8 7.14966 194.706 11.878 189.867 18.3157C186.348 23.0413 186.069 26.7752 188.59 30.5748C191.112 34.3743 196.306 36.705 201.024 35.3236C209.352 32.9091 215.967 27.8444 220.011 20.04C222.032 16.1301 221.161 12.0811 218.49 8.59989C216.064 5.46301 212.568 5.01984 208.792 5.49695Z" fill="black"/>
<path d="M181.511 25.7833C181.511 33.3333 174.661 39.7833 169.231 36.4833C164.007 33.4019 159.025 29.9251 154.331 26.0833C149.111 21.6933 153.331 11.4633 160.331 9.59334C162.82 8.91294 165.432 8.81626 167.964 9.31081C170.496 9.80537 172.88 10.8778 174.93 12.4446C176.979 14.0114 178.64 16.0302 179.781 18.3438C180.923 20.6575 181.515 23.2034 181.511 25.7833ZM164.761 10.3933C160.181 10.3933 156.941 12.3933 156.251 15.6933C155.421 19.6333 157.881 22.9133 162.131 24.7633C164.616 25.8903 166.834 27.5294 168.641 29.5733C170.701 31.8933 172.791 33.5733 175.841 32.4033C179.221 31.1333 180.401 28.2533 180.171 24.7933C179.711 17.7433 171.851 10.4333 164.761 10.3933Z" fill="black"/>
<path d="M391.558 62.0944C390.918 71.1844 390.558 80.2944 389.558 89.3544C385.425 130.414 381.185 171.458 376.838 212.484C373.091 248.404 369.311 284.314 365.498 320.214C361.058 362.741 356.621 405.274 352.188 447.814C350.058 468.164 347.948 488.524 345.708 508.864C344.998 515.324 342.888 516.864 336.298 517.314C316.078 518.584 295.868 520.224 275.628 521.194C259.358 521.974 243.058 522.024 226.768 522.304C215.628 522.504 204.488 522.744 193.348 522.614C173.898 522.394 154.458 521.894 134.998 520.684H139.298C164.245 520.684 189.198 520.701 214.158 520.734C226.908 520.734 239.668 521.094 252.398 520.604C269.128 519.944 285.828 518.604 302.548 517.604C309.158 517.194 315.788 516.894 322.398 516.494C327.838 516.174 333.278 515.844 338.708 515.364C341.768 515.104 343.208 513.364 343.528 510.144C345.208 493.144 347.158 476.244 348.878 459.284C350.408 444.134 351.658 428.944 353.228 413.804C354.748 399.164 356.608 384.564 358.178 369.934C359.818 354.614 361.178 339.284 362.858 323.934C364.088 312.424 365.628 300.934 366.858 289.434C368.088 277.934 369.018 266.364 370.248 254.854C371.488 243.194 372.968 231.564 374.248 219.854C375.478 208.854 376.568 197.794 377.798 186.764C379.128 174.764 380.608 162.764 381.918 150.814C382.768 143.084 383.358 135.324 384.188 127.594C385.428 115.924 386.778 104.274 388.068 92.5944C388.908 85.0344 389.688 77.4644 390.528 69.9044C390.818 67.2844 391.198 64.6744 391.528 62.0444L391.558 62.0944Z" fill="black"/>
<path d="M125.258 521.004C107.925 519.817 90.5912 518.627 73.2579 517.434C69.6179 517.194 65.9279 517.364 62.3379 516.834C61.0279 516.634 59.9379 514.934 57.9679 513.264C63.5479 514.534 67.4979 515.904 71.5379 516.264C82.7279 517.264 93.9479 517.824 105.168 518.564L125.308 519.904L125.258 521.004Z" fill="black"/>
<path d="M234.028 517.164H167.728C167.568 517.179 167.408 517.179 167.248 517.164C165.74 516.841 164.214 516.61 162.678 516.474C131.025 515.314 99.3746 514.178 67.7279 513.064C64.9979 512.964 62.3079 513.524 61.8379 509.134C58.9979 482.584 55.9079 456.074 52.8379 429.554C51.9879 422.334 50.6379 415.164 49.5979 407.964L51.1679 406.274C150.477 412.494 250.079 412.494 349.388 406.274C349.802 406.252 350.215 406.319 350.601 406.472C350.986 406.625 351.333 406.86 351.618 407.161C351.904 407.461 352.12 407.82 352.253 408.213C352.386 408.605 352.432 409.022 352.388 409.434C348.608 443.434 344.898 476.784 341.168 510.354C341.094 511.013 340.793 511.626 340.317 512.087C339.84 512.549 339.219 512.831 338.558 512.884C337.558 512.964 336.558 513.034 335.638 513.064C303.471 514.191 271.301 515.328 239.128 516.474C237.588 516.606 236.058 516.837 234.548 517.164C234.375 517.182 234.201 517.182 234.028 517.164Z" fill="#2C2B30"/>
</svg>
