<svg width="132" height="262" viewBox="0 0 132 262" fill="none" xmlns="http://www.w3.org/2000/svg">
<path d="M86.7153 183.856L82.84 200.062L48.8924 200.157L44.9196 183.971L86.7153 183.856ZM86.7153 183.856C113.674 122.467 107.725 83.6201 94.8004 43.344C81.8754 3.06778 64.5942 1 64.5942 1C64.5942 1 48.6534 3.17056 35.9762 43.5086C23.299 83.8467 17.5744 122.731 44.9109 183.961L86.7153 183.856ZM87.9216 180.988C110.557 182.957 121.903 208.628 122.585 222.065C122.723 224.877 125.817 225.851 127.03 222.272C143.907 172.492 101.513 141.302 101.513 141.302C101.513 141.302 101.072 144.301 96.9127 159.19C92.7535 174.079 87.9216 180.988 87.9216 180.988ZM43.9679 181.081C21.3432 183.177 10.1536 208.915 9.56257 222.341C9.43856 225.153 6.34996 226.149 5.11277 222.577C-12.0678 172.896 30.1348 141.465 30.1348 141.465C30.1348 141.465 30.5944 144.463 34.8429 159.325C39.0914 174.187 43.9679 181.081 43.9679 181.081ZM79.8046 200.072L51.9696 200.145C37.3521 237.834 64.4281 260.679 64.4281 260.679C96.6747 235.392 79.8046 200.072 79.8046 200.072ZM56.3529 200.137L75.4466 200.083C76.8544 210.013 76.8836 226.77 65.0867 240.054C65.0867 240.054 52.8025 225.174 56.3529 200.137ZM65.4153 220.084C65.4153 220.084 60.4209 212.775 60.0798 200.126L71.6501 200.095C71.463 206.357 70.0411 213.784 65.4153 220.084Z" stroke="#333333" stroke-linecap="round" stroke-linejoin="round"/>
</svg>
