<svg width="120" height="120" viewBox="0 0 120 120" fill="none" xmlns="http://www.w3.org/2000/svg">
<path d="M65 95C42.9086 95 25 77.0914 25 55C25 32.9086 42.9086 15 65 15C87.0914 15 105 32.9086 105 55C105 77.0914 87.0914 95 65 95Z" stroke="black" stroke-width="3"/>
<path d="M14.998 105L36.748 83.2495" stroke="black" stroke-width="3"/>
<g clip-path="url(#clip0)">
<path d="M45 77.5V72.5C45 69.8478 46.0536 67.3043 47.9289 65.4289C49.8043 63.5536 52.3478 62.5 55 62.5H75C77.6522 62.5 80.1957 63.5536 82.0711 65.4289C83.9464 67.3043 85 69.8478 85 72.5V77.5" stroke="black" stroke-width="3"/>
<path d="M65 52.5C59.4772 52.5 55 48.0228 55 42.5C55 36.9772 59.4772 32.5 65 32.5C70.5228 32.5 75 36.9772 75 42.5C75 48.0228 70.5228 52.5 65 52.5Z" stroke="black" stroke-width="3"/>
</g>
<defs>
<clipPath id="clip0">
<rect width="60" height="60" fill="white" transform="matrix(-1 0 0 1 95 15)"/>
</clipPath>
</defs>
</svg>
