<svg width="120" height="120" viewBox="0 0 120 120" fill="none" xmlns="http://www.w3.org/2000/svg">
<path d="M15.1961 23.436L21.3374 34.1847C21.5446 34.548 21.8913 34.8107 22.2968 34.9124L28.0263 36.3451L47.6773 56L49.8486 53.8289L29.89 33.867C29.6936 33.6699 29.4473 33.5303 29.1776 33.4627L23.6723 32.0812L18.4436 22.9243L22.9264 18.4406L32.0853 23.6754L33.4672 29.1818C33.5341 29.4522 33.6743 29.6991 33.8707 29.8956L53.8293 49.8581L56 47.6864L36.349 28.0315L34.9166 22.304C34.8149 21.8978 34.5522 21.5504 34.1891 21.3426L23.4418 15.2007C22.8424 14.8596 22.0884 14.9607 21.5995 15.4477L15.4589 21.5902C14.965 22.076 14.8576 22.8315 15.1961 23.436Z" fill="black"/>
<path d="M39.286 78.7275C39.0145 78.2758 38.527 78 38 78H29C28.4736 78 27.9855 78.2758 27.7146 78.7275L23.2143 86.2274C22.9286 86.7026 22.9286 87.2968 23.2143 87.7726L27.7146 95.2725C27.9855 95.7236 28.4736 96 29 96H38C38.527 96 39.0145 95.7236 39.286 95.2725L43.7857 87.7726C44.0714 87.2968 44.0714 86.7026 43.7857 86.2274L39.286 78.7275ZM37.1515 92.9998H29.8491L26.2491 87L29.8491 80.9996H37.1515L40.7516 87L37.1515 92.9998Z" fill="black"/>
<path d="M86.9692 50.9865C96.8719 51.0198 104.927 43.0189 104.961 33.1166C104.966 31.6092 104.781 30.1079 104.41 28.6468C104.21 27.8431 103.396 27.354 102.593 27.5539C102.329 27.6199 102.088 27.7562 101.896 27.948L92.5624 37.2749L85.1571 34.8072L82.6874 27.404L92.0208 18.0691C92.6062 17.4831 92.6055 16.5339 92.0196 15.9486C91.8265 15.7555 91.5835 15.6186 91.3177 15.5532C81.7141 13.1213 71.9582 18.9344 69.5262 28.537C69.1567 29.9938 68.9723 31.4914 68.9772 32.9945C68.9809 34.175 69.1025 35.3518 69.3418 36.5076L36.5053 69.3424C35.3494 69.1037 34.1726 68.9822 32.9926 68.9779C23.0554 68.9779 15 77.033 15 86.9699C15 96.9062 23.0554 104.961 32.9926 104.961C42.9292 104.961 50.9846 96.9062 50.9846 86.9699C50.9809 85.7894 50.8588 84.6126 50.6201 83.4568L58.4812 75.5959L61.9192 79.0338C62.5052 79.6192 63.4538 79.6192 64.0398 79.0338L64.7892 78.2838C65.4467 77.6307 66.5094 77.6307 67.1669 78.2838C67.8238 78.9389 67.8251 80.0022 67.17 80.659C67.1694 80.6597 67.1682 80.6609 67.1669 80.6621L66.4175 81.4115C65.8322 81.9968 65.8322 82.9461 66.4175 83.5314L84.3034 101.417C89.0078 106.164 96.6696 106.199 101.417 101.494C106.164 96.7903 106.199 89.128 101.494 84.3813C101.469 84.3554 101.443 84.3295 101.417 84.3036L83.5312 66.4189C82.9459 65.8336 81.9966 65.8336 81.4113 66.4189L80.6619 67.1683C80.0037 67.8221 78.9416 67.8221 78.2835 67.1683C77.6272 66.5133 77.6254 65.4499 78.2804 64.7937C78.2816 64.7924 78.2829 64.7918 78.2835 64.7906L79.0335 64.0406C79.6189 63.4553 79.6189 62.506 79.0335 61.9207L75.5955 58.4828L83.4566 50.622C84.6125 50.8607 85.7893 50.9828 86.9692 50.9865ZM92.8603 101.963C91.771 101.961 90.691 101.765 89.6714 101.382L101.381 89.6714C103.148 94.3719 100.771 99.6145 96.0701 101.382C95.0444 101.767 93.957 101.964 92.8603 101.963ZM75.8743 62.9958C74.2139 64.9762 74.4741 67.9281 76.4547 69.5879C78.1953 71.0466 80.7322 71.0453 82.4709 69.5836L99.2972 86.4241C99.4798 86.6073 99.6506 86.8003 99.8159 86.9964L86.9964 99.8156C86.7996 99.6509 86.6066 99.48 86.4234 99.2968L69.5842 82.457C71.2446 80.4765 70.9843 77.5246 69.0038 75.8648C67.2632 74.4055 64.7257 74.4074 62.9869 75.8685L60.5882 73.4699L73.4749 60.6027L75.8743 62.9958ZM81.9288 47.9162L47.9154 81.9216C47.5423 82.2941 47.3924 82.835 47.5195 83.3464C49.5765 91.4243 44.6951 99.6404 36.6163 101.697C28.5381 103.754 20.3217 98.8725 18.2647 90.7939C16.2083 82.716 21.0896 74.4999 29.1685 72.443C31.6122 71.8212 34.1726 71.8212 36.6163 72.443C37.1276 72.5682 37.6673 72.4183 38.0411 72.0476L72.0464 38.0416C72.419 37.669 72.5689 37.1281 72.4406 36.6174C70.3977 28.6338 75.2137 20.5059 83.1975 18.4626C84.7062 18.0771 86.2667 17.929 87.821 18.0259L79.9118 25.9379C79.5103 26.3388 79.3697 26.9328 79.5492 27.4712L82.5474 36.4675C82.6973 36.9147 83.0489 37.2663 83.4967 37.4149L92.4933 40.4137C93.0311 40.5932 93.6251 40.4532 94.0266 40.0522L101.936 32.1433C101.954 32.4295 101.963 32.7126 101.963 32.9945C102.005 41.2328 95.3608 47.9452 87.1222 47.9877C85.8485 47.9939 84.5792 47.8372 83.3456 47.5214C82.8342 47.3938 82.2933 47.543 81.9208 47.9156H81.9288V47.9162Z" fill="black"/>
</svg>
