<svg width="640" height="841" viewBox="0 0 640 841" fill="none" xmlns="http://www.w3.org/2000/svg">
<path d="M472.549 670.84C471.892 678.76 470.586 686.613 468.643 694.32L465.631 723.185C474.8 704.99 483.031 686.309 484.708 665.499C485.613 654.245 483.031 643.509 480.615 632.685C479.327 626.859 478.044 621.022 476.764 615.174L472.505 656.507C472.856 661.277 472.871 666.067 472.549 670.84Z" fill="white"/>
<path d="M510.252 382.866C509.85 383.629 509.517 384.427 509.259 385.25C506.159 399.589 501.779 413.621 496.173 427.178L495.389 434.792C501.846 418.608 507.011 401.939 510.837 384.941C510.942 384.575 510.944 384.187 510.84 383.82C510.737 383.453 510.533 383.123 510.252 382.866Z" fill="white"/>
<path d="M616.718 737.352C613.977 727.177 610.688 717.159 606.864 707.34C597.452 683.584 596.073 659.32 601.347 634.582C605.077 617.237 609.204 599.991 613.385 582.723C613.901 580.946 614.061 579.086 613.857 577.247C613.652 575.409 613.087 573.629 612.194 572.009C611.461 570.472 611.192 568.754 611.421 567.066C612.293 559.53 613.628 552.049 614.345 544.502C616.265 523.25 615.769 502.142 610.528 481.288C609.766 478.232 610.362 474.845 610.274 471.601C610.274 469.493 610.605 467.187 609.866 465.322C606.82 457.797 603.709 450.272 600.101 443.001C589.916 422.445 578.717 402.286 575.076 379.203C572.869 365.124 571.004 350.978 569.393 336.822C569.106 334.339 570.055 330.819 571.766 329.175C575.981 325.148 576.08 321.01 574.138 316.133C573.3 314.31 572.721 312.379 572.417 310.395C572.257 308.275 572.425 306.143 572.913 304.073C574.436 296.912 574.954 291.539 567.175 289.729C563.049 288.747 559.01 287.235 554.84 286.673C540.407 284.698 525.931 284.157 511.609 287.588C511.223 287.677 510.858 287.776 510.505 287.875L509.887 293.834C511.065 292.98 512.412 292.389 513.838 292.101C517.96 291.047 522.206 290.557 526.46 290.645C538.598 291.163 550.625 291.936 562.663 293.105C568.676 293.69 570.32 296.482 569.283 302.065C568.786 304.724 567.793 305.651 564.605 304.834C548.311 300.648 531.321 299.926 514.731 302.716C513.369 303.042 512.031 303.463 510.726 303.974C510.117 303.26 509.574 302.491 509.104 301.679L507.857 313.816C511.41 304.172 509.391 305.905 523.04 304.272C537.083 302.586 551.32 303.628 564.969 307.339C565.61 307.553 566.2 307.898 566.702 308.352C567.203 308.806 567.605 309.359 567.882 309.976C569.127 313.637 570.137 317.374 570.905 321.165C571.137 322.334 570.331 323.724 569.934 325.28C562.122 319.344 516.1 318.285 506.842 323.559L505.739 333.909C506.361 337.094 506.569 340.347 506.357 343.585C505.639 359.518 504.017 375.363 499.891 390.59L497.629 412.801C501.146 403.715 503.913 394.356 505.904 384.819C509.523 368.974 510.45 352.887 511.3 336.766C511.305 334.791 511.202 332.817 510.991 330.852C512.767 330.985 514.489 331.205 516.221 331.227C530.697 331.448 545.174 331.643 559.65 331.812C561.261 331.812 562.872 331.625 564.737 331.503C564.991 336.744 565.013 342.449 565.609 348.054C568.5 375.849 574.568 402.727 587.765 427.708C593.789 439.128 598.799 451.089 604.172 462.84C604.834 464.563 605.379 466.329 605.805 468.125C602.02 470.155 600.068 468.798 598.688 465.333C591.991 448.485 584.951 431.757 578.518 414.809C574.866 405.232 572.218 395.301 569.084 385.58C568.842 385.046 568.542 384.539 568.191 384.069L567.01 384.532C574.204 415.041 588.802 443.144 596.923 472.737C594.44 471.954 592.002 470.751 589.464 470.53C585.247 470.038 580.991 469.986 576.764 470.376C573.641 470.718 572.284 469.747 571.093 467.066C565.796 454.653 562.185 441.587 560.357 428.215C558.337 414.787 557.3 401.204 555.822 387.688C555.757 386.278 555.319 384.911 554.553 383.727C554.707 413.584 559.661 442.703 567.959 470.894H542.283C541.246 441.588 540.209 412.481 539.171 383.374L538.234 383.208C537.905 384.022 537.669 384.869 537.527 385.735C536.545 405.596 535.652 425.457 534.603 445.318C534.206 452.644 533.434 459.949 532.893 467.264C532.684 470.045 531.69 471.159 528.601 470.696C522.168 469.714 515.702 469.736 509.413 472.13C517.931 471.27 526.394 470.696 534.482 473.907C534.482 474.491 534.405 475.087 534.372 475.672L505.551 474.304C516.055 443.972 521.804 413.805 524.507 383.065L522.907 382.734C522.693 383.696 522.527 384.668 522.411 385.647C520.527 412.568 514.675 439.064 505.044 464.274C502.837 470.277 502.605 470.266 496.217 469.361C494.773 469.164 493.314 469.097 491.858 469.162L491.715 470.619C495.803 470.657 499.866 471.266 503.786 472.428C503.786 472.803 503.786 473.167 503.786 473.532C499.659 473.532 495.532 473.631 491.417 473.631L491.163 476.058C497.695 476.279 504.223 476.478 510.748 476.654C519.509 476.886 528.259 476.941 537.02 477.04C544.744 477.118 552.412 477.382 560.092 477.162C572.417 476.798 584.708 476.058 597.022 475.584C602.76 475.374 604.823 477.239 606.269 483.175C609.976 498.325 610.892 513.739 611.576 529.374C610.119 541.269 608.619 553.152 607.162 565.058C606.82 567.893 605.673 568.997 602.572 569.074C593.745 569.295 584.83 570.321 575.947 570.42C567.981 570.519 560.014 569.582 552.048 569.526C547.182 569.526 542.294 570.354 537.417 570.63C535.751 570.707 534.107 569.957 532.386 569.868C525.611 569.504 518.836 569.273 512.061 568.964L481.696 567.562L480.868 575.551L482.126 575.639C490.821 576.456 490.247 574.425 492.476 584.014C497.585 605.949 502.826 627.907 506.467 650.107C508.674 663.348 507.692 676.985 505.055 690.325C503.797 696.736 503.135 703.279 501.745 709.646C499.979 717.37 497.684 725.093 495.632 732.762C495.521 733.203 495.565 733.7 496.305 734.461C497.077 732.872 497.971 731.338 498.6 729.694C505.353 712.316 507.57 694.165 508.431 675.628C509.634 649.765 505.982 624.221 504.227 598.557C503.984 595.092 503.819 591.627 503.389 588.185C502.671 582.491 503.521 576.323 497.496 571.137C509.955 570.773 522.424 571.101 534.846 572.119C534.934 572.826 535.023 573.543 535.1 574.249C533.504 574.844 531.846 575.255 530.157 575.474C524.019 575.444 517.883 575.731 511.774 576.334C512.878 576.423 513.981 576.588 515.084 576.599C519.608 576.687 524.132 576.776 528.656 576.776C531.006 576.776 531.812 577.879 531.966 580.185C533.522 611.08 535.486 641.975 534.648 673.013C534.074 694.342 534.261 715.692 534.14 737.01C534.212 738.231 534.355 739.447 534.57 740.651C535.486 739.956 536.038 739.735 536.049 739.548C536.314 723.946 537.152 708.322 536.645 692.753C535.625 664.348 536.296 635.908 538.653 607.582C539.414 598.546 540.242 589.509 540.86 580.472C541.047 577.802 542.327 577.007 544.644 577.007C549.168 577.007 553.692 577.007 558.216 576.919C558.63 576.934 559.04 576.833 559.399 576.626C559.758 576.419 560.052 576.115 560.246 575.75C554.255 575.75 548.263 575.838 542.272 575.683C540.86 575.683 539.458 574.845 537.318 574.15C542.46 571.005 567.948 570.729 572.88 573.112C565.587 584.003 565.388 596.736 564.571 608.973C563.225 629.33 562.365 649.798 562.85 670.166C563.269 685.813 565.884 701.437 568.146 716.983C568.897 722.191 571.578 727.112 573.388 732.166L574.414 731.824C574.469 731.347 574.431 730.863 574.303 730.401C570.177 722.357 569.426 713.585 568.676 704.802C568.455 701.603 567.964 698.429 567.209 695.313C561.813 674.679 563.49 653.947 566.966 633.38C569.625 617.634 573.123 601.988 577.084 586.519C579.6 576.687 580.273 576.776 590.457 576.246C594.871 576.025 599.405 576.246 604.194 576.246C601.734 585.669 599.284 594.507 597.132 603.411C593.977 616.509 590.887 629.617 588.052 642.78C584.664 658.504 587.059 673.786 592.112 688.836C596.79 702.74 602.507 716.272 609.215 729.319C612.194 735.145 613.297 742.295 613.827 748.948C614.765 760.633 612.403 772.02 608.431 783.076C606.853 787.49 604.161 790.8 600.045 792.113C593.425 794.32 586.573 796.593 579.688 797.089C564.185 798.193 548.605 798.369 533.048 798.634C521.076 798.833 509.093 798.491 497.121 798.634C485.676 798.78 474.614 794.517 466.226 786.729C463.501 784.237 461.415 781.126 460.147 777.659L458.955 789.277C460.114 791.705 461.416 794.099 462.828 796.471C468.345 805.641 476.234 811.113 486.507 812.294C499.681 813.806 512.988 814.578 526.229 815.152C535.822 815.575 545.43 815.512 555.016 814.964C564.594 814.413 574.116 812.879 583.704 811.941C592.94 811.047 600.255 806.777 605.154 799.031C608.376 793.987 611.096 788.64 613.275 783.065C618.913 768.125 620.977 752.854 616.718 737.352ZM584.212 807.285C560.224 809.988 536.181 809.833 512.127 808.984C503.3 808.664 494.363 808.035 485.569 806.932C476.775 805.828 470.353 800.962 466.48 792.874C466.171 792.223 466.028 791.495 465.432 789.653C478.595 801.282 493.789 802.132 509.005 802.22C528.005 802.33 547.028 802.22 566.006 801.437C577.834 800.918 589.817 800.157 601.149 795.522C596.868 801.525 592.046 806.402 584.212 807.296V807.285Z" fill="white"/>
<path d="M446.531 211.797L456.462 212.9C456.611 212.9 456.759 212.87 456.897 212.811C457.034 212.752 457.159 212.666 457.262 212.557C457.365 212.449 457.445 212.321 457.497 212.181C457.549 212.04 457.572 211.891 457.565 211.741C456.616 202.451 458.216 194.617 464.792 188.14C471.148 181.895 478.783 180.935 487.809 181.906C487.995 181.908 488.179 181.863 488.344 181.775C488.508 181.687 488.647 181.559 488.749 181.402C488.85 181.246 488.91 181.066 488.923 180.88C488.936 180.694 488.902 180.508 488.824 180.339L486.43 176.256C486.306 176.04 486.109 175.875 485.874 175.792C485.639 175.709 485.382 175.713 485.15 175.804C481.398 177.316 477.878 179.114 474.116 179.887C460.985 182.457 454.685 178.121 452.202 164.991C451.573 161.681 450.58 160.246 446.95 160.357C439.072 160.599 435.497 157.355 434.912 150.117C434.438 144.313 439.624 137.98 446.079 137.196C451.529 136.512 457.046 136.093 461.879 139.955C462.762 140.65 464.902 140.363 466.182 139.845C469.051 138.653 471.699 136.832 474.513 135.619C483.561 131.768 492.167 134.515 497.761 142.482C498.865 144.082 501.226 144.865 503.036 145.968C504.845 147.072 506.765 147.657 508.111 149.025C514.798 155.822 516.497 175.429 505.904 182.126C504.371 183.042 502.791 183.879 501.171 184.631C501.019 184.721 500.89 184.846 500.797 184.996C500.703 185.146 500.647 185.317 500.633 185.493C500.618 185.669 500.647 185.847 500.716 186.01C500.784 186.173 500.891 186.317 501.027 186.43C505 189.188 508.961 191.803 512.679 194.749C519.101 199.836 523.194 206.313 523.967 214.765C524.099 216.199 526.107 217.534 527.409 218.737C527.862 219.156 528.899 218.88 529.517 219.211C531.095 220.039 532.651 220.922 534.206 221.804C534.367 221.92 534.493 222.077 534.571 222.259C534.65 222.44 534.678 222.64 534.653 222.836C534.629 223.032 534.552 223.218 534.43 223.375C534.309 223.531 534.148 223.652 533.964 223.724C532.532 224.172 531.048 224.435 529.55 224.508C522.93 224.563 519.277 227.818 518.428 235.541C516.067 256.925 513.827 278.309 511.565 299.704C508.475 329.127 505.397 358.551 502.329 387.975C496.445 444.483 490.56 500.987 484.675 557.488C480.372 598.435 475.848 639.36 471.556 680.307C467.043 723.273 462.729 766.25 458.183 809.216C457.543 815.207 456.45 821.165 455.237 827.068C454.321 831.548 450.878 832.949 446.652 833.291C373.509 839.073 300.244 841.081 226.89 840.066C209.821 839.835 192.763 838.963 175.693 837.694H183.196H286.915C301.182 837.694 315.459 838.168 329.693 837.562C353.118 836.58 376.521 834.88 399.935 833.512C408.519 833.016 417.126 832.696 425.721 832.155C433.158 831.692 440.617 831.217 448.032 830.356C451.54 829.948 453.681 827.94 454.056 823.802C455.612 806.523 457.565 789.299 459.264 772.042C460.368 760.589 461.206 749.103 462.431 737.672C464.086 722.224 466.083 706.843 467.771 691.418C468.875 681.244 469.592 671.016 470.673 660.843C471.876 649.588 473.299 638.367 474.579 627.123C475.186 621.86 475.683 616.575 476.201 611.301C478.088 591.44 479.831 571.645 481.873 551.85C483.594 535.145 485.69 518.483 487.511 501.789C489.011 487.997 490.313 474.204 491.759 460.401C493.591 442.802 495.411 425.192 497.331 407.604C499.152 390.921 501.127 374.26 502.947 357.576C504.845 340.352 506.622 323.106 508.464 305.883C509.843 293.183 511.212 280.505 512.745 267.816C514.367 254.443 516.387 241.103 517.799 227.707C518.284 223.15 514.169 221.495 510.594 221.087C497.982 219.796 485.337 218.715 472.681 218.009C455.998 217.082 439.282 216.696 422.599 215.868C401.116 214.765 379.633 213.54 358.15 212.37C357.243 212.227 355.413 212.37 355.413 212.37C355.413 212.37 329.63 215.375 322.245 214.853C314.522 214.323 306.886 213.948 299.195 213.926C257.068 213.827 214.93 213.407 172.813 214.003C148.781 214.345 124.783 216.464 100.762 217.611C76.4874 218.715 52.268 219.686 28.0155 220.811C25.4648 220.86 22.9474 221.399 20.6008 222.4C17.8754 223.669 16.6065 225.6 17.2906 229.44C18.9457 238.774 19.4974 248.286 20.6008 257.72C21.8366 268.411 23.2158 279.092 24.4295 289.784C25.6212 300.31 26.6363 310.859 27.8169 321.385C29.5051 336.06 31.3809 350.724 33.036 365.399C34.1394 375.385 34.9779 385.404 36.0482 395.389C37.273 406.832 38.6632 418.252 39.899 429.694C41.0024 440.231 41.9734 450.791 43.143 461.317C44.4009 472.56 45.8904 483.782 47.1373 495.014C48.2407 504.647 48.9689 514.302 50.0392 523.934C51.3191 535.531 52.8749 547.105 54.1328 558.691C55.2362 568.875 55.9754 579.093 57.0236 589.277C58.2263 600.896 59.6166 612.448 60.8745 624.111C61.9779 634.825 63.0812 645.55 64.1846 656.253C65.4094 667.496 66.7666 678.729 67.9913 689.972C69.0947 699.77 69.9774 709.59 71.0367 719.4C72.3166 731.184 73.729 742.968 74.9868 754.708C75.9357 763.616 76.8111 772.528 77.6129 781.443C78.7163 793.581 79.8197 805.817 80.8348 818.009C81.0134 819.363 80.7254 820.737 80.0183 821.904C78.4515 807.737 76.881 793.566 75.3068 779.391C70.8344 738.779 66.3289 698.101 61.7903 657.356C58.8001 630.312 55.9534 603.29 52.9632 576.213C45.1732 505.875 37.3576 435.531 29.5162 365.179C24.676 321.521 19.8578 277.864 15.0618 234.206C14.0356 224.938 13.2743 224.331 4.09407 224.839C2.84958 224.697 1.65353 224.274 0.596329 223.603C0.413094 223.517 0.259044 223.379 0.153169 223.206C0.0472941 223.034 -0.00577688 222.834 0.000498675 222.632V222.356C0.00810749 222.123 0.093884 221.9 0.244007 221.721C0.39413 221.543 0.599858 221.421 0.82804 221.374C5.19187 220.281 9.61197 219.426 14.0687 218.814C17.6658 218.45 21.4173 219.642 25.0033 219.266C27.9714 218.958 30.8402 217.733 34.3159 216.585C34.4696 216.535 34.6095 216.45 34.7243 216.336C34.8391 216.222 34.9257 216.083 34.9771 215.929C35.0286 215.776 35.0435 215.613 35.0206 215.453C34.9978 215.293 34.9378 215.14 34.8455 215.007C33.7421 213.43 32.7381 211.83 31.5354 210.362C19.1443 195.257 24.3633 173.895 42.2934 166.536C44.6265 165.59 47.161 165.251 49.6606 165.549C52.1602 165.848 54.5434 166.775 56.5881 168.243C58.6328 169.712 60.2722 171.674 61.3536 173.947C62.435 176.221 62.9231 178.731 62.7723 181.244C62.7033 185.186 63.7473 189.067 65.7845 192.443C71.3677 200.531 71.7649 203.367 66.6783 212.547C66.5004 212.955 66.378 213.386 66.3142 213.827C66.2902 213.985 66.3008 214.146 66.3454 214.3C66.39 214.454 66.4675 214.596 66.5724 214.716C66.6774 214.837 66.8074 214.934 66.9533 214.999C67.0992 215.064 67.2576 215.097 67.4176 215.096L81.9492 213.992C82.1426 213.956 82.3228 213.868 82.4709 213.738C82.6191 213.609 82.7299 213.442 82.7918 213.255C82.8537 213.068 82.8645 212.868 82.823 212.676C82.7816 212.483 82.6894 212.305 82.5561 212.161C76.8736 207.107 76.7853 206.269 74.8323 197.199C74.3835 195.08 73.2887 193.152 71.6987 191.682C66.7335 187.577 64.6812 183.053 67.4176 176.742C70.3084 170.122 75.3289 165.708 82.1368 166.536C87.1351 167.175 92.0673 169.68 96.6132 172.108C97.9062 172.992 98.9326 174.213 99.5814 175.638L103.245 174.998C103.335 174.511 103.383 174.016 103.388 173.52C103.388 162.707 106.632 157.885 116.993 154.255C120.06 153.151 121.837 152.202 122.179 148.429C122.697 142.592 128.799 139.536 135.331 141.72C138.542 142.824 141.433 145.03 144.247 146.972C145.979 148.317 147.606 149.792 149.113 151.386C149.248 151.5 149.409 151.579 149.582 151.617C149.754 151.655 149.933 151.652 150.104 151.606C150.275 151.561 150.433 151.475 150.564 151.356C150.694 151.237 150.795 151.088 150.856 150.923C151.122 150.053 151.335 149.169 151.496 148.274C153.846 134.184 163.754 128.005 177.117 132.959C186.595 136.479 192.343 143.993 194.241 153.725C196.007 162.784 192.796 170.75 185.822 176.896C180.559 181.586 174.446 181.453 168.223 179.379C163.468 177.79 162.155 173.862 162.188 169.305C162.188 164.417 160.422 160.864 155.336 158.172C155.15 158.095 154.947 158.071 154.749 158.101C154.55 158.131 154.364 158.215 154.21 158.343C154.055 158.471 153.939 158.639 153.873 158.829C153.807 159.018 153.794 159.222 153.835 159.419C159.352 176.19 160.455 192.178 155.016 208.133C154.976 208.275 154.965 208.424 154.983 208.57C155.002 208.717 155.05 208.858 155.124 208.985C155.198 209.113 155.297 209.224 155.415 209.313C155.533 209.402 155.667 209.466 155.81 209.501C165.056 211.201 165.917 210.506 169.669 202.032C175.837 188.085 183.373 182.678 195.742 183.329C206.378 183.892 215.548 191.947 216.463 202.506C216.861 207.206 218.67 207.747 222.664 207.526C230.741 207.063 238.84 207.14 246.939 206.975C247.557 206.975 248.164 206.975 248.782 206.909L249.885 202.385C249.664 202.254 249.454 202.106 249.256 201.943C243.802 197.514 239.874 191.486 238.024 184.708C233.544 169.559 241.268 159.11 256.903 159.33C257.295 159.328 257.686 159.291 258.072 159.22C258.223 159.184 258.365 159.117 258.488 159.022C258.611 158.928 258.713 158.809 258.787 158.672C258.861 158.536 258.905 158.386 258.917 158.231C258.929 158.076 258.908 157.921 258.856 157.775C258.592 157.116 258.286 156.474 257.94 155.855C252.224 146.255 252.588 142.217 259.187 133.312C260.453 131.354 260.894 128.974 260.411 126.692C259.242 122.091 260.676 117.115 265.443 116.32C270.662 115.46 276.477 115.294 281.519 116.795C299.482 122.19 316.828 148.352 313.628 165.344C312.601 169.733 310.479 173.791 307.46 177.139C304.017 181.111 299.659 180.118 294.506 177.139C287.268 172.946 279.721 169.283 272.24 165.498L269.426 168.422C270.265 169.901 271.092 171.379 271.831 172.902C275.02 179.522 275.329 185.448 270.342 191.836C267.65 195.301 266.69 200.112 265.2 204.437C265.145 204.582 265.125 204.739 265.139 204.893C265.154 205.048 265.203 205.198 265.284 205.33C265.365 205.463 265.475 205.576 265.605 205.66C265.736 205.744 265.884 205.798 266.039 205.816C268.996 206.202 271.865 206.831 274.579 206.423C277.988 205.893 281.762 204.812 284.388 202.727C291.77 196.857 298.158 196.47 305.717 202.407C313.738 208.707 328.38 208.718 336.479 202.594C339.282 200.476 342.305 198.666 345.494 196.614C345.622 196.52 345.728 196.4 345.805 196.261C345.883 196.123 345.929 195.969 345.942 195.811C345.954 195.653 345.932 195.494 345.878 195.345C345.824 195.196 345.738 195.061 345.626 194.948C342.029 191.781 338.575 189.111 335.762 185.9C330.333 179.688 325.037 173.211 324.96 164.285C324.838 148.429 342.051 137.108 356.053 144.501C366.977 150.261 375.373 159.01 379.588 171.081C382.545 179.556 381.144 187.048 375.451 192.465C375.263 192.657 375.151 192.911 375.137 193.179C375.123 193.447 375.207 193.711 375.373 193.922C379.533 198.622 383.274 202.991 387.224 207.162C388.371 208.311 389.879 209.028 391.494 209.193C395.257 209.413 399.041 209.325 403.841 209.292C404.053 209.293 404.26 209.229 404.434 209.109C404.608 208.988 404.742 208.818 404.816 208.619C404.891 208.421 404.903 208.205 404.851 208C404.799 207.794 404.685 207.61 404.525 207.471C394.506 198.743 388.879 188.714 389.872 176.003C390.898 162.696 397.11 153.383 410.605 150.867C410.788 150.833 410.958 150.75 411.099 150.627C411.239 150.504 411.343 150.346 411.4 150.168C411.458 149.991 411.467 149.802 411.426 149.62C411.385 149.438 411.296 149.27 411.167 149.135C407.449 145.24 403.885 141.798 400.818 137.947C393.48 128.711 391.042 117.986 392.355 106.368C392.98 101.695 394.989 97.3157 398.123 93.794C401.257 90.2723 405.374 87.7689 409.943 86.606C418.008 84.7744 428.149 89.7396 433.114 98.1033C434.89 101.071 436.501 104.15 438.278 107.449C438.379 107.595 438.515 107.714 438.672 107.796C438.83 107.878 439.005 107.921 439.182 107.921C439.36 107.921 439.535 107.878 439.693 107.796C439.85 107.714 439.986 107.595 440.087 107.449C440.421 106.952 440.698 106.419 440.915 105.86C443.43 98.6109 448.561 95.3669 456.119 95.7862C464.605 96.2496 472.67 98.5888 475.98 107.008C478.32 112.933 478.904 119.73 479.291 126.196C479.578 131.415 475.274 133.301 470.684 133.588C460.025 134.272 451.463 129.936 444.479 122.091C443.949 121.484 443.375 120.888 442.956 120.414C442.849 120.313 442.723 120.234 442.585 120.183C442.447 120.132 442.3 120.108 442.153 120.115C442.006 120.121 441.862 120.156 441.729 120.219C441.596 120.282 441.476 120.371 441.378 120.48C437.56 125.203 434.052 129.462 430.708 133.831C429.746 135.155 429.053 136.654 428.667 138.245C427.332 143.53 424.574 147.381 419.928 148.981C419.78 149.044 419.647 149.14 419.54 149.26C419.432 149.381 419.353 149.523 419.306 149.678C419.26 149.833 419.248 149.996 419.272 150.155C419.296 150.315 419.354 150.468 419.443 150.603C423.183 155.48 426.736 160.654 431.062 165.057C433.268 167.264 437.108 168.367 440.385 168.886C446.575 169.857 450.878 172.77 453.526 178.408C457.554 186.97 455.502 199.869 448.925 206.644C448.076 207.526 447.248 208.42 445.968 209.799C445.784 209.932 445.645 210.117 445.57 210.331C445.495 210.545 445.488 210.777 445.549 210.995C445.611 211.214 445.738 211.408 445.914 211.551C446.089 211.694 446.305 211.78 446.531 211.797ZM156.571 189.64C156.605 189.495 156.605 189.344 156.571 189.199C154.883 181.619 153.669 173.917 151.363 166.547C148.759 158.183 143.982 151 136.247 146.277C132.286 143.85 128.281 144.777 128.634 148.153C129.218 154.001 125.555 154.961 121.484 156.473C113.164 159.584 110.781 164.649 113.947 172.891C115.648 177.136 117.766 181.202 120.27 185.028C124.959 192.421 129.869 199.67 134.923 206.82C136.214 208.652 138.652 211.311 140.131 211.057C144.412 210.307 150.503 212.933 152.555 206.787C154.365 201.347 155.214 195.588 156.571 189.64ZM429.55 211.3H431.238C439.955 211.3 445.924 206.511 446.807 198.942C447.789 190.336 442.46 181.652 434.559 180.085C426.482 178.485 421.319 173.641 417.28 166.922C414.356 162.023 409.81 160.996 404.437 161.714C398.92 162.453 394.639 165.465 393.844 170.618C393.028 176.036 392.741 182.325 394.76 187.246C400.884 202.616 413.153 210.219 429.55 211.3ZM271.357 117.975C271.268 118.135 271.141 118.27 270.987 118.368C270.833 118.466 270.656 118.525 270.474 118.538C266.138 118.814 263.324 121.55 265.277 123.901C268.885 128.237 266.381 130.731 263.755 133.754C258.9 139.447 259.131 143.883 264.726 148.925C267.136 151.139 269.812 153.044 272.692 154.597C281.894 159.419 291.229 163.976 300.497 168.632C304.911 170.839 309.082 169.846 310.196 165.178C311.239 160.814 311.144 156.255 309.92 151.938C306.897 142.007 300.453 133.997 292.266 128.005C286.363 123.691 279.357 120.899 272.758 117.523C272.637 117.459 272.504 117.419 272.367 117.407C272.23 117.395 272.093 117.411 271.962 117.453C271.831 117.495 271.71 117.563 271.607 117.653C271.503 117.743 271.418 117.852 271.357 117.975ZM376.907 179.765C375.804 166.094 367.992 156.451 357.488 148.672C352.291 144.821 346.454 144.413 341.135 148.495C335.817 152.578 333.246 158.624 335.078 165.112C338.553 177.404 345.67 187.489 357.653 192.631C366.259 196.305 377.944 190.071 376.907 179.743V179.765ZM481.95 184.554C472.792 184.609 465.399 193.58 466.778 202.936C468.058 211.675 470.088 213.849 478.607 214.698C490.987 215.923 503.389 216.905 515.791 217.931C519.829 218.273 520.955 216.42 519.553 211.984C515.482 199.063 495.422 184.432 481.95 184.554ZM52.7315 183.991L52.8528 183.936C53.0651 183.848 53.2421 183.691 53.3559 183.492C53.4698 183.292 53.514 183.06 53.4818 182.833C53.1507 180.626 53.0845 178.176 52.1356 176.212C48.991 169.757 41.5541 168.4 35.9048 172.902C25.2129 181.464 25.7315 201.281 37.0082 212.216C41.1238 216.21 44.8864 219.266 51.7715 216.287C59.8373 212.801 63.0702 204.382 57.9615 197.088C55.4899 193.558 54.0114 189.365 52.2018 185.37C52.1396 185.245 52.1036 185.108 52.0962 184.969C52.0887 184.829 52.1099 184.689 52.1585 184.558C52.2071 184.426 52.282 184.307 52.3786 184.205C52.4752 184.104 52.5916 184.024 52.7204 183.969L52.7315 183.991ZM402.186 107.968C402.164 108.092 402.164 108.219 402.186 108.343C403.168 118.814 409.634 132.231 416.982 137.693C421.341 140.937 422.941 140.363 424.894 135.31C426.052 132.286 426.979 128.579 429.307 126.714C433.853 122.996 434.239 118.428 432.871 113.86C430.664 106.489 427.255 99.5157 420.524 94.9697C415.007 91.2292 408.663 92.1781 405.341 97.9157C403.543 100.862 403.146 104.58 402.186 107.968ZM191.902 162.144C191.982 161.972 192.016 161.782 192.001 161.592C190.997 148.352 185.933 140.341 176.863 135.111C171.633 132.077 165.95 133.158 162.993 137.097C158.701 142.813 158.58 149.234 163.501 153.405C168.069 157.311 169.238 162.298 170.64 167.683C171.368 170.53 174.016 173.994 176.609 174.932C179.202 175.87 184.112 175.153 185.789 173.222C188.934 169.559 190.644 164.693 191.902 162.144ZM103.973 192.432L103.344 192.211C103.124 192.145 102.933 192.007 102.801 191.819C102.669 191.631 102.603 191.404 102.616 191.174C102.616 182.226 98.2021 175.605 91.317 170.419C86.9034 167.043 80.2831 167.462 77.2267 170.905C73.5193 175.109 73.0449 181.939 76.8846 185.988C80.3396 189.537 82.4202 194.199 82.7547 199.141C83.0085 201.811 85.6235 204.845 88.0068 206.6C88.7117 207.14 89.5189 207.531 90.3795 207.749C91.2401 207.968 92.1361 208.009 93.0132 207.871C93.8902 207.733 94.7301 207.417 95.4817 206.945C96.2333 206.472 96.8811 205.852 97.3856 205.121C100.144 201.281 101.832 196.691 103.973 192.432ZM456.936 165.167C456.683 165.219 456.456 165.358 456.295 165.559C456.134 165.761 456.048 166.013 456.053 166.271C456.693 173.708 460.897 177.889 468.191 177.305C472.718 176.833 477.138 175.626 481.277 173.73C482.954 172.979 484.587 169.89 484.587 167.904C484.443 161.283 485.757 156.086 492.598 153.295C495.908 151.938 496.68 149.576 493.579 146.553C487.985 141.113 474.458 141.455 469.382 147.502C468.898 148.22 468.654 149.075 468.687 149.941C468.665 161.195 467.054 163.512 456.936 165.167ZM244.589 171.633C244.453 171.838 244.394 172.084 244.423 172.328C245.78 184.466 250.856 192.189 259.264 197.839C262.066 199.714 263.964 198.777 264.891 195.4C265.752 192.278 267.363 189.332 268.003 186.176C268.554 183.462 269.183 180.052 268.003 177.845C265.944 173.614 263.028 169.856 259.44 166.811C257.035 164.947 252.335 164.031 249.631 165.112C247.16 166.127 245.736 169.824 244.589 171.633ZM455.424 99.3281C455.267 99.2585 455.095 99.2292 454.924 99.2427C454.752 99.2562 454.587 99.3121 454.442 99.4053C451.485 101.314 448.473 102.649 446.542 104.922C443.839 108.089 445.726 111.543 447.932 114.411C453.703 121.948 461.78 124.872 470.894 125.335C474.414 125.523 475.859 123.757 474.701 120.061C473.741 117.004 473.421 113.727 472.417 110.682C471.821 108.861 470.872 106.566 469.382 105.739C465.156 103.389 460.61 101.623 455.424 99.3281ZM179.301 206.798C179.254 206.957 179.244 207.125 179.271 207.289C179.298 207.452 179.362 207.608 179.457 207.744C179.553 207.879 179.678 207.992 179.822 208.073C179.967 208.154 180.129 208.201 180.294 208.211C189.408 208.211 198.224 208.299 207.04 208.211C214.941 208.089 216.342 205.32 212.05 198.512C211.125 197.173 210.01 195.976 208.74 194.959C198.412 186.11 183.483 194.826 179.301 206.798ZM92.1887 211.212C92.0353 211.289 91.9035 211.403 91.8052 211.544C91.7069 211.685 91.6452 211.848 91.6255 212.019C91.6058 212.189 91.6288 212.362 91.6924 212.522C91.7561 212.681 91.8583 212.823 91.99 212.933C93.281 214.036 94.1968 214.93 95.0244 214.897C103.454 214.643 111.884 214.07 120.303 213.595C124.077 213.385 124.948 210.947 123.183 208.354C118.593 201.623 113.639 195.113 108.1 187.632C107.979 187.466 107.811 187.339 107.618 187.268C107.425 187.197 107.215 187.185 107.016 187.234C106.816 187.282 106.635 187.389 106.496 187.54C106.357 187.692 106.266 187.881 106.235 188.085C104.591 198.115 102.053 206.335 92.1887 211.256V211.212ZM448.296 153.836C448.499 153.809 448.706 153.84 448.892 153.924C451.816 155.358 454.641 157.135 457.719 157.995C459.926 158.602 463.104 158.657 464.593 157.433C465.447 156.56 466.09 155.504 466.472 154.345C466.855 153.186 466.967 151.955 466.8 150.746C464.924 142.614 454.2 136.567 446.145 138.531C440.771 139.845 437.682 143.342 438.223 147.502C438.862 152.214 442.173 154.674 448.296 153.88V153.836ZM506.136 167.738C506.153 167.666 506.153 167.59 506.136 167.518C505.871 164.792 506.136 162.618 505.364 160.897C503.999 158.078 502.459 155.347 500.752 152.721C500.674 152.59 500.569 152.477 500.443 152.391C500.317 152.304 500.173 152.247 500.022 152.223C499.872 152.199 499.717 152.208 499.571 152.25C499.424 152.293 499.288 152.367 499.174 152.467C497.541 153.902 495.864 155.325 494.286 156.782C488.029 162.464 486.761 167.231 490.711 174.623C492.046 177.117 495.477 179.975 497.916 179.942C500.354 179.909 503.157 176.753 504.801 174.303C506.081 172.417 505.86 169.581 506.136 167.782V167.738ZM301.424 211.51C301.594 211.497 301.758 211.446 301.904 211.36C302.05 211.274 302.174 211.155 302.267 211.013C302.36 210.871 302.419 210.71 302.439 210.541C302.46 210.373 302.441 210.202 302.384 210.042C300.685 206.059 297.22 206.202 294.318 206.544C292.41 206.776 290.655 208.365 288.857 209.601C288.649 209.764 288.507 209.997 288.457 210.256C288.406 210.515 288.45 210.784 288.581 211.013C288.675 211.162 288.805 211.285 288.959 211.37C289.114 211.455 289.287 211.499 289.464 211.499L301.424 211.51ZM359.705 202.594C359.705 202.594 355.413 205.66 361.316 207.019C366.582 208.231 374.723 212.405 375.153 207.019C375.187 206.589 375.187 206.345 375.153 205.915C374.723 200.529 359.705 202.594 359.705 202.594Z" fill="black"/>
<path d="M379.136 155.491C375.991 152.887 374.226 151.077 376.113 147.238C379.555 140.231 377.492 135.795 369.967 133.004C362.949 130.4 355.854 127.994 348.771 125.578C344.269 124.044 342.923 127.332 341.885 130.554C341.488 131.779 341.963 133.291 342.062 135.166C338.222 127.299 340.241 122.224 349.179 116.563C347.325 114.996 345.46 113.518 343.717 111.918C338.046 106.699 335.629 100.266 336.997 92.6308C339.061 81.0893 342.459 70.1989 352.224 62.4862C363.534 53.5487 376.874 56.7375 383.395 69.7024C389.155 81.1666 385.502 91.7701 380.085 101.612C376.836 107.264 372.299 112.068 366.844 115.636C363.148 118.053 357.443 117.38 350.911 118.34C353.885 120.022 356.946 121.547 360.08 122.908C364.704 124.618 369.636 125.567 374.137 127.509C381.861 130.819 383.715 137.439 380.294 145.163C379.037 147.922 379.566 151.452 379.136 155.491ZM379.665 78.695C379.743 70.243 376.742 64.9468 370.651 61.9455C365.344 59.3305 360.422 61.1401 355.854 64.6157C346.939 71.4236 342.349 80.648 339.932 91.3398C338.608 97.1657 338.984 102.319 343.949 106.214C349.201 110.329 355.104 111.068 360.952 107.869C373.023 101.27 376.686 89.3648 379.665 78.695Z" fill="black"/>
<path d="M131.811 69.2056C133.303 65.2634 135.02 61.4099 136.953 57.6641C140.175 52.0037 145.328 48.837 151.992 49.6204C159.341 50.4369 164.582 54.4202 167.065 61.5481C171.269 73.6081 169.271 84.7192 161.36 94.6497C155.987 101.369 149.488 100.641 144.809 93.4801C143.306 91.2488 141.411 89.3086 139.215 87.7536C136.225 85.5468 132.882 83.8807 129.693 81.9828L131.436 79.1361C130.719 80.2395 129.958 81.2325 129.318 82.3359C125.323 89.2542 119.509 93.6898 111.663 95.058C105.562 96.1062 102.527 93.2264 102.836 87.1357C103.065 85.5059 103.135 83.8578 103.046 82.2145C101.512 71.2358 108.817 62.508 119.851 63.468C123.999 63.821 127.883 67.2305 131.811 69.2056ZM135.784 73.895C137.125 76.7197 138.636 79.4611 140.307 82.1042C142.183 84.6972 144.964 86.6833 146.564 89.3976C148.627 92.9284 150.437 92.7078 152.897 90.1369C159.076 83.682 161.846 68.1794 158.227 60.1357C155.369 53.7802 147.579 52.1803 143.54 57.8296C140.131 62.5521 138.343 68.4222 135.784 73.895ZM126.57 72.6592C126.504 68.8746 123.183 66.2154 118.99 66.5906C109.534 67.4402 102.439 78.0437 105.584 86.926C105.834 87.3717 106.179 87.7569 106.595 88.0544C107.011 88.3518 107.487 88.5542 107.989 88.6473C114.753 89.6624 126.692 79.3899 126.57 72.6592Z" fill="black"/>
<path d="M205.01 73.7739C209.093 75.1973 213.572 75.9807 217.147 78.1875C224.717 82.8327 224.739 88.4931 219.796 95.7645C215.382 102.197 212.822 109.789 208.894 116.552C206.08 121.374 202.969 126.361 198.886 130.058C191.703 136.546 184.807 135.641 176.146 128.954C174.263 127.573 171.911 126.994 169.602 127.343C164.814 128.447 161.029 126.968 158.933 122.444C156.163 116.475 158.171 110.815 160.202 105.364C165.994 89.8724 188.327 74.6235 205.01 73.7739ZM160.069 115.438C161.173 121.264 163.81 124.265 166.811 122.191C171.092 119.2 173.431 121.529 176.3 124.066C182.093 129.274 186.495 129.131 191.858 123.36C194.107 120.974 196.059 118.326 197.673 115.471C202.715 106.401 207.493 97.1878 212.425 88.0518C214.422 84.3554 213.959 80.957 210.218 79.2247C207.324 77.7493 204.076 77.1111 200.839 77.382C187.797 79.3129 178.01 87.0036 170.309 97.0885C166.105 102.572 163.434 109.27 160.069 115.438Z" fill="black"/>
<path d="M65.3433 134.582C49.9841 134.902 40.6825 121.959 44.1913 108.508C47.5015 95.6319 65.7405 81.1555 79.0584 81.2768C83.0407 81.2001 86.9624 82.2594 90.3645 84.3308C93.7666 86.4021 96.5082 89.3998 98.2684 92.9728C100.401 96.8883 101.231 101.382 100.635 105.801C100.04 110.22 98.0514 114.334 94.9582 117.545C86.1863 126.725 76.6751 134.637 65.3433 134.582ZM62.7062 130.907C74.1262 130.345 83.5823 125.114 91.6701 117.247C97.5622 111.466 98.7539 106.357 96.0837 100.553C93.4135 94.7492 86.727 90.4019 79.897 91.2956C67.848 92.8404 57.5975 98.4235 50.3151 108.354C46.6739 113.33 47.0049 119.123 49.951 124.519C52.6322 129.385 57.3768 130.753 62.7062 130.907Z" fill="black"/>
<path d="M267.771 58.7674C280.261 59.0212 297.916 72.4274 301.491 84.4102C303.697 91.6264 300.707 102.064 295.201 106.555C287.643 112.668 278.452 113.793 270.563 109.579C261.073 104.525 252.147 98.8425 247.568 88.4596C240.286 72.0081 249.609 58.2709 267.771 58.7674ZM293.028 93.9876C294.285 82.4793 274.27 64.3065 264.748 63.6996C252.61 62.9162 245.405 72.5267 249.786 83.9578C253.89 94.5835 261.625 101.877 271.434 107.129C282.236 112.834 293.138 106.114 293.028 93.9325V93.9876Z" fill="black"/>
<path d="M299.195 59.5289C298.898 49.5984 302.793 45.0635 312.767 43.5849C314.522 43.3312 316.806 42.5588 317.699 41.2457C321.263 35.9936 325.511 35.144 330.19 39.4693C336.269 45.0966 338.278 52.5113 338.178 60.4337C338.024 73.0565 335.354 85.0062 324.584 93.105C321.947 95.0911 317.876 95.687 314.4 95.9076C310.925 96.1283 308.64 93.7891 307.647 89.9714C305.683 82.4132 303.113 75.0205 300.917 67.5174C300.122 64.8914 299.758 62.1881 299.195 59.5289ZM336.104 64.4169L335 64.1411C335.13 63.0427 335.181 61.9366 335.155 60.8309C334.526 53.8354 333.687 46.873 328.204 41.6761C326.173 39.7672 323.558 38.2004 322.278 42.1285C321.087 45.8027 318.792 46.3765 315.57 46.2662C310.384 46.0786 307.184 48.9805 307.515 53.8685C307.879 59.3855 309.446 64.9024 310.825 70.4194C312.028 75.175 313.562 79.8644 315.239 84.4876C316.11 86.915 317.037 90.3576 318.858 91.1079C320.678 91.8582 324.242 90.6665 326.295 89.2542C328.521 87.6425 330.209 85.3967 331.139 82.8104C333.136 76.7749 334.482 70.5518 336.104 64.4169Z" fill="black"/>
<path d="M122.719 129.23C123.635 134.262 121.759 137.914 117.876 141.257C115.327 143.464 113.87 146.884 111.785 149.665C108.717 153.747 105.959 158.183 102.307 161.681C96.6573 167.098 90.037 166.48 84.1339 161.361C82.1575 159.749 79.768 158.724 77.2377 158.404C72.438 157.808 69.1719 153.836 70.7167 148.473C71.8201 144.512 73.5303 140.264 76.2336 137.296C85.6897 126.902 97.4187 120.822 111.818 123.095C115.768 123.724 119.266 127.233 122.962 129.418L122.719 129.23ZM71.7207 150.625C73.5965 152.103 75.2737 154.332 76.2998 154.067C79.61 153.196 81.3975 154.564 83.2622 156.914C86.5724 161.063 90.5997 161.537 94.7705 158.249C97.079 156.494 99.1683 154.467 100.994 152.214C105.573 146.333 109.821 140.198 114.323 134.25C117.004 130.709 116.529 127.023 112.403 125.258C109.74 124.121 106.821 123.721 103.951 124.099C93.745 125.806 84.5194 131.196 78.0211 139.249C75.5164 142.206 74.1703 146.145 71.7207 150.625Z" fill="black"/>
<path d="M197.706 162.321C197.706 145.847 209.545 134.846 223.492 136.49C229.737 137.219 233.422 140.683 235.806 146.046C237.935 150.89 235.1 154.211 232.385 157.918C230.719 160.455 229.83 163.423 229.825 166.459C229.693 173.807 228.016 177.426 222.543 179.765C215.559 182.767 208.784 181.696 204.138 177.15C200.208 173.191 197.911 167.896 197.706 162.321ZM200.078 163.424C200.204 165.105 200.466 166.773 200.861 168.412C202.417 173.928 207.118 177.901 211.211 177.393C217.832 176.555 221.307 171.755 221.936 165.046C222.528 160.801 224.034 156.736 226.35 153.13C228.998 148.716 229.241 145.009 226.063 141.058C222.885 137.108 219.067 137.638 215.095 139.083C206.125 142.349 200.21 151.452 200.078 163.424Z" fill="black"/>
<path d="M122.907 129.384C121.373 126.714 119.597 124.143 118.372 121.352C116.794 117.876 115.062 114.323 114.378 110.616C112.921 102.826 115.878 95.8084 120.998 93.3037C128.126 89.7949 139.237 91.6265 145.03 97.5738C150.691 103.387 154.444 110.789 155.788 118.792C156.98 125.412 153.581 131.481 147.093 135.111C141.301 138.344 131.525 136.91 125.997 132.011C124.893 131.062 123.79 130.135 122.686 129.197L122.907 129.384ZM147.634 120.458L149.046 119.796C145.891 113.176 143.276 106.114 139.436 99.8578C136.214 94.6057 129.031 92.9616 123.757 95.1022C117.997 97.4414 117.037 102.561 117.291 107.879C117.688 116.033 121.109 123.084 126.294 129.274C129.836 133.5 134.305 134.946 139.535 132.915C142.05 132.003 144.199 130.297 145.66 128.056C147.121 125.815 147.814 123.16 147.634 120.491V120.458Z" fill="black"/>
<path d="M257.653 120.8C256.781 128.149 255.258 134.427 249.311 138.719C244.434 142.239 240.583 141.202 237.086 136.513C234.404 132.882 231.183 129.649 228.259 126.196C225.544 122.985 222.51 119.94 220.347 116.387C216.143 109.502 217.809 103.632 224.198 98.7325C226.015 97.1806 227.36 95.1509 228.082 92.8735C229.561 88.5151 234.195 85.9883 238.686 88.9233C243.43 92.0128 248.373 95.9961 251.044 100.807C254.409 106.798 255.545 114.07 257.653 120.8ZM255.369 123.007C254.332 113.529 251.86 104.724 245.858 97.4636C243.507 94.6389 239.954 92.6638 236.633 90.9094C235.751 90.435 233.323 91.8694 232.22 93.0059C230.532 94.7713 229.781 97.607 227.894 98.9531C223.955 101.756 222.609 104.989 224.684 109.303C225.896 111.943 227.442 114.416 229.285 116.663C233.345 121.352 237.637 125.832 241.996 130.234C243.794 132.055 246.31 134.99 247.976 134.648C250.304 134.206 252.566 131.481 254.056 129.197C255.181 127.487 255.005 124.971 255.369 122.952V123.007Z" fill="black"/>
<path d="M317.412 99.3062C318.439 99.7254 320.965 100.63 323.382 101.789C325.964 103.025 328.347 104.757 330.995 105.794C336.159 107.802 337.902 112.028 335.409 117.137C330.3 127.277 313.915 133.357 303.432 128.965C297.441 126.45 294.605 118.262 297.43 111.532C300.122 105.11 308.674 99.3834 317.412 99.3062ZM307.228 124C317.214 123.426 323.702 119.586 328.722 113.253C331.128 110.23 330.808 108.001 326.273 107.284C324.066 106.931 322.058 105.264 319.851 104.547C317.876 103.896 315.25 102.738 313.793 103.444C309.711 105.413 306.003 108.079 302.837 111.322C301.974 112.501 301.398 113.865 301.154 115.305C300.911 116.745 301.007 118.223 301.435 119.62C302.428 121.97 305.992 123.15 307.228 124Z" fill="black"/>
<path d="M241.576 70.4856C241.576 78.8162 234.018 85.933 228.027 82.2919C222.262 78.8919 216.766 75.0556 211.586 70.8166C205.827 65.9727 210.483 54.6851 218.207 52.6217C220.953 51.871 223.835 51.7643 226.629 52.31C229.422 52.8557 232.053 54.039 234.314 55.7678C236.576 57.4966 238.408 59.7241 239.667 62.2769C240.927 64.8298 241.58 67.6389 241.576 70.4856ZM223.095 53.5044C218.041 53.5044 214.466 55.7112 213.705 59.3524C212.789 63.6997 215.503 67.3189 220.193 69.3601C222.934 70.6036 225.382 72.4122 227.376 74.6674C229.649 77.2273 231.955 79.081 235.32 77.79C239.05 76.3887 240.352 73.211 240.098 69.3932C239.59 61.6143 230.918 53.5486 223.095 53.5044Z" fill="black"/>
<path d="M187.102 75.6054C178.761 75.6054 171.931 69.2389 174.81 62.9385C177.884 56.3865 182.115 50.4432 187.301 45.3946C189.342 43.3975 195.113 43.7616 198.544 44.9312C203.686 46.6856 205.308 51.8274 205.44 57.0685C205.488 59.499 205.047 61.9144 204.145 64.1717C203.243 66.429 201.897 68.4825 200.187 70.2107C198.477 71.9389 196.438 73.3068 194.191 74.2334C191.943 75.16 189.533 75.6265 187.102 75.6054ZM203.763 57.2781C203.763 53.008 202.881 49.102 198.015 47.9104C193.722 46.8732 190.048 49.764 187.985 54.4314C186.741 57.1783 184.92 59.6246 182.644 61.6034C180.051 63.8102 177.69 66.5797 179.665 69.3271C181.353 71.7215 185.039 73.9945 187.874 74.0386C195.642 74.2151 203.708 65.0791 203.763 57.2781Z" fill="black"/>
<path d="M52.0915 141.422C60.7641 142.184 66.0825 146.222 67.9913 153.835C69.1609 158.481 67.7817 162.188 63.8536 164.792C60.3669 167.098 57.123 166.646 53.8349 163.876C52.221 162.744 50.2892 162.153 48.3179 162.188C43.6616 162.188 40.5942 160.312 39.4908 155.678C38.2329 150.757 39.9322 146.851 44.0919 144.39C46.4311 142.934 49.3772 142.371 52.0915 141.422ZM52.5329 143.342C46.2546 143.342 41.7638 146.377 42.0507 150.249C42.4479 155.38 45.6587 157.234 50.6681 157.344C52.8197 157.344 54.872 159.341 57.0899 159.838C59.5063 160.379 63.4564 161.272 64.2729 160.18C65.7956 158.117 66.7114 154.299 65.8287 152.004C63.4674 145.935 57.796 143.96 52.5329 143.342Z" fill="black"/>
<path d="M168.62 837.462C162.066 837.462 155.49 837.793 148.947 837.407C128.457 836.171 107.978 834.715 87.4991 833.225C83.9793 832.972 79.643 833.027 80.8788 828.194C86.6495 829.562 92.1885 831.614 97.86 832.078C113.528 833.358 129.262 833.854 144.953 834.891C152.864 835.421 160.742 836.458 168.631 837.264L168.62 837.462Z" fill="black"/>
<path d="M319.862 174.292C319.387 176.356 318.913 178.43 318.405 180.494C316.463 188.383 320.48 192.697 328.336 191.417C329.98 191.152 331.834 192.123 333.4 193.436C328.91 196.415 324.441 196.658 320.767 193.282C314.599 187.61 317.114 180.758 319.862 174.292Z" fill="black"/>
<path d="M265.652 834.745C229.373 834.162 193.105 833.679 156.825 832.922C136.324 832.53 115.834 831.774 95.3332 831.145C93.1264 831.081 90.699 831.218 88.8674 830.452C87.0357 829.687 84.4538 827.983 84.2773 826.524C82.1257 809.637 80.4154 792.713 78.4514 775.808C77.1825 764.872 75.6819 753.999 74.3137 743.09C74.1481 741.742 74.3137 740.356 74.093 739.026C73.7289 736.173 74.9647 734.907 78.7051 735.025C107.062 735.936 135.423 736.796 163.787 737.604C164.891 737.604 165.994 737.732 167.098 737.741C217.511 738.051 267.914 738.607 318.328 738.561C344.512 738.561 370.695 737.513 396.878 736.839C416.283 736.34 435.681 735.733 455.071 735.016C459.485 734.852 461.074 735.927 460.654 739.573C459.33 750.946 458.238 762.356 456.98 773.703C455.667 785.55 454.266 797.343 452.897 809.154C452.18 815.287 451.584 821.43 450.591 827.527C450.354 828.166 449.947 828.753 449.399 829.245C448.851 829.738 448.176 830.122 447.425 830.37C445.134 830.913 442.757 831.168 440.374 831.127C410.7 831.819 381.034 832.479 351.375 833.104C329.572 833.533 307.769 833.788 285.966 834.207C279.202 834.335 272.438 834.727 265.674 835L265.652 834.745Z" fill="#FF6648"/>
<path d="M267 815C283.569 815 297 801.569 297 785C297 768.431 283.569 755 267 755C250.431 755 237 768.431 237 785C237 801.569 250.431 815 267 815Z" fill="white"/>
<path d="M267 790C260.962 790 256.955 789.297 252 788.333C250.868 788.115 248.667 788.333 248.667 791.667C248.667 798.333 256.325 806.667 267 806.667C277.673 806.667 285.333 798.333 285.333 791.667C285.333 788.333 283.132 788.113 282 788.333C277.045 789.297 273.038 790 267 790Z" fill="black"/>
<path d="M257 783.333C259.301 783.333 261.167 780.721 261.167 777.5C261.167 774.278 259.301 771.667 257 771.667C254.699 771.667 252.833 774.278 252.833 777.5C252.833 780.721 254.699 783.333 257 783.333Z" fill="black"/>
<path d="M277 783.333C279.301 783.333 281.167 780.721 281.167 777.5C281.167 774.278 279.301 771.667 277 771.667C274.699 771.667 272.833 774.278 272.833 777.5C272.833 780.721 274.699 783.333 277 783.333Z" fill="black"/>
</svg>
