<svg width="561" height="729" viewBox="0 0 561 729" fill="none" xmlns="http://www.w3.org/2000/svg">
<path d="M428.27 574.72C427.675 581.898 426.491 589.016 424.73 596L422 622.16C430.31 605.67 437.77 588.74 439.29 569.88C440.11 559.68 437.77 549.95 435.58 540.14C434.414 534.86 433.25 529.57 432.09 524.27L428.23 561.73C428.549 566.054 428.562 570.394 428.27 574.72Z" fill="white"/>
<path d="M462.44 313.73C462.076 314.421 461.775 315.144 461.54 315.89C458.731 328.886 454.762 341.603 449.68 353.89L448.97 360.79C454.822 346.123 459.504 331.016 462.97 315.61C463.066 315.278 463.067 314.927 462.974 314.594C462.88 314.262 462.695 313.963 462.44 313.73Z" fill="white"/>
<path d="M558.93 635C556.447 625.779 553.466 616.699 550 607.8C541.47 586.27 540.22 564.28 545 541.86C548.38 526.14 552.12 510.51 555.91 494.86C556.378 493.25 556.523 491.564 556.337 489.897C556.152 488.231 555.64 486.618 554.83 485.15C554.166 483.757 553.923 482.2 554.13 480.67C554.92 473.84 556.13 467.06 556.78 460.22C558.52 440.96 558.07 421.83 553.32 402.93C552.63 400.16 553.17 397.09 553.09 394.15C553.09 392.24 553.39 390.15 552.72 388.46C549.96 381.64 547.14 374.82 543.87 368.23C534.64 349.6 524.49 331.33 521.19 310.41C519.19 297.65 517.5 284.83 516.04 272C515.78 269.75 516.64 266.56 518.19 265.07C522.01 261.42 522.1 257.67 520.34 253.25C519.581 251.598 519.056 249.847 518.78 248.05C518.636 246.128 518.788 244.196 519.23 242.32C520.61 235.83 521.08 230.96 514.03 229.32C510.29 228.43 506.63 227.06 502.85 226.55C489.77 224.76 476.65 224.27 463.67 227.38C463.32 227.46 462.99 227.55 462.67 227.64L462.11 233.04C463.178 232.266 464.399 231.731 465.69 231.47C469.426 230.514 473.275 230.07 477.13 230.15C488.13 230.62 499.03 231.32 509.94 232.38C515.39 232.91 516.88 235.44 515.94 240.5C515.49 242.91 514.59 243.75 511.7 243.01C496.934 239.216 481.536 238.562 466.5 241.09C465.266 241.386 464.053 241.767 462.87 242.23C462.318 241.583 461.826 240.887 461.4 240.15L460.27 251.15C463.49 242.41 461.66 243.98 474.03 242.5C486.758 240.972 499.661 241.916 512.03 245.28C512.612 245.474 513.147 245.787 513.601 246.198C514.056 246.609 514.42 247.111 514.67 247.67C515.8 250.988 516.715 254.375 517.41 257.81C517.62 258.87 516.89 260.13 516.53 261.54C509.45 256.16 467.74 255.2 459.35 259.98L458.35 269.36C458.914 272.247 459.102 275.195 458.91 278.13C458.26 292.57 456.79 306.93 453.05 320.73L451 340.86C454.188 332.625 456.696 324.144 458.5 315.5C461.78 301.14 462.62 286.56 463.39 271.95C463.395 270.16 463.302 268.37 463.11 266.59C464.72 266.71 466.28 266.91 467.85 266.93C480.97 267.13 494.09 267.307 507.21 267.46C508.67 267.46 510.13 267.29 511.82 267.18C512.05 271.93 512.07 277.1 512.61 282.18C515.23 307.37 520.73 331.73 532.69 354.37C538.15 364.72 542.69 375.56 547.56 386.21C548.16 387.772 548.654 389.372 549.04 391C545.61 392.84 543.84 391.61 542.59 388.47C536.52 373.2 530.14 358.04 524.31 342.68C521 334 518.6 325 515.76 316.19C515.541 315.705 515.269 315.246 514.95 314.82L513.88 315.24C520.4 342.89 533.63 368.36 540.99 395.18C538.74 394.47 536.53 393.38 534.23 393.18C530.409 392.734 526.552 392.687 522.72 393.04C519.89 393.35 518.66 392.47 517.58 390.04C512.78 378.79 509.507 366.948 507.85 354.83C506.02 342.66 505.08 330.35 503.74 318.1C503.682 316.822 503.285 315.583 502.59 314.51C502.73 341.57 507.22 367.96 514.74 393.51H491.47C490.53 366.95 489.59 340.57 488.65 314.19L487.8 314.04C487.503 314.777 487.288 315.545 487.16 316.33C486.27 334.33 485.46 352.33 484.51 370.33C484.15 376.97 483.45 383.59 482.96 390.22C482.77 392.74 481.87 393.75 479.07 393.33C473.24 392.44 467.38 392.46 461.68 394.63C469.4 393.85 477.07 393.33 484.4 396.24C484.4 396.77 484.33 397.31 484.3 397.84L458.18 396.6C467.7 369.11 472.91 341.77 475.36 313.91L473.91 313.61C473.716 314.482 473.566 315.363 473.46 316.25C471.753 340.649 466.449 364.662 457.72 387.51C455.72 392.95 455.51 392.94 449.72 392.12C448.412 391.942 447.09 391.881 445.77 391.94L445.64 393.26C449.346 393.295 453.028 393.847 456.58 394.9C456.58 395.24 456.58 395.57 456.58 395.9C452.84 395.9 449.1 395.99 445.37 395.99L445.14 398.19C451.06 398.39 456.977 398.57 462.89 398.73C470.83 398.94 478.76 398.99 486.7 399.08C493.7 399.15 500.65 399.39 507.61 399.19C518.78 398.86 529.92 398.19 541.08 397.76C546.28 397.57 548.15 399.26 549.46 404.64C552.82 418.37 553.65 432.34 554.27 446.51C552.95 457.29 551.59 468.06 550.27 478.85C549.96 481.42 548.92 482.42 546.11 482.49C538.11 482.69 530.03 483.62 521.98 483.71C514.76 483.8 507.54 482.95 500.32 482.9C495.91 482.9 491.48 483.65 487.06 483.9C485.55 483.97 484.06 483.29 482.5 483.21C476.36 482.88 470.22 482.67 464.08 482.39L436.56 481.12L435.81 488.36L436.95 488.44C444.83 489.18 444.31 487.34 446.33 496.03C450.96 515.91 455.71 535.81 459.01 555.93C461.01 567.93 460.12 580.29 457.73 592.38C456.59 598.19 455.99 604.12 454.73 609.89C453.13 616.89 451.05 623.89 449.19 630.84C449.09 631.24 449.13 631.69 449.8 632.38C450.5 630.94 451.31 629.55 451.88 628.06C458 612.31 460.01 595.86 460.79 579.06C461.88 555.62 458.57 532.47 456.98 509.21C456.76 506.07 456.61 502.93 456.22 499.81C455.57 494.65 456.34 489.06 450.88 484.36C462.172 484.03 473.472 484.327 484.73 485.25C484.81 485.89 484.89 486.54 484.96 487.18C483.514 487.72 482.011 488.092 480.48 488.29C474.917 488.263 469.357 488.524 463.82 489.07C464.82 489.15 465.82 489.3 466.82 489.31C470.92 489.39 475.02 489.47 479.12 489.47C481.25 489.47 481.98 490.47 482.12 492.56C483.53 520.56 485.31 548.56 484.55 576.69C484.03 596.02 484.2 615.37 484.09 634.69C484.155 635.797 484.286 636.899 484.48 637.99C485.31 637.36 485.81 637.16 485.82 636.99C486.06 622.85 486.82 608.69 486.36 594.58C485.436 568.837 486.044 543.061 488.18 517.39C488.87 509.2 489.62 501.01 490.18 492.82C490.35 490.4 491.51 489.68 493.61 489.68C497.71 489.68 501.81 489.68 505.91 489.6C506.286 489.614 506.657 489.522 506.983 489.334C507.308 489.147 507.574 488.872 507.75 488.54C502.32 488.54 496.89 488.62 491.46 488.48C490.18 488.48 488.91 487.72 486.97 487.09C491.63 484.24 514.73 483.99 519.2 486.15C512.59 496.02 512.41 507.56 511.67 518.65C510.45 537.1 509.67 555.65 510.11 574.11C510.49 588.29 512.86 602.45 514.91 616.54C515.59 621.26 518.02 625.72 519.66 630.3L520.59 629.99C520.64 629.558 520.606 629.12 520.49 628.7C516.75 621.41 516.07 613.46 515.39 605.5C515.19 602.601 514.745 599.724 514.06 596.9C509.17 578.2 510.69 559.41 513.84 540.77C516.25 526.5 519.42 512.32 523.01 498.3C525.29 489.39 525.9 489.47 535.13 488.99C539.13 488.79 543.24 488.99 547.58 488.99C545.35 497.53 543.13 505.54 541.18 513.61C538.32 525.48 535.52 537.36 532.95 549.29C529.88 563.54 532.05 577.39 536.63 591.03C540.87 603.631 546.052 615.896 552.13 627.72C554.83 633 555.83 639.48 556.31 645.51C557.16 656.1 555.02 666.42 551.42 676.44C549.99 680.44 547.55 683.44 543.82 684.63C537.82 686.63 531.61 688.69 525.37 689.14C511.32 690.14 497.2 690.3 483.1 690.54C472.25 690.72 461.39 690.41 450.54 690.54C440.168 690.672 430.142 686.809 422.54 679.75C420.07 677.492 418.18 674.673 417.03 671.53L415.95 682.06C417 684.26 418.18 686.43 419.46 688.58C424.46 696.89 431.61 701.85 440.92 702.92C452.86 704.29 464.92 704.99 476.92 705.51C485.614 705.893 494.322 705.837 503.01 705.34C511.69 704.84 520.32 703.45 529.01 702.6C537.38 701.79 544.01 697.92 548.45 690.9C551.37 686.328 553.835 681.482 555.81 676.43C560.92 662.89 562.79 649.05 558.93 635ZM529.47 698.38C507.73 700.83 485.94 700.69 464.14 699.92C456.14 699.63 448.04 699.06 440.07 698.06C432.1 697.06 426.28 692.65 422.77 685.32C422.49 684.73 422.36 684.07 421.82 682.4C433.75 692.94 447.52 693.71 461.31 693.79C478.53 693.89 495.77 693.79 512.97 693.08C523.69 692.61 534.55 691.92 544.82 687.72C540.94 693.16 536.57 697.58 529.47 698.39V698.38Z" fill="white"/>
<path d="M404.69 158.69L413.69 159.69C413.826 159.69 413.96 159.663 414.085 159.609C414.21 159.556 414.322 159.478 414.416 159.38C414.509 159.281 414.582 159.165 414.629 159.038C414.676 158.911 414.697 158.775 414.69 158.64C413.83 150.22 415.28 143.12 421.24 137.25C427 131.59 433.92 130.72 442.1 131.6C442.269 131.602 442.436 131.561 442.585 131.482C442.734 131.402 442.86 131.286 442.952 131.144C443.044 131.002 443.099 130.839 443.11 130.671C443.122 130.502 443.091 130.333 443.02 130.18L440.85 126.48C440.739 126.284 440.56 126.134 440.347 126.059C440.134 125.983 439.901 125.987 439.69 126.07C436.29 127.44 433.1 129.07 429.69 129.77C417.79 132.1 412.08 128.17 409.83 116.27C409.26 113.27 408.36 111.97 405.07 112.07C397.93 112.29 394.69 109.35 394.16 102.79C393.73 97.5299 398.43 91.7899 404.28 91.0799C409.22 90.4599 414.22 90.0799 418.6 93.5799C419.4 94.2099 421.34 93.9499 422.5 93.4799C425.1 92.3999 427.5 90.7499 430.05 89.6499C438.25 86.1599 446.05 88.6499 451.12 95.8699C452.12 97.3199 454.26 98.0299 455.9 99.0299C457.54 100.03 459.28 100.56 460.5 101.8C466.56 107.96 468.1 125.73 458.5 131.8C457.111 132.63 455.679 133.388 454.21 134.07C454.072 134.152 453.956 134.265 453.871 134.401C453.786 134.537 453.735 134.691 453.723 134.851C453.71 135.011 453.736 135.172 453.798 135.319C453.86 135.467 453.957 135.597 454.08 135.7C457.68 138.2 461.27 140.57 464.64 143.24C470.46 147.85 474.17 153.72 474.87 161.38C474.99 162.68 476.81 163.89 477.99 164.98C478.4 165.36 479.34 165.11 479.9 165.41C481.33 166.16 482.74 166.96 484.15 167.76C484.296 167.865 484.41 168.007 484.481 168.172C484.552 168.337 484.578 168.517 484.556 168.695C484.533 168.873 484.463 169.042 484.353 169.183C484.243 169.325 484.097 169.434 483.93 169.5C482.633 169.906 481.289 170.144 479.93 170.21C473.93 170.26 470.62 173.21 469.85 180.21C467.71 199.59 465.68 218.97 463.63 238.36C460.83 265.027 458.04 291.693 455.26 318.36C449.927 369.573 444.594 420.783 439.26 471.99C435.36 509.1 431.26 546.19 427.37 583.3C423.28 622.24 419.37 661.19 415.25 700.13C414.67 705.56 413.68 710.96 412.58 716.31C411.75 720.37 408.63 721.64 404.8 721.95C338.51 727.19 272.11 729.01 205.63 728.09C190.16 727.88 174.7 727.09 159.23 725.94H166.03H260.03C272.96 725.94 285.9 726.37 298.8 725.82C320.03 724.93 341.24 723.39 362.46 722.15C370.24 721.7 378.04 721.41 385.83 720.92C392.57 720.5 399.33 720.07 406.05 719.29C409.23 718.92 411.17 717.1 411.51 713.35C412.92 697.69 414.69 682.08 416.23 666.44C417.23 656.06 417.99 645.65 419.1 635.29C420.6 621.29 422.41 607.35 423.94 593.37C424.94 584.15 425.59 574.88 426.57 565.66C427.66 555.46 428.95 545.29 430.11 535.1C430.66 530.33 431.11 525.54 431.58 520.76C433.29 502.76 434.87 484.82 436.72 466.88C438.28 451.74 440.18 436.64 441.83 421.51C443.19 409.01 444.37 396.51 445.68 384C447.34 368.05 448.99 352.09 450.73 336.15C452.38 321.03 454.17 305.93 455.82 290.81C457.54 275.2 459.15 259.57 460.82 243.96C462.07 232.45 463.31 220.96 464.7 209.46C466.17 197.34 468 185.25 469.28 173.11C469.72 168.98 465.99 167.48 462.75 167.11C451.32 165.94 439.86 164.96 428.39 164.32C413.27 163.48 398.12 163.13 383 162.38C363.53 161.38 344.06 160.27 324.59 159.21C323.769 159.08 322.11 159.21 322.11 159.21C322.11 159.21 298.743 161.933 292.05 161.46C285.05 160.98 278.13 160.64 271.16 160.62C232.98 160.53 194.79 160.15 156.62 160.69C134.84 161 113.09 162.92 91.3204 163.96C69.3204 164.96 47.3705 165.84 25.3905 166.86C23.0788 166.904 20.7972 167.393 18.6705 168.3C16.2005 169.45 15.0505 171.2 15.6705 174.68C17.1705 183.14 17.6705 191.76 18.6705 200.31C19.7905 210 21.0405 219.68 22.1405 229.37C23.2205 238.91 24.1405 248.47 25.2105 258.01C26.7405 271.31 28.4405 284.6 29.9405 297.9C30.9405 306.95 31.7004 316.03 32.6704 325.08C33.7804 335.45 35.0405 345.8 36.1604 356.17C37.1604 365.72 38.0404 375.29 39.1004 384.83C40.2404 395.02 41.5905 405.19 42.7205 415.37C43.7205 424.1 44.3804 432.85 45.3504 441.58C46.5104 452.09 47.9205 462.58 49.0605 473.08C50.0605 482.31 50.7304 491.57 51.6805 500.8C52.7705 511.33 54.0304 521.8 55.1704 532.37C56.1704 542.08 57.1704 551.8 58.1704 561.5C59.2804 571.69 60.5104 581.87 61.6204 592.06C62.6204 600.94 63.4204 609.84 64.3804 618.73C65.5405 629.41 66.8204 640.09 67.9604 650.73C68.8204 658.803 69.6138 666.88 70.3404 674.96C71.3404 685.96 72.3405 697.05 73.2605 708.1C73.4224 709.326 73.1614 710.572 72.5204 711.63C71.1004 698.79 69.6771 685.947 68.2505 673.1C64.1971 636.293 60.1138 599.427 56.0005 562.5C53.2905 537.99 50.7104 513.5 48.0005 488.96C40.9404 425.213 33.8571 361.46 26.7505 297.7C22.3638 258.133 17.9971 218.567 13.6505 179C12.7205 170.6 12.0305 170.05 3.71045 170.51C2.58257 170.382 1.49859 169.999 0.540452 169.39C0.374387 169.312 0.234771 169.187 0.138817 169.031C0.0428625 168.874 -0.00523558 168.693 0.000451949 168.51V168.26C0.0073478 168.049 0.0850869 167.846 0.221143 167.685C0.3572 167.523 0.54365 167.412 0.750452 167.37C4.70538 166.379 8.71131 165.605 12.7505 165.05C16.0105 164.72 19.4105 165.8 22.6605 165.46C25.3505 165.18 27.9505 164.07 31.1005 163.03C31.2398 162.984 31.3665 162.907 31.4705 162.804C31.5746 162.701 31.6531 162.574 31.6997 162.436C31.7463 162.297 31.7598 162.149 31.7391 162.004C31.7184 161.859 31.6641 161.72 31.5805 161.6C30.5805 160.17 29.6705 158.72 28.5805 157.39C17.3505 143.7 22.0805 124.34 38.3305 117.67C40.4449 116.813 42.7419 116.506 45.0073 116.776C47.2727 117.047 49.4326 117.887 51.2857 119.218C53.1388 120.549 54.6247 122.327 55.6047 124.387C56.5848 126.448 57.0271 128.723 56.8904 131C56.8279 134.573 57.7741 138.091 59.6204 141.15C64.6805 148.48 65.0405 151.05 60.4305 159.37C60.2692 159.74 60.1583 160.13 60.1004 160.53C60.0787 160.673 60.0884 160.82 60.1288 160.959C60.1692 161.098 60.2394 161.227 60.3345 161.336C60.4296 161.446 60.5474 161.533 60.6797 161.592C60.8119 161.652 60.9555 161.682 61.1004 161.68L74.2704 160.68C74.4458 160.647 74.609 160.567 74.7433 160.45C74.8776 160.332 74.978 160.181 75.0341 160.012C75.0902 159.842 75.1 159.661 75.0624 159.487C75.0248 159.312 74.9413 159.151 74.8204 159.02C69.6704 154.44 69.5904 153.68 67.8204 145.46C67.4137 143.54 66.4214 141.793 64.9805 140.46C60.4805 136.74 58.6204 132.64 61.1004 126.92C63.7204 120.92 68.2705 116.92 74.4405 117.67C78.9705 118.25 83.4404 120.52 87.5604 122.72C88.7323 123.521 89.6625 124.628 90.2505 125.92L93.5704 125.34C93.6528 124.898 93.6963 124.45 93.7004 124C93.7004 114.2 96.6404 109.83 106.03 106.54C108.81 105.54 110.42 104.68 110.73 101.26C111.2 95.9699 116.73 93.1999 122.65 95.1799C125.56 96.1799 128.18 98.1799 130.73 99.9399C132.301 101.158 133.775 102.496 135.14 103.94C135.263 104.043 135.409 104.115 135.566 104.149C135.722 104.184 135.885 104.181 136.039 104.14C136.194 104.098 136.337 104.021 136.456 103.913C136.574 103.805 136.665 103.67 136.72 103.52C136.961 102.732 137.155 101.931 137.3 101.12C139.43 88.3499 148.41 82.7499 160.52 87.2399C169.11 90.4299 174.32 97.2399 176.04 106.06C177.64 114.27 174.73 121.49 168.41 127.06C163.64 131.31 158.1 131.19 152.46 129.31C148.15 127.87 146.96 124.31 146.99 120.18C146.99 115.75 145.39 112.53 140.78 110.09C140.612 110.021 140.428 109.998 140.249 110.026C140.069 110.053 139.9 110.129 139.76 110.245C139.62 110.361 139.515 110.514 139.455 110.685C139.395 110.857 139.383 111.042 139.42 111.22C144.42 126.42 145.42 140.91 140.49 155.37C140.454 155.499 140.444 155.633 140.461 155.766C140.478 155.899 140.521 156.026 140.589 156.142C140.656 156.258 140.745 156.359 140.852 156.439C140.959 156.519 141.081 156.577 141.21 156.61C149.59 158.15 150.37 157.52 153.77 149.84C159.36 137.2 166.19 132.3 177.4 132.89C187.04 133.4 195.35 140.7 196.18 150.27C196.54 154.53 198.18 155.02 201.8 154.82C209.12 154.4 216.46 154.47 223.8 154.32C224.36 154.32 224.91 154.32 225.47 154.26L226.47 150.16C226.27 150.042 226.08 149.908 225.9 149.76C220.957 145.746 217.397 140.283 215.72 134.14C211.66 120.41 218.66 110.94 232.83 111.14C233.186 111.138 233.541 111.105 233.89 111.04C234.027 111.007 234.156 110.946 234.267 110.861C234.379 110.775 234.471 110.667 234.538 110.544C234.605 110.42 234.645 110.284 234.656 110.143C234.667 110.003 234.648 109.862 234.6 109.73C234.362 109.133 234.084 108.551 233.77 107.99C228.59 99.2899 228.92 95.6299 234.9 87.5599C236.049 85.7851 236.448 83.628 236.01 81.5599C234.95 77.3899 236.25 72.8799 240.57 72.1599C245.3 71.3799 250.57 71.2299 255.14 72.5899C271.42 77.4799 287.14 101.19 284.24 116.59C283.31 120.568 281.387 124.246 278.65 127.28C275.53 130.88 271.58 129.98 266.91 127.28C260.35 123.48 253.51 120.16 246.73 116.73L244.18 119.38C244.94 120.72 245.69 122.06 246.36 123.44C249.25 129.44 249.53 134.81 245.01 140.6C242.57 143.74 241.7 148.1 240.35 152.02C240.301 152.152 240.282 152.293 240.295 152.434C240.308 152.574 240.353 152.709 240.427 152.83C240.5 152.95 240.599 153.052 240.718 153.129C240.836 153.205 240.971 153.253 241.11 153.27C243.79 153.62 246.39 154.19 248.85 153.82C251.94 153.34 255.36 152.36 257.74 150.47C264.43 145.15 270.22 144.8 277.07 150.18C284.34 155.89 297.61 155.9 304.95 150.35C307.49 148.43 310.23 146.79 313.12 144.93C313.236 144.845 313.333 144.736 313.403 144.61C313.473 144.485 313.515 144.346 313.526 144.202C313.538 144.059 313.518 143.915 313.469 143.78C313.419 143.645 313.342 143.522 313.24 143.42C309.98 140.55 306.85 138.13 304.3 135.22C299.38 129.59 294.58 123.72 294.51 115.63C294.4 101.26 310 90.9999 322.69 97.6999C332.59 102.92 340.2 110.85 344.02 121.79C346.7 129.47 345.43 136.26 340.27 141.17C340.1 141.344 339.999 141.574 339.986 141.817C339.973 142.06 340.05 142.299 340.2 142.49C343.97 146.75 347.36 150.71 350.94 154.49C351.98 155.531 353.347 156.181 354.81 156.33C358.22 156.53 361.65 156.45 366 156.42C366.192 156.421 366.38 156.363 366.538 156.254C366.696 156.145 366.817 155.99 366.884 155.811C366.952 155.631 366.963 155.435 366.916 155.249C366.868 155.063 366.765 154.896 366.62 154.77C357.54 146.86 352.44 137.77 353.34 126.25C354.27 114.19 359.9 105.75 372.13 103.47C372.297 103.439 372.451 103.364 372.578 103.252C372.705 103.141 372.799 102.997 372.852 102.836C372.904 102.676 372.912 102.504 372.875 102.339C372.837 102.174 372.757 102.023 372.64 101.9C369.27 98.3699 366.04 95.2499 363.26 91.7599C356.61 83.3899 354.4 73.6699 355.59 63.1399C356.157 58.9049 357.978 54.9361 360.818 51.7444C363.659 48.5526 367.39 46.2839 371.53 45.2299C378.84 43.5699 388.03 48.0699 392.53 55.6499C394.14 58.3399 395.6 61.1299 397.21 64.1199C397.303 64.252 397.425 64.3598 397.568 64.4342C397.711 64.5087 397.869 64.5476 398.03 64.5476C398.191 64.5476 398.35 64.5087 398.493 64.4342C398.636 64.3598 398.758 64.252 398.85 64.1199C399.153 63.6691 399.404 63.1861 399.6 62.6799C401.88 56.1099 406.53 53.1699 413.38 53.5499C421.07 53.9699 428.38 56.0899 431.38 63.7199C433.5 69.0899 434.03 75.2499 434.38 81.1099C434.64 85.8399 430.74 87.5499 426.58 87.8099C416.92 88.4299 409.16 84.4999 402.83 77.3899C402.35 76.8399 401.83 76.2999 401.45 75.8699C401.353 75.7785 401.239 75.7074 401.114 75.6608C400.989 75.6142 400.856 75.5931 400.723 75.5987C400.59 75.6043 400.459 75.6364 400.338 75.6933C400.218 75.7502 400.11 75.8307 400.02 75.9299C396.56 80.2099 393.38 84.0699 390.35 88.0299C389.479 89.2297 388.85 90.5886 388.5 92.0299C387.29 96.8199 384.79 100.31 380.58 101.76C380.446 101.818 380.326 101.904 380.228 102.013C380.131 102.123 380.059 102.252 380.017 102.392C379.975 102.532 379.964 102.68 379.986 102.825C380.007 102.969 380.06 103.108 380.14 103.23C383.53 107.65 386.75 112.34 390.67 116.33C392.67 118.33 396.15 119.33 399.12 119.8C404.73 120.68 408.63 123.32 411.03 128.43C414.68 136.19 412.82 147.88 406.86 154.02C406.09 154.82 405.34 155.63 404.18 156.88C404.013 157 403.887 157.168 403.819 157.362C403.751 157.556 403.745 157.766 403.801 157.964C403.856 158.162 403.972 158.337 404.131 158.467C404.29 158.597 404.486 158.675 404.69 158.69ZM141.9 138.61C141.93 138.478 141.93 138.342 141.9 138.21C140.37 131.34 139.27 124.36 137.18 117.68C134.82 110.1 130.49 103.59 123.48 99.3099C119.89 97.1099 116.26 97.9499 116.58 101.01C117.11 106.31 113.79 107.18 110.1 108.55C102.56 111.37 100.4 115.96 103.27 123.43C104.811 127.277 106.731 130.962 109 134.43C113.25 141.13 117.7 147.7 122.28 154.18C123.45 155.84 125.66 158.25 127 158.02C130.88 157.34 136.4 159.72 138.26 154.15C139.9 149.22 140.67 144 141.9 138.61ZM389.3 158.24H390.83C398.73 158.24 404.14 153.9 404.94 147.04C405.83 139.24 401 131.37 393.84 129.95C386.52 128.5 381.84 124.11 378.18 118.02C375.53 113.58 371.41 112.65 366.54 113.3C361.54 113.97 357.66 116.7 356.94 121.37C356.2 126.28 355.94 131.98 357.77 136.44C363.32 150.37 374.44 157.26 389.3 158.24ZM245.93 73.6599C245.85 73.8045 245.734 73.9268 245.595 74.0158C245.455 74.1049 245.296 74.1578 245.13 74.1699C241.2 74.4199 238.65 76.8999 240.42 79.0299C243.69 82.9599 241.42 85.2199 239.04 87.9599C234.64 93.1199 234.85 97.1399 239.92 101.71C242.105 103.716 244.53 105.443 247.14 106.85C255.48 111.22 263.94 115.35 272.34 119.57C276.34 121.57 280.12 120.67 281.13 116.44C282.075 112.484 281.989 108.353 280.88 104.44C278.14 95.4399 272.3 88.1799 264.88 82.7499C259.53 78.8399 253.18 76.3099 247.2 73.2499C247.091 73.1916 246.97 73.1559 246.846 73.145C246.722 73.1341 246.597 73.1481 246.479 73.1864C246.36 73.2246 246.251 73.2862 246.157 73.3676C246.062 73.4489 245.986 73.5483 245.93 73.6599ZM341.59 129.66C340.59 117.27 333.51 108.53 323.99 101.48C319.28 97.9899 313.99 97.6199 309.17 101.32C304.35 105.02 302.02 110.5 303.68 116.38C306.83 127.52 313.28 136.66 324.14 141.32C331.94 144.65 342.53 139 341.59 129.64V129.66ZM436.79 134C428.49 134.05 421.79 142.18 423.04 150.66C424.2 158.58 426.04 160.55 433.76 161.32C444.98 162.43 456.22 163.32 467.46 164.25C471.12 164.56 472.14 162.88 470.87 158.86C467.18 147.15 449 133.89 436.79 134ZM47.7905 133.49L47.9005 133.44C48.0928 133.36 48.2532 133.218 48.3564 133.037C48.4596 132.856 48.4997 132.646 48.4705 132.44C48.1705 130.44 48.1105 128.22 47.2505 126.44C44.4005 120.59 37.6604 119.36 32.5405 123.44C22.8505 131.2 23.3204 149.16 33.5405 159.07C37.2705 162.69 40.6805 165.46 46.9204 162.76C54.2304 159.6 57.1604 151.97 52.5304 145.36C50.2904 142.16 48.9505 138.36 47.3105 134.74C47.254 134.626 47.2214 134.502 47.2147 134.376C47.2079 134.249 47.2271 134.122 47.2712 134.003C47.3152 133.884 47.3831 133.776 47.4707 133.684C47.5582 133.592 47.6637 133.519 47.7804 133.47L47.7905 133.49ZM364.5 64.5899C364.481 64.7024 364.481 64.8174 364.5 64.9299C365.39 74.4199 371.25 86.5799 377.91 91.5299C381.86 94.4699 383.31 93.9499 385.08 89.3699C386.13 86.6299 386.97 83.2699 389.08 81.5799C393.2 78.2099 393.55 74.0699 392.31 69.9299C390.31 63.2499 387.22 56.9299 381.12 52.8099C376.12 49.4199 370.37 50.2799 367.36 55.4799C365.73 58.1499 365.37 61.5199 364.5 64.5899ZM173.92 113.69C173.993 113.534 174.024 113.362 174.01 113.19C173.1 101.19 168.51 93.9299 160.29 89.1899C155.55 86.4399 150.4 87.4199 147.72 90.9899C143.83 96.1699 143.72 101.99 148.18 105.77C152.32 109.31 153.38 113.83 154.65 118.71C155.31 121.29 157.71 124.43 160.06 125.28C162.41 126.13 166.86 125.48 168.38 123.73C171.23 120.41 172.78 116 173.92 113.69ZM94.2305 141.14L93.6605 140.94C93.4611 140.88 93.2877 140.754 93.168 140.584C93.0483 140.414 92.9893 140.208 93.0005 140C93.0005 131.89 89.0005 125.89 82.7605 121.19C78.7605 118.13 72.7604 118.51 69.9904 121.63C66.6304 125.44 66.2004 131.63 69.6805 135.3C72.8117 138.516 74.6973 142.741 75.0005 147.22C75.2305 149.64 77.6004 152.39 79.7605 153.98C80.3993 154.469 81.1308 154.824 81.9108 155.022C82.6908 155.22 83.5028 155.257 84.2977 155.132C85.0926 155.007 85.8537 154.721 86.5349 154.293C87.2161 153.864 87.8032 153.302 88.2605 152.64C90.7605 149.16 92.2905 145 94.2305 141.14ZM414.12 116.43C413.891 116.477 413.686 116.602 413.539 116.785C413.393 116.968 413.316 117.196 413.32 117.43C413.9 124.17 417.71 127.96 424.32 127.43C428.424 127.003 432.43 125.908 436.18 124.19C437.7 123.51 439.18 120.71 439.18 118.91C439.05 112.91 440.24 108.2 446.44 105.67C449.44 104.44 450.14 102.3 447.33 99.5599C442.26 94.6299 430 94.9399 425.4 100.42C424.961 101.071 424.741 101.845 424.77 102.63C424.75 112.83 423.29 114.93 414.12 116.43ZM221.67 122.29C221.547 122.476 221.494 122.699 221.52 122.92C222.75 133.92 227.35 140.92 234.97 146.04C237.51 147.74 239.23 146.89 240.07 143.83C240.85 141 242.31 138.33 242.89 135.47C243.39 133.01 243.96 129.92 242.89 127.92C241.025 124.085 238.382 120.679 235.13 117.92C232.95 116.23 228.69 115.4 226.24 116.38C224 117.3 222.71 120.65 221.67 122.29ZM412.75 56.7599C412.608 56.6969 412.452 56.6703 412.297 56.6825C412.141 56.6947 411.991 56.7454 411.86 56.8299C409.18 58.5599 406.45 59.7699 404.7 61.8299C402.25 64.6999 403.96 67.8299 405.96 70.4299C411.19 77.2599 418.51 79.9099 426.77 80.3299C429.96 80.4999 431.27 78.8999 430.22 75.5499C429.35 72.7799 429.06 69.8099 428.15 67.0499C427.61 65.3999 426.75 63.3199 425.4 62.5699C421.57 60.4399 417.45 58.8399 412.75 56.7599ZM162.5 154.16C162.458 154.304 162.449 154.456 162.473 154.605C162.498 154.753 162.555 154.894 162.642 155.017C162.728 155.14 162.842 155.242 162.973 155.315C163.104 155.388 163.25 155.431 163.4 155.44C171.66 155.44 179.65 155.52 187.64 155.44C194.8 155.33 196.07 152.82 192.18 146.65C191.343 145.436 190.332 144.351 189.18 143.43C179.82 135.41 166.29 143.31 162.5 154.16ZM83.5505 158.16C83.4115 158.23 83.2921 158.334 83.203 158.461C83.1139 158.589 83.0579 158.737 83.0401 158.891C83.0222 159.046 83.0431 159.203 83.1007 159.347C83.1584 159.492 83.2511 159.62 83.3705 159.72C84.5405 160.72 85.3705 161.53 86.1205 161.5C93.7605 161.27 101.4 160.75 109.03 160.32C112.45 160.13 113.24 157.92 111.64 155.57C107.48 149.47 102.99 143.57 97.9705 136.79C97.861 136.639 97.7091 136.524 97.5342 136.46C97.3593 136.395 97.1692 136.385 96.988 136.428C96.8069 136.472 96.6429 136.569 96.5169 136.707C96.3909 136.844 96.3086 137.016 96.2804 137.2C94.7905 146.29 92.4905 153.74 83.5505 158.2V158.16ZM406.29 106.16C406.474 106.136 406.661 106.164 406.83 106.24C409.48 107.54 412.04 109.15 414.83 109.93C416.83 110.48 419.71 110.53 421.06 109.42C421.834 108.629 422.416 107.672 422.763 106.622C423.11 105.571 423.211 104.456 423.06 103.36C421.36 95.9899 411.64 90.5099 404.34 92.2899C399.47 93.4799 396.67 96.6499 397.16 100.42C397.74 104.69 400.74 106.92 406.29 106.2V106.16ZM458.71 118.76C458.725 118.694 458.725 118.626 458.71 118.56C458.47 116.09 458.71 114.12 458.01 112.56C456.774 110.005 455.378 107.53 453.83 105.15C453.76 105.031 453.665 104.928 453.55 104.85C453.436 104.772 453.306 104.721 453.17 104.699C453.033 104.677 452.893 104.685 452.76 104.723C452.627 104.762 452.504 104.829 452.4 104.92C450.92 106.22 449.4 107.51 447.97 108.83C442.3 113.98 441.15 118.3 444.73 125C445.94 127.26 449.05 129.85 451.26 129.82C453.47 129.79 456.01 126.93 457.5 124.71C458.66 123 458.46 120.43 458.71 118.8V118.76ZM273.18 158.43C273.334 158.419 273.482 158.372 273.615 158.294C273.747 158.216 273.86 158.109 273.944 157.98C274.028 157.851 274.082 157.705 274.1 157.552C274.119 157.4 274.102 157.245 274.05 157.1C272.51 153.49 269.37 153.62 266.74 153.93C265.01 154.14 263.42 155.58 261.79 156.7C261.603 156.848 261.474 157.059 261.428 157.294C261.382 157.528 261.422 157.772 261.54 157.98C261.625 158.115 261.743 158.227 261.883 158.304C262.023 158.381 262.181 158.421 262.34 158.42L273.18 158.43ZM326 150.35C326 150.35 322.11 153.129 327.46 154.36C332.233 155.458 339.611 159.242 340 154.36C340.031 153.971 340.031 153.749 340 153.36C339.611 148.478 326 150.35 326 150.35Z" fill="black"/>
<path d="M343.61 107.66C340.76 105.3 339.16 103.66 340.87 100.18C343.99 93.83 342.12 89.81 335.3 87.28C328.94 84.92 322.51 82.74 316.09 80.55C312.01 79.16 310.79 82.14 309.85 85.06C309.49 86.17 309.92 87.54 310.01 89.24C306.53 82.11 308.36 77.51 316.46 72.38C314.78 70.96 313.09 69.62 311.51 68.17C306.37 63.44 304.18 57.61 305.42 50.69C307.29 40.23 310.37 30.36 319.22 23.37C329.47 15.27 341.56 18.16 347.47 29.91C352.69 40.3 349.38 49.91 344.47 58.83C341.526 63.9517 337.415 68.3063 332.47 71.54C329.12 73.73 323.95 73.12 318.03 73.99C320.726 75.5149 323.5 76.8968 326.34 78.13C330.53 79.68 335 80.54 339.08 82.3C346.08 85.3 347.76 91.3 344.66 98.3C343.52 100.8 344 104 343.61 107.66ZM344.09 38.06C344.16 30.4 341.44 25.6 335.92 22.88C331.11 20.51 326.65 22.15 322.51 25.3C314.43 31.47 310.27 39.83 308.08 49.52C306.88 54.8 307.22 59.47 311.72 63C316.48 66.73 321.83 67.4 327.13 64.5C338.07 58.52 341.39 47.73 344.09 38.06Z" fill="black"/>
<path d="M119.46 29.46C120.813 25.8871 122.369 22.3948 124.12 19C127.04 13.87 131.71 11 137.75 11.71C144.41 12.45 149.16 16.06 151.41 22.52C155.22 33.45 153.41 43.52 146.24 52.52C141.37 58.61 135.48 57.95 131.24 51.46C129.878 49.4377 128.16 47.6793 126.17 46.27C123.46 44.27 120.43 42.76 117.54 41.04L119.12 38.46C118.47 39.46 117.78 40.36 117.2 41.36C113.58 47.63 108.31 51.65 101.2 52.89C95.6705 53.84 92.9205 51.23 93.2005 45.71C93.4076 44.2329 93.4712 42.7393 93.3905 41.25C92.0005 31.3 98.6205 23.39 108.62 24.26C112.38 24.58 115.9 27.67 119.46 29.46ZM123.06 33.71C124.277 36.27 125.646 38.7545 127.16 41.15C128.86 43.5 131.38 45.3 132.83 47.76C134.7 50.96 136.34 50.76 138.57 48.43C144.17 42.58 146.68 28.53 143.4 21.24C140.81 15.48 133.75 14.03 130.09 19.15C127 23.43 125.38 28.75 123.06 33.71ZM114.71 32.59C114.65 29.16 111.64 26.75 107.84 27.09C99.2705 27.86 92.8405 37.47 95.6905 45.52C95.9173 45.9239 96.2301 46.273 96.6068 46.5426C96.9836 46.8122 97.415 46.9956 97.8705 47.08C104 48 114.82 38.69 114.71 32.59Z" fill="black"/>
<path d="M185.8 33.6001C189.5 34.8901 193.56 35.6001 196.8 37.6001C203.66 41.8101 203.68 46.9401 199.2 53.5301C195.2 59.3601 192.88 66.2401 189.32 72.3701C186.77 76.7401 183.95 81.2601 180.25 84.6101C173.74 90.4901 167.49 89.6701 159.64 83.6101C157.935 82.3584 155.802 81.8335 153.71 82.1501C149.37 83.1501 145.94 81.8101 144.04 77.7101C141.53 72.3001 143.35 67.1701 145.19 62.2301C150.44 48.1901 170.68 34.3701 185.8 33.6001ZM145.07 71.3601C146.07 76.6401 148.46 79.3601 151.18 77.4801C155.06 74.7701 157.18 76.8801 159.78 79.1801C165.03 83.9001 169.02 83.7701 173.88 78.5401C175.919 76.3779 177.688 73.9771 179.15 71.3901C183.72 63.1701 188.05 54.8201 192.52 46.5401C194.33 43.1901 193.91 40.1101 190.52 38.5401C187.898 37.2029 184.954 36.6246 182.02 36.8701C170.2 38.6201 161.33 45.5901 154.35 54.7301C150.54 59.7001 148.12 65.7701 145.07 71.3601Z" fill="black"/>
<path d="M59.2205 88.71C45.3005 89 36.8705 77.27 40.0505 65.08C43.0505 53.41 59.5805 40.29 71.6505 40.4C75.2597 40.3305 78.8139 41.2905 81.8972 43.1678C84.9805 45.045 87.4653 47.7618 89.0605 51C90.9937 54.5486 91.7451 58.6212 91.2057 62.626C90.6662 66.6309 88.8638 70.3594 86.0605 73.27C78.1105 81.59 69.4905 88.76 59.2205 88.71ZM56.8305 85.38C67.1805 84.87 75.7505 80.13 83.0805 73C88.4205 67.76 89.5005 63.13 87.0805 57.87C84.6605 52.61 78.6005 48.67 72.4105 49.48C61.4905 50.88 52.2005 55.94 45.6005 64.94C42.3005 69.45 42.6005 74.7 45.2705 79.59C47.7005 84 52.0005 85.24 56.8305 85.38Z" fill="black"/>
<path d="M242.68 19.9999C254 20.2299 270 32.3799 273.24 43.2399C275.24 49.7799 272.531 59.2399 267.541 63.3099C260.691 68.8499 252.361 69.8699 245.211 66.0499C236.611 61.4699 228.52 56.3199 224.37 46.9099C217.77 31.9999 226.22 19.5499 242.68 19.9999ZM265.571 51.9199C266.711 41.4899 248.571 25.0199 239.941 24.4699C228.941 23.7599 222.411 32.4699 226.381 42.8299C230.101 52.4599 237.111 59.0699 246.001 63.8299C255.791 68.9999 265.671 62.9099 265.571 51.8699V51.9199Z" fill="black"/>
<path d="M271.16 20.69C270.89 11.69 274.42 7.57998 283.46 6.23998C285.05 6.00998 287.12 5.30998 287.93 4.11998C291.16 -0.640021 295.01 -1.41002 299.25 2.50998C304.76 7.60998 306.58 14.33 306.49 21.51C306.35 32.95 303.93 43.78 294.17 51.12C291.78 52.92 288.09 53.46 284.94 53.66C281.79 53.86 279.72 51.74 278.82 48.28C277.04 41.43 274.71 34.73 272.72 27.93C272 25.55 271.67 23.1 271.16 20.69ZM304.61 25.12L303.61 24.87C303.728 23.8745 303.774 22.872 303.75 21.87C303.18 15.53 302.42 9.21998 297.45 4.50998C295.61 2.77998 293.24 1.35998 292.08 4.91998C291 8.24998 288.92 8.76998 286 8.66998C281.3 8.49998 278.4 11.13 278.7 15.56C279.03 20.56 280.45 25.56 281.7 30.56C282.79 34.87 284.18 39.12 285.7 43.31C286.49 45.51 287.33 48.63 288.98 49.31C290.63 49.99 293.86 48.91 295.72 47.63C297.738 46.1693 299.268 44.1339 300.11 41.79C301.92 36.32 303.14 30.68 304.61 25.12Z" fill="black"/>
<path d="M111.22 83.86C112.05 88.42 110.35 91.73 106.83 94.76C104.52 96.76 103.2 99.86 101.31 102.38C98.5305 106.08 96.0305 110.1 92.7205 113.27C87.6005 118.18 81.6005 117.62 76.2505 112.98C74.4592 111.519 72.2937 110.59 70.0005 110.3C65.6505 109.76 62.6904 106.16 64.0904 101.3C65.0904 97.71 66.6404 93.86 69.0904 91.17C77.6604 81.75 88.2905 76.24 101.34 78.3C104.92 78.87 108.09 82.05 111.44 84.03L111.22 83.86ZM65.0005 103.25C66.7005 104.59 68.2205 106.61 69.1505 106.37C72.1505 105.58 73.7705 106.82 75.4605 108.95C78.4605 112.71 82.1105 113.14 85.8905 110.16C87.9826 108.569 89.8761 106.732 91.5305 104.69C95.6805 99.36 99.5305 93.8 103.61 88.41C106.04 85.2 105.61 81.86 101.87 80.26C99.4575 79.2295 96.8117 78.8668 94.2105 79.21C84.961 80.7569 76.5998 85.642 70.7105 92.94C68.4405 95.62 67.2205 99.19 65.0005 103.25Z" fill="black"/>
<path d="M179.18 113.85C179.18 98.9201 189.91 88.9501 202.55 90.4401C208.21 91.1001 211.55 94.2401 213.71 99.1001C215.64 103.49 213.07 106.5 210.61 109.86C209.101 112.16 208.294 114.849 208.29 117.6C208.17 124.26 206.65 127.54 201.69 129.66C195.36 132.38 189.22 131.41 185.01 127.29C181.448 123.701 179.367 118.903 179.18 113.85ZM181.33 114.85C181.444 116.374 181.682 117.885 182.04 119.37C183.45 124.37 187.71 127.97 191.42 127.51C197.42 126.75 200.57 122.4 201.14 116.32C201.677 112.473 203.042 108.788 205.14 105.52C207.54 101.52 207.76 98.1601 204.88 94.5801C202 91.0001 198.54 91.4801 194.94 92.7901C186.81 95.7501 181.45 104 181.33 114.85Z" fill="black"/>
<path d="M111.39 83.9999C110 81.5799 108.39 79.2499 107.28 76.7199C105.85 73.5699 104.28 70.3499 103.66 66.9899C102.34 59.9299 105.02 53.5699 109.66 51.2999C116.12 48.1199 126.19 49.7799 131.44 55.1699C136.571 60.4386 139.973 67.1472 141.19 74.3999C142.27 80.3999 139.19 85.8999 133.31 89.1899C128.06 92.1199 119.2 90.8199 114.19 86.3799C113.19 85.5199 112.19 84.6799 111.19 83.8299L111.39 83.9999ZM133.8 75.9099L135.08 75.3099C132.22 69.3099 129.85 62.9099 126.37 57.2399C123.45 52.4799 116.94 50.9899 112.16 52.9299C106.94 55.0499 106.07 59.6899 106.3 64.5099C106.66 71.8999 109.76 78.2899 114.46 83.8999C117.67 87.7299 121.72 89.0399 126.46 87.1999C128.739 86.3727 130.688 84.8271 132.012 82.7961C133.335 80.7651 133.963 78.3588 133.8 75.9399V75.9099Z" fill="black"/>
<path d="M233.51 76.22C232.72 82.88 231.34 88.57 225.95 92.46C221.53 95.65 218.04 94.71 214.87 90.46C212.44 87.17 209.52 84.24 206.87 81.11C204.41 78.2 201.66 75.44 199.7 72.22C195.89 65.98 197.4 60.66 203.19 56.22C204.837 54.8135 206.056 52.974 206.71 50.91C208.05 46.96 212.25 44.67 216.32 47.33C220.62 50.13 225.1 53.74 227.52 58.1C230.57 63.53 231.6 70.12 233.51 76.22ZM231.44 78.22C230.5 69.63 228.26 61.65 222.82 55.07C220.69 52.51 217.47 50.72 214.46 49.13C213.66 48.7 211.46 50 210.46 51.03C208.93 52.63 208.25 55.2 206.54 56.42C202.97 58.96 201.75 61.89 203.63 65.8C204.729 68.1925 206.131 70.4342 207.8 72.47C211.48 76.72 215.37 80.78 219.32 84.77C220.95 86.42 223.23 89.08 224.74 88.77C226.85 88.37 228.9 85.9 230.25 83.83C231.27 82.28 231.11 80 231.44 78.17V78.22Z" fill="black"/>
<path d="M287.67 56.74C288.6 57.12 290.89 57.94 293.08 58.99C295.42 60.11 297.58 61.68 299.98 62.62C304.66 64.44 306.24 68.27 303.98 72.9C299.35 82.09 284.5 87.6 275 83.62C269.57 81.34 267 73.92 269.56 67.82C272 62 279.75 56.81 287.67 56.74ZM278.44 79.12C287.49 78.6 293.37 75.12 297.92 69.38C300.1 66.64 299.81 64.62 295.7 63.97C293.7 63.65 291.88 62.14 289.88 61.49C288.09 60.9 285.71 59.85 284.39 60.49C280.691 62.2746 277.33 64.6908 274.46 67.63C273.678 68.6983 273.156 69.9343 272.936 71.2398C272.715 72.5452 272.803 73.8841 273.19 75.15C274.09 77.28 277.32 78.35 278.44 79.12Z" fill="black"/>
<path d="M218.94 30.62C218.94 38.17 212.09 44.62 206.66 41.32C201.436 38.2386 196.454 34.7618 191.76 30.92C186.54 26.53 190.76 16.3 197.76 14.43C200.249 13.7496 202.861 13.6529 205.393 14.1475C207.925 14.642 210.309 15.7145 212.359 17.2813C214.408 18.8481 216.069 20.8669 217.21 23.1805C218.352 25.4941 218.944 28.0401 218.94 30.62ZM202.19 15.23C197.61 15.23 194.37 17.23 193.68 20.53C192.85 24.47 195.31 27.75 199.56 29.6C202.045 30.727 204.263 32.3661 206.07 34.41C208.13 36.73 210.22 38.41 213.27 37.24C216.65 35.97 217.83 33.09 217.6 29.63C217.14 22.58 209.28 15.27 202.19 15.23Z" fill="black"/>
<path d="M169.57 35.26C162.01 35.26 155.82 29.49 158.43 23.78C161.216 17.8419 165.051 12.4555 169.75 7.88002C171.6 6.07002 176.83 6.40002 179.94 7.46002C184.6 9.05002 186.07 13.71 186.19 18.46C186.233 20.6628 185.834 22.8518 185.016 24.8977C184.198 26.9435 182.979 28.8046 181.429 30.3708C179.88 31.9371 178.032 33.1768 175.995 34.0166C173.958 34.8563 171.774 35.2792 169.57 35.26ZM184.67 18.65C184.67 14.78 183.87 11.24 179.46 10.16C175.57 9.22002 172.24 11.84 170.37 16.07C169.243 18.5595 167.592 20.7766 165.53 22.57C163.18 24.57 161.04 27.08 162.83 29.57C164.36 31.74 167.7 33.8 170.27 33.84C177.31 34 184.62 25.72 184.67 18.65Z" fill="black"/>
<path d="M47.2105 94.9099C55.0705 95.5999 59.8905 99.2599 61.6205 106.16C62.6805 110.37 61.4305 113.73 57.8705 116.09C54.7105 118.18 51.7705 117.77 48.7905 115.26C47.3278 114.233 45.5771 113.698 43.7905 113.73C39.5705 113.73 36.7905 112.03 35.7905 107.83C34.6505 103.37 36.1905 99.8299 39.9605 97.5999C42.0805 96.2799 44.7505 95.7699 47.2105 94.9099ZM47.6105 96.6499C41.9205 96.6499 37.8505 99.3999 38.1105 102.91C38.4705 107.56 41.3805 109.24 45.9205 109.34C47.8705 109.34 49.7305 111.15 51.7405 111.6C53.9305 112.09 57.5105 112.9 58.2505 111.91C59.6305 110.04 60.4605 106.58 59.6605 104.5C57.5205 98.9999 52.3805 97.2099 47.6105 96.6499Z" fill="black"/>
<path d="M152.82 725.73C146.88 725.73 140.92 726.03 134.99 725.68C116.42 724.56 97.8604 723.24 79.3004 721.89C76.1104 721.66 72.1804 721.71 73.3004 717.33C78.5304 718.57 83.5504 720.43 88.6904 720.85C102.89 722.01 117.15 722.46 131.37 723.4C138.54 723.88 145.68 724.82 152.83 725.55L152.82 725.73Z" fill="black"/>
<path d="M289.89 124.7C289.46 126.57 289.03 128.45 288.57 130.32C286.81 137.47 290.45 141.38 297.57 140.22C299.06 139.98 300.74 140.86 302.16 142.05C298.09 144.75 294.04 144.97 290.71 141.91C285.12 136.77 287.4 130.56 289.89 124.7Z" fill="black"/>
<path d="M240.76 721.25C207.88 720.61 175.01 720.08 142.13 719.25C123.55 718.82 104.98 717.99 86.4004 717.3C84.4004 717.23 82.2004 717.38 80.5404 716.54C78.8804 715.7 76.5404 713.83 76.3804 712.23C74.4304 693.7 72.8804 675.13 71.1004 656.58C69.9504 644.58 68.5904 632.65 67.3504 620.68C67.2004 619.2 67.3504 617.68 67.1504 616.22C66.8204 613.09 67.9404 611.7 71.3304 611.83C97.0304 612.83 122.734 613.773 148.44 614.66C149.44 614.66 150.44 614.8 151.44 614.81C197.13 615.15 242.81 615.76 288.5 615.71C312.23 615.71 335.96 614.56 359.69 613.82C377.277 613.274 394.857 612.607 412.43 611.82C416.43 611.64 417.87 612.82 417.49 616.82C416.29 629.3 415.3 641.82 414.16 654.27C412.97 667.27 411.7 680.21 410.46 693.17C409.81 699.9 409.27 706.64 408.37 713.33C408.155 714.032 407.786 714.676 407.289 715.216C406.793 715.756 406.181 716.178 405.5 716.45C403.424 717.045 401.27 717.325 399.11 717.28C372.217 718.04 345.33 718.764 318.45 719.45C298.69 719.92 278.93 720.2 259.17 720.66C253.04 720.8 246.91 721.23 240.78 721.53L240.76 721.25Z" fill="#FF6648"/>
<path d="M242 697C258.569 697 272 683.569 272 667C272 650.431 258.569 637 242 637C225.431 637 212 650.431 212 667C212 683.569 225.431 697 242 697Z" fill="white"/>
<path d="M242 672C235.962 672 231.955 671.297 227 670.333C225.868 670.115 223.667 670.333 223.667 673.667C223.667 680.333 231.325 688.667 242 688.667C252.673 688.667 260.333 680.333 260.333 673.667C260.333 670.333 258.132 670.113 257 670.333C252.045 671.297 248.038 672 242 672Z" fill="black"/>
<path d="M232 665.333C234.301 665.333 236.167 662.721 236.167 659.5C236.167 656.278 234.301 653.667 232 653.667C229.699 653.667 227.833 656.278 227.833 659.5C227.833 662.721 229.699 665.333 232 665.333Z" fill="black"/>
<path d="M252 665.333C254.301 665.333 256.167 662.721 256.167 659.5C256.167 656.278 254.301 653.667 252 653.667C249.699 653.667 247.833 656.278 247.833 659.5C247.833 662.721 249.699 665.333 252 665.333Z" fill="black"/>
</svg>
