<svg width="28" height="30" viewBox="0 0 28 30" fill="none" xmlns="http://www.w3.org/2000/svg">
<path d="M27.0284 4.19875C26.9746 3.81195 26.6963 3.49378 26.3201 3.38921L14.2625 0.0360044C14.0907 -0.0118387 13.9091 -0.0118387 13.7371 0.0360044L1.67954 3.38921C1.30333 3.49378 1.02503 3.81182 0.971172 4.19875C0.901238 4.70163 -0.694187 16.5835 3.39797 22.4943C7.48529 28.3981 13.515 29.911 13.7696 29.9726C13.8453 29.9909 13.9224 29.9999 13.9998 29.9999C14.0772 29.9999 14.1543 29.9908 14.23 29.9726C14.4848 29.911 20.5144 28.3981 24.6016 22.4943C28.6938 16.5836 27.0984 4.70176 27.0284 4.19875ZM21.7754 11.1355L13.5509 19.3599C13.3595 19.5513 13.1086 19.6471 12.8577 19.6471C12.6069 19.6471 12.3559 19.5514 12.1645 19.3599L7.07941 14.2748C6.89549 14.091 6.79222 13.8416 6.79222 13.5816C6.79222 13.3216 6.89562 13.0722 7.07941 12.8884L8.08908 11.8787C8.47196 11.496 9.09274 11.4959 9.47549 11.8787L12.8577 15.261L19.3793 8.73927C19.5631 8.55535 19.8125 8.45208 20.0725 8.45208C20.3325 8.45208 20.5819 8.55535 20.7657 8.73927L21.7754 9.74895C22.1582 10.1318 22.1582 10.7526 21.7754 11.1355Z" fill="#DBD3CA"/>
</svg>
